<?xml version="1.0" encoding="utf-8" standalone="no"?>
<!DOCTYPE svg PUBLIC "-//W3C//DTD SVG 1.1//EN"
  "http://www.w3.org/Graphics/SVG/1.1/DTD/svg11.dtd">
<!-- Created with matplotlib (https://matplotlib.org/) -->
<svg height="288pt" version="1.1" viewBox="0 0 432 288" width="432pt" xmlns="http://www.w3.org/2000/svg" xmlns:xlink="http://www.w3.org/1999/xlink">
 <metadata>
  <rdf:RDF xmlns:cc="http://creativecommons.org/ns#" xmlns:dc="http://purl.org/dc/elements/1.1/" xmlns:rdf="http://www.w3.org/1999/02/22-rdf-syntax-ns#">
   <cc:Work>
    <dc:type rdf:resource="http://purl.org/dc/dcmitype/StillImage"/>
    <dc:date>2020-10-01T14:52:26.615916</dc:date>
    <dc:format>image/svg+xml</dc:format>
    <dc:creator>
     <cc:Agent>
      <dc:title>Matplotlib v3.3.1, https://matplotlib.org/</dc:title>
     </cc:Agent>
    </dc:creator>
   </cc:Work>
  </rdf:RDF>
 </metadata>
 <defs>
  <style type="text/css">*{stroke-linecap:butt;stroke-linejoin:round;}</style>
 </defs>
 <g id="figure_1">
  <g id="patch_1">
   <path d="M 0 288 
L 432 288 
L 432 0 
L 0 0 
z
" style="fill:#ffffff;"/>
  </g>
  <g id="axes_1">
   <g id="patch_2">
    <path d="M 54 252 
L 388.8 252 
L 388.8 34.56 
L 54 34.56 
z
" style="fill:#ffffff;"/>
   </g>
   <g id="PathCollection_1">
    <path clip-path="url(#pcbe6df7143)" d="M 210.9375 184.05 
L 221.4 186.315 
L 231.8625 186.315 
L 235.35 184.05 
L 242.325 180.6525 
L 249.3 177.255 
L 252.7875 174.99 
L 263.25 174.99 
L 273.7125 172.725 
L 278.94375 170.46 
L 284.175 167.0625 
L 286.790625 163.665 
L 284.175 156.87 
L 291.15 150.075 
L 294.6375 143.28 
L 297.253125 136.485 
L 294.6375 129.69 
L 284.175 122.895 
L 278.94375 116.1 
L 273.7125 113.835 
L 263.25 109.305 
L 252.7875 104.775 
L 242.325 105.9075 
L 237.09375 102.51 
L 231.8625 100.245 
L 221.4 99.792 
L 210.9375 102.51 
L 200.475 107.60625 
L 198.980357 109.305 
L 193.5 116.1 
L 190.0125 118.365 
L 179.55 121.7625 
L 178.055357 122.895 
L 175.365 129.69 
L 169.0875 134.78625 
L 167.34375 136.485 
L 166.471875 143.28 
L 169.0875 145.545 
L 174.31875 150.075 
L 176.0625 156.87 
L 179.55 161.4 
L 183.0375 163.665 
L 190.0125 168.195 
L 193.5 170.46 
L 200.475 177.255 
L 210.9375 184.05 
z
" style="fill:#ea5f0e;fill-opacity:0.8;"/>
   </g>
   <g id="PathCollection_2">
    <path clip-path="url(#pcbe6df7143)" d="M 221.4 199.33875 
L 231.8625 201.0375 
L 237.09375 197.64 
L 242.325 192.54375 
L 244.940625 190.845 
L 252.7875 185.74875 
L 263.25 185.74875 
L 264.557813 184.05 
L 273.7125 180.08625 
L 284.175 178.3875 
L 289.40625 177.255 
L 294.6375 175.55625 
L 299.86875 170.46 
L 305.1 165.36375 
L 306.84375 163.665 
L 305.1 160.2675 
L 302.484375 156.87 
L 305.1 153.4725 
L 307.715625 150.075 
L 313.81875 143.28 
L 310.33125 136.485 
L 306.84375 129.69 
L 306.84375 122.895 
L 305.1 119.4975 
L 299.86875 116.1 
L 294.6375 114.9675 
L 285.91875 109.305 
L 284.175 108.6255 
L 274.75875 102.51 
L 273.7125 101.660625 
L 263.25 100.083214 
L 252.7875 99.1125 
L 242.325 98.263125 
L 234.478125 95.715 
L 231.8625 94.865625 
L 221.4 93.6765 
L 210.9375 94.865625 
L 209.89125 95.715 
L 200.475 100.81125 
L 197.33625 102.51 
L 192.254464 109.305 
L 190.0125 111.3435 
L 180.857812 116.1 
L 179.55 116.66625 
L 171.329464 122.895 
L 169.0875 126.2925 
L 166.845536 129.69 
L 159.496875 136.485 
L 158.625 138.18375 
L 150.778125 143.28 
L 158.625 148.37625 
L 160.36875 150.075 
L 167.779688 156.87 
L 169.0875 158.56875 
L 172.22625 163.665 
L 176.934375 170.46 
L 179.55 172.15875 
L 187.396875 177.255 
L 190.0125 178.95375 
L 197.859375 184.05 
L 200.475 187.4475 
L 202.21875 190.845 
L 210.9375 196.5075 
L 216.16875 197.64 
z
M 210.9375 184.05 
L 200.475 177.255 
L 193.5 170.46 
L 190.0125 168.195 
L 183.0375 163.665 
L 179.55 161.4 
L 176.0625 156.87 
L 174.31875 150.075 
L 169.0875 145.545 
L 166.471875 143.28 
L 167.34375 136.485 
L 169.0875 134.78625 
L 175.365 129.69 
L 178.055357 122.895 
L 179.55 121.7625 
L 190.0125 118.365 
L 193.5 116.1 
L 198.980357 109.305 
L 200.475 107.60625 
L 210.9375 102.51 
L 221.4 99.792 
L 231.8625 100.245 
L 237.09375 102.51 
L 242.325 105.9075 
L 252.7875 104.775 
L 263.25 109.305 
L 273.7125 113.835 
L 278.94375 116.1 
L 284.175 122.895 
L 294.6375 129.69 
L 297.253125 136.485 
L 294.6375 143.28 
L 291.15 150.075 
L 284.175 156.87 
L 286.790625 163.665 
L 284.175 167.0625 
L 278.94375 170.46 
L 273.7125 172.725 
L 263.25 174.99 
L 252.7875 174.99 
L 249.3 177.255 
L 242.325 180.6525 
L 235.35 184.05 
L 231.8625 186.315 
L 221.4 186.315 
L 210.9375 184.05 
z
" style="fill:#fd9649;fill-opacity:0.8;"/>
   </g>
   <g id="PathCollection_3">
    <path clip-path="url(#pcbe6df7143)" d="M 242.325 218.025 
L 247.55625 211.23 
L 252.7875 207.8325 
L 263.25 204.435 
L 273.7125 197.64 
L 278.94375 190.845 
L 284.175 188.58 
L 294.6375 185.74875 
L 305.1 185.74875 
L 308.5875 184.05 
L 315.5625 179.52 
L 320.79375 177.255 
L 315.5625 170.46 
L 326.025 167.0625 
L 331.25625 163.665 
L 336.4875 156.87 
L 329.5125 150.075 
L 331.25625 143.28 
L 331.25625 136.485 
L 336.4875 129.69 
L 326.025 122.895 
L 322.5375 116.1 
L 315.5625 109.305 
L 305.1 107.04 
L 294.6375 102.51 
L 289.40625 95.715 
L 284.175 94.356 
L 273.7125 94.01625 
L 263.25 95.715 
L 252.7875 93.45 
L 245.8125 88.92 
L 242.325 85.5225 
L 231.8625 86.655 
L 221.4 86.655 
L 210.9375 87.7875 
L 208.321875 88.92 
L 200.475 95.715 
L 190.0125 100.245 
L 184.78125 102.51 
L 179.55 104.775 
L 174.31875 109.305 
L 172.575 116.1 
L 169.0875 118.818 
L 161.240625 122.895 
L 160.119643 129.69 
L 158.625 131.049 
L 148.1625 134.78625 
L 146.07 136.485 
L 142.93125 143.28 
L 148.1625 150.075 
L 148.1625 156.87 
L 158.625 160.2675 
L 161.240625 163.665 
L 161.240625 170.46 
L 163.85625 177.255 
L 165.6 184.05 
L 169.0875 187.4475 
L 174.31875 190.845 
L 179.55 193.11 
L 190.0125 197.64 
L 190.0125 204.435 
L 200.475 207.8325 
L 210.9375 204.435 
L 221.4 211.23 
L 231.8625 211.23 
L 242.325 218.025 
z
M 216.16875 197.64 
L 210.9375 196.5075 
L 202.21875 190.845 
L 200.475 187.4475 
L 197.859375 184.05 
L 190.0125 178.95375 
L 187.396875 177.255 
L 179.55 172.15875 
L 176.934375 170.46 
L 172.22625 163.665 
L 169.0875 158.56875 
L 167.779688 156.87 
L 160.36875 150.075 
L 158.625 148.37625 
L 150.778125 143.28 
L 158.625 138.18375 
L 159.496875 136.485 
L 166.845536 129.69 
L 169.0875 126.2925 
L 171.329464 122.895 
L 179.55 116.66625 
L 180.857812 116.1 
L 190.0125 111.3435 
L 192.254464 109.305 
L 197.33625 102.51 
L 200.475 100.81125 
L 209.89125 95.715 
L 210.9375 94.865625 
L 221.4 93.6765 
L 231.8625 94.865625 
L 234.478125 95.715 
L 242.325 98.263125 
L 252.7875 99.1125 
L 263.25 100.083214 
L 273.7125 101.660625 
L 274.75875 102.51 
L 284.175 108.6255 
L 285.91875 109.305 
L 294.6375 114.9675 
L 299.86875 116.1 
L 305.1 119.4975 
L 306.84375 122.895 
L 306.84375 129.69 
L 310.33125 136.485 
L 313.81875 143.28 
L 307.715625 150.075 
L 305.1 153.4725 
L 302.484375 156.87 
L 305.1 160.2675 
L 306.84375 163.665 
L 305.1 165.36375 
L 299.86875 170.46 
L 294.6375 175.55625 
L 289.40625 177.255 
L 284.175 178.3875 
L 273.7125 180.08625 
L 264.557813 184.05 
L 263.25 185.74875 
L 252.7875 185.74875 
L 244.940625 190.845 
L 242.325 192.54375 
L 237.09375 197.64 
L 231.8625 201.0375 
L 221.4 199.33875 
z
" style="fill:#fdc895;fill-opacity:0.8;"/>
   </g>
   <g id="PathCollection_4">
    <path clip-path="url(#pcbe6df7143)" d="M 242.325 241.8075 
L 247.55625 238.41 
L 252.7875 236.71125 
L 263.25 235.0125 
L 268.48125 238.41 
L 273.7125 240.10875 
L 276.328125 238.41 
L 276.328125 231.615 
L 284.175 226.51875 
L 286.790625 224.82 
L 284.175 221.4225 
L 282.43125 218.025 
L 282.43125 211.23 
L 284.175 207.8325 
L 294.6375 207.8325 
L 296.38125 204.435 
L 299.86875 197.64 
L 305.1 194.2425 
L 315.5625 195.94125 
L 323.409375 190.845 
L 326.025 187.4475 
L 331.25625 184.05 
L 336.4875 182.9175 
L 341.71875 184.05 
L 346.95 187.4475 
L 357.4125 185.74875 
L 367.875 185.1825 
L 373.10625 184.05 
L 373.10625 177.255 
L 367.875 173.8575 
L 362.64375 170.46 
L 362.64375 163.665 
L 367.875 161.96625 
L 378.3375 160.2675 
L 383.56875 156.87 
L 378.3375 153.4725 
L 373.10625 150.075 
L 367.875 148.37625 
L 360.028125 143.28 
L 362.64375 136.485 
L 357.4125 133.0875 
L 356.104688 129.69 
L 357.4125 128.5575 
L 367.875 126.2925 
L 370.490625 122.895 
L 367.875 119.4975 
L 365.259375 116.1 
L 357.4125 112.7025 
L 346.95 112.7025 
L 336.4875 111.00375 
L 334.74375 109.305 
L 331.25625 102.51 
L 326.025 101.3775 
L 315.5625 99.1125 
L 305.1 96.8475 
L 303.792188 95.715 
L 294.6375 89.769375 
L 289.40625 88.92 
L 284.175 87.22125 
L 273.7125 85.5225 
L 263.25 87.22125 
L 258.01875 82.125 
L 254.53125 75.33 
L 252.7875 73.63125 
L 247.55625 75.33 
L 242.325 76.179375 
L 237.09375 75.33 
L 231.8625 74.1975 
L 226.63125 75.33 
L 221.4 76.4625 
L 212.68125 82.125 
L 210.9375 82.69125 
L 200.475 85.5225 
L 190.0125 87.22125 
L 187.396875 88.92 
L 179.55 92.3175 
L 169.0875 90.61875 
L 165.94875 95.715 
L 167.34375 102.51 
L 163.85625 109.305 
L 162.548438 116.1 
L 158.625 118.1385 
L 149.470313 122.895 
L 148.1625 124.59375 
L 140.315625 129.69 
L 137.7 133.0875 
L 135.95625 136.485 
L 127.2375 142.1475 
L 126.19125 143.28 
L 125.49375 150.075 
L 116.775 155.7375 
L 115.903125 156.87 
L 116.775 157.719375 
L 127.2375 159.418125 
L 137.7 162.815625 
L 140.315625 163.665 
L 148.1625 168.76125 
L 149.470313 170.46 
L 148.1625 173.8575 
L 146.854688 177.255 
L 148.1625 180.6525 
L 149.90625 184.05 
L 149.470313 190.845 
L 152.085938 197.64 
L 153.39375 204.435 
L 153.39375 211.23 
L 153.39375 218.025 
L 153.39375 224.82 
L 148.1625 228.2175 
L 145.546875 231.615 
L 148.1625 235.0125 
L 153.39375 231.615 
L 158.625 228.2175 
L 163.85625 224.82 
L 169.0875 221.4225 
L 171.703125 224.82 
L 179.55 228.2175 
L 184.78125 224.82 
L 190.0125 221.4225 
L 200.475 221.4225 
L 210.9375 223.12125 
L 221.4 223.6875 
L 223.14375 224.82 
L 230.11875 231.615 
L 231.8625 233.31375 
L 239.709375 238.41 
z
M 242.325 218.025 
L 231.8625 211.23 
L 221.4 211.23 
L 210.9375 204.435 
L 200.475 207.8325 
L 190.0125 204.435 
L 190.0125 197.64 
L 179.55 193.11 
L 174.31875 190.845 
L 169.0875 187.4475 
L 165.6 184.05 
L 163.85625 177.255 
L 161.240625 170.46 
L 161.240625 163.665 
L 158.625 160.2675 
L 148.1625 156.87 
L 148.1625 150.075 
L 142.93125 143.28 
L 146.07 136.485 
L 148.1625 134.78625 
L 158.625 131.049 
L 160.119643 129.69 
L 161.240625 122.895 
L 169.0875 118.818 
L 172.575 116.1 
L 174.31875 109.305 
L 179.55 104.775 
L 184.78125 102.51 
L 190.0125 100.245 
L 200.475 95.715 
L 208.321875 88.92 
L 210.9375 87.7875 
L 221.4 86.655 
L 231.8625 86.655 
L 242.325 85.5225 
L 245.8125 88.92 
L 252.7875 93.45 
L 263.25 95.715 
L 273.7125 94.01625 
L 284.175 94.356 
L 289.40625 95.715 
L 294.6375 102.51 
L 305.1 107.04 
L 315.5625 109.305 
L 322.5375 116.1 
L 326.025 122.895 
L 336.4875 129.69 
L 331.25625 136.485 
L 331.25625 143.28 
L 329.5125 150.075 
L 336.4875 156.87 
L 331.25625 163.665 
L 326.025 167.0625 
L 315.5625 170.46 
L 320.79375 177.255 
L 315.5625 179.52 
L 308.5875 184.05 
L 305.1 185.74875 
L 294.6375 185.74875 
L 284.175 188.58 
L 278.94375 190.845 
L 273.7125 197.64 
L 263.25 204.435 
L 252.7875 207.8325 
L 247.55625 211.23 
L 242.325 218.025 
z
" style="fill:#feead5;fill-opacity:0.8;"/>
   </g>
   <g id="PathCollection_5">
    <path clip-path="url(#pcbe6df7143)" d="M 116.775 252 
L 127.2375 252 
L 137.7 252 
L 148.1625 252 
L 155.1375 252 
L 158.625 248.6025 
L 169.0875 252 
L 179.55 252 
L 190.0125 252 
L 200.475 252 
L 210.9375 252 
L 216.16875 245.205 
L 221.4 238.41 
L 224.015625 245.205 
L 226.63125 252 
L 231.8625 252 
L 242.325 252 
L 252.7875 252 
L 263.25 252 
L 273.7125 252 
L 284.175 252 
L 294.6375 252 
L 305.1 252 
L 315.5625 252 
L 326.025 252 
L 336.4875 252 
L 336.4875 245.205 
L 336.4875 238.41 
L 336.4875 231.615 
L 341.71875 224.82 
L 336.4875 221.4225 
L 333 218.025 
L 336.4875 211.23 
L 346.95 204.435 
L 357.4125 204.435 
L 367.875 206.7 
L 378.3375 207.8325 
L 388.8 211.23 
L 388.8 204.435 
L 388.8 197.64 
L 388.8 190.845 
L 388.8 184.05 
L 388.8 177.255 
L 388.8 170.46 
L 388.8 163.665 
L 388.8 156.87 
L 388.8 150.075 
L 388.8 143.28 
L 388.8 136.485 
L 388.8 129.69 
L 388.8 122.895 
L 388.8 116.1 
L 388.8 109.305 
L 388.8 102.51 
L 388.8 100.245 
L 378.3375 100.245 
L 367.875 100.245 
L 357.4125 102.51 
L 353.925 95.715 
L 346.95 88.92 
L 357.4125 82.125 
L 357.4125 75.33 
L 346.95 75.33 
L 336.4875 78.7275 
L 326.025 77.595 
L 315.5625 82.125 
L 305.1 78.7275 
L 294.6375 78.7275 
L 289.40625 75.33 
L 287.6625 68.535 
L 287.6625 61.74 
L 287.6625 54.945 
L 284.175 48.15 
L 273.7125 54.945 
L 263.25 61.74 
L 252.7875 58.3425 
L 242.325 61.74 
L 231.8625 64.005 
L 221.4 65.1375 
L 210.9375 68.535 
L 200.475 71.9325 
L 190.0125 71.9325 
L 179.55 68.535 
L 169.0875 71.9325 
L 163.85625 75.33 
L 162.1125 82.125 
L 158.625 88.92 
L 153.39375 95.715 
L 148.1625 102.51 
L 137.7 102.51 
L 148.1625 109.305 
L 137.7 116.1 
L 127.2375 122.895 
L 116.775 126.2925 
L 111.54375 129.69 
L 116.775 136.485 
L 116.775 143.28 
L 106.3125 147.81 
L 103.696875 150.075 
L 106.3125 153.4725 
L 108.05625 156.87 
L 106.3125 163.665 
L 95.85 170.46 
L 106.3125 170.46 
L 116.775 177.255 
L 116.775 184.05 
L 127.2375 190.845 
L 127.2375 197.64 
L 127.2375 204.435 
L 127.2375 211.23 
L 137.7 218.025 
L 132.46875 224.82 
L 127.2375 231.615 
L 127.2375 238.41 
L 127.2375 245.205 
L 116.775 252 
z
M 239.709375 238.41 
L 231.8625 233.31375 
L 230.11875 231.615 
L 223.14375 224.82 
L 221.4 223.6875 
L 210.9375 223.12125 
L 200.475 221.4225 
L 190.0125 221.4225 
L 184.78125 224.82 
L 179.55 228.2175 
L 171.703125 224.82 
L 169.0875 221.4225 
L 163.85625 224.82 
L 158.625 228.2175 
L 153.39375 231.615 
L 148.1625 235.0125 
L 145.546875 231.615 
L 148.1625 228.2175 
L 153.39375 224.82 
L 153.39375 218.025 
L 153.39375 211.23 
L 153.39375 204.435 
L 152.085938 197.64 
L 149.470313 190.845 
L 149.90625 184.05 
L 148.1625 180.6525 
L 146.854688 177.255 
L 148.1625 173.8575 
L 149.470313 170.46 
L 148.1625 168.76125 
L 140.315625 163.665 
L 137.7 162.815625 
L 127.2375 159.418125 
L 116.775 157.719375 
L 115.903125 156.87 
L 116.775 155.7375 
L 125.49375 150.075 
L 126.19125 143.28 
L 127.2375 142.1475 
L 135.95625 136.485 
L 137.7 133.0875 
L 140.315625 129.69 
L 148.1625 124.59375 
L 149.470313 122.895 
L 158.625 118.1385 
L 162.548438 116.1 
L 163.85625 109.305 
L 167.34375 102.51 
L 165.94875 95.715 
L 169.0875 90.61875 
L 179.55 92.3175 
L 187.396875 88.92 
L 190.0125 87.22125 
L 200.475 85.5225 
L 210.9375 82.69125 
L 212.68125 82.125 
L 221.4 76.4625 
L 226.63125 75.33 
L 231.8625 74.1975 
L 237.09375 75.33 
L 242.325 76.179375 
L 247.55625 75.33 
L 252.7875 73.63125 
L 254.53125 75.33 
L 258.01875 82.125 
L 263.25 87.22125 
L 273.7125 85.5225 
L 284.175 87.22125 
L 289.40625 88.92 
L 294.6375 89.769375 
L 303.792188 95.715 
L 305.1 96.8475 
L 315.5625 99.1125 
L 326.025 101.3775 
L 331.25625 102.51 
L 334.74375 109.305 
L 336.4875 111.00375 
L 346.95 112.7025 
L 357.4125 112.7025 
L 365.259375 116.1 
L 367.875 119.4975 
L 370.490625 122.895 
L 367.875 126.2925 
L 357.4125 128.5575 
L 356.104688 129.69 
L 357.4125 133.0875 
L 362.64375 136.485 
L 360.028125 143.28 
L 367.875 148.37625 
L 373.10625 150.075 
L 378.3375 153.4725 
L 383.56875 156.87 
L 378.3375 160.2675 
L 367.875 161.96625 
L 362.64375 163.665 
L 362.64375 170.46 
L 367.875 173.8575 
L 373.10625 177.255 
L 373.10625 184.05 
L 367.875 185.1825 
L 357.4125 185.74875 
L 346.95 187.4475 
L 341.71875 184.05 
L 336.4875 182.9175 
L 331.25625 184.05 
L 326.025 187.4475 
L 323.409375 190.845 
L 315.5625 195.94125 
L 305.1 194.2425 
L 299.86875 197.64 
L 296.38125 204.435 
L 294.6375 207.8325 
L 284.175 207.8325 
L 282.43125 211.23 
L 282.43125 218.025 
L 284.175 221.4225 
L 286.790625 224.82 
L 284.175 226.51875 
L 276.328125 231.615 
L 276.328125 238.41 
L 273.7125 240.10875 
L 268.48125 238.41 
L 263.25 235.0125 
L 252.7875 236.71125 
L 247.55625 238.41 
L 242.325 241.8075 
z
" style="fill:#e4eff9;fill-opacity:0.8;"/>
   </g>
   <g id="PathCollection_6">
    <path clip-path="url(#pcbe6df7143)" d="M 95.85 252 
L 106.3125 252 
L 116.775 252 
L 127.2375 245.205 
L 127.2375 238.41 
L 127.2375 231.615 
L 132.46875 224.82 
L 137.7 218.025 
L 127.2375 211.23 
L 127.2375 204.435 
L 127.2375 197.64 
L 127.2375 190.845 
L 116.775 184.05 
L 116.775 177.255 
L 106.3125 170.46 
L 95.85 170.46 
L 106.3125 163.665 
L 108.05625 156.87 
L 106.3125 153.4725 
L 103.696875 150.075 
L 106.3125 147.81 
L 116.775 143.28 
L 116.775 136.485 
L 111.54375 129.69 
L 116.775 126.2925 
L 127.2375 122.895 
L 137.7 116.1 
L 148.1625 109.305 
L 137.7 102.51 
L 148.1625 102.51 
L 153.39375 95.715 
L 158.625 88.92 
L 162.1125 82.125 
L 163.85625 75.33 
L 169.0875 71.9325 
L 179.55 68.535 
L 190.0125 71.9325 
L 200.475 71.9325 
L 210.9375 68.535 
L 221.4 65.1375 
L 231.8625 64.005 
L 242.325 61.74 
L 252.7875 58.3425 
L 263.25 61.74 
L 273.7125 54.945 
L 284.175 48.15 
L 287.6625 54.945 
L 287.6625 61.74 
L 287.6625 68.535 
L 289.40625 75.33 
L 294.6375 78.7275 
L 305.1 78.7275 
L 315.5625 82.125 
L 326.025 77.595 
L 336.4875 78.7275 
L 346.95 75.33 
L 357.4125 75.33 
L 357.4125 82.125 
L 346.95 88.92 
L 353.925 95.715 
L 357.4125 102.51 
L 367.875 100.245 
L 378.3375 100.245 
L 388.8 100.245 
L 388.8 95.715 
L 388.8 88.92 
L 388.8 82.125 
L 388.8 75.33 
L 388.8 68.535 
L 388.8 65.1375 
L 383.56875 61.74 
L 388.8 58.3425 
L 388.8 54.945 
L 388.8 51.5475 
L 383.56875 48.15 
L 378.3375 47.0175 
L 375.721875 48.15 
L 378.3375 51.5475 
L 383.56875 54.945 
L 378.3375 58.3425 
L 373.10625 54.945 
L 367.875 53.24625 
L 357.4125 53.24625 
L 352.18125 54.945 
L 346.95 56.64375 
L 336.4875 60.04125 
L 326.025 60.04125 
L 318.178125 54.945 
L 326.025 49.84875 
L 327.76875 48.15 
L 327.76875 41.355 
L 328.640625 34.56 
L 326.025 34.56 
L 320.79375 34.56 
L 315.5625 37.9575 
L 310.33125 34.56 
L 305.1 34.56 
L 294.6375 34.56 
L 284.175 34.56 
L 273.7125 34.56 
L 263.25 34.56 
L 258.01875 34.56 
L 252.7875 37.9575 
L 247.55625 34.56 
L 242.325 34.56 
L 239.709375 34.56 
L 237.09375 41.355 
L 234.478125 48.15 
L 231.8625 49.84875 
L 226.63125 48.15 
L 221.4 46.45125 
L 210.9375 46.45125 
L 200.475 43.05375 
L 192.628125 48.15 
L 190.0125 51.5475 
L 184.78125 48.15 
L 179.55 44.7525 
L 169.0875 46.45125 
L 161.240625 41.355 
L 158.625 37.9575 
L 153.39375 41.355 
L 153.39375 48.15 
L 148.1625 51.5475 
L 142.93125 54.945 
L 142.93125 61.74 
L 140.315625 68.535 
L 142.93125 75.33 
L 142.93125 82.125 
L 137.7 87.22125 
L 127.2375 85.5225 
L 122.00625 88.92 
L 116.775 92.3175 
L 111.54375 95.715 
L 106.3125 99.1125 
L 101.08125 102.51 
L 106.3125 105.9075 
L 111.54375 109.305 
L 106.3125 112.7025 
L 101.08125 116.1 
L 95.85 117.2325 
L 85.3875 119.4975 
L 77.540625 122.895 
L 80.15625 129.69 
L 85.3875 133.0875 
L 87.13125 136.485 
L 85.3875 139.8825 
L 74.925 139.8825 
L 73.18125 143.28 
L 74.925 146.6775 
L 85.3875 146.6775 
L 88.003125 150.075 
L 85.3875 151.77375 
L 80.15625 156.87 
L 80.15625 163.665 
L 74.925 165.36375 
L 67.078125 170.46 
L 64.4625 172.15875 
L 56.615625 177.255 
L 54 180.6525 
L 54 184.05 
L 54 190.845 
L 54 197.64 
L 54 204.435 
L 54 211.23 
L 54 218.025 
L 54 224.82 
L 54 228.2175 
L 59.23125 224.82 
L 64.4625 221.4225 
L 74.925 223.12125 
L 82.771875 218.025 
L 85.3875 216.32625 
L 95.85 216.32625 
L 97.59375 218.025 
L 95.85 221.4225 
L 90.61875 224.82 
L 95.85 228.2175 
L 101.08125 231.615 
L 98.465625 238.41 
L 95.85 241.8075 
L 90.61875 245.205 
L 88.003125 252 
z
M 101.08125 224.82 
L 106.3125 223.6875 
L 108.928125 224.82 
L 106.3125 228.2175 
z
" style="fill:#bcd7eb;fill-opacity:0.8;"/>
    <path clip-path="url(#pcbe6df7143)" d="M 158.625 252 
L 169.0875 252 
L 158.625 248.6025 
L 155.1375 252 
z
" style="fill:#bcd7eb;fill-opacity:0.8;"/>
    <path clip-path="url(#pcbe6df7143)" d="M 221.4 252 
L 226.63125 252 
L 224.015625 245.205 
L 221.4 238.41 
L 216.16875 245.205 
L 210.9375 252 
z
" style="fill:#bcd7eb;fill-opacity:0.8;"/>
    <path clip-path="url(#pcbe6df7143)" d="M 346.95 252 
L 357.4125 252 
L 367.875 252 
L 378.3375 252 
L 386.184375 252 
L 388.8 248.6025 
L 388.8 245.205 
L 388.8 238.41 
L 388.8 235.0125 
L 383.56875 231.615 
L 388.8 228.2175 
L 388.8 224.82 
L 388.8 218.025 
L 388.8 211.23 
L 378.3375 207.8325 
L 367.875 206.7 
L 357.4125 204.435 
L 346.95 204.435 
L 336.4875 211.23 
L 333 218.025 
L 336.4875 221.4225 
L 341.71875 224.82 
L 336.4875 231.615 
L 336.4875 238.41 
L 336.4875 245.205 
L 336.4875 252 
z
" style="fill:#bcd7eb;fill-opacity:0.8;"/>
   </g>
   <g id="PathCollection_7">
    <path clip-path="url(#pcbe6df7143)" d="M 64.4625 252 
L 74.925 252 
L 85.3875 252 
L 88.003125 252 
L 90.61875 245.205 
L 95.85 241.8075 
L 98.465625 238.41 
L 101.08125 231.615 
L 95.85 228.2175 
L 90.61875 224.82 
L 95.85 221.4225 
L 97.59375 218.025 
L 95.85 216.32625 
L 85.3875 216.32625 
L 82.771875 218.025 
L 74.925 223.12125 
L 64.4625 221.4225 
L 59.23125 224.82 
L 54 228.2175 
L 54 231.615 
L 54 238.41 
L 54 245.205 
L 54 252 
z
" style="fill:#77b5d9;fill-opacity:0.8;"/>
    <path clip-path="url(#pcbe6df7143)" d="M 388.8 252 
L 388.8 248.6025 
L 386.184375 252 
z
" style="fill:#77b5d9;fill-opacity:0.8;"/>
    <path clip-path="url(#pcbe6df7143)" d="M 388.8 235.0125 
L 388.8 231.615 
L 388.8 228.2175 
L 383.56875 231.615 
z
" style="fill:#77b5d9;fill-opacity:0.8;"/>
    <path clip-path="url(#pcbe6df7143)" d="M 106.3125 228.2175 
L 108.928125 224.82 
L 106.3125 223.6875 
L 101.08125 224.82 
z
" style="fill:#77b5d9;fill-opacity:0.8;"/>
    <path clip-path="url(#pcbe6df7143)" d="M 56.615625 177.255 
L 64.4625 172.15875 
L 67.078125 170.46 
L 74.925 165.36375 
L 80.15625 163.665 
L 80.15625 156.87 
L 85.3875 151.77375 
L 88.003125 150.075 
L 85.3875 146.6775 
L 74.925 146.6775 
L 73.18125 143.28 
L 74.925 139.8825 
L 85.3875 139.8825 
L 87.13125 136.485 
L 85.3875 133.0875 
L 80.15625 129.69 
L 77.540625 122.895 
L 85.3875 119.4975 
L 95.85 117.2325 
L 101.08125 116.1 
L 106.3125 112.7025 
L 111.54375 109.305 
L 106.3125 105.9075 
L 101.08125 102.51 
L 106.3125 99.1125 
L 111.54375 95.715 
L 116.775 92.3175 
L 122.00625 88.92 
L 127.2375 85.5225 
L 137.7 87.22125 
L 142.93125 82.125 
L 142.93125 75.33 
L 140.315625 68.535 
L 142.93125 61.74 
L 142.93125 54.945 
L 148.1625 51.5475 
L 153.39375 48.15 
L 153.39375 41.355 
L 158.625 37.9575 
L 161.240625 41.355 
L 169.0875 46.45125 
L 179.55 44.7525 
L 184.78125 48.15 
L 190.0125 51.5475 
L 192.628125 48.15 
L 200.475 43.05375 
L 210.9375 46.45125 
L 221.4 46.45125 
L 226.63125 48.15 
L 231.8625 49.84875 
L 234.478125 48.15 
L 237.09375 41.355 
L 239.709375 34.56 
L 231.8625 34.56 
L 221.4 34.56 
L 210.9375 34.56 
L 200.475 34.56 
L 190.0125 34.56 
L 179.55 34.56 
L 169.0875 34.56 
L 158.625 34.56 
L 148.1625 34.56 
L 137.7 34.56 
L 127.2375 34.56 
L 116.775 34.56 
L 113.2875 34.56 
L 116.775 37.9575 
L 122.00625 41.355 
L 120.2625 48.15 
L 116.775 54.945 
L 106.3125 48.15 
L 95.85 41.355 
L 85.3875 41.355 
L 85.3875 48.15 
L 74.925 54.945 
L 64.4625 54.945 
L 69.69375 61.74 
L 64.4625 68.535 
L 54 68.535 
L 54 75.33 
L 54 82.125 
L 54 88.92 
L 54 95.715 
L 54 102.51 
L 54 109.305 
L 54 116.1 
L 54 122.895 
L 54 129.69 
L 54 136.485 
L 54 143.28 
L 54 150.075 
L 54 156.87 
L 54 163.665 
L 54 170.46 
L 54 177.255 
L 54 180.6525 
z
" style="fill:#77b5d9;fill-opacity:0.8;"/>
    <path clip-path="url(#pcbe6df7143)" d="M 388.8 65.1375 
L 388.8 61.74 
L 388.8 58.3425 
L 383.56875 61.74 
z
" style="fill:#77b5d9;fill-opacity:0.8;"/>
    <path clip-path="url(#pcbe6df7143)" d="M 326.025 60.04125 
L 336.4875 60.04125 
L 346.95 56.64375 
L 352.18125 54.945 
L 357.4125 53.24625 
L 367.875 53.24625 
L 373.10625 54.945 
L 378.3375 58.3425 
L 383.56875 54.945 
L 378.3375 51.5475 
L 375.721875 48.15 
L 378.3375 47.0175 
L 383.56875 48.15 
L 388.8 51.5475 
L 388.8 48.15 
L 388.8 41.355 
L 388.8 34.56 
L 378.3375 34.56 
L 367.875 34.56 
L 357.4125 34.56 
L 346.95 34.56 
L 336.4875 34.56 
L 328.640625 34.56 
L 327.76875 41.355 
L 327.76875 48.15 
L 326.025 49.84875 
L 318.178125 54.945 
z
" style="fill:#77b5d9;fill-opacity:0.8;"/>
    <path clip-path="url(#pcbe6df7143)" d="M 74.925 34.56 
z
" style="fill:#77b5d9;fill-opacity:0.8;"/>
    <path clip-path="url(#pcbe6df7143)" d="M 252.7875 37.9575 
L 258.01875 34.56 
L 252.7875 34.56 
L 247.55625 34.56 
z
" style="fill:#77b5d9;fill-opacity:0.8;"/>
    <path clip-path="url(#pcbe6df7143)" d="M 315.5625 37.9575 
L 320.79375 34.56 
L 315.5625 34.56 
L 310.33125 34.56 
z
" style="fill:#77b5d9;fill-opacity:0.8;"/>
   </g>
   <g id="PathCollection_8">
    <path clip-path="url(#pcbe6df7143)" d="M 64.4625 68.535 
L 69.69375 61.74 
L 64.4625 54.945 
L 74.925 54.945 
L 85.3875 48.15 
L 85.3875 41.355 
L 95.85 41.355 
L 106.3125 48.15 
L 116.775 54.945 
L 120.2625 48.15 
L 122.00625 41.355 
L 116.775 37.9575 
L 113.2875 34.56 
L 106.3125 34.56 
L 95.85 34.56 
L 85.3875 34.56 
L 74.925 34.56 
L 64.4625 34.56 
L 54 34.56 
L 54 41.355 
L 54 48.15 
L 54 54.945 
L 54 61.74 
L 54 68.535 
z
" style="fill:#3a8ac2;fill-opacity:0.8;"/>
   </g>
   <g id="PathCollection_9">
    <defs>
     <path d="M 0 3 
C 0.795609 3 1.55874 2.683901 2.12132 2.12132 
C 2.683901 1.55874 3 0.795609 3 -0 
C 3 -0.795609 2.683901 -1.55874 2.12132 -2.12132 
C 1.55874 -2.683901 0.795609 -3 0 -3 
C -0.795609 -3 -1.55874 -2.683901 -2.12132 -2.12132 
C -2.683901 -1.55874 -3 -0.795609 -3 0 
C -3 0.795609 -2.683901 1.55874 -2.12132 2.12132 
C -1.55874 2.683901 -0.795609 3 0 3 
z
" id="C0_0_4f513f2240"/>
    </defs>
    <g clip-path="url(#pcbe6df7143)">
     <use style="fill:#1e90ff;stroke:#000000;" x="161.427413" xlink:href="#C0_0_4f513f2240" y="189.908958"/>
    </g>
    <g clip-path="url(#pcbe6df7143)">
     <use style="fill:#ff8000;stroke:#000000;" x="243.481552" xlink:href="#C0_0_4f513f2240" y="146.895809"/>
    </g>
    <g clip-path="url(#pcbe6df7143)">
     <use style="fill:#ff8000;stroke:#000000;" x="239.078345" xlink:href="#C0_0_4f513f2240" y="144.669031"/>
    </g>
    <g clip-path="url(#pcbe6df7143)">
     <use style="fill:#1e90ff;stroke:#000000;" x="302.086136" xlink:href="#C0_0_4f513f2240" y="80.681034"/>
    </g>
    <g clip-path="url(#pcbe6df7143)">
     <use style="fill:#1e90ff;stroke:#000000;" x="324.204919" xlink:href="#C0_0_4f513f2240" y="151.984378"/>
    </g>
    <g clip-path="url(#pcbe6df7143)">
     <use style="fill:#ff8000;stroke:#000000;" x="224.902603" xlink:href="#C0_0_4f513f2240" y="141.199807"/>
    </g>
    <g clip-path="url(#pcbe6df7143)">
     <use style="fill:#ff8000;stroke:#000000;" x="229.007033" xlink:href="#C0_0_4f513f2240" y="141.03132"/>
    </g>
    <g clip-path="url(#pcbe6df7143)">
     <use style="fill:#ff8000;stroke:#000000;" x="229.885584" xlink:href="#C0_0_4f513f2240" y="137.335127"/>
    </g>
    <g clip-path="url(#pcbe6df7143)">
     <use style="fill:#ff8000;stroke:#000000;" x="230.443907" xlink:href="#C0_0_4f513f2240" y="143.107839"/>
    </g>
    <g clip-path="url(#pcbe6df7143)">
     <use style="fill:#ff8000;stroke:#000000;" x="223.296501" xlink:href="#C0_0_4f513f2240" y="141.898848"/>
    </g>
    <g clip-path="url(#pcbe6df7143)">
     <use style="fill:#1e90ff;stroke:#000000;" x="331.502281" xlink:href="#C0_0_4f513f2240" y="113.374229"/>
    </g>
    <g clip-path="url(#pcbe6df7143)">
     <use style="fill:#1e90ff;stroke:#000000;" x="326.00819" xlink:href="#C0_0_4f513f2240" y="135.548696"/>
    </g>
    <g clip-path="url(#pcbe6df7143)">
     <use style="fill:#ff8000;stroke:#000000;" x="231.722683" xlink:href="#C0_0_4f513f2240" y="140.096458"/>
    </g>
    <g clip-path="url(#pcbe6df7143)">
     <use style="fill:#1e90ff;stroke:#000000;" x="317.098006" xlink:href="#C0_0_4f513f2240" y="187.27358"/>
    </g>
    <g clip-path="url(#pcbe6df7143)">
     <use style="fill:#1e90ff;stroke:#000000;" x="211.503177" xlink:href="#C0_0_4f513f2240" y="79.510473"/>
    </g>
    <g clip-path="url(#pcbe6df7143)">
     <use style="fill:#1e90ff;stroke:#000000;" x="332.053757" xlink:href="#C0_0_4f513f2240" y="123.95299"/>
    </g>
    <g clip-path="url(#pcbe6df7143)">
     <use style="fill:#ff8000;stroke:#000000;" x="230.502361" xlink:href="#C0_0_4f513f2240" y="140.22233"/>
    </g>
    <g clip-path="url(#pcbe6df7143)">
     <use style="fill:#1e90ff;stroke:#000000;" x="318.463213" xlink:href="#C0_0_4f513f2240" y="110.168334"/>
    </g>
    <g clip-path="url(#pcbe6df7143)">
     <use style="fill:#ff8000;stroke:#000000;" x="213.74217" xlink:href="#C0_0_4f513f2240" y="139.838775"/>
    </g>
    <g clip-path="url(#pcbe6df7143)">
     <use style="fill:#ff8000;stroke:#000000;" x="224.438813" xlink:href="#C0_0_4f513f2240" y="128.985431"/>
    </g>
    <g clip-path="url(#pcbe6df7143)">
     <use style="fill:#ff8000;stroke:#000000;" x="227.467988" xlink:href="#C0_0_4f513f2240" y="138.441066"/>
    </g>
    <g clip-path="url(#pcbe6df7143)">
     <use style="fill:#1e90ff;stroke:#000000;" x="315.9239" xlink:href="#C0_0_4f513f2240" y="136.222211"/>
    </g>
    <g clip-path="url(#pcbe6df7143)">
     <use style="fill:#ff8000;stroke:#000000;" x="239.101593" xlink:href="#C0_0_4f513f2240" y="141.745142"/>
    </g>
    <g clip-path="url(#pcbe6df7143)">
     <use style="fill:#1e90ff;stroke:#000000;" x="116.493083" xlink:href="#C0_0_4f513f2240" y="161.868655"/>
    </g>
    <g clip-path="url(#pcbe6df7143)">
     <use style="fill:#ff8000;stroke:#000000;" x="230.735932" xlink:href="#C0_0_4f513f2240" y="139.823316"/>
    </g>
    <g clip-path="url(#pcbe6df7143)">
     <use style="fill:#1e90ff;stroke:#000000;" x="141.113758" xlink:href="#C0_0_4f513f2240" y="138.104779"/>
    </g>
    <g clip-path="url(#pcbe6df7143)">
     <use style="fill:#1e90ff;stroke:#000000;" x="328.090519" xlink:href="#C0_0_4f513f2240" y="150.098419"/>
    </g>
    <g clip-path="url(#pcbe6df7143)">
     <use style="fill:#ff8000;stroke:#000000;" x="240.957843" xlink:href="#C0_0_4f513f2240" y="139.735471"/>
    </g>
    <g clip-path="url(#pcbe6df7143)">
     <use style="fill:#1e90ff;stroke:#000000;" x="209.71452" xlink:href="#C0_0_4f513f2240" y="211.15015"/>
    </g>
    <g clip-path="url(#pcbe6df7143)">
     <use style="fill:#ff8000;stroke:#000000;" x="220.377606" xlink:href="#C0_0_4f513f2240" y="137.974324"/>
    </g>
    <g clip-path="url(#pcbe6df7143)">
     <use style="fill:#1e90ff;stroke:#000000;" x="127.477384" xlink:href="#C0_0_4f513f2240" y="117.642431"/>
    </g>
    <g clip-path="url(#pcbe6df7143)">
     <use style="fill:#ff8000;stroke:#000000;" x="242.767667" xlink:href="#C0_0_4f513f2240" y="138.36756"/>
    </g>
    <g clip-path="url(#pcbe6df7143)">
     <use style="fill:#ff8000;stroke:#000000;" x="221.272415" xlink:href="#C0_0_4f513f2240" y="149.188017"/>
    </g>
    <g clip-path="url(#pcbe6df7143)">
     <use style="fill:#1e90ff;stroke:#000000;" x="143.901541" xlink:href="#C0_0_4f513f2240" y="186.045556"/>
    </g>
    <g clip-path="url(#pcbe6df7143)">
     <use style="fill:#1e90ff;stroke:#000000;" x="141.964993" xlink:href="#C0_0_4f513f2240" y="93.217606"/>
    </g>
    <g clip-path="url(#pcbe6df7143)">
     <use style="fill:#ff8000;stroke:#000000;" x="228.110783" xlink:href="#C0_0_4f513f2240" y="137.601998"/>
    </g>
    <g clip-path="url(#pcbe6df7143)">
     <use style="fill:#1e90ff;stroke:#000000;" x="185.843594" xlink:href="#C0_0_4f513f2240" y="79.273277"/>
    </g>
    <g clip-path="url(#pcbe6df7143)">
     <use style="fill:#1e90ff;stroke:#000000;" x="214.198244" xlink:href="#C0_0_4f513f2240" y="206.681992"/>
    </g>
    <g clip-path="url(#pcbe6df7143)">
     <use style="fill:#1e90ff;stroke:#000000;" x="139.947699" xlink:href="#C0_0_4f513f2240" y="130.913354"/>
    </g>
    <g clip-path="url(#pcbe6df7143)">
     <use style="fill:#ff8000;stroke:#000000;" x="231.418955" xlink:href="#C0_0_4f513f2240" y="139.466571"/>
    </g>
    <g clip-path="url(#pcbe6df7143)">
     <use style="fill:#ff8000;stroke:#000000;" x="231.453514" xlink:href="#C0_0_4f513f2240" y="140.685877"/>
    </g>
    <g clip-path="url(#pcbe6df7143)">
     <use style="fill:#ff8000;stroke:#000000;" x="225.778912" xlink:href="#C0_0_4f513f2240" y="147.467021"/>
    </g>
    <g clip-path="url(#pcbe6df7143)">
     <use style="fill:#1e90ff;stroke:#000000;" x="246.627658" xlink:href="#C0_0_4f513f2240" y="73.467893"/>
    </g>
    <g clip-path="url(#pcbe6df7143)">
     <use style="fill:#1e90ff;stroke:#000000;" x="328.664978" xlink:href="#C0_0_4f513f2240" y="133.675781"/>
    </g>
    <g clip-path="url(#pcbe6df7143)">
     <use style="fill:#ff8000;stroke:#000000;" x="225.71039" xlink:href="#C0_0_4f513f2240" y="133.371953"/>
    </g>
    <g clip-path="url(#pcbe6df7143)">
     <use style="fill:#1e90ff;stroke:#000000;" x="190.51713" xlink:href="#C0_0_4f513f2240" y="204.185586"/>
    </g>
    <g clip-path="url(#pcbe6df7143)">
     <use style="fill:#ff8000;stroke:#000000;" x="232.162778" xlink:href="#C0_0_4f513f2240" y="142.302298"/>
    </g>
    <g clip-path="url(#pcbe6df7143)">
     <use style="fill:#1e90ff;stroke:#000000;" x="256.48764" xlink:href="#C0_0_4f513f2240" y="196.584246"/>
    </g>
    <g clip-path="url(#pcbe6df7143)">
     <use style="fill:#ff8000;stroke:#000000;" x="228.466224" xlink:href="#C0_0_4f513f2240" y="140.521109"/>
    </g>
    <g clip-path="url(#pcbe6df7143)">
     <use style="fill:#1e90ff;stroke:#000000;" x="165.015182" xlink:href="#C0_0_4f513f2240" y="196.647429"/>
    </g>
    <g clip-path="url(#pcbe6df7143)">
     <use style="fill:#1e90ff;stroke:#000000;" x="176.129888" xlink:href="#C0_0_4f513f2240" y="203.610531"/>
    </g>
    <g clip-path="url(#pcbe6df7143)">
     <use style="fill:#1e90ff;stroke:#000000;" x="143.592686" xlink:href="#C0_0_4f513f2240" y="114.547327"/>
    </g>
    <g clip-path="url(#pcbe6df7143)">
     <use style="fill:#1e90ff;stroke:#000000;" x="273.173678" xlink:href="#C0_0_4f513f2240" y="198.111174"/>
    </g>
    <g clip-path="url(#pcbe6df7143)">
     <use style="fill:#1e90ff;stroke:#000000;" x="148.42942" xlink:href="#C0_0_4f513f2240" y="181.554109"/>
    </g>
    <g clip-path="url(#pcbe6df7143)">
     <use style="fill:#1e90ff;stroke:#000000;" x="129.23781" xlink:href="#C0_0_4f513f2240" y="107.973747"/>
    </g>
    <g clip-path="url(#pcbe6df7143)">
     <use style="fill:#ff8000;stroke:#000000;" x="228.43684" xlink:href="#C0_0_4f513f2240" y="142.505216"/>
    </g>
    <g clip-path="url(#pcbe6df7143)">
     <use style="fill:#1e90ff;stroke:#000000;" x="106.3125" xlink:href="#C0_0_4f513f2240" y="166.06669"/>
    </g>
    <g clip-path="url(#pcbe6df7143)">
     <use style="fill:#1e90ff;stroke:#000000;" x="179.380258" xlink:href="#C0_0_4f513f2240" y="78.782737"/>
    </g>
    <g clip-path="url(#pcbe6df7143)">
     <use style="fill:#1e90ff;stroke:#000000;" x="133.743398" xlink:href="#C0_0_4f513f2240" y="179.151097"/>
    </g>
    <g clip-path="url(#pcbe6df7143)">
     <use style="fill:#1e90ff;stroke:#000000;" x="319.143964" xlink:href="#C0_0_4f513f2240" y="164.396784"/>
    </g>
    <g clip-path="url(#pcbe6df7143)">
     <use style="fill:#1e90ff;stroke:#000000;" x="224.768391" xlink:href="#C0_0_4f513f2240" y="203.086196"/>
    </g>
    <g clip-path="url(#pcbe6df7143)">
     <use style="fill:#ff8000;stroke:#000000;" x="220.990994" xlink:href="#C0_0_4f513f2240" y="139.570874"/>
    </g>
    <g clip-path="url(#pcbe6df7143)">
     <use style="fill:#ff8000;stroke:#000000;" x="229.546521" xlink:href="#C0_0_4f513f2240" y="140.854186"/>
    </g>
    <g clip-path="url(#pcbe6df7143)">
     <use style="fill:#ff8000;stroke:#000000;" x="224.198712" xlink:href="#C0_0_4f513f2240" y="134.901206"/>
    </g>
    <g clip-path="url(#pcbe6df7143)">
     <use style="fill:#1e90ff;stroke:#000000;" x="132.311253" xlink:href="#C0_0_4f513f2240" y="155.932378"/>
    </g>
    <g clip-path="url(#pcbe6df7143)">
     <use style="fill:#ff8000;stroke:#000000;" x="231.352027" xlink:href="#C0_0_4f513f2240" y="140.228722"/>
    </g>
    <g clip-path="url(#pcbe6df7143)">
     <use style="fill:#ff8000;stroke:#000000;" x="230.964137" xlink:href="#C0_0_4f513f2240" y="140.716716"/>
    </g>
    <g clip-path="url(#pcbe6df7143)">
     <use style="fill:#1e90ff;stroke:#000000;" x="315.130484" xlink:href="#C0_0_4f513f2240" y="111.408336"/>
    </g>
    <g clip-path="url(#pcbe6df7143)">
     <use style="fill:#1e90ff;stroke:#000000;" x="187.205937" xlink:href="#C0_0_4f513f2240" y="82.50858"/>
    </g>
    <g clip-path="url(#pcbe6df7143)">
     <use style="fill:#ff8000;stroke:#000000;" x="228.376354" xlink:href="#C0_0_4f513f2240" y="148.388891"/>
    </g>
    <g clip-path="url(#pcbe6df7143)">
     <use style="fill:#ff8000;stroke:#000000;" x="222.238108" xlink:href="#C0_0_4f513f2240" y="145.370504"/>
    </g>
    <g clip-path="url(#pcbe6df7143)">
     <use style="fill:#ff8000;stroke:#000000;" x="231.826554" xlink:href="#C0_0_4f513f2240" y="141.111753"/>
    </g>
    <g clip-path="url(#pcbe6df7143)">
     <use style="fill:#ff8000;stroke:#000000;" x="227.96009" xlink:href="#C0_0_4f513f2240" y="145.047684"/>
    </g>
    <g clip-path="url(#pcbe6df7143)">
     <use style="fill:#ff8000;stroke:#000000;" x="230.952785" xlink:href="#C0_0_4f513f2240" y="139.42954"/>
    </g>
    <g clip-path="url(#pcbe6df7143)">
     <use style="fill:#1e90ff;stroke:#000000;" x="165.610303" xlink:href="#C0_0_4f513f2240" y="73.058713"/>
    </g>
    <g clip-path="url(#pcbe6df7143)">
     <use style="fill:#1e90ff;stroke:#000000;" x="149.307101" xlink:href="#C0_0_4f513f2240" y="106.867116"/>
    </g>
    <g clip-path="url(#pcbe6df7143)">
     <use style="fill:#1e90ff;stroke:#000000;" x="131.28549" xlink:href="#C0_0_4f513f2240" y="161.087682"/>
    </g>
    <g clip-path="url(#pcbe6df7143)">
     <use style="fill:#ff8000;stroke:#000000;" x="228.412244" xlink:href="#C0_0_4f513f2240" y="138.309416"/>
    </g>
    <g clip-path="url(#pcbe6df7143)">
     <use style="fill:#1e90ff;stroke:#000000;" x="206.446008" xlink:href="#C0_0_4f513f2240" y="202.911558"/>
    </g>
    <g clip-path="url(#pcbe6df7143)">
     <use style="fill:#1e90ff;stroke:#000000;" x="122.712832" xlink:href="#C0_0_4f513f2240" y="112.488415"/>
    </g>
    <g clip-path="url(#pcbe6df7143)">
     <use style="fill:#1e90ff;stroke:#000000;" x="273.814357" xlink:href="#C0_0_4f513f2240" y="197.840962"/>
    </g>
    <g clip-path="url(#pcbe6df7143)">
     <use style="fill:#1e90ff;stroke:#000000;" x="282.444717" xlink:href="#C0_0_4f513f2240" y="194.812547"/>
    </g>
    <g clip-path="url(#pcbe6df7143)">
     <use style="fill:#1e90ff;stroke:#000000;" x="189.329495" xlink:href="#C0_0_4f513f2240" y="198.200988"/>
    </g>
    <g clip-path="url(#pcbe6df7143)">
     <use style="fill:#1e90ff;stroke:#000000;" x="302.796828" xlink:href="#C0_0_4f513f2240" y="184.83536"/>
    </g>
    <g clip-path="url(#pcbe6df7143)">
     <use style="fill:#1e90ff;stroke:#000000;" x="283.596514" xlink:href="#C0_0_4f513f2240" y="68.375511"/>
    </g>
    <g clip-path="url(#pcbe6df7143)">
     <use style="fill:#1e90ff;stroke:#000000;" x="215.321096" xlink:href="#C0_0_4f513f2240" y="65.420597"/>
    </g>
    <g clip-path="url(#pcbe6df7143)">
     <use style="fill:#1e90ff;stroke:#000000;" x="135.580144" xlink:href="#C0_0_4f513f2240" y="158.713"/>
    </g>
    <g clip-path="url(#pcbe6df7143)">
     <use style="fill:#1e90ff;stroke:#000000;" x="293.901684" xlink:href="#C0_0_4f513f2240" y="81.521719"/>
    </g>
    <g clip-path="url(#pcbe6df7143)">
     <use style="fill:#1e90ff;stroke:#000000;" x="194.137855" xlink:href="#C0_0_4f513f2240" y="200.76365"/>
    </g>
    <g clip-path="url(#pcbe6df7143)">
     <use style="fill:#ff8000;stroke:#000000;" x="236.788638" xlink:href="#C0_0_4f513f2240" y="142.719436"/>
    </g>
    <g clip-path="url(#pcbe6df7143)">
     <use style="fill:#ff8000;stroke:#000000;" x="232.037784" xlink:href="#C0_0_4f513f2240" y="140.905693"/>
    </g>
    <g clip-path="url(#pcbe6df7143)">
     <use style="fill:#1e90ff;stroke:#000000;" x="201.60645" xlink:href="#C0_0_4f513f2240" y="86.442624"/>
    </g>
    <g clip-path="url(#pcbe6df7143)">
     <use style="fill:#ff8000;stroke:#000000;" x="221.836143" xlink:href="#C0_0_4f513f2240" y="135.686521"/>
    </g>
    <g clip-path="url(#pcbe6df7143)">
     <use style="fill:#ff8000;stroke:#000000;" x="221.561714" xlink:href="#C0_0_4f513f2240" y="131.888013"/>
    </g>
    <g clip-path="url(#pcbe6df7143)">
     <use style="fill:#1e90ff;stroke:#000000;" x="167.167865" xlink:href="#C0_0_4f513f2240" y="81.171956"/>
    </g>
    <g clip-path="url(#pcbe6df7143)">
     <use style="fill:#1e90ff;stroke:#000000;" x="140.52756" xlink:href="#C0_0_4f513f2240" y="103.258397"/>
    </g>
    <g clip-path="url(#pcbe6df7143)">
     <use style="fill:#1e90ff;stroke:#000000;" x="305.099977" xlink:href="#C0_0_4f513f2240" y="172.778107"/>
    </g>
    <g clip-path="url(#pcbe6df7143)">
     <use style="fill:#1e90ff;stroke:#000000;" x="210.889408" xlink:href="#C0_0_4f513f2240" y="215.041222"/>
    </g>
    <g clip-path="url(#pcbe6df7143)">
     <use style="fill:#1e90ff;stroke:#000000;" x="321.068077" xlink:href="#C0_0_4f513f2240" y="187.522984"/>
    </g>
    <g clip-path="url(#pcbe6df7143)">
     <use style="fill:#1e90ff;stroke:#000000;" x="175.20336" xlink:href="#C0_0_4f513f2240" y="88.777303"/>
    </g>
    <g clip-path="url(#pcbe6df7143)">
     <use style="fill:#1e90ff;stroke:#000000;" x="135.761822" xlink:href="#C0_0_4f513f2240" y="166.788611"/>
    </g>
    <g clip-path="url(#pcbe6df7143)">
     <use style="fill:#1e90ff;stroke:#000000;" x="269.20337" xlink:href="#C0_0_4f513f2240" y="73.898683"/>
    </g>
    <g clip-path="url(#pcbe6df7143)">
     <use style="fill:#1e90ff;stroke:#000000;" x="316.247555" xlink:href="#C0_0_4f513f2240" y="156.16787"/>
    </g>
    <g clip-path="url(#pcbe6df7143)">
     <use style="fill:#1e90ff;stroke:#000000;" x="182.961286" xlink:href="#C0_0_4f513f2240" y="199.075407"/>
    </g>
    <g clip-path="url(#pcbe6df7143)">
     <use style="fill:#ff8000;stroke:#000000;" x="229.226347" xlink:href="#C0_0_4f513f2240" y="135.344566"/>
    </g>
    <g clip-path="url(#pcbe6df7143)">
     <use style="fill:#1e90ff;stroke:#000000;" x="312.878104" xlink:href="#C0_0_4f513f2240" y="100.293859"/>
    </g>
    <g clip-path="url(#pcbe6df7143)">
     <use style="fill:#1e90ff;stroke:#000000;" x="321.513113" xlink:href="#C0_0_4f513f2240" y="162.875521"/>
    </g>
    <g clip-path="url(#pcbe6df7143)">
     <use style="fill:#1e90ff;stroke:#000000;" x="188.059769" xlink:href="#C0_0_4f513f2240" y="200.282681"/>
    </g>
    <g clip-path="url(#pcbe6df7143)">
     <use style="fill:#1e90ff;stroke:#000000;" x="217.226237" xlink:href="#C0_0_4f513f2240" y="79.379076"/>
    </g>
    <g clip-path="url(#pcbe6df7143)">
     <use style="fill:#ff8000;stroke:#000000;" x="223.802774" xlink:href="#C0_0_4f513f2240" y="144.173169"/>
    </g>
    <g clip-path="url(#pcbe6df7143)">
     <use style="fill:#1e90ff;stroke:#000000;" x="283.377931" xlink:href="#C0_0_4f513f2240" y="201.331208"/>
    </g>
    <g clip-path="url(#pcbe6df7143)">
     <use style="fill:#1e90ff;stroke:#000000;" x="122.702155" xlink:href="#C0_0_4f513f2240" y="119.37287"/>
    </g>
    <g clip-path="url(#pcbe6df7143)">
     <use style="fill:#ff8000;stroke:#000000;" x="229.768803" xlink:href="#C0_0_4f513f2240" y="140.377917"/>
    </g>
    <g clip-path="url(#pcbe6df7143)">
     <use style="fill:#ff8000;stroke:#000000;" x="225.882911" xlink:href="#C0_0_4f513f2240" y="142.20008"/>
    </g>
    <g clip-path="url(#pcbe6df7143)">
     <use style="fill:#ff8000;stroke:#000000;" x="224.11326" xlink:href="#C0_0_4f513f2240" y="141.159639"/>
    </g>
    <g clip-path="url(#pcbe6df7143)">
     <use style="fill:#1e90ff;stroke:#000000;" x="133.798941" xlink:href="#C0_0_4f513f2240" y="110.978761"/>
    </g>
    <g clip-path="url(#pcbe6df7143)">
     <use style="fill:#1e90ff;stroke:#000000;" x="341.779991" xlink:href="#C0_0_4f513f2240" y="147.27995"/>
    </g>
    <g clip-path="url(#pcbe6df7143)">
     <use style="fill:#1e90ff;stroke:#000000;" x="218.893593" xlink:href="#C0_0_4f513f2240" y="71.249972"/>
    </g>
    <g clip-path="url(#pcbe6df7143)">
     <use style="fill:#1e90ff;stroke:#000000;" x="321.270515" xlink:href="#C0_0_4f513f2240" y="181.782243"/>
    </g>
    <g clip-path="url(#pcbe6df7143)">
     <use style="fill:#1e90ff;stroke:#000000;" x="112.674171" xlink:href="#C0_0_4f513f2240" y="143.836753"/>
    </g>
    <g clip-path="url(#pcbe6df7143)">
     <use style="fill:#ff8000;stroke:#000000;" x="220.304604" xlink:href="#C0_0_4f513f2240" y="150.363392"/>
    </g>
    <g clip-path="url(#pcbe6df7143)">
     <use style="fill:#ff8000;stroke:#000000;" x="230.257619" xlink:href="#C0_0_4f513f2240" y="141.984861"/>
    </g>
    <g clip-path="url(#pcbe6df7143)">
     <use style="fill:#ff8000;stroke:#000000;" x="236.486967" xlink:href="#C0_0_4f513f2240" y="128.657205"/>
    </g>
    <g clip-path="url(#pcbe6df7143)">
     <use style="fill:#ff8000;stroke:#000000;" x="228.127258" xlink:href="#C0_0_4f513f2240" y="139.879269"/>
    </g>
    <g clip-path="url(#pcbe6df7143)">
     <use style="fill:#ff8000;stroke:#000000;" x="214.073967" xlink:href="#C0_0_4f513f2240" y="131.242755"/>
    </g>
    <g clip-path="url(#pcbe6df7143)">
     <use style="fill:#1e90ff;stroke:#000000;" x="275.134783" xlink:href="#C0_0_4f513f2240" y="78.630693"/>
    </g>
    <g clip-path="url(#pcbe6df7143)">
     <use style="fill:#ff8000;stroke:#000000;" x="219.731593" xlink:href="#C0_0_4f513f2240" y="133.290568"/>
    </g>
    <g clip-path="url(#pcbe6df7143)">
     <use style="fill:#1e90ff;stroke:#000000;" x="214.921635" xlink:href="#C0_0_4f513f2240" y="78.718247"/>
    </g>
    <g clip-path="url(#pcbe6df7143)">
     <use style="fill:#1e90ff;stroke:#000000;" x="326.131386" xlink:href="#C0_0_4f513f2240" y="120.213418"/>
    </g>
    <g clip-path="url(#pcbe6df7143)">
     <use style="fill:#1e90ff;stroke:#000000;" x="322.190192" xlink:href="#C0_0_4f513f2240" y="173.287719"/>
    </g>
    <g clip-path="url(#pcbe6df7143)">
     <use style="fill:#1e90ff;stroke:#000000;" x="172.499081" xlink:href="#C0_0_4f513f2240" y="84.225434"/>
    </g>
    <g clip-path="url(#pcbe6df7143)">
     <use style="fill:#1e90ff;stroke:#000000;" x="140.693449" xlink:href="#C0_0_4f513f2240" y="137.863391"/>
    </g>
    <g clip-path="url(#pcbe6df7143)">
     <use style="fill:#ff8000;stroke:#000000;" x="226.202988" xlink:href="#C0_0_4f513f2240" y="140.156491"/>
    </g>
    <g clip-path="url(#pcbe6df7143)">
     <use style="fill:#ff8000;stroke:#000000;" x="242.47427" xlink:href="#C0_0_4f513f2240" y="132.970681"/>
    </g>
    <g clip-path="url(#pcbe6df7143)">
     <use style="fill:#1e90ff;stroke:#000000;" x="140.240771" xlink:href="#C0_0_4f513f2240" y="108.213863"/>
    </g>
    <g clip-path="url(#pcbe6df7143)">
     <use style="fill:#1e90ff;stroke:#000000;" x="129.367448" xlink:href="#C0_0_4f513f2240" y="122.012941"/>
    </g>
    <g clip-path="url(#pcbe6df7143)">
     <use style="fill:#ff8000;stroke:#000000;" x="226.643019" xlink:href="#C0_0_4f513f2240" y="147.06192"/>
    </g>
    <g clip-path="url(#pcbe6df7143)">
     <use style="fill:#ff8000;stroke:#000000;" x="233.553864" xlink:href="#C0_0_4f513f2240" y="140.699292"/>
    </g>
    <g clip-path="url(#pcbe6df7143)">
     <use style="fill:#ff8000;stroke:#000000;" x="222.782963" xlink:href="#C0_0_4f513f2240" y="143.963115"/>
    </g>
    <g clip-path="url(#pcbe6df7143)">
     <use style="fill:#ff8000;stroke:#000000;" x="231.50199" xlink:href="#C0_0_4f513f2240" y="140.405675"/>
    </g>
    <g clip-path="url(#pcbe6df7143)">
     <use style="fill:#ff8000;stroke:#000000;" x="227.311251" xlink:href="#C0_0_4f513f2240" y="146.791085"/>
    </g>
    <g clip-path="url(#pcbe6df7143)">
     <use style="fill:#ff8000;stroke:#000000;" x="226.981032" xlink:href="#C0_0_4f513f2240" y="142.454336"/>
    </g>
    <g clip-path="url(#pcbe6df7143)">
     <use style="fill:#1e90ff;stroke:#000000;" x="244.672674" xlink:href="#C0_0_4f513f2240" y="215.091038"/>
    </g>
    <g clip-path="url(#pcbe6df7143)">
     <use style="fill:#1e90ff;stroke:#000000;" x="173.351672" xlink:href="#C0_0_4f513f2240" y="83.800384"/>
    </g>
    <g clip-path="url(#pcbe6df7143)">
     <use style="fill:#ff8000;stroke:#000000;" x="231.027118" xlink:href="#C0_0_4f513f2240" y="125.411038"/>
    </g>
    <g clip-path="url(#pcbe6df7143)">
     <use style="fill:#ff8000;stroke:#000000;" x="230.383547" xlink:href="#C0_0_4f513f2240" y="140.142928"/>
    </g>
    <g clip-path="url(#pcbe6df7143)">
     <use style="fill:#1e90ff;stroke:#000000;" x="180.707661" xlink:href="#C0_0_4f513f2240" y="84.108254"/>
    </g>
    <g clip-path="url(#pcbe6df7143)">
     <use style="fill:#ff8000;stroke:#000000;" x="218.564162" xlink:href="#C0_0_4f513f2240" y="144.694703"/>
    </g>
    <g clip-path="url(#pcbe6df7143)">
     <use style="fill:#1e90ff;stroke:#000000;" x="206.44816" xlink:href="#C0_0_4f513f2240" y="76.112922"/>
    </g>
    <g clip-path="url(#pcbe6df7143)">
     <use style="fill:#1e90ff;stroke:#000000;" x="126.957384" xlink:href="#C0_0_4f513f2240" y="158.951589"/>
    </g>
    <g clip-path="url(#pcbe6df7143)">
     <use style="fill:#1e90ff;stroke:#000000;" x="277.137278" xlink:href="#C0_0_4f513f2240" y="78.302436"/>
    </g>
    <g clip-path="url(#pcbe6df7143)">
     <use style="fill:#1e90ff;stroke:#000000;" x="307.24058" xlink:href="#C0_0_4f513f2240" y="90.426218"/>
    </g>
    <g clip-path="url(#pcbe6df7143)">
     <use style="fill:#ff8000;stroke:#000000;" x="232.806841" xlink:href="#C0_0_4f513f2240" y="128.267903"/>
    </g>
    <g clip-path="url(#pcbe6df7143)">
     <use style="fill:#1e90ff;stroke:#000000;" x="236.403392" xlink:href="#C0_0_4f513f2240" y="209.686814"/>
    </g>
    <g clip-path="url(#pcbe6df7143)">
     <use style="fill:#1e90ff;stroke:#000000;" x="319.807943" xlink:href="#C0_0_4f513f2240" y="149.975709"/>
    </g>
    <g clip-path="url(#pcbe6df7143)">
     <use style="fill:#ff8000;stroke:#000000;" x="237.330826" xlink:href="#C0_0_4f513f2240" y="143.10497"/>
    </g>
    <g clip-path="url(#pcbe6df7143)">
     <use style="fill:#1e90ff;stroke:#000000;" x="249.760328" xlink:href="#C0_0_4f513f2240" y="62.578571"/>
    </g>
    <g clip-path="url(#pcbe6df7143)">
     <use style="fill:#ff8000;stroke:#000000;" x="246.511505" xlink:href="#C0_0_4f513f2240" y="134.937042"/>
    </g>
    <g clip-path="url(#pcbe6df7143)">
     <use style="fill:#ff8000;stroke:#000000;" x="240.958657" xlink:href="#C0_0_4f513f2240" y="139.268742"/>
    </g>
    <g clip-path="url(#pcbe6df7143)">
     <use style="fill:#1e90ff;stroke:#000000;" x="133.393194" xlink:href="#C0_0_4f513f2240" y="131.228684"/>
    </g>
    <g clip-path="url(#pcbe6df7143)">
     <use style="fill:#ff8000;stroke:#000000;" x="234.296738" xlink:href="#C0_0_4f513f2240" y="149.9885"/>
    </g>
    <g clip-path="url(#pcbe6df7143)">
     <use style="fill:#ff8000;stroke:#000000;" x="222.140982" xlink:href="#C0_0_4f513f2240" y="138.433582"/>
    </g>
    <g clip-path="url(#pcbe6df7143)">
     <use style="fill:#1e90ff;stroke:#000000;" x="187.330622" xlink:href="#C0_0_4f513f2240" y="218.025"/>
    </g>
    <g clip-path="url(#pcbe6df7143)">
     <use style="fill:#1e90ff;stroke:#000000;" x="313.222588" xlink:href="#C0_0_4f513f2240" y="182.049369"/>
    </g>
    <g clip-path="url(#pcbe6df7143)">
     <use style="fill:#1e90ff;stroke:#000000;" x="242.762674" xlink:href="#C0_0_4f513f2240" y="194.919507"/>
    </g>
    <g clip-path="url(#pcbe6df7143)">
     <use style="fill:#ff8000;stroke:#000000;" x="228.7858" xlink:href="#C0_0_4f513f2240" y="140.758158"/>
    </g>
    <g clip-path="url(#pcbe6df7143)">
     <use style="fill:#1e90ff;stroke:#000000;" x="308.542223" xlink:href="#C0_0_4f513f2240" y="129.286891"/>
    </g>
    <g clip-path="url(#pcbe6df7143)">
     <use style="fill:#ff8000;stroke:#000000;" x="247.871664" xlink:href="#C0_0_4f513f2240" y="136.226139"/>
    </g>
    <g clip-path="url(#pcbe6df7143)">
     <use style="fill:#ff8000;stroke:#000000;" x="227.226534" xlink:href="#C0_0_4f513f2240" y="140.680714"/>
    </g>
    <g clip-path="url(#pcbe6df7143)">
     <use style="fill:#ff8000;stroke:#000000;" x="229.634333" xlink:href="#C0_0_4f513f2240" y="148.561757"/>
    </g>
    <g clip-path="url(#pcbe6df7143)">
     <use style="fill:#1e90ff;stroke:#000000;" x="232.756295" xlink:href="#C0_0_4f513f2240" y="198.441279"/>
    </g>
    <g clip-path="url(#pcbe6df7143)">
     <use style="fill:#ff8000;stroke:#000000;" x="229.426187" xlink:href="#C0_0_4f513f2240" y="137.171389"/>
    </g>
    <g clip-path="url(#pcbe6df7143)">
     <use style="fill:#ff8000;stroke:#000000;" x="216.340937" xlink:href="#C0_0_4f513f2240" y="135.662688"/>
    </g>
    <g clip-path="url(#pcbe6df7143)">
     <use style="fill:#ff8000;stroke:#000000;" x="236.330174" xlink:href="#C0_0_4f513f2240" y="138.765368"/>
    </g>
    <g clip-path="url(#pcbe6df7143)">
     <use style="fill:#ff8000;stroke:#000000;" x="223.649113" xlink:href="#C0_0_4f513f2240" y="145.253792"/>
    </g>
    <g clip-path="url(#pcbe6df7143)">
     <use style="fill:#ff8000;stroke:#000000;" x="209.418128" xlink:href="#C0_0_4f513f2240" y="141.612498"/>
    </g>
    <g clip-path="url(#pcbe6df7143)">
     <use style="fill:#ff8000;stroke:#000000;" x="228.529868" xlink:href="#C0_0_4f513f2240" y="144.657973"/>
    </g>
    <g clip-path="url(#pcbe6df7143)">
     <use style="fill:#1e90ff;stroke:#000000;" x="195.191443" xlink:href="#C0_0_4f513f2240" y="204.847007"/>
    </g>
    <g clip-path="url(#pcbe6df7143)">
     <use style="fill:#1e90ff;stroke:#000000;" x="260.168985" xlink:href="#C0_0_4f513f2240" y="68.378278"/>
    </g>
    <g clip-path="url(#pcbe6df7143)">
     <use style="fill:#1e90ff;stroke:#000000;" x="215.809329" xlink:href="#C0_0_4f513f2240" y="94.292126"/>
    </g>
    <g clip-path="url(#pcbe6df7143)">
     <use style="fill:#ff8000;stroke:#000000;" x="235.372192" xlink:href="#C0_0_4f513f2240" y="145.748368"/>
    </g>
    <g clip-path="url(#pcbe6df7143)">
     <use style="fill:#1e90ff;stroke:#000000;" x="191.118638" xlink:href="#C0_0_4f513f2240" y="69.602563"/>
    </g>
    <g clip-path="url(#pcbe6df7143)">
     <use style="fill:#ff8000;stroke:#000000;" x="232.042075" xlink:href="#C0_0_4f513f2240" y="141.791786"/>
    </g>
    <g clip-path="url(#pcbe6df7143)">
     <use style="fill:#ff8000;stroke:#000000;" x="236.917184" xlink:href="#C0_0_4f513f2240" y="137.932682"/>
    </g>
    <g clip-path="url(#pcbe6df7143)">
     <use style="fill:#1e90ff;stroke:#000000;" x="311.522383" xlink:href="#C0_0_4f513f2240" y="119.975298"/>
    </g>
    <g clip-path="url(#pcbe6df7143)">
     <use style="fill:#ff8000;stroke:#000000;" x="232.003001" xlink:href="#C0_0_4f513f2240" y="140.666753"/>
    </g>
    <g clip-path="url(#pcbe6df7143)">
     <use style="fill:#1e90ff;stroke:#000000;" x="300.432572" xlink:href="#C0_0_4f513f2240" y="109.002811"/>
    </g>
    <g clip-path="url(#pcbe6df7143)">
     <use style="fill:#ff8000;stroke:#000000;" x="234.046596" xlink:href="#C0_0_4f513f2240" y="133.231386"/>
    </g>
    <g clip-path="url(#pcbe6df7143)">
     <use style="fill:#1e90ff;stroke:#000000;" x="117.722334" xlink:href="#C0_0_4f513f2240" y="151.523951"/>
    </g>
    <g clip-path="url(#pcbe6df7143)">
     <use style="fill:#ff8000;stroke:#000000;" x="216.558664" xlink:href="#C0_0_4f513f2240" y="141.520088"/>
    </g>
    <g clip-path="url(#pcbe6df7143)">
     <use style="fill:#ff8000;stroke:#000000;" x="229.18718" xlink:href="#C0_0_4f513f2240" y="138.995799"/>
    </g>
    <g clip-path="url(#pcbe6df7143)">
     <use style="fill:#1e90ff;stroke:#000000;" x="309.298704" xlink:href="#C0_0_4f513f2240" y="97.010693"/>
    </g>
    <g clip-path="url(#pcbe6df7143)">
     <use style="fill:#ff8000;stroke:#000000;" x="230.348515" xlink:href="#C0_0_4f513f2240" y="149.556901"/>
    </g>
    <g clip-path="url(#pcbe6df7143)">
     <use style="fill:#1e90ff;stroke:#000000;" x="296.213068" xlink:href="#C0_0_4f513f2240" y="85.970047"/>
    </g>
    <g clip-path="url(#pcbe6df7143)">
     <use style="fill:#1e90ff;stroke:#000000;" x="226.277128" xlink:href="#C0_0_4f513f2240" y="84.815791"/>
    </g>
    <g clip-path="url(#pcbe6df7143)">
     <use style="fill:#ff8000;stroke:#000000;" x="230.054166" xlink:href="#C0_0_4f513f2240" y="136.766662"/>
    </g>
    <g clip-path="url(#pcbe6df7143)">
     <use style="fill:#ff8000;stroke:#000000;" x="231.938093" xlink:href="#C0_0_4f513f2240" y="141.352648"/>
    </g>
    <g clip-path="url(#pcbe6df7143)">
     <use style="fill:#1e90ff;stroke:#000000;" x="119.889597" xlink:href="#C0_0_4f513f2240" y="166.695223"/>
    </g>
    <g clip-path="url(#pcbe6df7143)">
     <use style="fill:#1e90ff;stroke:#000000;" x="256.086964" xlink:href="#C0_0_4f513f2240" y="86.231018"/>
    </g>
    <g clip-path="url(#pcbe6df7143)">
     <use style="fill:#1e90ff;stroke:#000000;" x="262.468159" xlink:href="#C0_0_4f513f2240" y="203.041167"/>
    </g>
    <g clip-path="url(#pcbe6df7143)">
     <use style="fill:#ff8000;stroke:#000000;" x="240.914546" xlink:href="#C0_0_4f513f2240" y="137.441331"/>
    </g>
    <g clip-path="url(#pcbe6df7143)">
     <use style="fill:#ff8000;stroke:#000000;" x="227.159634" xlink:href="#C0_0_4f513f2240" y="134.160131"/>
    </g>
    <g clip-path="url(#pcbe6df7143)">
     <use style="fill:#1e90ff;stroke:#000000;" x="331.825401" xlink:href="#C0_0_4f513f2240" y="129.130628"/>
    </g>
    <g clip-path="url(#pcbe6df7143)">
     <use style="fill:#1e90ff;stroke:#000000;" x="326.238916" xlink:href="#C0_0_4f513f2240" y="166.368734"/>
    </g>
    <g clip-path="url(#pcbe6df7143)">
     <use style="fill:#ff8000;stroke:#000000;" x="232.953203" xlink:href="#C0_0_4f513f2240" y="138.738048"/>
    </g>
    <g clip-path="url(#pcbe6df7143)">
     <use style="fill:#1e90ff;stroke:#000000;" x="122.630445" xlink:href="#C0_0_4f513f2240" y="191.554889"/>
    </g>
    <g clip-path="url(#pcbe6df7143)">
     <use style="fill:#ff8000;stroke:#000000;" x="230.687568" xlink:href="#C0_0_4f513f2240" y="137.869083"/>
    </g>
    <g clip-path="url(#pcbe6df7143)">
     <use style="fill:#ff8000;stroke:#000000;" x="233.410847" xlink:href="#C0_0_4f513f2240" y="135.057476"/>
    </g>
    <g clip-path="url(#pcbe6df7143)">
     <use style="fill:#ff8000;stroke:#000000;" x="245.76038" xlink:href="#C0_0_4f513f2240" y="136.735089"/>
    </g>
    <g clip-path="url(#pcbe6df7143)">
     <use style="fill:#1e90ff;stroke:#000000;" x="324.688807" xlink:href="#C0_0_4f513f2240" y="162.939798"/>
    </g>
    <g clip-path="url(#pcbe6df7143)">
     <use style="fill:#ff8000;stroke:#000000;" x="230.61024" xlink:href="#C0_0_4f513f2240" y="140.527873"/>
    </g>
    <g clip-path="url(#pcbe6df7143)">
     <use style="fill:#ff8000;stroke:#000000;" x="220.063773" xlink:href="#C0_0_4f513f2240" y="137.536392"/>
    </g>
    <g clip-path="url(#pcbe6df7143)">
     <use style="fill:#1e90ff;stroke:#000000;" x="239.054532" xlink:href="#C0_0_4f513f2240" y="65.563498"/>
    </g>
    <g clip-path="url(#pcbe6df7143)">
     <use style="fill:#1e90ff;stroke:#000000;" x="139.360731" xlink:href="#C0_0_4f513f2240" y="165.721351"/>
    </g>
    <g clip-path="url(#pcbe6df7143)">
     <use style="fill:#ff8000;stroke:#000000;" x="214.572831" xlink:href="#C0_0_4f513f2240" y="148.882584"/>
    </g>
    <g clip-path="url(#pcbe6df7143)">
     <use style="fill:#1e90ff;stroke:#000000;" x="185.513832" xlink:href="#C0_0_4f513f2240" y="78.834712"/>
    </g>
    <g clip-path="url(#pcbe6df7143)">
     <use style="fill:#ff8000;stroke:#000000;" x="238.884248" xlink:href="#C0_0_4f513f2240" y="145.891498"/>
    </g>
    <g clip-path="url(#pcbe6df7143)">
     <use style="fill:#ff8000;stroke:#000000;" x="227.262013" xlink:href="#C0_0_4f513f2240" y="150.99611"/>
    </g>
    <g clip-path="url(#pcbe6df7143)">
     <use style="fill:#ff8000;stroke:#000000;" x="247.435732" xlink:href="#C0_0_4f513f2240" y="135.186875"/>
    </g>
    <g clip-path="url(#pcbe6df7143)">
     <use style="fill:#ff8000;stroke:#000000;" x="227.585953" xlink:href="#C0_0_4f513f2240" y="139.221734"/>
    </g>
    <g clip-path="url(#pcbe6df7143)">
     <use style="fill:#1e90ff;stroke:#000000;" x="128.996073" xlink:href="#C0_0_4f513f2240" y="117.047587"/>
    </g>
    <g clip-path="url(#pcbe6df7143)">
     <use style="fill:#1e90ff;stroke:#000000;" x="316.407614" xlink:href="#C0_0_4f513f2240" y="104.940851"/>
    </g>
    <g clip-path="url(#pcbe6df7143)">
     <use style="fill:#1e90ff;stroke:#000000;" x="341.685571" xlink:href="#C0_0_4f513f2240" y="150.885585"/>
    </g>
    <g clip-path="url(#pcbe6df7143)">
     <use style="fill:#1e90ff;stroke:#000000;" x="212.233854" xlink:href="#C0_0_4f513f2240" y="208.602879"/>
    </g>
    <g clip-path="url(#pcbe6df7143)">
     <use style="fill:#ff8000;stroke:#000000;" x="222.813334" xlink:href="#C0_0_4f513f2240" y="140.039223"/>
    </g>
    <g clip-path="url(#pcbe6df7143)">
     <use style="fill:#1e90ff;stroke:#000000;" x="304.940452" xlink:href="#C0_0_4f513f2240" y="85.695756"/>
    </g>
    <g clip-path="url(#pcbe6df7143)">
     <use style="fill:#ff8000;stroke:#000000;" x="231.924267" xlink:href="#C0_0_4f513f2240" y="142.241281"/>
    </g>
    <g clip-path="url(#pcbe6df7143)">
     <use style="fill:#ff8000;stroke:#000000;" x="228.326558" xlink:href="#C0_0_4f513f2240" y="135.338448"/>
    </g>
    <g clip-path="url(#pcbe6df7143)">
     <use style="fill:#ff8000;stroke:#000000;" x="225.29673" xlink:href="#C0_0_4f513f2240" y="136.642645"/>
    </g>
    <g clip-path="url(#pcbe6df7143)">
     <use style="fill:#ff8000;stroke:#000000;" x="227.584349" xlink:href="#C0_0_4f513f2240" y="134.37876"/>
    </g>
    <g clip-path="url(#pcbe6df7143)">
     <use style="fill:#1e90ff;stroke:#000000;" x="114.539377" xlink:href="#C0_0_4f513f2240" y="133.954844"/>
    </g>
    <g clip-path="url(#pcbe6df7143)">
     <use style="fill:#ff8000;stroke:#000000;" x="230.224329" xlink:href="#C0_0_4f513f2240" y="140.345683"/>
    </g>
    <g clip-path="url(#pcbe6df7143)">
     <use style="fill:#1e90ff;stroke:#000000;" x="150.366385" xlink:href="#C0_0_4f513f2240" y="89.108243"/>
    </g>
    <g clip-path="url(#pcbe6df7143)">
     <use style="fill:#ff8000;stroke:#000000;" x="228.270919" xlink:href="#C0_0_4f513f2240" y="140.097408"/>
    </g>
    <g clip-path="url(#pcbe6df7143)">
     <use style="fill:#1e90ff;stroke:#000000;" x="136.796372" xlink:href="#C0_0_4f513f2240" y="117.274137"/>
    </g>
    <g clip-path="url(#pcbe6df7143)">
     <use style="fill:#1e90ff;stroke:#000000;" x="315.743309" xlink:href="#C0_0_4f513f2240" y="191.168064"/>
    </g>
    <g clip-path="url(#pcbe6df7143)">
     <use style="fill:#ff8000;stroke:#000000;" x="240.294008" xlink:href="#C0_0_4f513f2240" y="144.468779"/>
    </g>
    <g clip-path="url(#pcbe6df7143)">
     <use style="fill:#1e90ff;stroke:#000000;" x="223.584194" xlink:href="#C0_0_4f513f2240" y="78.365054"/>
    </g>
    <g clip-path="url(#pcbe6df7143)">
     <use style="fill:#ff8000;stroke:#000000;" x="221.977713" xlink:href="#C0_0_4f513f2240" y="145.367863"/>
    </g>
    <g clip-path="url(#pcbe6df7143)">
     <use style="fill:#ff8000;stroke:#000000;" x="230.328275" xlink:href="#C0_0_4f513f2240" y="140.257759"/>
    </g>
    <g clip-path="url(#pcbe6df7143)">
     <use style="fill:#1e90ff;stroke:#000000;" x="128.337894" xlink:href="#C0_0_4f513f2240" y="100.829683"/>
    </g>
    <g clip-path="url(#pcbe6df7143)">
     <use style="fill:#1e90ff;stroke:#000000;" x="283.140296" xlink:href="#C0_0_4f513f2240" y="202.959497"/>
    </g>
    <g clip-path="url(#pcbe6df7143)">
     <use style="fill:#ff8000;stroke:#000000;" x="235.779573" xlink:href="#C0_0_4f513f2240" y="150.609783"/>
    </g>
    <g clip-path="url(#pcbe6df7143)">
     <use style="fill:#1e90ff;stroke:#000000;" x="185.422582" xlink:href="#C0_0_4f513f2240" y="193.79742"/>
    </g>
    <g clip-path="url(#pcbe6df7143)">
     <use style="fill:#ff8000;stroke:#000000;" x="226.023012" xlink:href="#C0_0_4f513f2240" y="142.466979"/>
    </g>
    <g clip-path="url(#pcbe6df7143)">
     <use style="fill:#ff8000;stroke:#000000;" x="219.775982" xlink:href="#C0_0_4f513f2240" y="135.943678"/>
    </g>
    <g clip-path="url(#pcbe6df7143)">
     <use style="fill:#ff8000;stroke:#000000;" x="233.520554" xlink:href="#C0_0_4f513f2240" y="140.562774"/>
    </g>
    <g clip-path="url(#pcbe6df7143)">
     <use style="fill:#1e90ff;stroke:#000000;" x="166.147153" xlink:href="#C0_0_4f513f2240" y="82.975545"/>
    </g>
    <g clip-path="url(#pcbe6df7143)">
     <use style="fill:#1e90ff;stroke:#000000;" x="333.667602" xlink:href="#C0_0_4f513f2240" y="103.202931"/>
    </g>
    <g clip-path="url(#pcbe6df7143)">
     <use style="fill:#1e90ff;stroke:#000000;" x="152.050384" xlink:href="#C0_0_4f513f2240" y="149.641605"/>
    </g>
   </g>
   <g id="matplotlib.axis_1">
    <g id="xtick_1">
     <g id="line2d_1">
      <defs>
       <path d="M 0 0 
L 0 3.5 
" id="m5a6d05cf22" style="stroke:#000000;stroke-width:0.8;"/>
      </defs>
      <g>
       <use style="stroke:#000000;stroke-width:0.8;" x="73.7156" xlink:href="#m5a6d05cf22" y="252"/>
      </g>
     </g>
     <g id="text_1">
      <!-- 1.5 -->
      <g transform="translate(61.574193 266.598437)scale(0.1 -0.1)">
       <defs>
        <path d="M 10.59375 35.5 
L 73.1875 35.5 
L 73.1875 27.203125 
L 10.59375 27.203125 
z
" id="DejaVuSans-8722"/>
        <path d="M 12.40625 8.296875 
L 28.515625 8.296875 
L 28.515625 63.921875 
L 10.984375 60.40625 
L 10.984375 69.390625 
L 28.421875 72.90625 
L 38.28125 72.90625 
L 38.28125 8.296875 
L 54.390625 8.296875 
L 54.390625 0 
L 12.40625 0 
z
" id="DejaVuSans-49"/>
        <path d="M 10.6875 12.40625 
L 21 12.40625 
L 21 0 
L 10.6875 0 
z
" id="DejaVuSans-46"/>
        <path d="M 10.796875 72.90625 
L 49.515625 72.90625 
L 49.515625 64.59375 
L 19.828125 64.59375 
L 19.828125 46.734375 
Q 21.96875 47.46875 24.109375 47.828125 
Q 26.265625 48.1875 28.421875 48.1875 
Q 40.625 48.1875 47.75 41.5 
Q 54.890625 34.8125 54.890625 23.390625 
Q 54.890625 11.625 47.5625 5.09375 
Q 40.234375 -1.421875 26.90625 -1.421875 
Q 22.3125 -1.421875 17.546875 -0.640625 
Q 12.796875 0.140625 7.71875 1.703125 
L 7.71875 11.625 
Q 12.109375 9.234375 16.796875 8.0625 
Q 21.484375 6.890625 26.703125 6.890625 
Q 35.15625 6.890625 40.078125 11.328125 
Q 45.015625 15.765625 45.015625 23.390625 
Q 45.015625 31 40.078125 35.4375 
Q 35.15625 39.890625 26.703125 39.890625 
Q 22.75 39.890625 18.8125 39.015625 
Q 14.890625 38.140625 10.796875 36.28125 
z
" id="DejaVuSans-53"/>
       </defs>
       <use xlink:href="#DejaVuSans-8722"/>
       <use x="83.789062" xlink:href="#DejaVuSans-49"/>
       <use x="147.412109" xlink:href="#DejaVuSans-46"/>
       <use x="179.199219" xlink:href="#DejaVuSans-53"/>
      </g>
     </g>
    </g>
    <g id="xtick_2">
     <g id="line2d_2">
      <g>
       <use style="stroke:#000000;stroke-width:0.8;" x="126.0281" xlink:href="#m5a6d05cf22" y="252"/>
      </g>
     </g>
     <g id="text_2">
      <!-- 1.0 -->
      <g transform="translate(113.886693 266.598437)scale(0.1 -0.1)">
       <defs>
        <path d="M 31.78125 66.40625 
Q 24.171875 66.40625 20.328125 58.90625 
Q 16.5 51.421875 16.5 36.375 
Q 16.5 21.390625 20.328125 13.890625 
Q 24.171875 6.390625 31.78125 6.390625 
Q 39.453125 6.390625 43.28125 13.890625 
Q 47.125 21.390625 47.125 36.375 
Q 47.125 51.421875 43.28125 58.90625 
Q 39.453125 66.40625 31.78125 66.40625 
z
M 31.78125 74.21875 
Q 44.046875 74.21875 50.515625 64.515625 
Q 56.984375 54.828125 56.984375 36.375 
Q 56.984375 17.96875 50.515625 8.265625 
Q 44.046875 -1.421875 31.78125 -1.421875 
Q 19.53125 -1.421875 13.0625 8.265625 
Q 6.59375 17.96875 6.59375 36.375 
Q 6.59375 54.828125 13.0625 64.515625 
Q 19.53125 74.21875 31.78125 74.21875 
z
" id="DejaVuSans-48"/>
       </defs>
       <use xlink:href="#DejaVuSans-8722"/>
       <use x="83.789062" xlink:href="#DejaVuSans-49"/>
       <use x="147.412109" xlink:href="#DejaVuSans-46"/>
       <use x="179.199219" xlink:href="#DejaVuSans-48"/>
      </g>
     </g>
    </g>
    <g id="xtick_3">
     <g id="line2d_3">
      <g>
       <use style="stroke:#000000;stroke-width:0.8;" x="178.3406" xlink:href="#m5a6d05cf22" y="252"/>
      </g>
     </g>
     <g id="text_3">
      <!-- 0.5 -->
      <g transform="translate(166.199193 266.598437)scale(0.1 -0.1)">
       <use xlink:href="#DejaVuSans-8722"/>
       <use x="83.789062" xlink:href="#DejaVuSans-48"/>
       <use x="147.412109" xlink:href="#DejaVuSans-46"/>
       <use x="179.199219" xlink:href="#DejaVuSans-53"/>
      </g>
     </g>
    </g>
    <g id="xtick_4">
     <g id="line2d_4">
      <g>
       <use style="stroke:#000000;stroke-width:0.8;" x="230.6531" xlink:href="#m5a6d05cf22" y="252"/>
      </g>
     </g>
     <g id="text_4">
      <!-- 0.0 -->
      <g transform="translate(222.701537 266.598437)scale(0.1 -0.1)">
       <use xlink:href="#DejaVuSans-48"/>
       <use x="63.623047" xlink:href="#DejaVuSans-46"/>
       <use x="95.410156" xlink:href="#DejaVuSans-48"/>
      </g>
     </g>
    </g>
    <g id="xtick_5">
     <g id="line2d_5">
      <g>
       <use style="stroke:#000000;stroke-width:0.8;" x="282.9656" xlink:href="#m5a6d05cf22" y="252"/>
      </g>
     </g>
     <g id="text_5">
      <!-- 0.5 -->
      <g transform="translate(275.014037 266.598437)scale(0.1 -0.1)">
       <use xlink:href="#DejaVuSans-48"/>
       <use x="63.623047" xlink:href="#DejaVuSans-46"/>
       <use x="95.410156" xlink:href="#DejaVuSans-53"/>
      </g>
     </g>
    </g>
    <g id="xtick_6">
     <g id="line2d_6">
      <g>
       <use style="stroke:#000000;stroke-width:0.8;" x="335.2781" xlink:href="#m5a6d05cf22" y="252"/>
      </g>
     </g>
     <g id="text_6">
      <!-- 1.0 -->
      <g transform="translate(327.326537 266.598437)scale(0.1 -0.1)">
       <use xlink:href="#DejaVuSans-49"/>
       <use x="63.623047" xlink:href="#DejaVuSans-46"/>
       <use x="95.410156" xlink:href="#DejaVuSans-48"/>
      </g>
     </g>
    </g>
    <g id="xtick_7">
     <g id="line2d_7">
      <g>
       <use style="stroke:#000000;stroke-width:0.8;" x="387.5906" xlink:href="#m5a6d05cf22" y="252"/>
      </g>
     </g>
     <g id="text_7">
      <!-- 1.5 -->
      <g transform="translate(379.639037 266.598437)scale(0.1 -0.1)">
       <use xlink:href="#DejaVuSans-49"/>
       <use x="63.623047" xlink:href="#DejaVuSans-46"/>
       <use x="95.410156" xlink:href="#DejaVuSans-53"/>
      </g>
     </g>
    </g>
    <g id="text_8">
     <!-- X_0 -->
     <g transform="translate(212.29375 280.1)scale(0.1 -0.1)">
      <defs>
       <path d="M 6.296875 72.90625 
L 16.890625 72.90625 
L 35.015625 45.796875 
L 53.21875 72.90625 
L 63.8125 72.90625 
L 40.375 37.890625 
L 65.375 0 
L 54.78125 0 
L 34.28125 31 
L 13.625 0 
L 2.984375 0 
L 29 38.921875 
z
" id="DejaVuSans-88"/>
       <path d="M 50.984375 -16.609375 
L 50.984375 -23.578125 
L -0.984375 -23.578125 
L -0.984375 -16.609375 
z
" id="DejaVuSans-95"/>
      </defs>
      <use xlink:href="#DejaVuSans-88"/>
      <use x="68.505859" xlink:href="#DejaVuSans-95"/>
      <use x="118.505859" xlink:href="#DejaVuSans-48"/>
     </g>
    </g>
   </g>
   <g id="matplotlib.axis_2">
    <g id="ytick_1">
     <g id="line2d_8">
      <defs>
       <path d="M 0 0 
L -3.5 0 
" id="ma5c53cda1d" style="stroke:#000000;stroke-width:0.8;"/>
      </defs>
      <g>
       <use style="stroke:#000000;stroke-width:0.8;" x="54" xlink:href="#ma5c53cda1d" y="242.460077"/>
      </g>
     </g>
     <g id="text_9">
      <!-- 1.5 -->
      <g transform="translate(22.717187 246.259296)scale(0.1 -0.1)">
       <use xlink:href="#DejaVuSans-8722"/>
       <use x="83.789062" xlink:href="#DejaVuSans-49"/>
       <use x="147.412109" xlink:href="#DejaVuSans-46"/>
       <use x="179.199219" xlink:href="#DejaVuSans-53"/>
      </g>
     </g>
    </g>
    <g id="ytick_2">
     <g id="line2d_9">
      <g>
       <use style="stroke:#000000;stroke-width:0.8;" x="54" xlink:href="#ma5c53cda1d" y="208.485077"/>
      </g>
     </g>
     <g id="text_10">
      <!-- 1.0 -->
      <g transform="translate(22.717187 212.284296)scale(0.1 -0.1)">
       <use xlink:href="#DejaVuSans-8722"/>
       <use x="83.789062" xlink:href="#DejaVuSans-49"/>
       <use x="147.412109" xlink:href="#DejaVuSans-46"/>
       <use x="179.199219" xlink:href="#DejaVuSans-48"/>
      </g>
     </g>
    </g>
    <g id="ytick_3">
     <g id="line2d_10">
      <g>
       <use style="stroke:#000000;stroke-width:0.8;" x="54" xlink:href="#ma5c53cda1d" y="174.510077"/>
      </g>
     </g>
     <g id="text_11">
      <!-- 0.5 -->
      <g transform="translate(22.717187 178.309296)scale(0.1 -0.1)">
       <use xlink:href="#DejaVuSans-8722"/>
       <use x="83.789062" xlink:href="#DejaVuSans-48"/>
       <use x="147.412109" xlink:href="#DejaVuSans-46"/>
       <use x="179.199219" xlink:href="#DejaVuSans-53"/>
      </g>
     </g>
    </g>
    <g id="ytick_4">
     <g id="line2d_11">
      <g>
       <use style="stroke:#000000;stroke-width:0.8;" x="54" xlink:href="#ma5c53cda1d" y="140.535077"/>
      </g>
     </g>
     <g id="text_12">
      <!-- 0.0 -->
      <g transform="translate(31.096875 144.334296)scale(0.1 -0.1)">
       <use xlink:href="#DejaVuSans-48"/>
       <use x="63.623047" xlink:href="#DejaVuSans-46"/>
       <use x="95.410156" xlink:href="#DejaVuSans-48"/>
      </g>
     </g>
    </g>
    <g id="ytick_5">
     <g id="line2d_12">
      <g>
       <use style="stroke:#000000;stroke-width:0.8;" x="54" xlink:href="#ma5c53cda1d" y="106.560077"/>
      </g>
     </g>
     <g id="text_13">
      <!-- 0.5 -->
      <g transform="translate(31.096875 110.359296)scale(0.1 -0.1)">
       <use xlink:href="#DejaVuSans-48"/>
       <use x="63.623047" xlink:href="#DejaVuSans-46"/>
       <use x="95.410156" xlink:href="#DejaVuSans-53"/>
      </g>
     </g>
    </g>
    <g id="ytick_6">
     <g id="line2d_13">
      <g>
       <use style="stroke:#000000;stroke-width:0.8;" x="54" xlink:href="#ma5c53cda1d" y="72.585077"/>
      </g>
     </g>
     <g id="text_14">
      <!-- 1.0 -->
      <g transform="translate(31.096875 76.384296)scale(0.1 -0.1)">
       <use xlink:href="#DejaVuSans-49"/>
       <use x="63.623047" xlink:href="#DejaVuSans-46"/>
       <use x="95.410156" xlink:href="#DejaVuSans-48"/>
      </g>
     </g>
    </g>
    <g id="ytick_7">
     <g id="line2d_14">
      <g>
       <use style="stroke:#000000;stroke-width:0.8;" x="54" xlink:href="#ma5c53cda1d" y="38.610077"/>
      </g>
     </g>
     <g id="text_15">
      <!-- 1.5 -->
      <g transform="translate(31.096875 42.409296)scale(0.1 -0.1)">
       <use xlink:href="#DejaVuSans-49"/>
       <use x="63.623047" xlink:href="#DejaVuSans-46"/>
       <use x="95.410156" xlink:href="#DejaVuSans-53"/>
      </g>
     </g>
    </g>
    <g id="text_16">
     <!-- X_1 -->
     <g transform="translate(16.359375 152.38625)rotate(-90)scale(0.1 -0.1)">
      <use xlink:href="#DejaVuSans-88"/>
      <use x="68.505859" xlink:href="#DejaVuSans-95"/>
      <use x="118.505859" xlink:href="#DejaVuSans-49"/>
     </g>
    </g>
   </g>
   <g id="patch_3">
    <path d="M 54 252 
L 54 34.56 
" style="fill:none;stroke:#000000;stroke-linecap:square;stroke-linejoin:miter;stroke-width:0.8;"/>
   </g>
   <g id="patch_4">
    <path d="M 388.8 252 
L 388.8 34.56 
" style="fill:none;stroke:#000000;stroke-linecap:square;stroke-linejoin:miter;stroke-width:0.8;"/>
   </g>
   <g id="patch_5">
    <path d="M 54 252 
L 388.8 252 
" style="fill:none;stroke:#000000;stroke-linecap:square;stroke-linejoin:miter;stroke-width:0.8;"/>
   </g>
   <g id="patch_6">
    <path d="M 54 34.56 
L 388.8 34.56 
" style="fill:none;stroke:#000000;stroke-linecap:square;stroke-linejoin:miter;stroke-width:0.8;"/>
   </g>
   <g id="text_17">
    <!-- Problem 1, #neighbors 150 -->
    <g transform="translate(139.101562 28.56)scale(0.12 -0.12)">
     <defs>
      <path d="M 19.671875 64.796875 
L 19.671875 37.40625 
L 32.078125 37.40625 
Q 38.96875 37.40625 42.71875 40.96875 
Q 46.484375 44.53125 46.484375 51.125 
Q 46.484375 57.671875 42.71875 61.234375 
Q 38.96875 64.796875 32.078125 64.796875 
z
M 9.8125 72.90625 
L 32.078125 72.90625 
Q 44.34375 72.90625 50.609375 67.359375 
Q 56.890625 61.8125 56.890625 51.125 
Q 56.890625 40.328125 50.609375 34.8125 
Q 44.34375 29.296875 32.078125 29.296875 
L 19.671875 29.296875 
L 19.671875 0 
L 9.8125 0 
z
" id="DejaVuSans-80"/>
      <path d="M 41.109375 46.296875 
Q 39.59375 47.171875 37.8125 47.578125 
Q 36.03125 48 33.890625 48 
Q 26.265625 48 22.1875 43.046875 
Q 18.109375 38.09375 18.109375 28.8125 
L 18.109375 0 
L 9.078125 0 
L 9.078125 54.6875 
L 18.109375 54.6875 
L 18.109375 46.1875 
Q 20.953125 51.171875 25.484375 53.578125 
Q 30.03125 56 36.53125 56 
Q 37.453125 56 38.578125 55.875 
Q 39.703125 55.765625 41.0625 55.515625 
z
" id="DejaVuSans-114"/>
      <path d="M 30.609375 48.390625 
Q 23.390625 48.390625 19.1875 42.75 
Q 14.984375 37.109375 14.984375 27.296875 
Q 14.984375 17.484375 19.15625 11.84375 
Q 23.34375 6.203125 30.609375 6.203125 
Q 37.796875 6.203125 41.984375 11.859375 
Q 46.1875 17.53125 46.1875 27.296875 
Q 46.1875 37.015625 41.984375 42.703125 
Q 37.796875 48.390625 30.609375 48.390625 
z
M 30.609375 56 
Q 42.328125 56 49.015625 48.375 
Q 55.71875 40.765625 55.71875 27.296875 
Q 55.71875 13.875 49.015625 6.21875 
Q 42.328125 -1.421875 30.609375 -1.421875 
Q 18.84375 -1.421875 12.171875 6.21875 
Q 5.515625 13.875 5.515625 27.296875 
Q 5.515625 40.765625 12.171875 48.375 
Q 18.84375 56 30.609375 56 
z
" id="DejaVuSans-111"/>
      <path d="M 48.6875 27.296875 
Q 48.6875 37.203125 44.609375 42.84375 
Q 40.53125 48.484375 33.40625 48.484375 
Q 26.265625 48.484375 22.1875 42.84375 
Q 18.109375 37.203125 18.109375 27.296875 
Q 18.109375 17.390625 22.1875 11.75 
Q 26.265625 6.109375 33.40625 6.109375 
Q 40.53125 6.109375 44.609375 11.75 
Q 48.6875 17.390625 48.6875 27.296875 
z
M 18.109375 46.390625 
Q 20.953125 51.265625 25.265625 53.625 
Q 29.59375 56 35.59375 56 
Q 45.5625 56 51.78125 48.09375 
Q 58.015625 40.1875 58.015625 27.296875 
Q 58.015625 14.40625 51.78125 6.484375 
Q 45.5625 -1.421875 35.59375 -1.421875 
Q 29.59375 -1.421875 25.265625 0.953125 
Q 20.953125 3.328125 18.109375 8.203125 
L 18.109375 0 
L 9.078125 0 
L 9.078125 75.984375 
L 18.109375 75.984375 
z
" id="DejaVuSans-98"/>
      <path d="M 9.421875 75.984375 
L 18.40625 75.984375 
L 18.40625 0 
L 9.421875 0 
z
" id="DejaVuSans-108"/>
      <path d="M 56.203125 29.59375 
L 56.203125 25.203125 
L 14.890625 25.203125 
Q 15.484375 15.921875 20.484375 11.0625 
Q 25.484375 6.203125 34.421875 6.203125 
Q 39.59375 6.203125 44.453125 7.46875 
Q 49.3125 8.734375 54.109375 11.28125 
L 54.109375 2.78125 
Q 49.265625 0.734375 44.1875 -0.34375 
Q 39.109375 -1.421875 33.890625 -1.421875 
Q 20.796875 -1.421875 13.15625 6.1875 
Q 5.515625 13.8125 5.515625 26.8125 
Q 5.515625 40.234375 12.765625 48.109375 
Q 20.015625 56 32.328125 56 
Q 43.359375 56 49.78125 48.890625 
Q 56.203125 41.796875 56.203125 29.59375 
z
M 47.21875 32.234375 
Q 47.125 39.59375 43.09375 43.984375 
Q 39.0625 48.390625 32.421875 48.390625 
Q 24.90625 48.390625 20.390625 44.140625 
Q 15.875 39.890625 15.1875 32.171875 
z
" id="DejaVuSans-101"/>
      <path d="M 52 44.1875 
Q 55.375 50.25 60.0625 53.125 
Q 64.75 56 71.09375 56 
Q 79.640625 56 84.28125 50.015625 
Q 88.921875 44.046875 88.921875 33.015625 
L 88.921875 0 
L 79.890625 0 
L 79.890625 32.71875 
Q 79.890625 40.578125 77.09375 44.375 
Q 74.3125 48.1875 68.609375 48.1875 
Q 61.625 48.1875 57.5625 43.546875 
Q 53.515625 38.921875 53.515625 30.90625 
L 53.515625 0 
L 44.484375 0 
L 44.484375 32.71875 
Q 44.484375 40.625 41.703125 44.40625 
Q 38.921875 48.1875 33.109375 48.1875 
Q 26.21875 48.1875 22.15625 43.53125 
Q 18.109375 38.875 18.109375 30.90625 
L 18.109375 0 
L 9.078125 0 
L 9.078125 54.6875 
L 18.109375 54.6875 
L 18.109375 46.1875 
Q 21.1875 51.21875 25.484375 53.609375 
Q 29.78125 56 35.6875 56 
Q 41.65625 56 45.828125 52.96875 
Q 50 49.953125 52 44.1875 
z
" id="DejaVuSans-109"/>
      <path id="DejaVuSans-32"/>
      <path d="M 11.71875 12.40625 
L 22.015625 12.40625 
L 22.015625 4 
L 14.015625 -11.625 
L 7.71875 -11.625 
L 11.71875 4 
z
" id="DejaVuSans-44"/>
      <path d="M 51.125 44 
L 36.921875 44 
L 32.8125 27.6875 
L 47.125 27.6875 
z
M 43.796875 71.78125 
L 38.71875 51.515625 
L 52.984375 51.515625 
L 58.109375 71.78125 
L 65.921875 71.78125 
L 60.890625 51.515625 
L 76.125 51.515625 
L 76.125 44 
L 58.984375 44 
L 54.984375 27.6875 
L 70.515625 27.6875 
L 70.515625 20.21875 
L 53.078125 20.21875 
L 48 0 
L 40.1875 0 
L 45.21875 20.21875 
L 30.90625 20.21875 
L 25.875 0 
L 18.015625 0 
L 23.09375 20.21875 
L 7.71875 20.21875 
L 7.71875 27.6875 
L 24.90625 27.6875 
L 29 44 
L 13.28125 44 
L 13.28125 51.515625 
L 30.90625 51.515625 
L 35.890625 71.78125 
z
" id="DejaVuSans-35"/>
      <path d="M 54.890625 33.015625 
L 54.890625 0 
L 45.90625 0 
L 45.90625 32.71875 
Q 45.90625 40.484375 42.875 44.328125 
Q 39.84375 48.1875 33.796875 48.1875 
Q 26.515625 48.1875 22.3125 43.546875 
Q 18.109375 38.921875 18.109375 30.90625 
L 18.109375 0 
L 9.078125 0 
L 9.078125 54.6875 
L 18.109375 54.6875 
L 18.109375 46.1875 
Q 21.34375 51.125 25.703125 53.5625 
Q 30.078125 56 35.796875 56 
Q 45.21875 56 50.046875 50.171875 
Q 54.890625 44.34375 54.890625 33.015625 
z
" id="DejaVuSans-110"/>
      <path d="M 9.421875 54.6875 
L 18.40625 54.6875 
L 18.40625 0 
L 9.421875 0 
z
M 9.421875 75.984375 
L 18.40625 75.984375 
L 18.40625 64.59375 
L 9.421875 64.59375 
z
" id="DejaVuSans-105"/>
      <path d="M 45.40625 27.984375 
Q 45.40625 37.75 41.375 43.109375 
Q 37.359375 48.484375 30.078125 48.484375 
Q 22.859375 48.484375 18.828125 43.109375 
Q 14.796875 37.75 14.796875 27.984375 
Q 14.796875 18.265625 18.828125 12.890625 
Q 22.859375 7.515625 30.078125 7.515625 
Q 37.359375 7.515625 41.375 12.890625 
Q 45.40625 18.265625 45.40625 27.984375 
z
M 54.390625 6.78125 
Q 54.390625 -7.171875 48.1875 -13.984375 
Q 42 -20.796875 29.203125 -20.796875 
Q 24.46875 -20.796875 20.265625 -20.09375 
Q 16.0625 -19.390625 12.109375 -17.921875 
L 12.109375 -9.1875 
Q 16.0625 -11.328125 19.921875 -12.34375 
Q 23.78125 -13.375 27.78125 -13.375 
Q 36.625 -13.375 41.015625 -8.765625 
Q 45.40625 -4.15625 45.40625 5.171875 
L 45.40625 9.625 
Q 42.625 4.78125 38.28125 2.390625 
Q 33.9375 0 27.875 0 
Q 17.828125 0 11.671875 7.65625 
Q 5.515625 15.328125 5.515625 27.984375 
Q 5.515625 40.671875 11.671875 48.328125 
Q 17.828125 56 27.875 56 
Q 33.9375 56 38.28125 53.609375 
Q 42.625 51.21875 45.40625 46.390625 
L 45.40625 54.6875 
L 54.390625 54.6875 
z
" id="DejaVuSans-103"/>
      <path d="M 54.890625 33.015625 
L 54.890625 0 
L 45.90625 0 
L 45.90625 32.71875 
Q 45.90625 40.484375 42.875 44.328125 
Q 39.84375 48.1875 33.796875 48.1875 
Q 26.515625 48.1875 22.3125 43.546875 
Q 18.109375 38.921875 18.109375 30.90625 
L 18.109375 0 
L 9.078125 0 
L 9.078125 75.984375 
L 18.109375 75.984375 
L 18.109375 46.1875 
Q 21.34375 51.125 25.703125 53.5625 
Q 30.078125 56 35.796875 56 
Q 45.21875 56 50.046875 50.171875 
Q 54.890625 44.34375 54.890625 33.015625 
z
" id="DejaVuSans-104"/>
      <path d="M 44.28125 53.078125 
L 44.28125 44.578125 
Q 40.484375 46.53125 36.375 47.5 
Q 32.28125 48.484375 27.875 48.484375 
Q 21.1875 48.484375 17.84375 46.4375 
Q 14.5 44.390625 14.5 40.28125 
Q 14.5 37.15625 16.890625 35.375 
Q 19.28125 33.59375 26.515625 31.984375 
L 29.59375 31.296875 
Q 39.15625 29.25 43.1875 25.515625 
Q 47.21875 21.78125 47.21875 15.09375 
Q 47.21875 7.46875 41.1875 3.015625 
Q 35.15625 -1.421875 24.609375 -1.421875 
Q 20.21875 -1.421875 15.453125 -0.5625 
Q 10.6875 0.296875 5.421875 2 
L 5.421875 11.28125 
Q 10.40625 8.6875 15.234375 7.390625 
Q 20.0625 6.109375 24.8125 6.109375 
Q 31.15625 6.109375 34.5625 8.28125 
Q 37.984375 10.453125 37.984375 14.40625 
Q 37.984375 18.0625 35.515625 20.015625 
Q 33.0625 21.96875 24.703125 23.78125 
L 21.578125 24.515625 
Q 13.234375 26.265625 9.515625 29.90625 
Q 5.8125 33.546875 5.8125 39.890625 
Q 5.8125 47.609375 11.28125 51.796875 
Q 16.75 56 26.8125 56 
Q 31.78125 56 36.171875 55.265625 
Q 40.578125 54.546875 44.28125 53.078125 
z
" id="DejaVuSans-115"/>
     </defs>
     <use xlink:href="#DejaVuSans-80"/>
     <use x="58.552734" xlink:href="#DejaVuSans-114"/>
     <use x="97.416016" xlink:href="#DejaVuSans-111"/>
     <use x="158.597656" xlink:href="#DejaVuSans-98"/>
     <use x="222.074219" xlink:href="#DejaVuSans-108"/>
     <use x="249.857422" xlink:href="#DejaVuSans-101"/>
     <use x="311.380859" xlink:href="#DejaVuSans-109"/>
     <use x="408.792969" xlink:href="#DejaVuSans-32"/>
     <use x="440.580078" xlink:href="#DejaVuSans-49"/>
     <use x="504.203125" xlink:href="#DejaVuSans-44"/>
     <use x="535.990234" xlink:href="#DejaVuSans-32"/>
     <use x="567.777344" xlink:href="#DejaVuSans-35"/>
     <use x="651.566406" xlink:href="#DejaVuSans-110"/>
     <use x="714.945312" xlink:href="#DejaVuSans-101"/>
     <use x="776.46875" xlink:href="#DejaVuSans-105"/>
     <use x="804.251953" xlink:href="#DejaVuSans-103"/>
     <use x="867.728516" xlink:href="#DejaVuSans-104"/>
     <use x="931.107422" xlink:href="#DejaVuSans-98"/>
     <use x="994.583984" xlink:href="#DejaVuSans-111"/>
     <use x="1055.765625" xlink:href="#DejaVuSans-114"/>
     <use x="1096.878906" xlink:href="#DejaVuSans-115"/>
     <use x="1148.978516" xlink:href="#DejaVuSans-32"/>
     <use x="1180.765625" xlink:href="#DejaVuSans-49"/>
     <use x="1244.388672" xlink:href="#DejaVuSans-53"/>
     <use x="1308.011719" xlink:href="#DejaVuSans-48"/>
    </g>
   </g>
  </g>
 </g>
 <defs>
  <clipPath id="pcbe6df7143">
   <rect height="217.44" width="334.8" x="54" y="34.56"/>
  </clipPath>
 </defs>
</svg>
