<?xml version="1.0" encoding="utf-8" standalone="no"?>
<!DOCTYPE svg PUBLIC "-//W3C//DTD SVG 1.1//EN"
  "http://www.w3.org/Graphics/SVG/1.1/DTD/svg11.dtd">
<!-- Created with matplotlib (https://matplotlib.org/) -->
<svg height="288pt" version="1.1" viewBox="0 0 432 288" width="432pt" xmlns="http://www.w3.org/2000/svg" xmlns:xlink="http://www.w3.org/1999/xlink">
 <metadata>
  <rdf:RDF xmlns:cc="http://creativecommons.org/ns#" xmlns:dc="http://purl.org/dc/elements/1.1/" xmlns:rdf="http://www.w3.org/1999/02/22-rdf-syntax-ns#">
   <cc:Work>
    <dc:type rdf:resource="http://purl.org/dc/dcmitype/StillImage"/>
    <dc:date>2020-10-01T14:52:27.145744</dc:date>
    <dc:format>image/svg+xml</dc:format>
    <dc:creator>
     <cc:Agent>
      <dc:title>Matplotlib v3.3.1, https://matplotlib.org/</dc:title>
     </cc:Agent>
    </dc:creator>
   </cc:Work>
  </rdf:RDF>
 </metadata>
 <defs>
  <style type="text/css">*{stroke-linecap:butt;stroke-linejoin:round;}</style>
 </defs>
 <g id="figure_1">
  <g id="patch_1">
   <path d="M 0 288 
L 432 288 
L 432 0 
L 0 0 
z
" style="fill:#ffffff;"/>
  </g>
  <g id="axes_1">
   <g id="patch_2">
    <path d="M 54 252 
L 388.8 252 
L 388.8 34.56 
L 54 34.56 
z
" style="fill:#ffffff;"/>
   </g>
   <g id="PathCollection_1">
    <path clip-path="url(#p959592fc21)" d="M 63.3 252 
L 72.6 252 
L 81.9 252 
L 91.2 252 
L 100.5 252 
L 109.8 252 
L 119.1 252 
L 128.4 252 
L 137.7 252 
L 147 252 
L 156.3 252 
L 165.6 252 
L 174.9 252 
L 184.2 252 
L 193.5 252 
L 202.8 252 
L 212.1 252 
L 213.495 252 
L 213.495 245.96 
L 213.495 239.92 
L 213.495 233.88 
L 213.495 227.84 
L 213.495 221.8 
L 213.495 215.76 
L 213.495 209.72 
L 221.4 204.586 
L 222.795 203.68 
L 222.795 197.64 
L 222.795 191.6 
L 221.4 190.694 
L 213.495 185.56 
L 212.1 184.654 
L 202.8 184.654 
L 193.5 184.654 
L 184.2 184.654 
L 174.9 184.654 
L 166.995 179.52 
L 166.995 173.48 
L 165.6 172.574 
L 157.695 167.44 
L 157.695 161.4 
L 157.695 155.36 
L 157.695 149.32 
L 165.6 144.186 
L 174.9 144.186 
L 184.2 144.186 
L 193.5 144.186 
L 202.8 144.186 
L 212.1 144.186 
L 220.005 149.32 
L 220.005 155.36 
L 220.005 161.4 
L 220.005 167.44 
L 220.005 173.48 
L 221.4 174.386 
L 229.305 179.52 
L 230.7 180.426 
L 232.095 179.52 
L 240 174.386 
L 249.3 174.386 
L 258.6 174.386 
L 266.505 179.52 
L 267.9 180.426 
L 269.295 179.52 
L 277.2 174.386 
L 278.595 173.48 
L 278.595 167.44 
L 277.2 166.534 
L 269.295 161.4 
L 277.2 156.266 
L 278.595 155.36 
L 286.5 150.226 
L 287.895 149.32 
L 286.5 148.414 
L 277.2 148.414 
L 275.805 149.32 
L 267.9 154.454 
L 258.6 154.454 
L 249.3 154.454 
L 241.395 149.32 
L 240 148.414 
L 232.095 143.28 
L 230.7 142.374 
L 222.795 137.24 
L 230.7 132.106 
L 232.095 131.2 
L 232.095 125.16 
L 232.095 119.12 
L 230.7 118.214 
L 222.795 113.08 
L 221.4 112.174 
L 213.495 107.04 
L 221.4 101.906 
L 230.7 101.906 
L 240 101.906 
L 249.3 101.906 
L 258.6 101.906 
L 267.9 101.906 
L 277.2 101.906 
L 285.105 107.04 
L 285.105 113.08 
L 285.105 119.12 
L 285.105 125.16 
L 285.105 131.2 
L 286.5 132.106 
L 295.8 132.106 
L 303.705 137.24 
L 305.1 138.146 
L 314.4 138.146 
L 323.7 138.146 
L 333 138.146 
L 342.3 138.146 
L 351.6 138.146 
L 360.9 138.146 
L 370.2 138.146 
L 379.5 138.146 
L 388.8 138.146 
L 388.8 137.24 
L 388.8 131.2 
L 388.8 125.16 
L 388.8 119.12 
L 388.8 113.08 
L 388.8 107.04 
L 388.8 101 
L 388.8 94.96 
L 388.8 88.92 
L 388.8 82.88 
L 388.8 76.84 
L 388.8 70.8 
L 388.8 64.76 
L 388.8 58.72 
L 388.8 52.68 
L 388.8 46.64 
L 388.8 40.6 
L 388.8 34.56 
L 379.5 34.56 
L 370.2 34.56 
L 360.9 34.56 
L 351.6 34.56 
L 342.3 34.56 
L 333 34.56 
L 323.7 34.56 
L 314.4 34.56 
L 305.1 34.56 
L 295.8 34.56 
L 286.5 34.56 
L 277.2 34.56 
L 267.9 34.56 
L 258.6 34.56 
L 249.3 34.56 
L 240 34.56 
L 230.7 34.56 
L 229.305 34.56 
L 229.305 40.6 
L 229.305 46.64 
L 229.305 52.68 
L 229.305 58.72 
L 229.305 64.76 
L 229.305 70.8 
L 229.305 76.84 
L 221.4 81.974 
L 220.005 82.88 
L 220.005 88.92 
L 220.005 94.96 
L 212.1 100.094 
L 210.705 101 
L 202.8 106.134 
L 193.5 106.134 
L 184.2 106.134 
L 182.805 107.04 
L 174.9 112.174 
L 173.505 113.08 
L 165.6 118.214 
L 164.205 119.12 
L 165.6 120.026 
L 173.505 125.16 
L 173.505 131.2 
L 174.9 132.106 
L 182.805 137.24 
L 174.9 142.374 
L 166.995 137.24 
L 165.6 136.334 
L 164.205 137.24 
L 156.3 142.374 
L 154.905 143.28 
L 147 148.414 
L 137.7 148.414 
L 128.4 148.414 
L 119.1 148.414 
L 109.8 148.414 
L 101.895 143.28 
L 100.5 142.374 
L 91.2 142.374 
L 89.805 143.28 
L 81.9 148.414 
L 72.6 148.414 
L 63.3 148.414 
L 54 148.414 
L 54 149.32 
L 54 155.36 
L 54 161.4 
L 54 167.44 
L 54 173.48 
L 54 179.52 
L 54 185.56 
L 54 191.6 
L 54 197.64 
L 54 203.68 
L 54 209.72 
L 54 215.76 
L 54 221.8 
L 54 227.84 
L 54 233.88 
L 54 239.92 
L 54 245.96 
L 54 252 
z
" style="fill:#ee6410;fill-opacity:0.8;"/>
   </g>
   <g id="PathCollection_2">
    <path clip-path="url(#p959592fc21)" d="M 214.89 245.96 
L 214.89 239.92 
L 214.89 233.88 
L 214.89 227.84 
L 214.89 221.8 
L 214.89 215.76 
L 214.89 209.72 
L 221.4 205.492 
L 224.19 203.68 
L 224.19 197.64 
L 224.19 191.6 
L 221.4 189.788 
L 214.89 185.56 
L 212.1 183.748 
L 202.8 183.748 
L 193.5 183.748 
L 184.2 183.748 
L 174.9 183.748 
L 168.39 179.52 
L 168.39 173.48 
L 165.6 171.668 
L 159.09 167.44 
L 159.09 161.4 
L 159.09 155.36 
L 159.09 149.32 
L 165.6 145.092 
L 174.9 145.092 
L 184.2 145.092 
L 193.5 145.092 
L 202.8 145.092 
L 212.1 145.092 
L 218.61 149.32 
L 218.61 155.36 
L 218.61 161.4 
L 218.61 167.44 
L 218.61 173.48 
L 221.4 175.292 
L 227.91 179.52 
L 230.7 181.332 
L 233.49 179.52 
L 240 175.292 
L 249.3 175.292 
L 258.6 175.292 
L 265.11 179.52 
L 267.9 181.332 
L 270.69 179.52 
L 277.2 175.292 
L 279.99 173.48 
L 279.99 167.44 
L 277.2 165.628 
L 270.69 161.4 
L 277.2 157.172 
L 279.99 155.36 
L 286.5 151.132 
L 289.29 149.32 
L 286.5 147.508 
L 277.2 147.508 
L 274.41 149.32 
L 267.9 153.548 
L 258.6 153.548 
L 249.3 153.548 
L 242.79 149.32 
L 240 147.508 
L 233.49 143.28 
L 230.7 141.468 
L 224.19 137.24 
L 230.7 133.012 
L 233.49 131.2 
L 233.49 125.16 
L 233.49 119.12 
L 230.7 117.308 
L 224.19 113.08 
L 221.4 111.268 
L 214.89 107.04 
L 221.4 102.812 
L 230.7 102.812 
L 240 102.812 
L 249.3 102.812 
L 258.6 102.812 
L 267.9 102.812 
L 277.2 102.812 
L 283.71 107.04 
L 283.71 113.08 
L 283.71 119.12 
L 283.71 125.16 
L 283.71 131.2 
L 286.5 133.012 
L 295.8 133.012 
L 302.31 137.24 
L 305.1 139.052 
L 314.4 139.052 
L 323.7 139.052 
L 333 139.052 
L 342.3 139.052 
L 351.6 139.052 
L 360.9 139.052 
L 370.2 139.052 
L 379.5 139.052 
L 388.8 139.052 
L 388.8 138.146 
L 379.5 138.146 
L 370.2 138.146 
L 360.9 138.146 
L 351.6 138.146 
L 342.3 138.146 
L 333 138.146 
L 323.7 138.146 
L 314.4 138.146 
L 305.1 138.146 
L 303.705 137.24 
L 295.8 132.106 
L 286.5 132.106 
L 285.105 131.2 
L 285.105 125.16 
L 285.105 119.12 
L 285.105 113.08 
L 285.105 107.04 
L 277.2 101.906 
L 267.9 101.906 
L 258.6 101.906 
L 249.3 101.906 
L 240 101.906 
L 230.7 101.906 
L 221.4 101.906 
L 213.495 107.04 
L 221.4 112.174 
L 222.795 113.08 
L 230.7 118.214 
L 232.095 119.12 
L 232.095 125.16 
L 232.095 131.2 
L 230.7 132.106 
L 222.795 137.24 
L 230.7 142.374 
L 232.095 143.28 
L 240 148.414 
L 241.395 149.32 
L 249.3 154.454 
L 258.6 154.454 
L 267.9 154.454 
L 275.805 149.32 
L 277.2 148.414 
L 286.5 148.414 
L 287.895 149.32 
L 286.5 150.226 
L 278.595 155.36 
L 277.2 156.266 
L 269.295 161.4 
L 277.2 166.534 
L 278.595 167.44 
L 278.595 173.48 
L 277.2 174.386 
L 269.295 179.52 
L 267.9 180.426 
L 266.505 179.52 
L 258.6 174.386 
L 249.3 174.386 
L 240 174.386 
L 232.095 179.52 
L 230.7 180.426 
L 229.305 179.52 
L 221.4 174.386 
L 220.005 173.48 
L 220.005 167.44 
L 220.005 161.4 
L 220.005 155.36 
L 220.005 149.32 
L 212.1 144.186 
L 202.8 144.186 
L 193.5 144.186 
L 184.2 144.186 
L 174.9 144.186 
L 165.6 144.186 
L 157.695 149.32 
L 157.695 155.36 
L 157.695 161.4 
L 157.695 167.44 
L 165.6 172.574 
L 166.995 173.48 
L 166.995 179.52 
L 174.9 184.654 
L 184.2 184.654 
L 193.5 184.654 
L 202.8 184.654 
L 212.1 184.654 
L 213.495 185.56 
L 221.4 190.694 
L 222.795 191.6 
L 222.795 197.64 
L 222.795 203.68 
L 221.4 204.586 
L 213.495 209.72 
L 213.495 215.76 
L 213.495 221.8 
L 213.495 227.84 
L 213.495 233.88 
L 213.495 239.92 
L 213.495 245.96 
L 213.495 252 
L 214.89 252 
z
" style="fill:#fd9f56;fill-opacity:0.8;"/>
    <path clip-path="url(#p959592fc21)" d="M 63.3 148.414 
L 72.6 148.414 
L 81.9 148.414 
L 89.805 143.28 
L 91.2 142.374 
L 100.5 142.374 
L 101.895 143.28 
L 109.8 148.414 
L 119.1 148.414 
L 128.4 148.414 
L 137.7 148.414 
L 147 148.414 
L 154.905 143.28 
L 156.3 142.374 
L 164.205 137.24 
L 165.6 136.334 
L 166.995 137.24 
L 174.9 142.374 
L 182.805 137.24 
L 174.9 132.106 
L 173.505 131.2 
L 173.505 125.16 
L 165.6 120.026 
L 164.205 119.12 
L 165.6 118.214 
L 173.505 113.08 
L 174.9 112.174 
L 182.805 107.04 
L 184.2 106.134 
L 193.5 106.134 
L 202.8 106.134 
L 210.705 101 
L 212.1 100.094 
L 220.005 94.96 
L 220.005 88.92 
L 220.005 82.88 
L 221.4 81.974 
L 229.305 76.84 
L 229.305 70.8 
L 229.305 64.76 
L 229.305 58.72 
L 229.305 52.68 
L 229.305 46.64 
L 229.305 40.6 
L 229.305 34.56 
L 227.91 34.56 
L 227.91 40.6 
L 227.91 46.64 
L 227.91 52.68 
L 227.91 58.72 
L 227.91 64.76 
L 227.91 70.8 
L 227.91 76.84 
L 221.4 81.068 
L 218.61 82.88 
L 218.61 88.92 
L 218.61 94.96 
L 212.1 99.188 
L 209.31 101 
L 202.8 105.228 
L 193.5 105.228 
L 184.2 105.228 
L 181.41 107.04 
L 174.9 111.268 
L 172.11 113.08 
L 165.6 117.308 
L 162.81 119.12 
L 165.6 120.932 
L 172.11 125.16 
L 172.11 131.2 
L 174.9 133.012 
L 181.41 137.24 
L 174.9 141.468 
L 168.39 137.24 
L 165.6 135.428 
L 162.81 137.24 
L 156.3 141.468 
L 153.51 143.28 
L 147 147.508 
L 137.7 147.508 
L 128.4 147.508 
L 119.1 147.508 
L 109.8 147.508 
L 103.29 143.28 
L 100.5 141.468 
L 91.2 141.468 
L 88.41 143.28 
L 81.9 147.508 
L 72.6 147.508 
L 63.3 147.508 
L 54 147.508 
L 54 148.414 
z
" style="fill:#fd9f56;fill-opacity:0.8;"/>
   </g>
   <g id="PathCollection_3">
    <path clip-path="url(#p959592fc21)" d="M 216.285 245.96 
L 216.285 239.92 
L 216.285 233.88 
L 216.285 227.84 
L 216.285 221.8 
L 216.285 215.76 
L 216.285 209.72 
L 221.4 206.398 
L 225.585 203.68 
L 225.585 197.64 
L 225.585 191.6 
L 221.4 188.882 
L 216.285 185.56 
L 212.1 182.842 
L 202.8 182.842 
L 193.5 182.842 
L 184.2 182.842 
L 174.9 182.842 
L 169.785 179.52 
L 169.785 173.48 
L 165.6 170.762 
L 160.485 167.44 
L 160.485 161.4 
L 160.485 155.36 
L 160.485 149.32 
L 165.6 145.998 
L 174.9 145.998 
L 184.2 145.998 
L 193.5 145.998 
L 202.8 145.998 
L 212.1 145.998 
L 217.215 149.32 
L 217.215 155.36 
L 217.215 161.4 
L 217.215 167.44 
L 217.215 173.48 
L 221.4 176.198 
L 226.515 179.52 
L 230.7 182.238 
L 234.885 179.52 
L 240 176.198 
L 249.3 176.198 
L 258.6 176.198 
L 263.715 179.52 
L 267.9 182.238 
L 272.085 179.52 
L 277.2 176.198 
L 281.385 173.48 
L 281.385 167.44 
L 277.2 164.722 
L 272.085 161.4 
L 277.2 158.078 
L 281.385 155.36 
L 286.5 152.038 
L 290.685 149.32 
L 286.5 146.602 
L 277.2 146.602 
L 273.015 149.32 
L 267.9 152.642 
L 258.6 152.642 
L 249.3 152.642 
L 244.185 149.32 
L 240 146.602 
L 234.885 143.28 
L 230.7 140.562 
L 225.585 137.24 
L 230.7 133.918 
L 234.885 131.2 
L 234.885 125.16 
L 234.885 119.12 
L 230.7 116.402 
L 225.585 113.08 
L 221.4 110.362 
L 216.285 107.04 
L 221.4 103.718 
L 230.7 103.718 
L 240 103.718 
L 249.3 103.718 
L 258.6 103.718 
L 267.9 103.718 
L 277.2 103.718 
L 282.315 107.04 
L 282.315 113.08 
L 282.315 119.12 
L 282.315 125.16 
L 282.315 131.2 
L 286.5 133.918 
L 295.8 133.918 
L 300.915 137.24 
L 305.1 139.958 
L 314.4 139.958 
L 323.7 139.958 
L 333 139.958 
L 342.3 139.958 
L 351.6 139.958 
L 360.9 139.958 
L 370.2 139.958 
L 379.5 139.958 
L 388.8 139.958 
L 388.8 139.052 
L 379.5 139.052 
L 370.2 139.052 
L 360.9 139.052 
L 351.6 139.052 
L 342.3 139.052 
L 333 139.052 
L 323.7 139.052 
L 314.4 139.052 
L 305.1 139.052 
L 302.31 137.24 
L 295.8 133.012 
L 286.5 133.012 
L 283.71 131.2 
L 283.71 125.16 
L 283.71 119.12 
L 283.71 113.08 
L 283.71 107.04 
L 277.2 102.812 
L 267.9 102.812 
L 258.6 102.812 
L 249.3 102.812 
L 240 102.812 
L 230.7 102.812 
L 221.4 102.812 
L 214.89 107.04 
L 221.4 111.268 
L 224.19 113.08 
L 230.7 117.308 
L 233.49 119.12 
L 233.49 125.16 
L 233.49 131.2 
L 230.7 133.012 
L 224.19 137.24 
L 230.7 141.468 
L 233.49 143.28 
L 240 147.508 
L 242.79 149.32 
L 249.3 153.548 
L 258.6 153.548 
L 267.9 153.548 
L 274.41 149.32 
L 277.2 147.508 
L 286.5 147.508 
L 289.29 149.32 
L 286.5 151.132 
L 279.99 155.36 
L 277.2 157.172 
L 270.69 161.4 
L 277.2 165.628 
L 279.99 167.44 
L 279.99 173.48 
L 277.2 175.292 
L 270.69 179.52 
L 267.9 181.332 
L 265.11 179.52 
L 258.6 175.292 
L 249.3 175.292 
L 240 175.292 
L 233.49 179.52 
L 230.7 181.332 
L 227.91 179.52 
L 221.4 175.292 
L 218.61 173.48 
L 218.61 167.44 
L 218.61 161.4 
L 218.61 155.36 
L 218.61 149.32 
L 212.1 145.092 
L 202.8 145.092 
L 193.5 145.092 
L 184.2 145.092 
L 174.9 145.092 
L 165.6 145.092 
L 159.09 149.32 
L 159.09 155.36 
L 159.09 161.4 
L 159.09 167.44 
L 165.6 171.668 
L 168.39 173.48 
L 168.39 179.52 
L 174.9 183.748 
L 184.2 183.748 
L 193.5 183.748 
L 202.8 183.748 
L 212.1 183.748 
L 214.89 185.56 
L 221.4 189.788 
L 224.19 191.6 
L 224.19 197.64 
L 224.19 203.68 
L 221.4 205.492 
L 214.89 209.72 
L 214.89 215.76 
L 214.89 221.8 
L 214.89 227.84 
L 214.89 233.88 
L 214.89 239.92 
L 214.89 245.96 
L 214.89 252 
L 216.285 252 
z
" style="fill:#fdd7af;fill-opacity:0.8;"/>
    <path clip-path="url(#p959592fc21)" d="M 63.3 147.508 
L 72.6 147.508 
L 81.9 147.508 
L 88.41 143.28 
L 91.2 141.468 
L 100.5 141.468 
L 103.29 143.28 
L 109.8 147.508 
L 119.1 147.508 
L 128.4 147.508 
L 137.7 147.508 
L 147 147.508 
L 153.51 143.28 
L 156.3 141.468 
L 162.81 137.24 
L 165.6 135.428 
L 168.39 137.24 
L 174.9 141.468 
L 181.41 137.24 
L 174.9 133.012 
L 172.11 131.2 
L 172.11 125.16 
L 165.6 120.932 
L 162.81 119.12 
L 165.6 117.308 
L 172.11 113.08 
L 174.9 111.268 
L 181.41 107.04 
L 184.2 105.228 
L 193.5 105.228 
L 202.8 105.228 
L 209.31 101 
L 212.1 99.188 
L 218.61 94.96 
L 218.61 88.92 
L 218.61 82.88 
L 221.4 81.068 
L 227.91 76.84 
L 227.91 70.8 
L 227.91 64.76 
L 227.91 58.72 
L 227.91 52.68 
L 227.91 46.64 
L 227.91 40.6 
L 227.91 34.56 
L 226.515 34.56 
L 226.515 40.6 
L 226.515 46.64 
L 226.515 52.68 
L 226.515 58.72 
L 226.515 64.76 
L 226.515 70.8 
L 226.515 76.84 
L 221.4 80.162 
L 217.215 82.88 
L 217.215 88.92 
L 217.215 94.96 
L 212.1 98.282 
L 207.915 101 
L 202.8 104.322 
L 193.5 104.322 
L 184.2 104.322 
L 180.015 107.04 
L 174.9 110.362 
L 170.715 113.08 
L 165.6 116.402 
L 161.415 119.12 
L 165.6 121.838 
L 170.715 125.16 
L 170.715 131.2 
L 174.9 133.918 
L 180.015 137.24 
L 174.9 140.562 
L 169.785 137.24 
L 165.6 134.522 
L 161.415 137.24 
L 156.3 140.562 
L 152.115 143.28 
L 147 146.602 
L 137.7 146.602 
L 128.4 146.602 
L 119.1 146.602 
L 109.8 146.602 
L 104.685 143.28 
L 100.5 140.562 
L 91.2 140.562 
L 87.015 143.28 
L 81.9 146.602 
L 72.6 146.602 
L 63.3 146.602 
L 54 146.602 
L 54 147.508 
z
" style="fill:#fdd7af;fill-opacity:0.8;"/>
   </g>
   <g id="PathCollection_4">
    <path clip-path="url(#p959592fc21)" d="M 217.68 245.96 
L 217.68 239.92 
L 217.68 233.88 
L 217.68 227.84 
L 217.68 221.8 
L 217.68 215.76 
L 217.68 209.72 
L 221.4 207.304 
L 226.98 203.68 
L 226.98 197.64 
L 226.98 191.6 
L 221.4 187.976 
L 217.68 185.56 
L 212.1 181.936 
L 202.8 181.936 
L 193.5 181.936 
L 184.2 181.936 
L 174.9 181.936 
L 171.18 179.52 
L 171.18 173.48 
L 165.6 169.856 
L 161.88 167.44 
L 161.88 161.4 
L 161.88 155.36 
L 161.88 149.32 
L 165.6 146.904 
L 174.9 146.904 
L 184.2 146.904 
L 193.5 146.904 
L 202.8 146.904 
L 212.1 146.904 
L 215.82 149.32 
L 215.82 155.36 
L 215.82 161.4 
L 215.82 167.44 
L 215.82 173.48 
L 221.4 177.104 
L 225.12 179.52 
L 230.7 183.144 
L 236.28 179.52 
L 240 177.104 
L 249.3 177.104 
L 258.6 177.104 
L 262.32 179.52 
L 267.9 183.144 
L 273.48 179.52 
L 277.2 177.104 
L 282.78 173.48 
L 282.78 167.44 
L 277.2 163.816 
L 273.48 161.4 
L 277.2 158.984 
L 282.78 155.36 
L 286.5 152.944 
L 292.08 149.32 
L 286.5 145.696 
L 277.2 145.696 
L 271.62 149.32 
L 267.9 151.736 
L 258.6 151.736 
L 249.3 151.736 
L 245.58 149.32 
L 240 145.696 
L 236.28 143.28 
L 230.7 139.656 
L 226.98 137.24 
L 230.7 134.824 
L 236.28 131.2 
L 236.28 125.16 
L 236.28 119.12 
L 230.7 115.496 
L 226.98 113.08 
L 221.4 109.456 
L 217.68 107.04 
L 221.4 104.624 
L 230.7 104.624 
L 240 104.624 
L 249.3 104.624 
L 258.6 104.624 
L 267.9 104.624 
L 277.2 104.624 
L 280.92 107.04 
L 280.92 113.08 
L 280.92 119.12 
L 280.92 125.16 
L 280.92 131.2 
L 286.5 134.824 
L 295.8 134.824 
L 299.52 137.24 
L 305.1 140.864 
L 314.4 140.864 
L 323.7 140.864 
L 333 140.864 
L 342.3 140.864 
L 351.6 140.864 
L 360.9 140.864 
L 370.2 140.864 
L 379.5 140.864 
L 388.8 140.864 
L 388.8 139.958 
L 379.5 139.958 
L 370.2 139.958 
L 360.9 139.958 
L 351.6 139.958 
L 342.3 139.958 
L 333 139.958 
L 323.7 139.958 
L 314.4 139.958 
L 305.1 139.958 
L 300.915 137.24 
L 295.8 133.918 
L 286.5 133.918 
L 282.315 131.2 
L 282.315 125.16 
L 282.315 119.12 
L 282.315 113.08 
L 282.315 107.04 
L 277.2 103.718 
L 267.9 103.718 
L 258.6 103.718 
L 249.3 103.718 
L 240 103.718 
L 230.7 103.718 
L 221.4 103.718 
L 216.285 107.04 
L 221.4 110.362 
L 225.585 113.08 
L 230.7 116.402 
L 234.885 119.12 
L 234.885 125.16 
L 234.885 131.2 
L 230.7 133.918 
L 225.585 137.24 
L 230.7 140.562 
L 234.885 143.28 
L 240 146.602 
L 244.185 149.32 
L 249.3 152.642 
L 258.6 152.642 
L 267.9 152.642 
L 273.015 149.32 
L 277.2 146.602 
L 286.5 146.602 
L 290.685 149.32 
L 286.5 152.038 
L 281.385 155.36 
L 277.2 158.078 
L 272.085 161.4 
L 277.2 164.722 
L 281.385 167.44 
L 281.385 173.48 
L 277.2 176.198 
L 272.085 179.52 
L 267.9 182.238 
L 263.715 179.52 
L 258.6 176.198 
L 249.3 176.198 
L 240 176.198 
L 234.885 179.52 
L 230.7 182.238 
L 226.515 179.52 
L 221.4 176.198 
L 217.215 173.48 
L 217.215 167.44 
L 217.215 161.4 
L 217.215 155.36 
L 217.215 149.32 
L 212.1 145.998 
L 202.8 145.998 
L 193.5 145.998 
L 184.2 145.998 
L 174.9 145.998 
L 165.6 145.998 
L 160.485 149.32 
L 160.485 155.36 
L 160.485 161.4 
L 160.485 167.44 
L 165.6 170.762 
L 169.785 173.48 
L 169.785 179.52 
L 174.9 182.842 
L 184.2 182.842 
L 193.5 182.842 
L 202.8 182.842 
L 212.1 182.842 
L 216.285 185.56 
L 221.4 188.882 
L 225.585 191.6 
L 225.585 197.64 
L 225.585 203.68 
L 221.4 206.398 
L 216.285 209.72 
L 216.285 215.76 
L 216.285 221.8 
L 216.285 227.84 
L 216.285 233.88 
L 216.285 239.92 
L 216.285 245.96 
L 216.285 252 
L 217.68 252 
z
" style="fill:#f7fbff;fill-opacity:0.8;"/>
    <path clip-path="url(#p959592fc21)" d="M 63.3 146.602 
L 72.6 146.602 
L 81.9 146.602 
L 87.015 143.28 
L 91.2 140.562 
L 100.5 140.562 
L 104.685 143.28 
L 109.8 146.602 
L 119.1 146.602 
L 128.4 146.602 
L 137.7 146.602 
L 147 146.602 
L 152.115 143.28 
L 156.3 140.562 
L 161.415 137.24 
L 165.6 134.522 
L 169.785 137.24 
L 174.9 140.562 
L 180.015 137.24 
L 174.9 133.918 
L 170.715 131.2 
L 170.715 125.16 
L 165.6 121.838 
L 161.415 119.12 
L 165.6 116.402 
L 170.715 113.08 
L 174.9 110.362 
L 180.015 107.04 
L 184.2 104.322 
L 193.5 104.322 
L 202.8 104.322 
L 207.915 101 
L 212.1 98.282 
L 217.215 94.96 
L 217.215 88.92 
L 217.215 82.88 
L 221.4 80.162 
L 226.515 76.84 
L 226.515 70.8 
L 226.515 64.76 
L 226.515 58.72 
L 226.515 52.68 
L 226.515 46.64 
L 226.515 40.6 
L 226.515 34.56 
L 225.12 34.56 
L 225.12 40.6 
L 225.12 46.64 
L 225.12 52.68 
L 225.12 58.72 
L 225.12 64.76 
L 225.12 70.8 
L 225.12 76.84 
L 221.4 79.256 
L 215.82 82.88 
L 215.82 88.92 
L 215.82 94.96 
L 212.1 97.376 
L 206.52 101 
L 202.8 103.416 
L 193.5 103.416 
L 184.2 103.416 
L 178.62 107.04 
L 174.9 109.456 
L 169.32 113.08 
L 165.6 115.496 
L 160.02 119.12 
L 165.6 122.744 
L 169.32 125.16 
L 169.32 131.2 
L 165.6 133.616 
L 160.02 137.24 
L 156.3 139.656 
L 150.72 143.28 
L 147 145.696 
L 137.7 145.696 
L 128.4 145.696 
L 119.1 145.696 
L 109.8 145.696 
L 106.08 143.28 
L 100.5 139.656 
L 91.2 139.656 
L 85.62 143.28 
L 81.9 145.696 
L 72.6 145.696 
L 63.3 145.696 
L 54 145.696 
L 54 146.602 
z
M 171.18 137.24 
L 174.9 134.824 
L 178.62 137.24 
L 174.9 139.656 
z
" style="fill:#f7fbff;fill-opacity:0.8;"/>
   </g>
   <g id="PathCollection_5">
    <path clip-path="url(#p959592fc21)" d="M 219.075 245.96 
L 219.075 239.92 
L 219.075 233.88 
L 219.075 227.84 
L 219.075 221.8 
L 219.075 215.76 
L 219.075 209.72 
L 221.4 208.21 
L 228.375 203.68 
L 228.375 197.64 
L 228.375 191.6 
L 221.4 187.07 
L 219.075 185.56 
L 212.1 181.03 
L 202.8 181.03 
L 193.5 181.03 
L 184.2 181.03 
L 174.9 181.03 
L 172.575 179.52 
L 172.575 173.48 
L 165.6 168.95 
L 163.275 167.44 
L 163.275 161.4 
L 163.275 155.36 
L 163.275 149.32 
L 165.6 147.81 
L 174.9 147.81 
L 184.2 147.81 
L 193.5 147.81 
L 202.8 147.81 
L 212.1 147.81 
L 214.425 149.32 
L 214.425 155.36 
L 214.425 161.4 
L 214.425 167.44 
L 214.425 173.48 
L 221.4 178.01 
L 223.725 179.52 
L 230.7 184.05 
L 237.675 179.52 
L 240 178.01 
L 249.3 178.01 
L 258.6 178.01 
L 260.925 179.52 
L 267.9 184.05 
L 274.875 179.52 
L 277.2 178.01 
L 284.175 173.48 
L 284.175 167.44 
L 277.2 162.91 
L 274.875 161.4 
L 277.2 159.89 
L 284.175 155.36 
L 286.5 153.85 
L 293.475 149.32 
L 286.5 144.79 
L 277.2 144.79 
L 270.225 149.32 
L 267.9 150.83 
L 258.6 150.83 
L 249.3 150.83 
L 246.975 149.32 
L 240 144.79 
L 237.675 143.28 
L 230.7 138.75 
L 228.375 137.24 
L 230.7 135.73 
L 237.675 131.2 
L 237.675 125.16 
L 237.675 119.12 
L 230.7 114.59 
L 228.375 113.08 
L 221.4 108.55 
L 219.075 107.04 
L 221.4 105.53 
L 230.7 105.53 
L 240 105.53 
L 249.3 105.53 
L 258.6 105.53 
L 267.9 105.53 
L 277.2 105.53 
L 279.525 107.04 
L 279.525 113.08 
L 279.525 119.12 
L 279.525 125.16 
L 279.525 131.2 
L 286.5 135.73 
L 295.8 135.73 
L 298.125 137.24 
L 305.1 141.77 
L 314.4 141.77 
L 323.7 141.77 
L 333 141.77 
L 342.3 141.77 
L 351.6 141.77 
L 360.9 141.77 
L 370.2 141.77 
L 379.5 141.77 
L 388.8 141.77 
L 388.8 140.864 
L 379.5 140.864 
L 370.2 140.864 
L 360.9 140.864 
L 351.6 140.864 
L 342.3 140.864 
L 333 140.864 
L 323.7 140.864 
L 314.4 140.864 
L 305.1 140.864 
L 299.52 137.24 
L 295.8 134.824 
L 286.5 134.824 
L 280.92 131.2 
L 280.92 125.16 
L 280.92 119.12 
L 280.92 113.08 
L 280.92 107.04 
L 277.2 104.624 
L 267.9 104.624 
L 258.6 104.624 
L 249.3 104.624 
L 240 104.624 
L 230.7 104.624 
L 221.4 104.624 
L 217.68 107.04 
L 221.4 109.456 
L 226.98 113.08 
L 230.7 115.496 
L 236.28 119.12 
L 236.28 125.16 
L 236.28 131.2 
L 230.7 134.824 
L 226.98 137.24 
L 230.7 139.656 
L 236.28 143.28 
L 240 145.696 
L 245.58 149.32 
L 249.3 151.736 
L 258.6 151.736 
L 267.9 151.736 
L 271.62 149.32 
L 277.2 145.696 
L 286.5 145.696 
L 292.08 149.32 
L 286.5 152.944 
L 282.78 155.36 
L 277.2 158.984 
L 273.48 161.4 
L 277.2 163.816 
L 282.78 167.44 
L 282.78 173.48 
L 277.2 177.104 
L 273.48 179.52 
L 267.9 183.144 
L 262.32 179.52 
L 258.6 177.104 
L 249.3 177.104 
L 240 177.104 
L 236.28 179.52 
L 230.7 183.144 
L 225.12 179.52 
L 221.4 177.104 
L 215.82 173.48 
L 215.82 167.44 
L 215.82 161.4 
L 215.82 155.36 
L 215.82 149.32 
L 212.1 146.904 
L 202.8 146.904 
L 193.5 146.904 
L 184.2 146.904 
L 174.9 146.904 
L 165.6 146.904 
L 161.88 149.32 
L 161.88 155.36 
L 161.88 161.4 
L 161.88 167.44 
L 165.6 169.856 
L 171.18 173.48 
L 171.18 179.52 
L 174.9 181.936 
L 184.2 181.936 
L 193.5 181.936 
L 202.8 181.936 
L 212.1 181.936 
L 217.68 185.56 
L 221.4 187.976 
L 226.98 191.6 
L 226.98 197.64 
L 226.98 203.68 
L 221.4 207.304 
L 217.68 209.72 
L 217.68 215.76 
L 217.68 221.8 
L 217.68 227.84 
L 217.68 233.88 
L 217.68 239.92 
L 217.68 245.96 
L 217.68 252 
L 219.075 252 
z
" style="fill:#cde0f1;fill-opacity:0.8;"/>
    <path clip-path="url(#p959592fc21)" d="M 63.3 145.696 
L 72.6 145.696 
L 81.9 145.696 
L 85.62 143.28 
L 91.2 139.656 
L 100.5 139.656 
L 106.08 143.28 
L 109.8 145.696 
L 119.1 145.696 
L 128.4 145.696 
L 137.7 145.696 
L 147 145.696 
L 150.72 143.28 
L 156.3 139.656 
L 160.02 137.24 
L 165.6 133.616 
L 169.32 131.2 
L 169.32 125.16 
L 165.6 122.744 
L 160.02 119.12 
L 165.6 115.496 
L 169.32 113.08 
L 174.9 109.456 
L 178.62 107.04 
L 184.2 103.416 
L 193.5 103.416 
L 202.8 103.416 
L 206.52 101 
L 212.1 97.376 
L 215.82 94.96 
L 215.82 88.92 
L 215.82 82.88 
L 221.4 79.256 
L 225.12 76.84 
L 225.12 70.8 
L 225.12 64.76 
L 225.12 58.72 
L 225.12 52.68 
L 225.12 46.64 
L 225.12 40.6 
L 225.12 34.56 
L 223.725 34.56 
L 223.725 40.6 
L 223.725 46.64 
L 223.725 52.68 
L 223.725 58.72 
L 223.725 64.76 
L 223.725 70.8 
L 223.725 76.84 
L 221.4 78.35 
L 214.425 82.88 
L 214.425 88.92 
L 214.425 94.96 
L 212.1 96.47 
L 205.125 101 
L 202.8 102.51 
L 193.5 102.51 
L 184.2 102.51 
L 177.225 107.04 
L 174.9 108.55 
L 167.925 113.08 
L 165.6 114.59 
L 158.625 119.12 
L 165.6 123.65 
L 167.925 125.16 
L 167.925 131.2 
L 165.6 132.71 
L 158.625 137.24 
L 156.3 138.75 
L 149.325 143.28 
L 147 144.79 
L 137.7 144.79 
L 128.4 144.79 
L 119.1 144.79 
L 109.8 144.79 
L 107.475 143.28 
L 100.5 138.75 
L 91.2 138.75 
L 84.225 143.28 
L 81.9 144.79 
L 72.6 144.79 
L 63.3 144.79 
L 54 144.79 
L 54 145.696 
z
" style="fill:#cde0f1;fill-opacity:0.8;"/>
    <path clip-path="url(#p959592fc21)" d="M 174.9 139.656 
L 178.62 137.24 
L 174.9 134.824 
L 171.18 137.24 
z
M 172.575 137.24 
L 174.9 135.73 
L 177.225 137.24 
L 174.9 138.75 
z
" style="fill:#cde0f1;fill-opacity:0.8;"/>
   </g>
   <g id="PathCollection_6">
    <path clip-path="url(#p959592fc21)" d="M 220.47 245.96 
L 220.47 239.92 
L 220.47 233.88 
L 220.47 227.84 
L 220.47 221.8 
L 220.47 215.76 
L 220.47 209.72 
L 221.4 209.116 
L 229.77 203.68 
L 229.77 197.64 
L 229.77 191.6 
L 221.4 186.164 
L 220.47 185.56 
L 212.1 180.124 
L 202.8 180.124 
L 193.5 180.124 
L 184.2 180.124 
L 174.9 180.124 
L 173.97 179.52 
L 173.97 173.48 
L 165.6 168.044 
L 164.67 167.44 
L 164.67 161.4 
L 164.67 155.36 
L 164.67 149.32 
L 165.6 148.716 
L 174.9 148.716 
L 184.2 148.716 
L 193.5 148.716 
L 202.8 148.716 
L 212.1 148.716 
L 213.03 149.32 
L 213.03 155.36 
L 213.03 161.4 
L 213.03 167.44 
L 213.03 173.48 
L 221.4 178.916 
L 222.33 179.52 
L 230.7 184.956 
L 239.07 179.52 
L 240 178.916 
L 249.3 178.916 
L 258.6 178.916 
L 259.53 179.52 
L 267.9 184.956 
L 276.27 179.52 
L 277.2 178.916 
L 285.57 173.48 
L 285.57 167.44 
L 277.2 162.004 
L 276.27 161.4 
L 277.2 160.796 
L 285.57 155.36 
L 286.5 154.756 
L 294.87 149.32 
L 286.5 143.884 
L 277.2 143.884 
L 268.83 149.32 
L 267.9 149.924 
L 258.6 149.924 
L 249.3 149.924 
L 248.37 149.32 
L 240 143.884 
L 239.07 143.28 
L 230.7 137.844 
L 229.77 137.24 
L 230.7 136.636 
L 239.07 131.2 
L 239.07 125.16 
L 239.07 119.12 
L 230.7 113.684 
L 229.77 113.08 
L 221.4 107.644 
L 220.47 107.04 
L 221.4 106.436 
L 230.7 106.436 
L 240 106.436 
L 249.3 106.436 
L 258.6 106.436 
L 267.9 106.436 
L 277.2 106.436 
L 278.13 107.04 
L 278.13 113.08 
L 278.13 119.12 
L 278.13 125.16 
L 278.13 131.2 
L 286.5 136.636 
L 295.8 136.636 
L 296.73 137.24 
L 305.1 142.676 
L 314.4 142.676 
L 323.7 142.676 
L 333 142.676 
L 342.3 142.676 
L 351.6 142.676 
L 360.9 142.676 
L 370.2 142.676 
L 379.5 142.676 
L 388.8 142.676 
L 388.8 141.77 
L 379.5 141.77 
L 370.2 141.77 
L 360.9 141.77 
L 351.6 141.77 
L 342.3 141.77 
L 333 141.77 
L 323.7 141.77 
L 314.4 141.77 
L 305.1 141.77 
L 298.125 137.24 
L 295.8 135.73 
L 286.5 135.73 
L 279.525 131.2 
L 279.525 125.16 
L 279.525 119.12 
L 279.525 113.08 
L 279.525 107.04 
L 277.2 105.53 
L 267.9 105.53 
L 258.6 105.53 
L 249.3 105.53 
L 240 105.53 
L 230.7 105.53 
L 221.4 105.53 
L 219.075 107.04 
L 221.4 108.55 
L 228.375 113.08 
L 230.7 114.59 
L 237.675 119.12 
L 237.675 125.16 
L 237.675 131.2 
L 230.7 135.73 
L 228.375 137.24 
L 230.7 138.75 
L 237.675 143.28 
L 240 144.79 
L 246.975 149.32 
L 249.3 150.83 
L 258.6 150.83 
L 267.9 150.83 
L 270.225 149.32 
L 277.2 144.79 
L 286.5 144.79 
L 293.475 149.32 
L 286.5 153.85 
L 284.175 155.36 
L 277.2 159.89 
L 274.875 161.4 
L 277.2 162.91 
L 284.175 167.44 
L 284.175 173.48 
L 277.2 178.01 
L 274.875 179.52 
L 267.9 184.05 
L 260.925 179.52 
L 258.6 178.01 
L 249.3 178.01 
L 240 178.01 
L 237.675 179.52 
L 230.7 184.05 
L 223.725 179.52 
L 221.4 178.01 
L 214.425 173.48 
L 214.425 167.44 
L 214.425 161.4 
L 214.425 155.36 
L 214.425 149.32 
L 212.1 147.81 
L 202.8 147.81 
L 193.5 147.81 
L 184.2 147.81 
L 174.9 147.81 
L 165.6 147.81 
L 163.275 149.32 
L 163.275 155.36 
L 163.275 161.4 
L 163.275 167.44 
L 165.6 168.95 
L 172.575 173.48 
L 172.575 179.52 
L 174.9 181.03 
L 184.2 181.03 
L 193.5 181.03 
L 202.8 181.03 
L 212.1 181.03 
L 219.075 185.56 
L 221.4 187.07 
L 228.375 191.6 
L 228.375 197.64 
L 228.375 203.68 
L 221.4 208.21 
L 219.075 209.72 
L 219.075 215.76 
L 219.075 221.8 
L 219.075 227.84 
L 219.075 233.88 
L 219.075 239.92 
L 219.075 245.96 
L 219.075 252 
L 220.47 252 
z
" style="fill:#87bddc;fill-opacity:0.8;"/>
    <path clip-path="url(#p959592fc21)" d="M 63.3 144.79 
L 72.6 144.79 
L 81.9 144.79 
L 84.225 143.28 
L 91.2 138.75 
L 100.5 138.75 
L 107.475 143.28 
L 109.8 144.79 
L 119.1 144.79 
L 128.4 144.79 
L 137.7 144.79 
L 147 144.79 
L 149.325 143.28 
L 156.3 138.75 
L 158.625 137.24 
L 165.6 132.71 
L 167.925 131.2 
L 167.925 125.16 
L 165.6 123.65 
L 158.625 119.12 
L 165.6 114.59 
L 167.925 113.08 
L 174.9 108.55 
L 177.225 107.04 
L 184.2 102.51 
L 193.5 102.51 
L 202.8 102.51 
L 205.125 101 
L 212.1 96.47 
L 214.425 94.96 
L 214.425 88.92 
L 214.425 82.88 
L 221.4 78.35 
L 223.725 76.84 
L 223.725 70.8 
L 223.725 64.76 
L 223.725 58.72 
L 223.725 52.68 
L 223.725 46.64 
L 223.725 40.6 
L 223.725 34.56 
L 222.33 34.56 
L 222.33 40.6 
L 222.33 46.64 
L 222.33 52.68 
L 222.33 58.72 
L 222.33 64.76 
L 222.33 70.8 
L 222.33 76.84 
L 221.4 77.444 
L 213.03 82.88 
L 213.03 88.92 
L 213.03 94.96 
L 212.1 95.564 
L 203.73 101 
L 202.8 101.604 
L 193.5 101.604 
L 184.2 101.604 
L 175.83 107.04 
L 174.9 107.644 
L 166.53 113.08 
L 165.6 113.684 
L 157.23 119.12 
L 165.6 124.556 
L 166.53 125.16 
L 166.53 131.2 
L 165.6 131.804 
L 157.23 137.24 
L 156.3 137.844 
L 147.93 143.28 
L 147 143.884 
L 137.7 143.884 
L 128.4 143.884 
L 119.1 143.884 
L 109.8 143.884 
L 108.87 143.28 
L 100.5 137.844 
L 91.2 137.844 
L 82.83 143.28 
L 81.9 143.884 
L 72.6 143.884 
L 63.3 143.884 
L 54 143.884 
L 54 144.79 
z
" style="fill:#87bddc;fill-opacity:0.8;"/>
    <path clip-path="url(#p959592fc21)" d="M 174.9 138.75 
L 177.225 137.24 
L 174.9 135.73 
L 172.575 137.24 
z
M 173.97 137.24 
L 174.9 136.636 
L 175.83 137.24 
L 174.9 137.844 
z
" style="fill:#87bddc;fill-opacity:0.8;"/>
   </g>
   <g id="PathCollection_7">
    <path clip-path="url(#p959592fc21)" d="M 221.4 252 
L 230.7 252 
L 240 252 
L 249.3 252 
L 258.6 252 
L 267.9 252 
L 277.2 252 
L 286.5 252 
L 295.8 252 
L 305.1 252 
L 314.4 252 
L 323.7 252 
L 333 252 
L 342.3 252 
L 351.6 252 
L 360.9 252 
L 370.2 252 
L 379.5 252 
L 388.8 252 
L 388.8 245.96 
L 388.8 239.92 
L 388.8 233.88 
L 388.8 227.84 
L 388.8 221.8 
L 388.8 215.76 
L 388.8 209.72 
L 388.8 203.68 
L 388.8 197.64 
L 388.8 191.6 
L 388.8 185.56 
L 388.8 179.52 
L 388.8 173.48 
L 388.8 167.44 
L 388.8 161.4 
L 388.8 155.36 
L 388.8 149.32 
L 388.8 143.28 
L 388.8 142.676 
L 379.5 142.676 
L 370.2 142.676 
L 360.9 142.676 
L 351.6 142.676 
L 342.3 142.676 
L 333 142.676 
L 323.7 142.676 
L 314.4 142.676 
L 305.1 142.676 
L 296.73 137.24 
L 295.8 136.636 
L 286.5 136.636 
L 278.13 131.2 
L 278.13 125.16 
L 278.13 119.12 
L 278.13 113.08 
L 278.13 107.04 
L 277.2 106.436 
L 267.9 106.436 
L 258.6 106.436 
L 249.3 106.436 
L 240 106.436 
L 230.7 106.436 
L 221.4 106.436 
L 220.47 107.04 
L 221.4 107.644 
L 229.77 113.08 
L 230.7 113.684 
L 239.07 119.12 
L 239.07 125.16 
L 239.07 131.2 
L 230.7 136.636 
L 229.77 137.24 
L 230.7 137.844 
L 239.07 143.28 
L 240 143.884 
L 248.37 149.32 
L 249.3 149.924 
L 258.6 149.924 
L 267.9 149.924 
L 268.83 149.32 
L 277.2 143.884 
L 286.5 143.884 
L 294.87 149.32 
L 286.5 154.756 
L 285.57 155.36 
L 277.2 160.796 
L 276.27 161.4 
L 277.2 162.004 
L 285.57 167.44 
L 285.57 173.48 
L 277.2 178.916 
L 276.27 179.52 
L 267.9 184.956 
L 259.53 179.52 
L 258.6 178.916 
L 249.3 178.916 
L 240 178.916 
L 239.07 179.52 
L 230.7 184.956 
L 222.33 179.52 
L 221.4 178.916 
L 213.03 173.48 
L 213.03 167.44 
L 213.03 161.4 
L 213.03 155.36 
L 213.03 149.32 
L 212.1 148.716 
L 202.8 148.716 
L 193.5 148.716 
L 184.2 148.716 
L 174.9 148.716 
L 165.6 148.716 
L 164.67 149.32 
L 164.67 155.36 
L 164.67 161.4 
L 164.67 167.44 
L 165.6 168.044 
L 173.97 173.48 
L 173.97 179.52 
L 174.9 180.124 
L 184.2 180.124 
L 193.5 180.124 
L 202.8 180.124 
L 212.1 180.124 
L 220.47 185.56 
L 221.4 186.164 
L 229.77 191.6 
L 229.77 197.64 
L 229.77 203.68 
L 221.4 209.116 
L 220.47 209.72 
L 220.47 215.76 
L 220.47 221.8 
L 220.47 227.84 
L 220.47 233.88 
L 220.47 239.92 
L 220.47 245.96 
L 220.47 252 
z
" style="fill:#3d8dc4;fill-opacity:0.8;"/>
    <path clip-path="url(#p959592fc21)" d="M 63.3 143.884 
L 72.6 143.884 
L 81.9 143.884 
L 82.83 143.28 
L 91.2 137.844 
L 100.5 137.844 
L 108.87 143.28 
L 109.8 143.884 
L 119.1 143.884 
L 128.4 143.884 
L 137.7 143.884 
L 147 143.884 
L 147.93 143.28 
L 156.3 137.844 
L 157.23 137.24 
L 165.6 131.804 
L 166.53 131.2 
L 166.53 125.16 
L 165.6 124.556 
L 157.23 119.12 
L 165.6 113.684 
L 166.53 113.08 
L 174.9 107.644 
L 175.83 107.04 
L 184.2 101.604 
L 193.5 101.604 
L 202.8 101.604 
L 203.73 101 
L 212.1 95.564 
L 213.03 94.96 
L 213.03 88.92 
L 213.03 82.88 
L 221.4 77.444 
L 222.33 76.84 
L 222.33 70.8 
L 222.33 64.76 
L 222.33 58.72 
L 222.33 52.68 
L 222.33 46.64 
L 222.33 40.6 
L 222.33 34.56 
L 221.4 34.56 
L 212.1 34.56 
L 202.8 34.56 
L 193.5 34.56 
L 184.2 34.56 
L 174.9 34.56 
L 165.6 34.56 
L 156.3 34.56 
L 147 34.56 
L 137.7 34.56 
L 128.4 34.56 
L 119.1 34.56 
L 109.8 34.56 
L 100.5 34.56 
L 91.2 34.56 
L 81.9 34.56 
L 72.6 34.56 
L 63.3 34.56 
L 54 34.56 
L 54 40.6 
L 54 46.64 
L 54 52.68 
L 54 58.72 
L 54 64.76 
L 54 70.8 
L 54 76.84 
L 54 82.88 
L 54 88.92 
L 54 94.96 
L 54 101 
L 54 107.04 
L 54 113.08 
L 54 119.12 
L 54 125.16 
L 54 131.2 
L 54 137.24 
L 54 143.28 
L 54 143.884 
z
" style="fill:#3d8dc4;fill-opacity:0.8;"/>
    <path clip-path="url(#p959592fc21)" d="M 174.9 137.844 
L 175.83 137.24 
L 174.9 136.636 
L 173.97 137.24 
z
" style="fill:#3d8dc4;fill-opacity:0.8;"/>
   </g>
   <g id="PathCollection_8">
    <defs>
     <path d="M 0 3 
C 0.795609 3 1.55874 2.683901 2.12132 2.12132 
C 2.683901 1.55874 3 0.795609 3 -0 
C 3 -0.795609 2.683901 -1.55874 2.12132 -2.12132 
C 1.55874 -2.683901 0.795609 -3 0 -3 
C -0.795609 -3 -1.55874 -2.683901 -2.12132 -2.12132 
C -2.683901 -1.55874 -3 -0.795609 -3 0 
C -3 0.795609 -2.683901 1.55874 -2.12132 2.12132 
C -1.55874 2.683901 -0.795609 3 0 3 
z
" id="C0_0_33a5791da1"/>
    </defs>
    <g clip-path="url(#p959592fc21)">
     <use style="fill:#ff8000;stroke:#000000;" x="325.067381" xlink:href="#C0_0_33a5791da1" y="98.148432"/>
    </g>
    <g clip-path="url(#p959592fc21)">
     <use style="fill:#1e90ff;stroke:#000000;" x="126.71945" xlink:href="#C0_0_33a5791da1" y="72.632775"/>
    </g>
    <g clip-path="url(#p959592fc21)">
     <use style="fill:#ff8000;stroke:#000000;" x="318.253958" xlink:href="#C0_0_33a5791da1" y="66.269913"/>
    </g>
    <g clip-path="url(#p959592fc21)">
     <use style="fill:#ff8000;stroke:#000000;" x="130.415985" xlink:href="#C0_0_33a5791da1" y="171.550146"/>
    </g>
    <g clip-path="url(#p959592fc21)">
     <use style="fill:#ff8000;stroke:#000000;" x="332.856354" xlink:href="#C0_0_33a5791da1" y="83.245462"/>
    </g>
    <g clip-path="url(#p959592fc21)">
     <use style="fill:#ff8000;stroke:#000000;" x="127.809621" xlink:href="#C0_0_33a5791da1" y="165.738323"/>
    </g>
    <g clip-path="url(#p959592fc21)">
     <use style="fill:#ff8000;stroke:#000000;" x="324.175298" xlink:href="#C0_0_33a5791da1" y="76.626292"/>
    </g>
    <g clip-path="url(#p959592fc21)">
     <use style="fill:#1e90ff;stroke:#000000;" x="259.090692" xlink:href="#C0_0_33a5791da1" y="201.673668"/>
    </g>
    <g clip-path="url(#p959592fc21)">
     <use style="fill:#ff8000;stroke:#000000;" x="316.73113" xlink:href="#C0_0_33a5791da1" y="111.266209"/>
    </g>
    <g clip-path="url(#p959592fc21)">
     <use style="fill:#ff8000;stroke:#000000;" x="242.82174" xlink:href="#C0_0_33a5791da1" y="168.39706"/>
    </g>
    <g clip-path="url(#p959592fc21)">
     <use style="fill:#ff8000;stroke:#000000;" x="321.246305" xlink:href="#C0_0_33a5791da1" y="100.156585"/>
    </g>
    <g clip-path="url(#p959592fc21)">
     <use style="fill:#1e90ff;stroke:#000000;" x="134.960481" xlink:href="#C0_0_33a5791da1" y="111.230963"/>
    </g>
    <g clip-path="url(#p959592fc21)">
     <use style="fill:#ff8000;stroke:#000000;" x="223.491651" xlink:href="#C0_0_33a5791da1" y="100.524413"/>
    </g>
    <g clip-path="url(#p959592fc21)">
     <use style="fill:#1e90ff;stroke:#000000;" x="280.011946" xlink:href="#C0_0_33a5791da1" y="203.837697"/>
    </g>
    <g clip-path="url(#p959592fc21)">
     <use style="fill:#1e90ff;stroke:#000000;" x="245.620829" xlink:href="#C0_0_33a5791da1" y="195.572979"/>
    </g>
    <g clip-path="url(#p959592fc21)">
     <use style="fill:#1e90ff;stroke:#000000;" x="308.001505" xlink:href="#C0_0_33a5791da1" y="219.759007"/>
    </g>
    <g clip-path="url(#p959592fc21)">
     <use style="fill:#1e90ff;stroke:#000000;" x="325.471416" xlink:href="#C0_0_33a5791da1" y="185.363738"/>
    </g>
    <g clip-path="url(#p959592fc21)">
     <use style="fill:#1e90ff;stroke:#000000;" x="299.946791" xlink:href="#C0_0_33a5791da1" y="155.685423"/>
    </g>
    <g clip-path="url(#p959592fc21)">
     <use style="fill:#1e90ff;stroke:#000000;" x="129.208294" xlink:href="#C0_0_33a5791da1" y="110.169713"/>
    </g>
    <g clip-path="url(#p959592fc21)">
     <use style="fill:#1e90ff;stroke:#000000;" x="122.65247" xlink:href="#C0_0_33a5791da1" y="81.545534"/>
    </g>
    <g clip-path="url(#p959592fc21)">
     <use style="fill:#1e90ff;stroke:#000000;" x="326.99951" xlink:href="#C0_0_33a5791da1" y="190.484487"/>
    </g>
    <g clip-path="url(#p959592fc21)">
     <use style="fill:#1e90ff;stroke:#000000;" x="300.266953" xlink:href="#C0_0_33a5791da1" y="218.687903"/>
    </g>
    <g clip-path="url(#p959592fc21)">
     <use style="fill:#ff8000;stroke:#000000;" x="177.983435" xlink:href="#C0_0_33a5791da1" y="197.88147"/>
    </g>
    <g clip-path="url(#p959592fc21)">
     <use style="fill:#1e90ff;stroke:#000000;" x="211.589606" xlink:href="#C0_0_33a5791da1" y="177.648641"/>
    </g>
    <g clip-path="url(#p959592fc21)">
     <use style="fill:#ff8000;stroke:#000000;" x="214.109264" xlink:href="#C0_0_33a5791da1" y="113.03358"/>
    </g>
    <g clip-path="url(#p959592fc21)">
     <use style="fill:#1e90ff;stroke:#000000;" x="307.394916" xlink:href="#C0_0_33a5791da1" y="203.405056"/>
    </g>
    <g clip-path="url(#p959592fc21)">
     <use style="fill:#ff8000;stroke:#000000;" x="122.32703" xlink:href="#C0_0_33a5791da1" y="183.106842"/>
    </g>
    <g clip-path="url(#p959592fc21)">
     <use style="fill:#ff8000;stroke:#000000;" x="312.403889" xlink:href="#C0_0_33a5791da1" y="111.120454"/>
    </g>
    <g clip-path="url(#p959592fc21)">
     <use style="fill:#ff8000;stroke:#000000;" x="240.288785" xlink:href="#C0_0_33a5791da1" y="169.061714"/>
    </g>
    <g clip-path="url(#p959592fc21)">
     <use style="fill:#ff8000;stroke:#000000;" x="136.425864" xlink:href="#C0_0_33a5791da1" y="205.11038"/>
    </g>
    <g clip-path="url(#p959592fc21)">
     <use style="fill:#1e90ff;stroke:#000000;" x="119.358469" xlink:href="#C0_0_33a5791da1" y="62.579685"/>
    </g>
    <g clip-path="url(#p959592fc21)">
     <use style="fill:#1e90ff;stroke:#000000;" x="174.857064" xlink:href="#C0_0_33a5791da1" y="79.471181"/>
    </g>
    <g clip-path="url(#p959592fc21)">
     <use style="fill:#ff8000;stroke:#000000;" x="139.962074" xlink:href="#C0_0_33a5791da1" y="207.840861"/>
    </g>
    <g clip-path="url(#p959592fc21)">
     <use style="fill:#1e90ff;stroke:#000000;" x="209.092912" xlink:href="#C0_0_33a5791da1" y="169.50911"/>
    </g>
    <g clip-path="url(#p959592fc21)">
     <use style="fill:#1e90ff;stroke:#000000;" x="129.655045" xlink:href="#C0_0_33a5791da1" y="111.022372"/>
    </g>
    <g clip-path="url(#p959592fc21)">
     <use style="fill:#ff8000;stroke:#000000;" x="106.076711" xlink:href="#C0_0_33a5791da1" y="185.525876"/>
    </g>
    <g clip-path="url(#p959592fc21)">
     <use style="fill:#1e90ff;stroke:#000000;" x="325.110673" xlink:href="#C0_0_33a5791da1" y="196.198654"/>
    </g>
    <g clip-path="url(#p959592fc21)">
     <use style="fill:#ff8000;stroke:#000000;" x="162.226808" xlink:href="#C0_0_33a5791da1" y="209.545418"/>
    </g>
    <g clip-path="url(#p959592fc21)">
     <use style="fill:#ff8000;stroke:#000000;" x="238.144134" xlink:href="#C0_0_33a5791da1" y="170.738258"/>
    </g>
    <g clip-path="url(#p959592fc21)">
     <use style="fill:#1e90ff;stroke:#000000;" x="126.202415" xlink:href="#C0_0_33a5791da1" y="85.106179"/>
    </g>
    <g clip-path="url(#p959592fc21)">
     <use style="fill:#1e90ff;stroke:#000000;" x="300.380626" xlink:href="#C0_0_33a5791da1" y="164.139867"/>
    </g>
    <g clip-path="url(#p959592fc21)">
     <use style="fill:#1e90ff;stroke:#000000;" x="297.436354" xlink:href="#C0_0_33a5791da1" y="148.706211"/>
    </g>
    <g clip-path="url(#p959592fc21)">
     <use style="fill:#1e90ff;stroke:#000000;" x="156.871113" xlink:href="#C0_0_33a5791da1" y="136.339725"/>
    </g>
    <g clip-path="url(#p959592fc21)">
     <use style="fill:#1e90ff;stroke:#000000;" x="224.005754" xlink:href="#C0_0_33a5791da1" y="101.956176"/>
    </g>
    <g clip-path="url(#p959592fc21)">
     <use style="fill:#1e90ff;stroke:#000000;" x="325.225435" xlink:href="#C0_0_33a5791da1" y="190.815916"/>
    </g>
    <g clip-path="url(#p959592fc21)">
     <use style="fill:#ff8000;stroke:#000000;" x="127.000469" xlink:href="#C0_0_33a5791da1" y="188.646392"/>
    </g>
    <g clip-path="url(#p959592fc21)">
     <use style="fill:#ff8000;stroke:#000000;" x="320.711092" xlink:href="#C0_0_33a5791da1" y="85.601934"/>
    </g>
    <g clip-path="url(#p959592fc21)">
     <use style="fill:#ff8000;stroke:#000000;" x="145.393248" xlink:href="#C0_0_33a5791da1" y="221.8"/>
    </g>
    <g clip-path="url(#p959592fc21)">
     <use style="fill:#ff8000;stroke:#000000;" x="318.766224" xlink:href="#C0_0_33a5791da1" y="81.770042"/>
    </g>
    <g clip-path="url(#p959592fc21)">
     <use style="fill:#1e90ff;stroke:#000000;" x="124.412211" xlink:href="#C0_0_33a5791da1" y="106.786838"/>
    </g>
    <g clip-path="url(#p959592fc21)">
     <use style="fill:#ff8000;stroke:#000000;" x="285.355381" xlink:href="#C0_0_33a5791da1" y="86.496097"/>
    </g>
    <g clip-path="url(#p959592fc21)">
     <use style="fill:#1e90ff;stroke:#000000;" x="303.200336" xlink:href="#C0_0_33a5791da1" y="217.16876"/>
    </g>
    <g clip-path="url(#p959592fc21)">
     <use style="fill:#1e90ff;stroke:#000000;" x="125.805417" xlink:href="#C0_0_33a5791da1" y="110.319809"/>
    </g>
    <g clip-path="url(#p959592fc21)">
     <use style="fill:#1e90ff;stroke:#000000;" x="296.65829" xlink:href="#C0_0_33a5791da1" y="151.401317"/>
    </g>
    <g clip-path="url(#p959592fc21)">
     <use style="fill:#ff8000;stroke:#000000;" x="146.052422" xlink:href="#C0_0_33a5791da1" y="163.371333"/>
    </g>
    <g clip-path="url(#p959592fc21)">
     <use style="fill:#1e90ff;stroke:#000000;" x="272.465362" xlink:href="#C0_0_33a5791da1" y="141.601822"/>
    </g>
    <g clip-path="url(#p959592fc21)">
     <use style="fill:#ff8000;stroke:#000000;" x="232.405138" xlink:href="#C0_0_33a5791da1" y="99.83919"/>
    </g>
    <g clip-path="url(#p959592fc21)">
     <use style="fill:#ff8000;stroke:#000000;" x="151.196579" xlink:href="#C0_0_33a5791da1" y="194.052311"/>
    </g>
    <g clip-path="url(#p959592fc21)">
     <use style="fill:#1e90ff;stroke:#000000;" x="283.663879" xlink:href="#C0_0_33a5791da1" y="207.942195"/>
    </g>
    <g clip-path="url(#p959592fc21)">
     <use style="fill:#ff8000;stroke:#000000;" x="127.392192" xlink:href="#C0_0_33a5791da1" y="178.956346"/>
    </g>
    <g clip-path="url(#p959592fc21)">
     <use style="fill:#1e90ff;stroke:#000000;" x="154.205077" xlink:href="#C0_0_33a5791da1" y="80.694758"/>
    </g>
    <g clip-path="url(#p959592fc21)">
     <use style="fill:#ff8000;stroke:#000000;" x="158.325753" xlink:href="#C0_0_33a5791da1" y="137.762417"/>
    </g>
    <g clip-path="url(#p959592fc21)">
     <use style="fill:#1e90ff;stroke:#000000;" x="131.095698" xlink:href="#C0_0_33a5791da1" y="116.404768"/>
    </g>
    <g clip-path="url(#p959592fc21)">
     <use style="fill:#ff8000;stroke:#000000;" x="328.257286" xlink:href="#C0_0_33a5791da1" y="91.644184"/>
    </g>
    <g clip-path="url(#p959592fc21)">
     <use style="fill:#1e90ff;stroke:#000000;" x="242.775808" xlink:href="#C0_0_33a5791da1" y="203.227494"/>
    </g>
    <g clip-path="url(#p959592fc21)">
     <use style="fill:#ff8000;stroke:#000000;" x="213.781066" xlink:href="#C0_0_33a5791da1" y="102.958878"/>
    </g>
    <g clip-path="url(#p959592fc21)">
     <use style="fill:#1e90ff;stroke:#000000;" x="266.263613" xlink:href="#C0_0_33a5791da1" y="194.872511"/>
    </g>
    <g clip-path="url(#p959592fc21)">
     <use style="fill:#ff8000;stroke:#000000;" x="232.000747" xlink:href="#C0_0_33a5791da1" y="167.060425"/>
    </g>
    <g clip-path="url(#p959592fc21)">
     <use style="fill:#1e90ff;stroke:#000000;" x="131.052865" xlink:href="#C0_0_33a5791da1" y="100.892867"/>
    </g>
    <g clip-path="url(#p959592fc21)">
     <use style="fill:#ff8000;stroke:#000000;" x="329.147836" xlink:href="#C0_0_33a5791da1" y="80.782267"/>
    </g>
    <g clip-path="url(#p959592fc21)">
     <use style="fill:#1e90ff;stroke:#000000;" x="184.449219" xlink:href="#C0_0_33a5791da1" y="83.350238"/>
    </g>
    <g clip-path="url(#p959592fc21)">
     <use style="fill:#1e90ff;stroke:#000000;" x="275.238076" xlink:href="#C0_0_33a5791da1" y="133.089361"/>
    </g>
    <g clip-path="url(#p959592fc21)">
     <use style="fill:#1e90ff;stroke:#000000;" x="234.02649" xlink:href="#C0_0_33a5791da1" y="105.863631"/>
    </g>
    <g clip-path="url(#p959592fc21)">
     <use style="fill:#ff8000;stroke:#000000;" x="215.38445" xlink:href="#C0_0_33a5791da1" y="192.478935"/>
    </g>
    <g clip-path="url(#p959592fc21)">
     <use style="fill:#1e90ff;stroke:#000000;" x="253.668697" xlink:href="#C0_0_33a5791da1" y="190.771639"/>
    </g>
    <g clip-path="url(#p959592fc21)">
     <use style="fill:#ff8000;stroke:#000000;" x="281.921126" xlink:href="#C0_0_33a5791da1" y="72.445939"/>
    </g>
    <g clip-path="url(#p959592fc21)">
     <use style="fill:#1e90ff;stroke:#000000;" x="146.245317" xlink:href="#C0_0_33a5791da1" y="130.361759"/>
    </g>
    <g clip-path="url(#p959592fc21)">
     <use style="fill:#ff8000;stroke:#000000;" x="159.215449" xlink:href="#C0_0_33a5791da1" y="214.23588"/>
    </g>
    <g clip-path="url(#p959592fc21)">
     <use style="fill:#1e90ff;stroke:#000000;" x="321.713547" xlink:href="#C0_0_33a5791da1" y="171.467786"/>
    </g>
    <g clip-path="url(#p959592fc21)">
     <use style="fill:#ff8000;stroke:#000000;" x="244.30671" xlink:href="#C0_0_33a5791da1" y="93.544166"/>
    </g>
    <g clip-path="url(#p959592fc21)">
     <use style="fill:#1e90ff;stroke:#000000;" x="297.208453" xlink:href="#C0_0_33a5791da1" y="157.040552"/>
    </g>
    <g clip-path="url(#p959592fc21)">
     <use style="fill:#ff8000;stroke:#000000;" x="306.836734" xlink:href="#C0_0_33a5791da1" y="70.204208"/>
    </g>
    <g clip-path="url(#p959592fc21)">
     <use style="fill:#ff8000;stroke:#000000;" x="322.780155" xlink:href="#C0_0_33a5791da1" y="86.916145"/>
    </g>
    <g clip-path="url(#p959592fc21)">
     <use style="fill:#1e90ff;stroke:#000000;" x="327.558204" xlink:href="#C0_0_33a5791da1" y="206.151088"/>
    </g>
    <g clip-path="url(#p959592fc21)">
     <use style="fill:#ff8000;stroke:#000000;" x="338.11715" xlink:href="#C0_0_33a5791da1" y="95.756685"/>
    </g>
    <g clip-path="url(#p959592fc21)">
     <use style="fill:#1e90ff;stroke:#000000;" x="263.118831" xlink:href="#C0_0_33a5791da1" y="123.280991"/>
    </g>
    <g clip-path="url(#p959592fc21)">
     <use style="fill:#1e90ff;stroke:#000000;" x="218.32719" xlink:href="#C0_0_33a5791da1" y="179.756969"/>
    </g>
    <g clip-path="url(#p959592fc21)">
     <use style="fill:#ff8000;stroke:#000000;" x="324.588382" xlink:href="#C0_0_33a5791da1" y="72.65937"/>
    </g>
    <g clip-path="url(#p959592fc21)">
     <use style="fill:#1e90ff;stroke:#000000;" x="131.71279" xlink:href="#C0_0_33a5791da1" y="102.985764"/>
    </g>
    <g clip-path="url(#p959592fc21)">
     <use style="fill:#1e90ff;stroke:#000000;" x="140.554638" xlink:href="#C0_0_33a5791da1" y="114.614611"/>
    </g>
    <g clip-path="url(#p959592fc21)">
     <use style="fill:#ff8000;stroke:#000000;" x="162.380927" xlink:href="#C0_0_33a5791da1" y="140.166989"/>
    </g>
    <g clip-path="url(#p959592fc21)">
     <use style="fill:#ff8000;stroke:#000000;" x="207.395101" xlink:href="#C0_0_33a5791da1" y="115.756511"/>
    </g>
    <g clip-path="url(#p959592fc21)">
     <use style="fill:#ff8000;stroke:#000000;" x="192.668903" xlink:href="#C0_0_33a5791da1" y="117.75543"/>
    </g>
    <g clip-path="url(#p959592fc21)">
     <use style="fill:#1e90ff;stroke:#000000;" x="319.011011" xlink:href="#C0_0_33a5791da1" y="182.853005"/>
    </g>
    <g clip-path="url(#p959592fc21)">
     <use style="fill:#ff8000;stroke:#000000;" x="321.848843" xlink:href="#C0_0_33a5791da1" y="101.781235"/>
    </g>
    <g clip-path="url(#p959592fc21)">
     <use style="fill:#1e90ff;stroke:#000000;" x="308.538243" xlink:href="#C0_0_33a5791da1" y="194.831551"/>
    </g>
    <g clip-path="url(#p959592fc21)">
     <use style="fill:#ff8000;stroke:#000000;" x="312.2525" xlink:href="#C0_0_33a5791da1" y="95.234386"/>
    </g>
    <g clip-path="url(#p959592fc21)">
     <use style="fill:#ff8000;stroke:#000000;" x="323.886121" xlink:href="#C0_0_33a5791da1" y="90.268108"/>
    </g>
    <g clip-path="url(#p959592fc21)">
     <use style="fill:#ff8000;stroke:#000000;" x="296.734695" xlink:href="#C0_0_33a5791da1" y="134.463913"/>
    </g>
    <g clip-path="url(#p959592fc21)">
     <use style="fill:#1e90ff;stroke:#000000;" x="215.601486" xlink:href="#C0_0_33a5791da1" y="179.218397"/>
    </g>
    <g clip-path="url(#p959592fc21)">
     <use style="fill:#ff8000;stroke:#000000;" x="254.332496" xlink:href="#C0_0_33a5791da1" y="167.935357"/>
    </g>
    <g clip-path="url(#p959592fc21)">
     <use style="fill:#ff8000;stroke:#000000;" x="184.596025" xlink:href="#C0_0_33a5791da1" y="119.170279"/>
    </g>
    <g clip-path="url(#p959592fc21)">
     <use style="fill:#ff8000;stroke:#000000;" x="308.535382" xlink:href="#C0_0_33a5791da1" y="87.633557"/>
    </g>
    <g clip-path="url(#p959592fc21)">
     <use style="fill:#ff8000;stroke:#000000;" x="148.639787" xlink:href="#C0_0_33a5791da1" y="205.928296"/>
    </g>
    <g clip-path="url(#p959592fc21)">
     <use style="fill:#1e90ff;stroke:#000000;" x="245.735783" xlink:href="#C0_0_33a5791da1" y="196.044307"/>
    </g>
    <g clip-path="url(#p959592fc21)">
     <use style="fill:#1e90ff;stroke:#000000;" x="268.731904" xlink:href="#C0_0_33a5791da1" y="131.662099"/>
    </g>
    <g clip-path="url(#p959592fc21)">
     <use style="fill:#1e90ff;stroke:#000000;" x="276.801162" xlink:href="#C0_0_33a5791da1" y="137.797812"/>
    </g>
    <g clip-path="url(#p959592fc21)">
     <use style="fill:#ff8000;stroke:#000000;" x="128.735683" xlink:href="#C0_0_33a5791da1" y="208.965963"/>
    </g>
    <g clip-path="url(#p959592fc21)">
     <use style="fill:#ff8000;stroke:#000000;" x="169.898929" xlink:href="#C0_0_33a5791da1" y="211.5625"/>
    </g>
    <g clip-path="url(#p959592fc21)">
     <use style="fill:#ff8000;stroke:#000000;" x="326.976937" xlink:href="#C0_0_33a5791da1" y="96.124057"/>
    </g>
    <g clip-path="url(#p959592fc21)">
     <use style="fill:#1e90ff;stroke:#000000;" x="248.13201" xlink:href="#C0_0_33a5791da1" y="193.048322"/>
    </g>
    <g clip-path="url(#p959592fc21)">
     <use style="fill:#ff8000;stroke:#000000;" x="134.939145" xlink:href="#C0_0_33a5791da1" y="173.588995"/>
    </g>
    <g clip-path="url(#p959592fc21)">
     <use style="fill:#ff8000;stroke:#000000;" x="336.99052" xlink:href="#C0_0_33a5791da1" y="96.097463"/>
    </g>
    <g clip-path="url(#p959592fc21)">
     <use style="fill:#1e90ff;stroke:#000000;" x="196.579278" xlink:href="#C0_0_33a5791da1" y="86.195251"/>
    </g>
    <g clip-path="url(#p959592fc21)">
     <use style="fill:#1e90ff;stroke:#000000;" x="170.82103" xlink:href="#C0_0_33a5791da1" y="93.339488"/>
    </g>
    <g clip-path="url(#p959592fc21)">
     <use style="fill:#ff8000;stroke:#000000;" x="127.063571" xlink:href="#C0_0_33a5791da1" y="186.628224"/>
    </g>
    <g clip-path="url(#p959592fc21)">
     <use style="fill:#ff8000;stroke:#000000;" x="125.859508" xlink:href="#C0_0_33a5791da1" y="200.539892"/>
    </g>
    <g clip-path="url(#p959592fc21)">
     <use style="fill:#1e90ff;stroke:#000000;" x="321.183603" xlink:href="#C0_0_33a5791da1" y="196.131912"/>
    </g>
    <g clip-path="url(#p959592fc21)">
     <use style="fill:#ff8000;stroke:#000000;" x="283.767757" xlink:href="#C0_0_33a5791da1" y="70.668459"/>
    </g>
    <g clip-path="url(#p959592fc21)">
     <use style="fill:#1e90ff;stroke:#000000;" x="306.393214" xlink:href="#C0_0_33a5791da1" y="151.643883"/>
    </g>
    <g clip-path="url(#p959592fc21)">
     <use style="fill:#1e90ff;stroke:#000000;" x="321.720764" xlink:href="#C0_0_33a5791da1" y="203.747776"/>
    </g>
    <g clip-path="url(#p959592fc21)">
     <use style="fill:#ff8000;stroke:#000000;" x="137.522265" xlink:href="#C0_0_33a5791da1" y="219.58873"/>
    </g>
    <g clip-path="url(#p959592fc21)">
     <use style="fill:#1e90ff;stroke:#000000;" x="115.518423" xlink:href="#C0_0_33a5791da1" y="77.428929"/>
    </g>
    <g clip-path="url(#p959592fc21)">
     <use style="fill:#1e90ff;stroke:#000000;" x="299.503437" xlink:href="#C0_0_33a5791da1" y="211.884001"/>
    </g>
    <g clip-path="url(#p959592fc21)">
     <use style="fill:#ff8000;stroke:#000000;" x="165.200132" xlink:href="#C0_0_33a5791da1" y="202.277193"/>
    </g>
    <g clip-path="url(#p959592fc21)">
     <use style="fill:#ff8000;stroke:#000000;" x="127.063059" xlink:href="#C0_0_33a5791da1" y="185.485431"/>
    </g>
    <g clip-path="url(#p959592fc21)">
     <use style="fill:#ff8000;stroke:#000000;" x="109.598952" xlink:href="#C0_0_33a5791da1" y="207.75898"/>
    </g>
    <g clip-path="url(#p959592fc21)">
     <use style="fill:#ff8000;stroke:#000000;" x="121.422798" xlink:href="#C0_0_33a5791da1" y="194.345177"/>
    </g>
    <g clip-path="url(#p959592fc21)">
     <use style="fill:#ff8000;stroke:#000000;" x="298.793484" xlink:href="#C0_0_33a5791da1" y="73.601601"/>
    </g>
    <g clip-path="url(#p959592fc21)">
     <use style="fill:#1e90ff;stroke:#000000;" x="269.542363" xlink:href="#C0_0_33a5791da1" y="130.569884"/>
    </g>
    <g clip-path="url(#p959592fc21)">
     <use style="fill:#ff8000;stroke:#000000;" x="184.834555" xlink:href="#C0_0_33a5791da1" y="128.669151"/>
    </g>
    <g clip-path="url(#p959592fc21)">
     <use style="fill:#1e90ff;stroke:#000000;" x="144.505474" xlink:href="#C0_0_33a5791da1" y="114.256697"/>
    </g>
    <g clip-path="url(#p959592fc21)">
     <use style="fill:#ff8000;stroke:#000000;" x="136.881357" xlink:href="#C0_0_33a5791da1" y="181.035904"/>
    </g>
    <g clip-path="url(#p959592fc21)">
     <use style="fill:#ff8000;stroke:#000000;" x="176.178905" xlink:href="#C0_0_33a5791da1" y="206.884898"/>
    </g>
    <g clip-path="url(#p959592fc21)">
     <use style="fill:#ff8000;stroke:#000000;" x="136.882164" xlink:href="#C0_0_33a5791da1" y="166.514229"/>
    </g>
    <g clip-path="url(#p959592fc21)">
     <use style="fill:#ff8000;stroke:#000000;" x="131.341589" xlink:href="#C0_0_33a5791da1" y="174.686466"/>
    </g>
    <g clip-path="url(#p959592fc21)">
     <use style="fill:#1e90ff;stroke:#000000;" x="287.638099" xlink:href="#C0_0_33a5791da1" y="196.919318"/>
    </g>
    <g clip-path="url(#p959592fc21)">
     <use style="fill:#ff8000;stroke:#000000;" x="320.321581" xlink:href="#C0_0_33a5791da1" y="118.590694"/>
    </g>
    <g clip-path="url(#p959592fc21)">
     <use style="fill:#1e90ff;stroke:#000000;" x="313.870697" xlink:href="#C0_0_33a5791da1" y="173.936279"/>
    </g>
    <g clip-path="url(#p959592fc21)">
     <use style="fill:#1e90ff;stroke:#000000;" x="177.853397" xlink:href="#C0_0_33a5791da1" y="151.220982"/>
    </g>
    <g clip-path="url(#p959592fc21)">
     <use style="fill:#ff8000;stroke:#000000;" x="115.522126" xlink:href="#C0_0_33a5791da1" y="208.56299"/>
    </g>
    <g clip-path="url(#p959592fc21)">
     <use style="fill:#1e90ff;stroke:#000000;" x="312.810716" xlink:href="#C0_0_33a5791da1" y="184.312368"/>
    </g>
    <g clip-path="url(#p959592fc21)">
     <use style="fill:#1e90ff;stroke:#000000;" x="309.261407" xlink:href="#C0_0_33a5791da1" y="211.235538"/>
    </g>
    <g clip-path="url(#p959592fc21)">
     <use style="fill:#1e90ff;stroke:#000000;" x="204.649044" xlink:href="#C0_0_33a5791da1" y="172.948407"/>
    </g>
    <g clip-path="url(#p959592fc21)">
     <use style="fill:#ff8000;stroke:#000000;" x="230.610871" xlink:href="#C0_0_33a5791da1" y="182.301432"/>
    </g>
    <g clip-path="url(#p959592fc21)">
     <use style="fill:#1e90ff;stroke:#000000;" x="260.35095" xlink:href="#C0_0_33a5791da1" y="118.818657"/>
    </g>
    <g clip-path="url(#p959592fc21)">
     <use style="fill:#1e90ff;stroke:#000000;" x="328.931084" xlink:href="#C0_0_33a5791da1" y="219.671971"/>
    </g>
    <g clip-path="url(#p959592fc21)">
     <use style="fill:#1e90ff;stroke:#000000;" x="179.519233" xlink:href="#C0_0_33a5791da1" y="159.225089"/>
    </g>
    <g clip-path="url(#p959592fc21)">
     <use style="fill:#1e90ff;stroke:#000000;" x="136.953122" xlink:href="#C0_0_33a5791da1" y="117.744682"/>
    </g>
    <g clip-path="url(#p959592fc21)">
     <use style="fill:#1e90ff;stroke:#000000;" x="282.18417" xlink:href="#C0_0_33a5791da1" y="137.170588"/>
    </g>
    <g clip-path="url(#p959592fc21)">
     <use style="fill:#ff8000;stroke:#000000;" x="305.796673" xlink:href="#C0_0_33a5791da1" y="130.271161"/>
    </g>
    <g clip-path="url(#p959592fc21)">
     <use style="fill:#1e90ff;stroke:#000000;" x="313.34771" xlink:href="#C0_0_33a5791da1" y="204.964375"/>
    </g>
    <g clip-path="url(#p959592fc21)">
     <use style="fill:#1e90ff;stroke:#000000;" x="286.605578" xlink:href="#C0_0_33a5791da1" y="135.958189"/>
    </g>
    <g clip-path="url(#p959592fc21)">
     <use style="fill:#1e90ff;stroke:#000000;" x="262.400076" xlink:href="#C0_0_33a5791da1" y="122.275759"/>
    </g>
    <g clip-path="url(#p959592fc21)">
     <use style="fill:#ff8000;stroke:#000000;" x="291.967018" xlink:href="#C0_0_33a5791da1" y="81.025746"/>
    </g>
    <g clip-path="url(#p959592fc21)">
     <use style="fill:#ff8000;stroke:#000000;" x="184.001221" xlink:href="#C0_0_33a5791da1" y="139.193397"/>
    </g>
    <g clip-path="url(#p959592fc21)">
     <use style="fill:#ff8000;stroke:#000000;" x="281.616808" xlink:href="#C0_0_33a5791da1" y="84.259844"/>
    </g>
    <g clip-path="url(#p959592fc21)">
     <use style="fill:#ff8000;stroke:#000000;" x="278.66364" xlink:href="#C0_0_33a5791da1" y="81.121924"/>
    </g>
    <g clip-path="url(#p959592fc21)">
     <use style="fill:#ff8000;stroke:#000000;" x="290.291203" xlink:href="#C0_0_33a5791da1" y="132.690021"/>
    </g>
    <g clip-path="url(#p959592fc21)">
     <use style="fill:#1e90ff;stroke:#000000;" x="122.17491" xlink:href="#C0_0_33a5791da1" y="76.736934"/>
    </g>
    <g clip-path="url(#p959592fc21)">
     <use style="fill:#1e90ff;stroke:#000000;" x="129.069573" xlink:href="#C0_0_33a5791da1" y="89.959477"/>
    </g>
    <g clip-path="url(#p959592fc21)">
     <use style="fill:#1e90ff;stroke:#000000;" x="329.55346" xlink:href="#C0_0_33a5791da1" y="172.877477"/>
    </g>
    <g clip-path="url(#p959592fc21)">
     <use style="fill:#1e90ff;stroke:#000000;" x="224.797684" xlink:href="#C0_0_33a5791da1" y="185.851991"/>
    </g>
    <g clip-path="url(#p959592fc21)">
     <use style="fill:#ff8000;stroke:#000000;" x="118.481615" xlink:href="#C0_0_33a5791da1" y="195.884563"/>
    </g>
    <g clip-path="url(#p959592fc21)">
     <use style="fill:#ff8000;stroke:#000000;" x="245.545956" xlink:href="#C0_0_33a5791da1" y="92.394501"/>
    </g>
    <g clip-path="url(#p959592fc21)">
     <use style="fill:#1e90ff;stroke:#000000;" x="301.428715" xlink:href="#C0_0_33a5791da1" y="210.616823"/>
    </g>
    <g clip-path="url(#p959592fc21)">
     <use style="fill:#1e90ff;stroke:#000000;" x="137.610577" xlink:href="#C0_0_33a5791da1" y="69.334667"/>
    </g>
    <g clip-path="url(#p959592fc21)">
     <use style="fill:#ff8000;stroke:#000000;" x="141.698607" xlink:href="#C0_0_33a5791da1" y="205.470357"/>
    </g>
    <g clip-path="url(#p959592fc21)">
     <use style="fill:#ff8000;stroke:#000000;" x="255.553705" xlink:href="#C0_0_33a5791da1" y="85.447288"/>
    </g>
    <g clip-path="url(#p959592fc21)">
     <use style="fill:#ff8000;stroke:#000000;" x="318.820838" xlink:href="#C0_0_33a5791da1" y="82.380896"/>
    </g>
    <g clip-path="url(#p959592fc21)">
     <use style="fill:#1e90ff;stroke:#000000;" x="168.896602" xlink:href="#C0_0_33a5791da1" y="133.904535"/>
    </g>
    <g clip-path="url(#p959592fc21)">
     <use style="fill:#ff8000;stroke:#000000;" x="249.663594" xlink:href="#C0_0_33a5791da1" y="86.674774"/>
    </g>
    <g clip-path="url(#p959592fc21)">
     <use style="fill:#1e90ff;stroke:#000000;" x="297.731816" xlink:href="#C0_0_33a5791da1" y="154.731248"/>
    </g>
    <g clip-path="url(#p959592fc21)">
     <use style="fill:#1e90ff;stroke:#000000;" x="130.077145" xlink:href="#C0_0_33a5791da1" y="83.855793"/>
    </g>
    <g clip-path="url(#p959592fc21)">
     <use style="fill:#1e90ff;stroke:#000000;" x="162.553054" xlink:href="#C0_0_33a5791da1" y="132.199434"/>
    </g>
    <g clip-path="url(#p959592fc21)">
     <use style="fill:#1e90ff;stroke:#000000;" x="191.268539" xlink:href="#C0_0_33a5791da1" y="166.327287"/>
    </g>
    <g clip-path="url(#p959592fc21)">
     <use style="fill:#1e90ff;stroke:#000000;" x="318.468242" xlink:href="#C0_0_33a5791da1" y="171.183826"/>
    </g>
    <g clip-path="url(#p959592fc21)">
     <use style="fill:#1e90ff;stroke:#000000;" x="146.898732" xlink:href="#C0_0_33a5791da1" y="136.048991"/>
    </g>
    <g clip-path="url(#p959592fc21)">
     <use style="fill:#ff8000;stroke:#000000;" x="217.904069" xlink:href="#C0_0_33a5791da1" y="177.90857"/>
    </g>
    <g clip-path="url(#p959592fc21)">
     <use style="fill:#1e90ff;stroke:#000000;" x="127.547586" xlink:href="#C0_0_33a5791da1" y="66.046147"/>
    </g>
    <g clip-path="url(#p959592fc21)">
     <use style="fill:#1e90ff;stroke:#000000;" x="221.948348" xlink:href="#C0_0_33a5791da1" y="179.92633"/>
    </g>
    <g clip-path="url(#p959592fc21)">
     <use style="fill:#ff8000;stroke:#000000;" x="123.234599" xlink:href="#C0_0_33a5791da1" y="171.58557"/>
    </g>
    <g clip-path="url(#p959592fc21)">
     <use style="fill:#ff8000;stroke:#000000;" x="297.967222" xlink:href="#C0_0_33a5791da1" y="73.824606"/>
    </g>
    <g clip-path="url(#p959592fc21)">
     <use style="fill:#1e90ff;stroke:#000000;" x="234.994629" xlink:href="#C0_0_33a5791da1" y="185.123038"/>
    </g>
    <g clip-path="url(#p959592fc21)">
     <use style="fill:#1e90ff;stroke:#000000;" x="313.62013" xlink:href="#C0_0_33a5791da1" y="201.011618"/>
    </g>
    <g clip-path="url(#p959592fc21)">
     <use style="fill:#ff8000;stroke:#000000;" x="235.020858" xlink:href="#C0_0_33a5791da1" y="93.47304"/>
    </g>
    <g clip-path="url(#p959592fc21)">
     <use style="fill:#1e90ff;stroke:#000000;" x="256.964152" xlink:href="#C0_0_33a5791da1" y="202.000358"/>
    </g>
    <g clip-path="url(#p959592fc21)">
     <use style="fill:#1e90ff;stroke:#000000;" x="296.367039" xlink:href="#C0_0_33a5791da1" y="138.862077"/>
    </g>
    <g clip-path="url(#p959592fc21)">
     <use style="fill:#ff8000;stroke:#000000;" x="192.996008" xlink:href="#C0_0_33a5791da1" y="201.332367"/>
    </g>
    <g clip-path="url(#p959592fc21)">
     <use style="fill:#ff8000;stroke:#000000;" x="320.015092" xlink:href="#C0_0_33a5791da1" y="72.456093"/>
    </g>
    <g clip-path="url(#p959592fc21)">
     <use style="fill:#ff8000;stroke:#000000;" x="146.243489" xlink:href="#C0_0_33a5791da1" y="161.709992"/>
    </g>
    <g clip-path="url(#p959592fc21)">
     <use style="fill:#ff8000;stroke:#000000;" x="228.336315" xlink:href="#C0_0_33a5791da1" y="102.951575"/>
    </g>
    <g clip-path="url(#p959592fc21)">
     <use style="fill:#1e90ff;stroke:#000000;" x="294.684679" xlink:href="#C0_0_33a5791da1" y="209.967809"/>
    </g>
    <g clip-path="url(#p959592fc21)">
     <use style="fill:#1e90ff;stroke:#000000;" x="132.585583" xlink:href="#C0_0_33a5791da1" y="84.113612"/>
    </g>
    <g clip-path="url(#p959592fc21)">
     <use style="fill:#1e90ff;stroke:#000000;" x="141.207559" xlink:href="#C0_0_33a5791da1" y="69.304965"/>
    </g>
    <g clip-path="url(#p959592fc21)">
     <use style="fill:#ff8000;stroke:#000000;" x="238.248079" xlink:href="#C0_0_33a5791da1" y="170.740197"/>
    </g>
    <g clip-path="url(#p959592fc21)">
     <use style="fill:#ff8000;stroke:#000000;" x="329.685763" xlink:href="#C0_0_33a5791da1" y="84.330851"/>
    </g>
    <g clip-path="url(#p959592fc21)">
     <use style="fill:#1e90ff;stroke:#000000;" x="120.379774" xlink:href="#C0_0_33a5791da1" y="76.168418"/>
    </g>
    <g clip-path="url(#p959592fc21)">
     <use style="fill:#1e90ff;stroke:#000000;" x="176.457072" xlink:href="#C0_0_33a5791da1" y="78.634739"/>
    </g>
    <g clip-path="url(#p959592fc21)">
     <use style="fill:#ff8000;stroke:#000000;" x="168.048953" xlink:href="#C0_0_33a5791da1" y="200.662261"/>
    </g>
    <g clip-path="url(#p959592fc21)">
     <use style="fill:#1e90ff;stroke:#000000;" x="288.631927" xlink:href="#C0_0_33a5791da1" y="140.882771"/>
    </g>
    <g clip-path="url(#p959592fc21)">
     <use style="fill:#ff8000;stroke:#000000;" x="211.122995" xlink:href="#C0_0_33a5791da1" y="186.36306"/>
    </g>
    <g clip-path="url(#p959592fc21)">
     <use style="fill:#1e90ff;stroke:#000000;" x="294.299662" xlink:href="#C0_0_33a5791da1" y="216.928342"/>
    </g>
    <g clip-path="url(#p959592fc21)">
     <use style="fill:#ff8000;stroke:#000000;" x="127.782873" xlink:href="#C0_0_33a5791da1" y="168.037103"/>
    </g>
    <g clip-path="url(#p959592fc21)">
     <use style="fill:#1e90ff;stroke:#000000;" x="129.917919" xlink:href="#C0_0_33a5791da1" y="86.755423"/>
    </g>
    <g clip-path="url(#p959592fc21)">
     <use style="fill:#1e90ff;stroke:#000000;" x="208.480953" xlink:href="#C0_0_33a5791da1" y="96.263709"/>
    </g>
    <g clip-path="url(#p959592fc21)">
     <use style="fill:#ff8000;stroke:#000000;" x="143.080066" xlink:href="#C0_0_33a5791da1" y="159.203311"/>
    </g>
    <g clip-path="url(#p959592fc21)">
     <use style="fill:#1e90ff;stroke:#000000;" x="287.070093" xlink:href="#C0_0_33a5791da1" y="208.980445"/>
    </g>
    <g clip-path="url(#p959592fc21)">
     <use style="fill:#1e90ff;stroke:#000000;" x="263.70192" xlink:href="#C0_0_33a5791da1" y="196.613496"/>
    </g>
    <g clip-path="url(#p959592fc21)">
     <use style="fill:#ff8000;stroke:#000000;" x="124.066797" xlink:href="#C0_0_33a5791da1" y="193.907411"/>
    </g>
    <g clip-path="url(#p959592fc21)">
     <use style="fill:#1e90ff;stroke:#000000;" x="188.830073" xlink:href="#C0_0_33a5791da1" y="161.696262"/>
    </g>
    <g clip-path="url(#p959592fc21)">
     <use style="fill:#ff8000;stroke:#000000;" x="298.524069" xlink:href="#C0_0_33a5791da1" y="137.08595"/>
    </g>
    <g clip-path="url(#p959592fc21)">
     <use style="fill:#ff8000;stroke:#000000;" x="339.843272" xlink:href="#C0_0_33a5791da1" y="83.577597"/>
    </g>
    <g clip-path="url(#p959592fc21)">
     <use style="fill:#1e90ff;stroke:#000000;" x="124.597974" xlink:href="#C0_0_33a5791da1" y="115.213439"/>
    </g>
    <g clip-path="url(#p959592fc21)">
     <use style="fill:#1e90ff;stroke:#000000;" x="157.15284" xlink:href="#C0_0_33a5791da1" y="103.01023"/>
    </g>
    <g clip-path="url(#p959592fc21)">
     <use style="fill:#ff8000;stroke:#000000;" x="141.506149" xlink:href="#C0_0_33a5791da1" y="216.925778"/>
    </g>
    <g clip-path="url(#p959592fc21)">
     <use style="fill:#1e90ff;stroke:#000000;" x="110.219079" xlink:href="#C0_0_33a5791da1" y="86.465093"/>
    </g>
    <g clip-path="url(#p959592fc21)">
     <use style="fill:#ff8000;stroke:#000000;" x="337.550083" xlink:href="#C0_0_33a5791da1" y="88.349367"/>
    </g>
    <g clip-path="url(#p959592fc21)">
     <use style="fill:#ff8000;stroke:#000000;" x="262.154249" xlink:href="#C0_0_33a5791da1" y="85.267622"/>
    </g>
    <g clip-path="url(#p959592fc21)">
     <use style="fill:#1e90ff;stroke:#000000;" x="120.051184" xlink:href="#C0_0_33a5791da1" y="68.384892"/>
    </g>
    <g clip-path="url(#p959592fc21)">
     <use style="fill:#ff8000;stroke:#000000;" x="100.5" xlink:href="#C0_0_33a5791da1" y="204.916435"/>
    </g>
    <g clip-path="url(#p959592fc21)">
     <use style="fill:#1e90ff;stroke:#000000;" x="142.950904" xlink:href="#C0_0_33a5791da1" y="76.761095"/>
    </g>
    <g clip-path="url(#p959592fc21)">
     <use style="fill:#ff8000;stroke:#000000;" x="132.154152" xlink:href="#C0_0_33a5791da1" y="208.729062"/>
    </g>
    <g clip-path="url(#p959592fc21)">
     <use style="fill:#1e90ff;stroke:#000000;" x="345.674556" xlink:href="#C0_0_33a5791da1" y="200.78213"/>
    </g>
    <g clip-path="url(#p959592fc21)">
     <use style="fill:#1e90ff;stroke:#000000;" x="222.806201" xlink:href="#C0_0_33a5791da1" y="179.71691"/>
    </g>
    <g clip-path="url(#p959592fc21)">
     <use style="fill:#ff8000;stroke:#000000;" x="158.193069" xlink:href="#C0_0_33a5791da1" y="208.77205"/>
    </g>
    <g clip-path="url(#p959592fc21)">
     <use style="fill:#1e90ff;stroke:#000000;" x="223.93837" xlink:href="#C0_0_33a5791da1" y="181.54551"/>
    </g>
    <g clip-path="url(#p959592fc21)">
     <use style="fill:#1e90ff;stroke:#000000;" x="120.236686" xlink:href="#C0_0_33a5791da1" y="116.038282"/>
    </g>
    <g clip-path="url(#p959592fc21)">
     <use style="fill:#1e90ff;stroke:#000000;" x="119.663776" xlink:href="#C0_0_33a5791da1" y="78.693691"/>
    </g>
    <g clip-path="url(#p959592fc21)">
     <use style="fill:#ff8000;stroke:#000000;" x="217.72024" xlink:href="#C0_0_33a5791da1" y="96.647604"/>
    </g>
    <g clip-path="url(#p959592fc21)">
     <use style="fill:#ff8000;stroke:#000000;" x="308.219538" xlink:href="#C0_0_33a5791da1" y="120.257378"/>
    </g>
    <g clip-path="url(#p959592fc21)">
     <use style="fill:#1e90ff;stroke:#000000;" x="328.47977" xlink:href="#C0_0_33a5791da1" y="203.253798"/>
    </g>
    <g clip-path="url(#p959592fc21)">
     <use style="fill:#ff8000;stroke:#000000;" x="317.708181" xlink:href="#C0_0_33a5791da1" y="105.713429"/>
    </g>
    <g clip-path="url(#p959592fc21)">
     <use style="fill:#ff8000;stroke:#000000;" x="182.926938" xlink:href="#C0_0_33a5791da1" y="135.676094"/>
    </g>
    <g clip-path="url(#p959592fc21)">
     <use style="fill:#1e90ff;stroke:#000000;" x="224.092669" xlink:href="#C0_0_33a5791da1" y="101.523686"/>
    </g>
    <g clip-path="url(#p959592fc21)">
     <use style="fill:#1e90ff;stroke:#000000;" x="237.901757" xlink:href="#C0_0_33a5791da1" y="192.934479"/>
    </g>
    <g clip-path="url(#p959592fc21)">
     <use style="fill:#1e90ff;stroke:#000000;" x="320.84245" xlink:href="#C0_0_33a5791da1" y="190.448767"/>
    </g>
    <g clip-path="url(#p959592fc21)">
     <use style="fill:#1e90ff;stroke:#000000;" x="125.416338" xlink:href="#C0_0_33a5791da1" y="108.087592"/>
    </g>
    <g clip-path="url(#p959592fc21)">
     <use style="fill:#1e90ff;stroke:#000000;" x="207.580914" xlink:href="#C0_0_33a5791da1" y="175.608755"/>
    </g>
    <g clip-path="url(#p959592fc21)">
     <use style="fill:#1e90ff;stroke:#000000;" x="319.551306" xlink:href="#C0_0_33a5791da1" y="198.230041"/>
    </g>
    <g clip-path="url(#p959592fc21)">
     <use style="fill:#ff8000;stroke:#000000;" x="282.721267" xlink:href="#C0_0_33a5791da1" y="145.316157"/>
    </g>
    <g clip-path="url(#p959592fc21)">
     <use style="fill:#1e90ff;stroke:#000000;" x="229.900091" xlink:href="#C0_0_33a5791da1" y="184.252411"/>
    </g>
    <g clip-path="url(#p959592fc21)">
     <use style="fill:#1e90ff;stroke:#000000;" x="116.619135" xlink:href="#C0_0_33a5791da1" y="99.582905"/>
    </g>
    <g clip-path="url(#p959592fc21)">
     <use style="fill:#1e90ff;stroke:#000000;" x="246.619474" xlink:href="#C0_0_33a5791da1" y="111.028282"/>
    </g>
    <g clip-path="url(#p959592fc21)">
     <use style="fill:#ff8000;stroke:#000000;" x="190.819309" xlink:href="#C0_0_33a5791da1" y="198.592618"/>
    </g>
    <g clip-path="url(#p959592fc21)">
     <use style="fill:#1e90ff;stroke:#000000;" x="131.666491" xlink:href="#C0_0_33a5791da1" y="86.260849"/>
    </g>
    <g clip-path="url(#p959592fc21)">
     <use style="fill:#ff8000;stroke:#000000;" x="262.698817" xlink:href="#C0_0_33a5791da1" y="88.603393"/>
    </g>
    <g clip-path="url(#p959592fc21)">
     <use style="fill:#ff8000;stroke:#000000;" x="170.632455" xlink:href="#C0_0_33a5791da1" y="131.84143"/>
    </g>
    <g clip-path="url(#p959592fc21)">
     <use style="fill:#1e90ff;stroke:#000000;" x="150.498716" xlink:href="#C0_0_33a5791da1" y="132.991453"/>
    </g>
    <g clip-path="url(#p959592fc21)">
     <use style="fill:#1e90ff;stroke:#000000;" x="312.063654" xlink:href="#C0_0_33a5791da1" y="166.910775"/>
    </g>
   </g>
   <g id="matplotlib.axis_1">
    <g id="xtick_1">
     <g id="line2d_1">
      <defs>
       <path d="M 0 0 
L 0 3.5 
" id="me108a4b704" style="stroke:#000000;stroke-width:0.8;"/>
      </defs>
      <g>
       <use style="stroke:#000000;stroke-width:0.8;" x="85.229261" xlink:href="#me108a4b704" y="252"/>
      </g>
     </g>
     <g id="text_1">
      <!-- 1.5 -->
      <g transform="translate(73.087854 266.598437)scale(0.1 -0.1)">
       <defs>
        <path d="M 10.59375 35.5 
L 73.1875 35.5 
L 73.1875 27.203125 
L 10.59375 27.203125 
z
" id="DejaVuSans-8722"/>
        <path d="M 12.40625 8.296875 
L 28.515625 8.296875 
L 28.515625 63.921875 
L 10.984375 60.40625 
L 10.984375 69.390625 
L 28.421875 72.90625 
L 38.28125 72.90625 
L 38.28125 8.296875 
L 54.390625 8.296875 
L 54.390625 0 
L 12.40625 0 
z
" id="DejaVuSans-49"/>
        <path d="M 10.6875 12.40625 
L 21 12.40625 
L 21 0 
L 10.6875 0 
z
" id="DejaVuSans-46"/>
        <path d="M 10.796875 72.90625 
L 49.515625 72.90625 
L 49.515625 64.59375 
L 19.828125 64.59375 
L 19.828125 46.734375 
Q 21.96875 47.46875 24.109375 47.828125 
Q 26.265625 48.1875 28.421875 48.1875 
Q 40.625 48.1875 47.75 41.5 
Q 54.890625 34.8125 54.890625 23.390625 
Q 54.890625 11.625 47.5625 5.09375 
Q 40.234375 -1.421875 26.90625 -1.421875 
Q 22.3125 -1.421875 17.546875 -0.640625 
Q 12.796875 0.140625 7.71875 1.703125 
L 7.71875 11.625 
Q 12.109375 9.234375 16.796875 8.0625 
Q 21.484375 6.890625 26.703125 6.890625 
Q 35.15625 6.890625 40.078125 11.328125 
Q 45.015625 15.765625 45.015625 23.390625 
Q 45.015625 31 40.078125 35.4375 
Q 35.15625 39.890625 26.703125 39.890625 
Q 22.75 39.890625 18.8125 39.015625 
Q 14.890625 38.140625 10.796875 36.28125 
z
" id="DejaVuSans-53"/>
       </defs>
       <use xlink:href="#DejaVuSans-8722"/>
       <use x="83.789062" xlink:href="#DejaVuSans-49"/>
       <use x="147.412109" xlink:href="#DejaVuSans-46"/>
       <use x="179.199219" xlink:href="#DejaVuSans-53"/>
      </g>
     </g>
    </g>
    <g id="xtick_2">
     <g id="line2d_2">
      <g>
       <use style="stroke:#000000;stroke-width:0.8;" x="131.729261" xlink:href="#me108a4b704" y="252"/>
      </g>
     </g>
     <g id="text_2">
      <!-- 1.0 -->
      <g transform="translate(119.587854 266.598437)scale(0.1 -0.1)">
       <defs>
        <path d="M 31.78125 66.40625 
Q 24.171875 66.40625 20.328125 58.90625 
Q 16.5 51.421875 16.5 36.375 
Q 16.5 21.390625 20.328125 13.890625 
Q 24.171875 6.390625 31.78125 6.390625 
Q 39.453125 6.390625 43.28125 13.890625 
Q 47.125 21.390625 47.125 36.375 
Q 47.125 51.421875 43.28125 58.90625 
Q 39.453125 66.40625 31.78125 66.40625 
z
M 31.78125 74.21875 
Q 44.046875 74.21875 50.515625 64.515625 
Q 56.984375 54.828125 56.984375 36.375 
Q 56.984375 17.96875 50.515625 8.265625 
Q 44.046875 -1.421875 31.78125 -1.421875 
Q 19.53125 -1.421875 13.0625 8.265625 
Q 6.59375 17.96875 6.59375 36.375 
Q 6.59375 54.828125 13.0625 64.515625 
Q 19.53125 74.21875 31.78125 74.21875 
z
" id="DejaVuSans-48"/>
       </defs>
       <use xlink:href="#DejaVuSans-8722"/>
       <use x="83.789062" xlink:href="#DejaVuSans-49"/>
       <use x="147.412109" xlink:href="#DejaVuSans-46"/>
       <use x="179.199219" xlink:href="#DejaVuSans-48"/>
      </g>
     </g>
    </g>
    <g id="xtick_3">
     <g id="line2d_3">
      <g>
       <use style="stroke:#000000;stroke-width:0.8;" x="178.229261" xlink:href="#me108a4b704" y="252"/>
      </g>
     </g>
     <g id="text_3">
      <!-- 0.5 -->
      <g transform="translate(166.087854 266.598437)scale(0.1 -0.1)">
       <use xlink:href="#DejaVuSans-8722"/>
       <use x="83.789062" xlink:href="#DejaVuSans-48"/>
       <use x="147.412109" xlink:href="#DejaVuSans-46"/>
       <use x="179.199219" xlink:href="#DejaVuSans-53"/>
      </g>
     </g>
    </g>
    <g id="xtick_4">
     <g id="line2d_4">
      <g>
       <use style="stroke:#000000;stroke-width:0.8;" x="224.729261" xlink:href="#me108a4b704" y="252"/>
      </g>
     </g>
     <g id="text_4">
      <!-- 0.0 -->
      <g transform="translate(216.777698 266.598437)scale(0.1 -0.1)">
       <use xlink:href="#DejaVuSans-48"/>
       <use x="63.623047" xlink:href="#DejaVuSans-46"/>
       <use x="95.410156" xlink:href="#DejaVuSans-48"/>
      </g>
     </g>
    </g>
    <g id="xtick_5">
     <g id="line2d_5">
      <g>
       <use style="stroke:#000000;stroke-width:0.8;" x="271.229261" xlink:href="#me108a4b704" y="252"/>
      </g>
     </g>
     <g id="text_5">
      <!-- 0.5 -->
      <g transform="translate(263.277698 266.598437)scale(0.1 -0.1)">
       <use xlink:href="#DejaVuSans-48"/>
       <use x="63.623047" xlink:href="#DejaVuSans-46"/>
       <use x="95.410156" xlink:href="#DejaVuSans-53"/>
      </g>
     </g>
    </g>
    <g id="xtick_6">
     <g id="line2d_6">
      <g>
       <use style="stroke:#000000;stroke-width:0.8;" x="317.729261" xlink:href="#me108a4b704" y="252"/>
      </g>
     </g>
     <g id="text_6">
      <!-- 1.0 -->
      <g transform="translate(309.777698 266.598437)scale(0.1 -0.1)">
       <use xlink:href="#DejaVuSans-49"/>
       <use x="63.623047" xlink:href="#DejaVuSans-46"/>
       <use x="95.410156" xlink:href="#DejaVuSans-48"/>
      </g>
     </g>
    </g>
    <g id="xtick_7">
     <g id="line2d_7">
      <g>
       <use style="stroke:#000000;stroke-width:0.8;" x="364.229261" xlink:href="#me108a4b704" y="252"/>
      </g>
     </g>
     <g id="text_7">
      <!-- 1.5 -->
      <g transform="translate(356.277698 266.598437)scale(0.1 -0.1)">
       <use xlink:href="#DejaVuSans-49"/>
       <use x="63.623047" xlink:href="#DejaVuSans-46"/>
       <use x="95.410156" xlink:href="#DejaVuSans-53"/>
      </g>
     </g>
    </g>
    <g id="text_8">
     <!-- X_0 -->
     <g transform="translate(212.29375 280.1)scale(0.1 -0.1)">
      <defs>
       <path d="M 6.296875 72.90625 
L 16.890625 72.90625 
L 35.015625 45.796875 
L 53.21875 72.90625 
L 63.8125 72.90625 
L 40.375 37.890625 
L 65.375 0 
L 54.78125 0 
L 34.28125 31 
L 13.625 0 
L 2.984375 0 
L 29 38.921875 
z
" id="DejaVuSans-88"/>
       <path d="M 50.984375 -16.609375 
L 50.984375 -23.578125 
L -0.984375 -23.578125 
L -0.984375 -16.609375 
z
" id="DejaVuSans-95"/>
      </defs>
      <use xlink:href="#DejaVuSans-88"/>
      <use x="68.505859" xlink:href="#DejaVuSans-95"/>
      <use x="118.505859" xlink:href="#DejaVuSans-48"/>
     </g>
    </g>
   </g>
   <g id="matplotlib.axis_2">
    <g id="ytick_1">
     <g id="line2d_8">
      <defs>
       <path d="M 0 0 
L -3.5 0 
" id="md1e11a26cf" style="stroke:#000000;stroke-width:0.8;"/>
      </defs>
      <g>
       <use style="stroke:#000000;stroke-width:0.8;" x="54" xlink:href="#md1e11a26cf" y="233.221666"/>
      </g>
     </g>
     <g id="text_9">
      <!-- 1.5 -->
      <g transform="translate(22.717187 237.020885)scale(0.1 -0.1)">
       <use xlink:href="#DejaVuSans-8722"/>
       <use x="83.789062" xlink:href="#DejaVuSans-49"/>
       <use x="147.412109" xlink:href="#DejaVuSans-46"/>
       <use x="179.199219" xlink:href="#DejaVuSans-53"/>
      </g>
     </g>
    </g>
    <g id="ytick_2">
     <g id="line2d_9">
      <g>
       <use style="stroke:#000000;stroke-width:0.8;" x="54" xlink:href="#md1e11a26cf" y="203.021666"/>
      </g>
     </g>
     <g id="text_10">
      <!-- 1.0 -->
      <g transform="translate(22.717187 206.820885)scale(0.1 -0.1)">
       <use xlink:href="#DejaVuSans-8722"/>
       <use x="83.789062" xlink:href="#DejaVuSans-49"/>
       <use x="147.412109" xlink:href="#DejaVuSans-46"/>
       <use x="179.199219" xlink:href="#DejaVuSans-48"/>
      </g>
     </g>
    </g>
    <g id="ytick_3">
     <g id="line2d_10">
      <g>
       <use style="stroke:#000000;stroke-width:0.8;" x="54" xlink:href="#md1e11a26cf" y="172.821666"/>
      </g>
     </g>
     <g id="text_11">
      <!-- 0.5 -->
      <g transform="translate(22.717187 176.620885)scale(0.1 -0.1)">
       <use xlink:href="#DejaVuSans-8722"/>
       <use x="83.789062" xlink:href="#DejaVuSans-48"/>
       <use x="147.412109" xlink:href="#DejaVuSans-46"/>
       <use x="179.199219" xlink:href="#DejaVuSans-53"/>
      </g>
     </g>
    </g>
    <g id="ytick_4">
     <g id="line2d_11">
      <g>
       <use style="stroke:#000000;stroke-width:0.8;" x="54" xlink:href="#md1e11a26cf" y="142.621666"/>
      </g>
     </g>
     <g id="text_12">
      <!-- 0.0 -->
      <g transform="translate(31.096875 146.420885)scale(0.1 -0.1)">
       <use xlink:href="#DejaVuSans-48"/>
       <use x="63.623047" xlink:href="#DejaVuSans-46"/>
       <use x="95.410156" xlink:href="#DejaVuSans-48"/>
      </g>
     </g>
    </g>
    <g id="ytick_5">
     <g id="line2d_12">
      <g>
       <use style="stroke:#000000;stroke-width:0.8;" x="54" xlink:href="#md1e11a26cf" y="112.421666"/>
      </g>
     </g>
     <g id="text_13">
      <!-- 0.5 -->
      <g transform="translate(31.096875 116.220885)scale(0.1 -0.1)">
       <use xlink:href="#DejaVuSans-48"/>
       <use x="63.623047" xlink:href="#DejaVuSans-46"/>
       <use x="95.410156" xlink:href="#DejaVuSans-53"/>
      </g>
     </g>
    </g>
    <g id="ytick_6">
     <g id="line2d_13">
      <g>
       <use style="stroke:#000000;stroke-width:0.8;" x="54" xlink:href="#md1e11a26cf" y="82.221666"/>
      </g>
     </g>
     <g id="text_14">
      <!-- 1.0 -->
      <g transform="translate(31.096875 86.020885)scale(0.1 -0.1)">
       <use xlink:href="#DejaVuSans-49"/>
       <use x="63.623047" xlink:href="#DejaVuSans-46"/>
       <use x="95.410156" xlink:href="#DejaVuSans-48"/>
      </g>
     </g>
    </g>
    <g id="ytick_7">
     <g id="line2d_14">
      <g>
       <use style="stroke:#000000;stroke-width:0.8;" x="54" xlink:href="#md1e11a26cf" y="52.021666"/>
      </g>
     </g>
     <g id="text_15">
      <!-- 1.5 -->
      <g transform="translate(31.096875 55.820885)scale(0.1 -0.1)">
       <use xlink:href="#DejaVuSans-49"/>
       <use x="63.623047" xlink:href="#DejaVuSans-46"/>
       <use x="95.410156" xlink:href="#DejaVuSans-53"/>
      </g>
     </g>
    </g>
    <g id="text_16">
     <!-- X_1 -->
     <g transform="translate(16.359375 152.38625)rotate(-90)scale(0.1 -0.1)">
      <use xlink:href="#DejaVuSans-88"/>
      <use x="68.505859" xlink:href="#DejaVuSans-95"/>
      <use x="118.505859" xlink:href="#DejaVuSans-49"/>
     </g>
    </g>
   </g>
   <g id="patch_3">
    <path d="M 54 252 
L 54 34.56 
" style="fill:none;stroke:#000000;stroke-linecap:square;stroke-linejoin:miter;stroke-width:0.8;"/>
   </g>
   <g id="patch_4">
    <path d="M 388.8 252 
L 388.8 34.56 
" style="fill:none;stroke:#000000;stroke-linecap:square;stroke-linejoin:miter;stroke-width:0.8;"/>
   </g>
   <g id="patch_5">
    <path d="M 54 252 
L 388.8 252 
" style="fill:none;stroke:#000000;stroke-linecap:square;stroke-linejoin:miter;stroke-width:0.8;"/>
   </g>
   <g id="patch_6">
    <path d="M 54 34.56 
L 388.8 34.56 
" style="fill:none;stroke:#000000;stroke-linecap:square;stroke-linejoin:miter;stroke-width:0.8;"/>
   </g>
   <g id="text_17">
    <!-- Problem 2, #neighbors 1 -->
    <g transform="translate(146.736562 28.56)scale(0.12 -0.12)">
     <defs>
      <path d="M 19.671875 64.796875 
L 19.671875 37.40625 
L 32.078125 37.40625 
Q 38.96875 37.40625 42.71875 40.96875 
Q 46.484375 44.53125 46.484375 51.125 
Q 46.484375 57.671875 42.71875 61.234375 
Q 38.96875 64.796875 32.078125 64.796875 
z
M 9.8125 72.90625 
L 32.078125 72.90625 
Q 44.34375 72.90625 50.609375 67.359375 
Q 56.890625 61.8125 56.890625 51.125 
Q 56.890625 40.328125 50.609375 34.8125 
Q 44.34375 29.296875 32.078125 29.296875 
L 19.671875 29.296875 
L 19.671875 0 
L 9.8125 0 
z
" id="DejaVuSans-80"/>
      <path d="M 41.109375 46.296875 
Q 39.59375 47.171875 37.8125 47.578125 
Q 36.03125 48 33.890625 48 
Q 26.265625 48 22.1875 43.046875 
Q 18.109375 38.09375 18.109375 28.8125 
L 18.109375 0 
L 9.078125 0 
L 9.078125 54.6875 
L 18.109375 54.6875 
L 18.109375 46.1875 
Q 20.953125 51.171875 25.484375 53.578125 
Q 30.03125 56 36.53125 56 
Q 37.453125 56 38.578125 55.875 
Q 39.703125 55.765625 41.0625 55.515625 
z
" id="DejaVuSans-114"/>
      <path d="M 30.609375 48.390625 
Q 23.390625 48.390625 19.1875 42.75 
Q 14.984375 37.109375 14.984375 27.296875 
Q 14.984375 17.484375 19.15625 11.84375 
Q 23.34375 6.203125 30.609375 6.203125 
Q 37.796875 6.203125 41.984375 11.859375 
Q 46.1875 17.53125 46.1875 27.296875 
Q 46.1875 37.015625 41.984375 42.703125 
Q 37.796875 48.390625 30.609375 48.390625 
z
M 30.609375 56 
Q 42.328125 56 49.015625 48.375 
Q 55.71875 40.765625 55.71875 27.296875 
Q 55.71875 13.875 49.015625 6.21875 
Q 42.328125 -1.421875 30.609375 -1.421875 
Q 18.84375 -1.421875 12.171875 6.21875 
Q 5.515625 13.875 5.515625 27.296875 
Q 5.515625 40.765625 12.171875 48.375 
Q 18.84375 56 30.609375 56 
z
" id="DejaVuSans-111"/>
      <path d="M 48.6875 27.296875 
Q 48.6875 37.203125 44.609375 42.84375 
Q 40.53125 48.484375 33.40625 48.484375 
Q 26.265625 48.484375 22.1875 42.84375 
Q 18.109375 37.203125 18.109375 27.296875 
Q 18.109375 17.390625 22.1875 11.75 
Q 26.265625 6.109375 33.40625 6.109375 
Q 40.53125 6.109375 44.609375 11.75 
Q 48.6875 17.390625 48.6875 27.296875 
z
M 18.109375 46.390625 
Q 20.953125 51.265625 25.265625 53.625 
Q 29.59375 56 35.59375 56 
Q 45.5625 56 51.78125 48.09375 
Q 58.015625 40.1875 58.015625 27.296875 
Q 58.015625 14.40625 51.78125 6.484375 
Q 45.5625 -1.421875 35.59375 -1.421875 
Q 29.59375 -1.421875 25.265625 0.953125 
Q 20.953125 3.328125 18.109375 8.203125 
L 18.109375 0 
L 9.078125 0 
L 9.078125 75.984375 
L 18.109375 75.984375 
z
" id="DejaVuSans-98"/>
      <path d="M 9.421875 75.984375 
L 18.40625 75.984375 
L 18.40625 0 
L 9.421875 0 
z
" id="DejaVuSans-108"/>
      <path d="M 56.203125 29.59375 
L 56.203125 25.203125 
L 14.890625 25.203125 
Q 15.484375 15.921875 20.484375 11.0625 
Q 25.484375 6.203125 34.421875 6.203125 
Q 39.59375 6.203125 44.453125 7.46875 
Q 49.3125 8.734375 54.109375 11.28125 
L 54.109375 2.78125 
Q 49.265625 0.734375 44.1875 -0.34375 
Q 39.109375 -1.421875 33.890625 -1.421875 
Q 20.796875 -1.421875 13.15625 6.1875 
Q 5.515625 13.8125 5.515625 26.8125 
Q 5.515625 40.234375 12.765625 48.109375 
Q 20.015625 56 32.328125 56 
Q 43.359375 56 49.78125 48.890625 
Q 56.203125 41.796875 56.203125 29.59375 
z
M 47.21875 32.234375 
Q 47.125 39.59375 43.09375 43.984375 
Q 39.0625 48.390625 32.421875 48.390625 
Q 24.90625 48.390625 20.390625 44.140625 
Q 15.875 39.890625 15.1875 32.171875 
z
" id="DejaVuSans-101"/>
      <path d="M 52 44.1875 
Q 55.375 50.25 60.0625 53.125 
Q 64.75 56 71.09375 56 
Q 79.640625 56 84.28125 50.015625 
Q 88.921875 44.046875 88.921875 33.015625 
L 88.921875 0 
L 79.890625 0 
L 79.890625 32.71875 
Q 79.890625 40.578125 77.09375 44.375 
Q 74.3125 48.1875 68.609375 48.1875 
Q 61.625 48.1875 57.5625 43.546875 
Q 53.515625 38.921875 53.515625 30.90625 
L 53.515625 0 
L 44.484375 0 
L 44.484375 32.71875 
Q 44.484375 40.625 41.703125 44.40625 
Q 38.921875 48.1875 33.109375 48.1875 
Q 26.21875 48.1875 22.15625 43.53125 
Q 18.109375 38.875 18.109375 30.90625 
L 18.109375 0 
L 9.078125 0 
L 9.078125 54.6875 
L 18.109375 54.6875 
L 18.109375 46.1875 
Q 21.1875 51.21875 25.484375 53.609375 
Q 29.78125 56 35.6875 56 
Q 41.65625 56 45.828125 52.96875 
Q 50 49.953125 52 44.1875 
z
" id="DejaVuSans-109"/>
      <path id="DejaVuSans-32"/>
      <path d="M 19.1875 8.296875 
L 53.609375 8.296875 
L 53.609375 0 
L 7.328125 0 
L 7.328125 8.296875 
Q 12.9375 14.109375 22.625 23.890625 
Q 32.328125 33.6875 34.8125 36.53125 
Q 39.546875 41.84375 41.421875 45.53125 
Q 43.3125 49.21875 43.3125 52.78125 
Q 43.3125 58.59375 39.234375 62.25 
Q 35.15625 65.921875 28.609375 65.921875 
Q 23.96875 65.921875 18.8125 64.3125 
Q 13.671875 62.703125 7.8125 59.421875 
L 7.8125 69.390625 
Q 13.765625 71.78125 18.9375 73 
Q 24.125 74.21875 28.421875 74.21875 
Q 39.75 74.21875 46.484375 68.546875 
Q 53.21875 62.890625 53.21875 53.421875 
Q 53.21875 48.921875 51.53125 44.890625 
Q 49.859375 40.875 45.40625 35.40625 
Q 44.1875 33.984375 37.640625 27.21875 
Q 31.109375 20.453125 19.1875 8.296875 
z
" id="DejaVuSans-50"/>
      <path d="M 11.71875 12.40625 
L 22.015625 12.40625 
L 22.015625 4 
L 14.015625 -11.625 
L 7.71875 -11.625 
L 11.71875 4 
z
" id="DejaVuSans-44"/>
      <path d="M 51.125 44 
L 36.921875 44 
L 32.8125 27.6875 
L 47.125 27.6875 
z
M 43.796875 71.78125 
L 38.71875 51.515625 
L 52.984375 51.515625 
L 58.109375 71.78125 
L 65.921875 71.78125 
L 60.890625 51.515625 
L 76.125 51.515625 
L 76.125 44 
L 58.984375 44 
L 54.984375 27.6875 
L 70.515625 27.6875 
L 70.515625 20.21875 
L 53.078125 20.21875 
L 48 0 
L 40.1875 0 
L 45.21875 20.21875 
L 30.90625 20.21875 
L 25.875 0 
L 18.015625 0 
L 23.09375 20.21875 
L 7.71875 20.21875 
L 7.71875 27.6875 
L 24.90625 27.6875 
L 29 44 
L 13.28125 44 
L 13.28125 51.515625 
L 30.90625 51.515625 
L 35.890625 71.78125 
z
" id="DejaVuSans-35"/>
      <path d="M 54.890625 33.015625 
L 54.890625 0 
L 45.90625 0 
L 45.90625 32.71875 
Q 45.90625 40.484375 42.875 44.328125 
Q 39.84375 48.1875 33.796875 48.1875 
Q 26.515625 48.1875 22.3125 43.546875 
Q 18.109375 38.921875 18.109375 30.90625 
L 18.109375 0 
L 9.078125 0 
L 9.078125 54.6875 
L 18.109375 54.6875 
L 18.109375 46.1875 
Q 21.34375 51.125 25.703125 53.5625 
Q 30.078125 56 35.796875 56 
Q 45.21875 56 50.046875 50.171875 
Q 54.890625 44.34375 54.890625 33.015625 
z
" id="DejaVuSans-110"/>
      <path d="M 9.421875 54.6875 
L 18.40625 54.6875 
L 18.40625 0 
L 9.421875 0 
z
M 9.421875 75.984375 
L 18.40625 75.984375 
L 18.40625 64.59375 
L 9.421875 64.59375 
z
" id="DejaVuSans-105"/>
      <path d="M 45.40625 27.984375 
Q 45.40625 37.75 41.375 43.109375 
Q 37.359375 48.484375 30.078125 48.484375 
Q 22.859375 48.484375 18.828125 43.109375 
Q 14.796875 37.75 14.796875 27.984375 
Q 14.796875 18.265625 18.828125 12.890625 
Q 22.859375 7.515625 30.078125 7.515625 
Q 37.359375 7.515625 41.375 12.890625 
Q 45.40625 18.265625 45.40625 27.984375 
z
M 54.390625 6.78125 
Q 54.390625 -7.171875 48.1875 -13.984375 
Q 42 -20.796875 29.203125 -20.796875 
Q 24.46875 -20.796875 20.265625 -20.09375 
Q 16.0625 -19.390625 12.109375 -17.921875 
L 12.109375 -9.1875 
Q 16.0625 -11.328125 19.921875 -12.34375 
Q 23.78125 -13.375 27.78125 -13.375 
Q 36.625 -13.375 41.015625 -8.765625 
Q 45.40625 -4.15625 45.40625 5.171875 
L 45.40625 9.625 
Q 42.625 4.78125 38.28125 2.390625 
Q 33.9375 0 27.875 0 
Q 17.828125 0 11.671875 7.65625 
Q 5.515625 15.328125 5.515625 27.984375 
Q 5.515625 40.671875 11.671875 48.328125 
Q 17.828125 56 27.875 56 
Q 33.9375 56 38.28125 53.609375 
Q 42.625 51.21875 45.40625 46.390625 
L 45.40625 54.6875 
L 54.390625 54.6875 
z
" id="DejaVuSans-103"/>
      <path d="M 54.890625 33.015625 
L 54.890625 0 
L 45.90625 0 
L 45.90625 32.71875 
Q 45.90625 40.484375 42.875 44.328125 
Q 39.84375 48.1875 33.796875 48.1875 
Q 26.515625 48.1875 22.3125 43.546875 
Q 18.109375 38.921875 18.109375 30.90625 
L 18.109375 0 
L 9.078125 0 
L 9.078125 75.984375 
L 18.109375 75.984375 
L 18.109375 46.1875 
Q 21.34375 51.125 25.703125 53.5625 
Q 30.078125 56 35.796875 56 
Q 45.21875 56 50.046875 50.171875 
Q 54.890625 44.34375 54.890625 33.015625 
z
" id="DejaVuSans-104"/>
      <path d="M 44.28125 53.078125 
L 44.28125 44.578125 
Q 40.484375 46.53125 36.375 47.5 
Q 32.28125 48.484375 27.875 48.484375 
Q 21.1875 48.484375 17.84375 46.4375 
Q 14.5 44.390625 14.5 40.28125 
Q 14.5 37.15625 16.890625 35.375 
Q 19.28125 33.59375 26.515625 31.984375 
L 29.59375 31.296875 
Q 39.15625 29.25 43.1875 25.515625 
Q 47.21875 21.78125 47.21875 15.09375 
Q 47.21875 7.46875 41.1875 3.015625 
Q 35.15625 -1.421875 24.609375 -1.421875 
Q 20.21875 -1.421875 15.453125 -0.5625 
Q 10.6875 0.296875 5.421875 2 
L 5.421875 11.28125 
Q 10.40625 8.6875 15.234375 7.390625 
Q 20.0625 6.109375 24.8125 6.109375 
Q 31.15625 6.109375 34.5625 8.28125 
Q 37.984375 10.453125 37.984375 14.40625 
Q 37.984375 18.0625 35.515625 20.015625 
Q 33.0625 21.96875 24.703125 23.78125 
L 21.578125 24.515625 
Q 13.234375 26.265625 9.515625 29.90625 
Q 5.8125 33.546875 5.8125 39.890625 
Q 5.8125 47.609375 11.28125 51.796875 
Q 16.75 56 26.8125 56 
Q 31.78125 56 36.171875 55.265625 
Q 40.578125 54.546875 44.28125 53.078125 
z
" id="DejaVuSans-115"/>
     </defs>
     <use xlink:href="#DejaVuSans-80"/>
     <use x="58.552734" xlink:href="#DejaVuSans-114"/>
     <use x="97.416016" xlink:href="#DejaVuSans-111"/>
     <use x="158.597656" xlink:href="#DejaVuSans-98"/>
     <use x="222.074219" xlink:href="#DejaVuSans-108"/>
     <use x="249.857422" xlink:href="#DejaVuSans-101"/>
     <use x="311.380859" xlink:href="#DejaVuSans-109"/>
     <use x="408.792969" xlink:href="#DejaVuSans-32"/>
     <use x="440.580078" xlink:href="#DejaVuSans-50"/>
     <use x="504.203125" xlink:href="#DejaVuSans-44"/>
     <use x="535.990234" xlink:href="#DejaVuSans-32"/>
     <use x="567.777344" xlink:href="#DejaVuSans-35"/>
     <use x="651.566406" xlink:href="#DejaVuSans-110"/>
     <use x="714.945312" xlink:href="#DejaVuSans-101"/>
     <use x="776.46875" xlink:href="#DejaVuSans-105"/>
     <use x="804.251953" xlink:href="#DejaVuSans-103"/>
     <use x="867.728516" xlink:href="#DejaVuSans-104"/>
     <use x="931.107422" xlink:href="#DejaVuSans-98"/>
     <use x="994.583984" xlink:href="#DejaVuSans-111"/>
     <use x="1055.765625" xlink:href="#DejaVuSans-114"/>
     <use x="1096.878906" xlink:href="#DejaVuSans-115"/>
     <use x="1148.978516" xlink:href="#DejaVuSans-32"/>
     <use x="1180.765625" xlink:href="#DejaVuSans-49"/>
    </g>
   </g>
  </g>
 </g>
 <defs>
  <clipPath id="p959592fc21">
   <rect height="217.44" width="334.8" x="54" y="34.56"/>
  </clipPath>
 </defs>
</svg>
