<?xml version="1.0" encoding="utf-8" standalone="no"?>
<!DOCTYPE svg PUBLIC "-//W3C//DTD SVG 1.1//EN"
  "http://www.w3.org/Graphics/SVG/1.1/DTD/svg11.dtd">
<!-- Created with matplotlib (https://matplotlib.org/) -->
<svg height="288pt" version="1.1" viewBox="0 0 432 288" width="432pt" xmlns="http://www.w3.org/2000/svg" xmlns:xlink="http://www.w3.org/1999/xlink">
 <metadata>
  <rdf:RDF xmlns:cc="http://creativecommons.org/ns#" xmlns:dc="http://purl.org/dc/elements/1.1/" xmlns:rdf="http://www.w3.org/1999/02/22-rdf-syntax-ns#">
   <cc:Work>
    <dc:type rdf:resource="http://purl.org/dc/dcmitype/StillImage"/>
    <dc:date>2020-10-01T14:52:27.651885</dc:date>
    <dc:format>image/svg+xml</dc:format>
    <dc:creator>
     <cc:Agent>
      <dc:title>Matplotlib v3.3.1, https://matplotlib.org/</dc:title>
     </cc:Agent>
    </dc:creator>
   </cc:Work>
  </rdf:RDF>
 </metadata>
 <defs>
  <style type="text/css">*{stroke-linecap:butt;stroke-linejoin:round;}</style>
 </defs>
 <g id="figure_1">
  <g id="patch_1">
   <path d="M 0 288 
L 432 288 
L 432 0 
L 0 0 
z
" style="fill:#ffffff;"/>
  </g>
  <g id="axes_1">
   <g id="patch_2">
    <path d="M 54 252 
L 388.8 252 
L 388.8 34.56 
L 54 34.56 
z
" style="fill:#ffffff;"/>
   </g>
   <g id="PathCollection_1">
    <path clip-path="url(#pe7c5cc41ce)" d="M 63.3 252 
L 72.6 252 
L 81.9 252 
L 91.2 252 
L 100.5 252 
L 109.8 252 
L 119.1 252 
L 128.4 252 
L 137.7 252 
L 147 252 
L 156.3 252 
L 165.6 252 
L 174.9 252 
L 184.2 252 
L 193.5 252 
L 202.8 252 
L 209.775 252 
L 209.775 245.96 
L 209.775 239.92 
L 209.775 233.88 
L 209.775 227.84 
L 209.775 221.8 
L 209.775 215.76 
L 209.775 209.72 
L 209.775 203.68 
L 209.775 197.64 
L 202.8 193.11 
L 200.475 191.6 
L 193.5 190.09 
L 184.2 187.07 
L 181.875 185.56 
L 174.9 184.4275 
L 167.34375 179.52 
L 165.6 178.01 
L 158.625 173.48 
L 158.625 167.44 
L 156.3 162.91 
L 153.975 161.4 
L 150.4875 155.36 
L 147 150.83 
L 137.7 150.83 
L 128.4 150.83 
L 126.075 149.32 
L 119.1 147.81 
L 109.8 147.055 
L 100.5 147.055 
L 91.2 147.055 
L 81.9 147.055 
L 72.6 147.055 
L 63.3 147.055 
L 54 147.055 
L 54 149.32 
L 54 155.36 
L 54 161.4 
L 54 167.44 
L 54 173.48 
L 54 179.52 
L 54 185.56 
L 54 191.6 
L 54 197.64 
L 54 203.68 
L 54 209.72 
L 54 215.76 
L 54 221.8 
L 54 227.84 
L 54 233.88 
L 54 239.92 
L 54 245.96 
L 54 252 
z
" style="fill:#ee6410;fill-opacity:0.8;"/>
    <path clip-path="url(#pe7c5cc41ce)" d="M 240 175.745 
L 249.3 175.745 
L 258.6 175.745 
L 267.9 174.6125 
L 270.225 173.48 
L 269.64375 167.44 
L 267.9 162.91 
L 265.575 161.4 
L 258.6 156.87 
L 256.275 155.36 
L 249.3 150.83 
L 246.975 149.32 
L 240 148.1875 
L 230.7 147.055 
L 223.725 149.32 
L 223.725 155.36 
L 223.725 161.4 
L 223.725 167.44 
L 230.7 171.97 
L 233.025 173.48 
z
" style="fill:#ee6410;fill-opacity:0.8;"/>
    <path clip-path="url(#pe7c5cc41ce)" d="M 212.1 139.505 
L 221.4 141.77 
L 223.14375 137.24 
L 223.725 131.2 
L 221.4 128.935 
L 215.5875 125.16 
L 219.075 119.12 
L 212.1 114.59 
L 209.775 113.08 
L 202.8 108.55 
L 193.5 108.55 
L 184.2 110.815 
L 177.225 113.08 
L 177.225 119.12 
L 180.7125 125.16 
L 184.2 129.69 
L 186.525 131.2 
L 193.5 135.73 
L 202.8 135.73 
L 205.125 137.24 
z
" style="fill:#ee6410;fill-opacity:0.8;"/>
    <path clip-path="url(#pe7c5cc41ce)" d="M 314.4 133.465 
L 323.7 133.465 
L 333 135.73 
L 342.3 135.73 
L 351.6 135.73 
L 360.9 135.73 
L 370.2 135.73 
L 379.5 135.73 
L 388.8 135.73 
L 388.8 131.2 
L 388.8 125.16 
L 388.8 119.12 
L 388.8 113.08 
L 388.8 107.04 
L 388.8 101 
L 388.8 94.96 
L 388.8 88.92 
L 388.8 82.88 
L 388.8 76.84 
L 388.8 70.8 
L 388.8 64.76 
L 388.8 58.72 
L 388.8 52.68 
L 388.8 46.64 
L 388.8 40.6 
L 388.8 34.56 
L 379.5 34.56 
L 370.2 34.56 
L 360.9 34.56 
L 351.6 34.56 
L 342.3 34.56 
L 333 34.56 
L 323.7 34.56 
L 314.4 34.56 
L 305.1 34.56 
L 295.8 34.56 
L 286.5 34.56 
L 277.2 34.56 
L 267.9 34.56 
L 258.6 34.56 
L 249.3 34.56 
L 240 34.56 
L 230.7 34.56 
L 228.95625 34.56 
L 228.95625 40.6 
L 228.95625 46.64 
L 228.375 52.68 
L 228.375 58.72 
L 227.2125 64.76 
L 223.725 70.8 
L 227.2125 76.84 
L 227.2125 82.88 
L 227.2125 88.92 
L 230.7 93.45 
L 233.025 94.96 
L 240 99.49 
L 249.3 97.225 
L 258.6 99.49 
L 267.9 99.49 
L 270.225 101 
L 277.2 102.1325 
L 284.75625 107.04 
L 286.5 108.55 
L 293.475 113.08 
L 293.475 119.12 
L 293.475 125.16 
L 295.8 129.69 
L 305.1 129.69 
L 307.425 131.2 
z
" style="fill:#ee6410;fill-opacity:0.8;"/>
   </g>
   <g id="PathCollection_2">
    <path clip-path="url(#pe7c5cc41ce)" d="M 212.1 252 
L 216.75 252 
L 216.75 245.96 
L 216.75 239.92 
L 216.75 233.88 
L 214.425 227.84 
L 214.425 221.8 
L 214.425 215.76 
L 214.425 209.72 
L 213.65 203.68 
L 214.425 197.64 
L 212.1 196.13 
L 205.125 191.6 
L 202.8 190.09 
L 193.5 188.58 
L 186.525 185.56 
L 184.2 184.805 
L 174.9 183.295 
L 169.0875 179.52 
L 165.6 176.5 
L 160.95 173.48 
L 160.95 167.44 
L 160.95 161.4 
L 156.3 158.38 
L 153.975 155.36 
L 156.3 152.34 
L 158.625 149.32 
L 156.3 147.81 
L 147 147.81 
L 137.7 148.313333 
L 128.4 148.313333 
L 119.1 146.3 
L 109.8 144.79 
L 100.5 144.79 
L 91.2 144.79 
L 81.9 144.79 
L 72.6 144.79 
L 63.3 144.79 
L 54 144.79 
L 54 147.055 
L 63.3 147.055 
L 72.6 147.055 
L 81.9 147.055 
L 91.2 147.055 
L 100.5 147.055 
L 109.8 147.055 
L 119.1 147.81 
L 126.075 149.32 
L 128.4 150.83 
L 137.7 150.83 
L 147 150.83 
L 150.4875 155.36 
L 153.975 161.4 
L 156.3 162.91 
L 158.625 167.44 
L 158.625 173.48 
L 165.6 178.01 
L 167.34375 179.52 
L 174.9 184.4275 
L 181.875 185.56 
L 184.2 187.07 
L 193.5 190.09 
L 200.475 191.6 
L 202.8 193.11 
L 209.775 197.64 
L 209.775 203.68 
L 209.775 209.72 
L 209.775 215.76 
L 209.775 221.8 
L 209.775 227.84 
L 209.775 233.88 
L 209.775 239.92 
L 209.775 245.96 
L 209.775 252 
z
" style="fill:#fd9f56;fill-opacity:0.8;"/>
    <path clip-path="url(#pe7c5cc41ce)" d="M 230.7 174.486667 
L 240 178.01 
L 249.3 178.01 
L 258.6 178.01 
L 267.9 175.745 
L 272.55 173.48 
L 271.3875 167.44 
L 269.0625 161.4 
L 267.9 159.89 
L 260.925 155.36 
L 258.6 153.85 
L 251.625 149.32 
L 249.3 148.565 
L 240 147.055 
L 230.7 144.79 
L 226.05 143.28 
L 224.8875 137.24 
L 226.05 131.2 
L 221.4 126.67 
L 219.075 125.16 
L 221.4 122.14 
L 226.05 119.12 
L 221.4 116.1 
L 216.75 113.08 
L 212.1 110.06 
L 207.45 107.04 
L 202.8 104.02 
L 193.5 105.53 
L 188.85 107.04 
L 184.2 108.55 
L 174.9 111.57 
L 172.575 113.08 
L 172.575 119.12 
L 174.9 122.14 
L 177.225 125.16 
L 179.55 131.2 
L 174.9 134.22 
L 172.575 137.24 
L 174.9 140.26 
L 184.2 140.26 
L 193.5 140.26 
L 202.8 140.26 
L 212.1 141.77 
L 216.75 143.28 
L 219.075 149.32 
L 219.85 155.36 
L 219.85 161.4 
L 219.85 167.44 
L 221.4 168.446667 
L 229.15 173.48 
z
M 233.025 173.48 
L 230.7 171.97 
L 223.725 167.44 
L 223.725 161.4 
L 223.725 155.36 
L 223.725 149.32 
L 230.7 147.055 
L 240 148.1875 
L 246.975 149.32 
L 249.3 150.83 
L 256.275 155.36 
L 258.6 156.87 
L 265.575 161.4 
L 267.9 162.91 
L 269.64375 167.44 
L 270.225 173.48 
L 267.9 174.6125 
L 258.6 175.745 
L 249.3 175.745 
L 240 175.745 
z
M 205.125 137.24 
L 202.8 135.73 
L 193.5 135.73 
L 186.525 131.2 
L 184.2 129.69 
L 180.7125 125.16 
L 177.225 119.12 
L 177.225 113.08 
L 184.2 110.815 
L 193.5 108.55 
L 202.8 108.55 
L 209.775 113.08 
L 212.1 114.59 
L 219.075 119.12 
L 215.5875 125.16 
L 221.4 128.935 
L 223.725 131.2 
L 223.14375 137.24 
L 221.4 141.77 
L 212.1 139.505 
z
" style="fill:#fd9f56;fill-opacity:0.8;"/>
    <path clip-path="url(#pe7c5cc41ce)" d="M 305.1 138.246667 
L 309.75 137.24 
L 314.4 135.73 
L 323.7 135.73 
L 328.35 137.24 
L 333 138.75 
L 342.3 140.26 
L 351.6 138.75 
L 360.9 138.75 
L 370.2 138.246667 
L 379.5 138.246667 
L 388.8 138.246667 
L 388.8 137.24 
L 388.8 135.73 
L 379.5 135.73 
L 370.2 135.73 
L 360.9 135.73 
L 351.6 135.73 
L 342.3 135.73 
L 333 135.73 
L 323.7 133.465 
L 314.4 133.465 
L 307.425 131.2 
L 305.1 129.69 
L 295.8 129.69 
L 293.475 125.16 
L 293.475 119.12 
L 293.475 113.08 
L 286.5 108.55 
L 284.75625 107.04 
L 277.2 102.1325 
L 270.225 101 
L 267.9 99.49 
L 258.6 99.49 
L 249.3 97.225 
L 240 99.49 
L 233.025 94.96 
L 230.7 93.45 
L 227.2125 88.92 
L 227.2125 82.88 
L 227.2125 76.84 
L 223.725 70.8 
L 227.2125 64.76 
L 228.375 58.72 
L 228.375 52.68 
L 228.95625 46.64 
L 228.95625 40.6 
L 228.95625 34.56 
L 227.2125 34.56 
L 227.2125 40.6 
L 227.2125 46.64 
L 226.05 52.68 
L 226.05 58.72 
L 223.725 64.76 
L 221.4 67.78 
L 220.2375 70.8 
L 221.4 73.82 
L 223.725 76.84 
L 223.725 82.88 
L 223.725 88.92 
L 228.375 94.96 
L 230.7 97.98 
L 235.35 101 
L 240 102.51 
L 244.65 101 
L 249.3 99.49 
L 253.95 101 
L 258.6 102.006667 
L 267.9 102.006667 
L 277.2 103.265 
L 283.0125 107.04 
L 286.5 110.06 
L 291.15 113.08 
L 291.15 119.12 
L 291.15 125.16 
L 293.475 131.2 
L 295.8 134.22 
L 300.45 137.24 
z
" style="fill:#fd9f56;fill-opacity:0.8;"/>
   </g>
   <g id="PathCollection_3">
    <path clip-path="url(#pe7c5cc41ce)" d="M 221.4 252 
L 222.175 252 
L 222.175 245.96 
L 222.175 239.92 
L 222.175 233.88 
L 221.4 232.37 
L 217.9125 227.84 
L 217.9125 221.8 
L 217.9125 215.76 
L 217.9125 209.72 
L 215.975 203.68 
L 217.9125 197.64 
L 212.1 193.865 
L 208.6125 191.6 
L 202.8 187.825 
L 193.5 187.07 
L 190.0125 185.56 
L 184.2 183.6725 
L 174.9 182.1625 
L 170.83125 179.52 
L 165.6 174.99 
L 163.275 173.48 
L 163.275 167.44 
L 165.6 162.91 
L 166.7625 161.4 
L 166.7625 155.36 
L 165.6 153.85 
L 162.1125 149.32 
L 156.3 145.545 
L 147 145.545 
L 137.7 146.803333 
L 128.4 146.803333 
L 119.1 144.79 
L 112.125 143.28 
L 109.8 142.776667 
L 100.5 142.776667 
L 91.2 142.776667 
L 81.9 142.776667 
L 72.6 142.776667 
L 63.3 142.776667 
L 54 142.776667 
L 54 143.28 
L 54 144.79 
L 63.3 144.79 
L 72.6 144.79 
L 81.9 144.79 
L 91.2 144.79 
L 100.5 144.79 
L 109.8 144.79 
L 119.1 146.3 
L 128.4 148.313333 
L 137.7 148.313333 
L 147 147.81 
L 156.3 147.81 
L 158.625 149.32 
L 156.3 152.34 
L 153.975 155.36 
L 156.3 158.38 
L 160.95 161.4 
L 160.95 167.44 
L 160.95 173.48 
L 165.6 176.5 
L 169.0875 179.52 
L 174.9 183.295 
L 184.2 184.805 
L 186.525 185.56 
L 193.5 188.58 
L 202.8 190.09 
L 205.125 191.6 
L 212.1 196.13 
L 214.425 197.64 
L 213.65 203.68 
L 214.425 209.72 
L 214.425 215.76 
L 214.425 221.8 
L 214.425 227.84 
L 216.75 233.88 
L 216.75 239.92 
L 216.75 245.96 
L 216.75 252 
z
" style="fill:#fdd7af;fill-opacity:0.8;"/>
    <path clip-path="url(#pe7c5cc41ce)" d="M 240 180.275 
L 249.3 180.023333 
L 258.6 180.023333 
L 259.7625 179.52 
L 267.9 176.8775 
L 274.875 173.48 
L 273.13125 167.44 
L 270.80625 161.4 
L 267.9 157.625 
L 264.4125 155.36 
L 258.6 151.585 
L 255.1125 149.32 
L 249.3 147.4325 
L 240 145.9225 
L 231.8625 143.28 
L 230.7 142.525 
L 226.63125 137.24 
L 228.375 131.2 
L 223.725 125.16 
L 230.7 120.63 
L 231.475 119.12 
L 230.7 117.61 
L 223.725 113.08 
L 223.725 107.04 
L 230.7 102.51 
L 240 104.775 
L 249.3 102.51 
L 258.6 103.516667 
L 267.9 103.516667 
L 277.2 104.3975 
L 281.26875 107.04 
L 286.5 111.57 
L 288.825 113.08 
L 288.825 119.12 
L 288.825 125.16 
L 289.9875 131.2 
L 294.6375 137.24 
L 295.8 137.995 
L 305.1 139.756667 
L 314.4 137.995 
L 323.7 138.75 
L 333 141.015 
L 339.975 143.28 
L 342.3 143.783333 
L 344.625 143.28 
L 351.6 141.015 
L 360.9 141.015 
L 370.2 139.756667 
L 379.5 139.756667 
L 388.8 139.756667 
L 388.8 138.246667 
L 379.5 138.246667 
L 370.2 138.246667 
L 360.9 138.75 
L 351.6 138.75 
L 342.3 140.26 
L 333 138.75 
L 328.35 137.24 
L 323.7 135.73 
L 314.4 135.73 
L 309.75 137.24 
L 305.1 138.246667 
L 300.45 137.24 
L 295.8 134.22 
L 293.475 131.2 
L 291.15 125.16 
L 291.15 119.12 
L 291.15 113.08 
L 286.5 110.06 
L 283.0125 107.04 
L 277.2 103.265 
L 267.9 102.006667 
L 258.6 102.006667 
L 253.95 101 
L 249.3 99.49 
L 244.65 101 
L 240 102.51 
L 235.35 101 
L 230.7 97.98 
L 228.375 94.96 
L 223.725 88.92 
L 223.725 82.88 
L 223.725 76.84 
L 221.4 73.82 
L 220.2375 70.8 
L 221.4 67.78 
L 223.725 64.76 
L 226.05 58.72 
L 226.05 52.68 
L 227.2125 46.64 
L 227.2125 40.6 
L 227.2125 34.56 
L 225.46875 34.56 
L 225.46875 40.6 
L 225.46875 46.64 
L 223.725 52.68 
L 223.725 58.72 
L 221.4 63.25 
L 220.625 64.76 
L 218.49375 70.8 
L 219.075 76.84 
L 219.075 82.88 
L 212.1 87.41 
L 209.775 88.92 
L 202.8 93.45 
L 201.6375 94.96 
L 200.475 101 
L 193.5 103.265 
L 184.2 106.285 
L 181.875 107.04 
L 174.9 109.305 
L 169.0875 113.08 
L 169.0875 119.12 
L 173.7375 125.16 
L 172.575 131.2 
L 169.0875 137.24 
L 172.575 143.28 
L 172.575 149.32 
L 174.9 150.075 
L 177.225 149.32 
L 184.2 144.79 
L 193.5 144.79 
L 202.8 144.035 
L 212.1 144.79 
L 215.5875 149.32 
L 217.525 155.36 
L 217.525 161.4 
L 217.525 167.44 
L 221.4 169.956667 
L 226.825 173.48 
L 230.7 175.996667 
L 238.8375 179.52 
z
M 229.15 173.48 
L 221.4 168.446667 
L 219.85 167.44 
L 219.85 161.4 
L 219.85 155.36 
L 219.075 149.32 
L 216.75 143.28 
L 212.1 141.77 
L 202.8 140.26 
L 193.5 140.26 
L 184.2 140.26 
L 174.9 140.26 
L 172.575 137.24 
L 174.9 134.22 
L 179.55 131.2 
L 177.225 125.16 
L 174.9 122.14 
L 172.575 119.12 
L 172.575 113.08 
L 174.9 111.57 
L 184.2 108.55 
L 188.85 107.04 
L 193.5 105.53 
L 202.8 104.02 
L 207.45 107.04 
L 212.1 110.06 
L 216.75 113.08 
L 221.4 116.1 
L 226.05 119.12 
L 221.4 122.14 
L 219.075 125.16 
L 221.4 126.67 
L 226.05 131.2 
L 224.8875 137.24 
L 226.05 143.28 
L 230.7 144.79 
L 240 147.055 
L 249.3 148.565 
L 251.625 149.32 
L 258.6 153.85 
L 260.925 155.36 
L 267.9 159.89 
L 269.0625 161.4 
L 271.3875 167.44 
L 272.55 173.48 
L 267.9 175.745 
L 258.6 178.01 
L 249.3 178.01 
L 240 178.01 
L 230.7 174.486667 
z
M 214.425 94.96 
L 221.4 90.43 
L 224.8875 94.96 
L 221.4 99.49 
z
" style="fill:#fdd7af;fill-opacity:0.8;"/>
   </g>
   <g id="PathCollection_4">
    <path clip-path="url(#pe7c5cc41ce)" d="M 224.5 245.96 
L 224.5 239.92 
L 224.5 233.88 
L 221.4 227.84 
L 221.4 221.8 
L 221.4 215.76 
L 221.4 209.72 
L 221.4 209.72 
L 218.3 203.68 
L 221.4 197.64 
L 221.4 197.64 
L 221.4 191.6 
L 221.4 191.6 
L 212.1 185.56 
L 212.1 185.56 
L 202.8 185.56 
L 193.5 185.56 
L 184.2 182.54 
L 174.9 181.03 
L 172.575 179.52 
L 165.6 173.48 
L 165.6 167.44 
L 170.25 161.4 
L 170.25 155.36 
L 174.9 152.34 
L 184.2 149.32 
L 193.5 149.32 
L 193.5 149.32 
L 202.8 146.3 
L 212.1 149.32 
L 212.1 149.32 
L 215.2 155.36 
L 215.2 161.4 
L 215.2 167.44 
L 221.4 171.466667 
L 224.5 173.48 
L 230.7 177.506667 
L 235.35 179.52 
L 240 182.54 
L 249.3 181.533333 
L 258.6 181.533333 
L 263.25 179.52 
L 267.9 178.01 
L 277.2 173.48 
L 277.2 173.48 
L 277.2 173.48 
L 274.875 167.44 
L 272.55 161.4 
L 267.9 155.36 
L 267.9 155.36 
L 258.6 149.32 
L 258.6 149.32 
L 249.3 146.3 
L 240 144.79 
L 235.35 143.28 
L 230.7 140.26 
L 228.375 137.24 
L 230.7 131.2 
L 230.7 131.2 
L 230.7 125.16 
L 233.8 119.12 
L 240 113.08 
L 240 113.08 
L 249.3 107.04 
L 249.3 107.04 
L 258.6 105.026667 
L 267.9 105.026667 
L 277.2 105.53 
L 279.525 107.04 
L 286.5 113.08 
L 286.5 119.12 
L 286.5 125.16 
L 286.5 131.2 
L 286.5 131.2 
L 291.15 137.24 
L 295.8 140.26 
L 305.1 141.266667 
L 314.4 140.26 
L 323.7 143.28 
L 323.7 143.28 
L 333 143.28 
L 342.3 145.293333 
L 351.6 143.28 
L 360.9 143.28 
L 360.9 143.28 
L 370.2 141.266667 
L 379.5 141.266667 
L 388.8 141.266667 
L 388.8 139.756667 
L 379.5 139.756667 
L 370.2 139.756667 
L 360.9 141.015 
L 351.6 141.015 
L 344.625 143.28 
L 342.3 143.783333 
L 339.975 143.28 
L 333 141.015 
L 323.7 138.75 
L 314.4 137.995 
L 305.1 139.756667 
L 295.8 137.995 
L 294.6375 137.24 
L 289.9875 131.2 
L 288.825 125.16 
L 288.825 119.12 
L 288.825 113.08 
L 286.5 111.57 
L 281.26875 107.04 
L 277.2 104.3975 
L 267.9 103.516667 
L 258.6 103.516667 
L 249.3 102.51 
L 240 104.775 
L 230.7 102.51 
L 223.725 107.04 
L 223.725 113.08 
L 230.7 117.61 
L 231.475 119.12 
L 230.7 120.63 
L 223.725 125.16 
L 228.375 131.2 
L 226.63125 137.24 
L 230.7 142.525 
L 231.8625 143.28 
L 240 145.9225 
L 249.3 147.4325 
L 255.1125 149.32 
L 258.6 151.585 
L 264.4125 155.36 
L 267.9 157.625 
L 270.80625 161.4 
L 273.13125 167.44 
L 274.875 173.48 
L 267.9 176.8775 
L 259.7625 179.52 
L 258.6 180.023333 
L 249.3 180.023333 
L 240 180.275 
L 238.8375 179.52 
L 230.7 175.996667 
L 226.825 173.48 
L 221.4 169.956667 
L 217.525 167.44 
L 217.525 161.4 
L 217.525 155.36 
L 215.5875 149.32 
L 212.1 144.79 
L 202.8 144.035 
L 193.5 144.79 
L 184.2 144.79 
L 177.225 149.32 
L 174.9 150.075 
L 172.575 149.32 
L 172.575 143.28 
L 169.0875 137.24 
L 172.575 131.2 
L 173.7375 125.16 
L 169.0875 119.12 
L 169.0875 113.08 
L 174.9 109.305 
L 181.875 107.04 
L 184.2 106.285 
L 193.5 103.265 
L 200.475 101 
L 201.6375 94.96 
L 202.8 93.45 
L 209.775 88.92 
L 212.1 87.41 
L 219.075 82.88 
L 219.075 76.84 
L 218.49375 70.8 
L 220.625 64.76 
L 221.4 63.25 
L 223.725 58.72 
L 223.725 52.68 
L 225.46875 46.64 
L 225.46875 40.6 
L 225.46875 34.56 
L 223.725 34.56 
L 223.725 40.6 
L 223.725 46.64 
L 221.4 52.68 
L 221.4 52.68 
L 221.4 58.72 
L 218.3 64.76 
L 216.75 70.8 
L 212.1 76.84 
L 212.1 76.84 
L 212.1 82.88 
L 202.8 88.92 
L 202.8 88.92 
L 198.15 94.96 
L 193.5 101 
L 193.5 101 
L 184.2 104.02 
L 174.9 101 
L 174.9 101 
L 174.9 101 
L 174.9 107.04 
L 165.6 113.08 
L 165.6 113.08 
L 165.6 119.12 
L 165.6 119.12 
L 170.25 125.16 
L 165.6 131.2 
L 165.6 131.2 
L 156.3 137.24 
L 156.3 137.24 
L 147 143.28 
L 147 143.28 
L 137.7 145.293333 
L 128.4 145.293333 
L 119.1 143.28 
L 119.1 143.28 
L 109.8 141.266667 
L 100.5 141.266667 
L 91.2 141.266667 
L 81.9 141.266667 
L 72.6 141.266667 
L 63.3 141.266667 
L 54 141.266667 
L 54 142.776667 
L 63.3 142.776667 
L 72.6 142.776667 
L 81.9 142.776667 
L 91.2 142.776667 
L 100.5 142.776667 
L 109.8 142.776667 
L 112.125 143.28 
L 119.1 144.79 
L 128.4 146.803333 
L 137.7 146.803333 
L 147 145.545 
L 156.3 145.545 
L 162.1125 149.32 
L 165.6 153.85 
L 166.7625 155.36 
L 166.7625 161.4 
L 165.6 162.91 
L 163.275 167.44 
L 163.275 173.48 
L 165.6 174.99 
L 170.83125 179.52 
L 174.9 182.1625 
L 184.2 183.6725 
L 190.0125 185.56 
L 193.5 187.07 
L 202.8 187.825 
L 208.6125 191.6 
L 212.1 193.865 
L 217.9125 197.64 
L 215.975 203.68 
L 217.9125 209.72 
L 217.9125 215.76 
L 217.9125 221.8 
L 217.9125 227.84 
L 221.4 232.37 
L 222.175 233.88 
L 222.175 239.92 
L 222.175 245.96 
L 222.175 252 
L 224.5 252 
z
" style="fill:#f7fbff;fill-opacity:0.8;"/>
    <path clip-path="url(#pe7c5cc41ce)" d="M 221.4 99.49 
L 224.8875 94.96 
L 221.4 90.43 
L 214.425 94.96 
z
" style="fill:#f7fbff;fill-opacity:0.8;"/>
   </g>
   <g id="PathCollection_5">
    <path clip-path="url(#pe7c5cc41ce)" d="M 226.825 245.96 
L 226.825 239.92 
L 226.825 233.88 
L 224.8875 227.84 
L 224.8875 221.8 
L 224.8875 215.76 
L 224.8875 209.72 
L 221.4 205.19 
L 220.625 203.68 
L 221.4 202.17 
L 228.375 197.64 
L 228.375 191.6 
L 221.4 189.335 
L 215.5875 185.56 
L 212.1 181.03 
L 202.8 181.03 
L 193.5 181.03 
L 184.2 181.4075 
L 174.9 179.8975 
L 174.31875 179.52 
L 172.575 173.48 
L 172.575 167.44 
L 173.7375 161.4 
L 173.7375 155.36 
L 174.9 154.605 
L 184.2 153.85 
L 193.5 153.85 
L 200.475 149.32 
L 202.8 148.565 
L 205.125 149.32 
L 212.1 153.85 
L 212.875 155.36 
L 212.875 161.4 
L 212.875 167.44 
L 221.4 172.976667 
L 222.175 173.48 
L 230.7 179.016667 
L 231.8625 179.52 
L 240 184.805 
L 249.3 183.043333 
L 258.6 183.043333 
L 266.7375 179.52 
L 267.9 179.1425 
L 277.2 178.01 
L 280.6875 173.48 
L 277.2 168.95 
L 276.61875 167.44 
L 274.29375 161.4 
L 274.875 155.36 
L 267.9 150.83 
L 265.575 149.32 
L 258.6 147.055 
L 249.3 145.1675 
L 240 143.6575 
L 238.8375 143.28 
L 230.7 137.995 
L 230.11875 137.24 
L 230.7 135.73 
L 234.1875 131.2 
L 234.1875 125.16 
L 236.125 119.12 
L 240 115.345 
L 243.4875 113.08 
L 249.3 109.305 
L 256.275 107.04 
L 258.6 106.536667 
L 267.9 106.536667 
L 277.2 106.6625 
L 277.78125 107.04 
L 283.0125 113.08 
L 283.0125 119.12 
L 283.0125 125.16 
L 283.0125 131.2 
L 286.5 135.73 
L 287.6625 137.24 
L 295.8 142.525 
L 305.1 142.776667 
L 314.4 142.525 
L 316.725 143.28 
L 323.7 145.545 
L 333 145.545 
L 342.3 146.803333 
L 351.6 145.545 
L 360.9 145.545 
L 367.875 143.28 
L 370.2 142.776667 
L 379.5 142.776667 
L 388.8 142.776667 
L 388.8 141.266667 
L 379.5 141.266667 
L 370.2 141.266667 
L 360.9 143.28 
L 360.9 143.28 
L 351.6 143.28 
L 342.3 145.293333 
L 333 143.28 
L 323.7 143.28 
L 323.7 143.28 
L 314.4 140.26 
L 305.1 141.266667 
L 295.8 140.26 
L 291.15 137.24 
L 286.5 131.2 
L 286.5 131.2 
L 286.5 125.16 
L 286.5 119.12 
L 286.5 113.08 
L 279.525 107.04 
L 277.2 105.53 
L 267.9 105.026667 
L 258.6 105.026667 
L 249.3 107.04 
L 249.3 107.04 
L 240 113.08 
L 240 113.08 
L 233.8 119.12 
L 230.7 125.16 
L 230.7 131.2 
L 230.7 131.2 
L 228.375 137.24 
L 230.7 140.26 
L 235.35 143.28 
L 240 144.79 
L 249.3 146.3 
L 258.6 149.32 
L 258.6 149.32 
L 267.9 155.36 
L 267.9 155.36 
L 272.55 161.4 
L 274.875 167.44 
L 277.2 173.48 
L 277.2 173.48 
L 267.9 178.01 
L 263.25 179.52 
L 258.6 181.533333 
L 249.3 181.533333 
L 240 182.54 
L 235.35 179.52 
L 230.7 177.506667 
L 224.5 173.48 
L 221.4 171.466667 
L 215.2 167.44 
L 215.2 161.4 
L 215.2 155.36 
L 212.1 149.32 
L 212.1 149.32 
L 202.8 146.3 
L 193.5 149.32 
L 193.5 149.32 
L 184.2 149.32 
L 174.9 152.34 
L 170.25 155.36 
L 170.25 161.4 
L 165.6 167.44 
L 165.6 173.48 
L 172.575 179.52 
L 174.9 181.03 
L 184.2 182.54 
L 193.5 185.56 
L 202.8 185.56 
L 212.1 185.56 
L 212.1 185.56 
L 221.4 191.6 
L 221.4 191.6 
L 221.4 197.64 
L 221.4 197.64 
L 218.3 203.68 
L 221.4 209.72 
L 221.4 209.72 
L 221.4 215.76 
L 221.4 221.8 
L 221.4 227.84 
L 224.5 233.88 
L 224.5 239.92 
L 224.5 245.96 
L 224.5 252 
L 226.825 252 
z
" style="fill:#cde0f1;fill-opacity:0.8;"/>
    <path clip-path="url(#pe7c5cc41ce)" d="M 128.4 145.293333 
L 137.7 145.293333 
L 147 143.28 
L 147 143.28 
L 156.3 137.24 
L 156.3 137.24 
L 165.6 131.2 
L 165.6 131.2 
L 170.25 125.16 
L 165.6 119.12 
L 165.6 119.12 
L 165.6 113.08 
L 165.6 113.08 
L 174.9 107.04 
L 174.9 101 
L 174.9 101 
L 174.9 101 
L 184.2 104.02 
L 193.5 101 
L 193.5 101 
L 198.15 94.96 
L 202.8 88.92 
L 202.8 88.92 
L 212.1 82.88 
L 212.1 76.84 
L 212.1 76.84 
L 216.75 70.8 
L 218.3 64.76 
L 221.4 58.72 
L 221.4 52.68 
L 221.4 52.68 
L 223.725 46.64 
L 223.725 40.6 
L 223.725 34.56 
L 221.98125 34.56 
L 221.98125 40.6 
L 221.98125 46.64 
L 221.4 48.15 
L 214.425 52.68 
L 214.425 58.72 
L 215.975 64.76 
L 215.00625 70.8 
L 212.1 74.575 
L 208.6125 76.84 
L 205.125 82.88 
L 202.8 84.39 
L 199.3125 88.92 
L 194.6625 94.96 
L 193.5 96.47 
L 186.525 101 
L 184.2 101.755 
L 181.875 101 
L 174.9 98.735 
L 171.4125 101 
L 167.925 107.04 
L 165.6 108.55 
L 162.1125 113.08 
L 162.1125 119.12 
L 165.6 123.65 
L 166.7625 125.16 
L 165.6 126.67 
L 158.625 131.2 
L 156.3 132.71 
L 149.325 137.24 
L 147 138.75 
L 140.025 143.28 
L 137.7 143.783333 
L 128.4 143.783333 
L 126.075 143.28 
L 119.1 141.015 
L 109.8 139.756667 
L 100.5 139.756667 
L 91.2 139.756667 
L 81.9 139.756667 
L 72.6 139.756667 
L 63.3 139.756667 
L 54 139.756667 
L 54 141.266667 
L 63.3 141.266667 
L 72.6 141.266667 
L 81.9 141.266667 
L 91.2 141.266667 
L 100.5 141.266667 
L 109.8 141.266667 
L 119.1 143.28 
L 119.1 143.28 
z
" style="fill:#cde0f1;fill-opacity:0.8;"/>
   </g>
   <g id="PathCollection_6">
    <path clip-path="url(#pe7c5cc41ce)" d="M 229.15 245.96 
L 229.15 239.92 
L 229.15 233.88 
L 228.375 227.84 
L 228.375 221.8 
L 228.375 215.76 
L 228.375 209.72 
L 230.7 206.7 
L 235.35 203.68 
L 235.35 197.64 
L 235.35 191.6 
L 240 188.58 
L 244.65 185.56 
L 249.3 184.553333 
L 258.6 184.553333 
L 267.9 182.54 
L 277.2 182.54 
L 281.85 179.52 
L 284.175 173.48 
L 281.85 167.44 
L 277.2 164.42 
L 276.0375 161.4 
L 277.2 158.38 
L 281.85 155.36 
L 286.5 152.34 
L 291.15 149.32 
L 295.8 146.3 
L 305.1 146.3 
L 314.4 146.3 
L 323.7 147.81 
L 333 147.81 
L 342.3 148.313333 
L 351.6 147.81 
L 360.9 147.81 
L 370.2 146.3 
L 379.5 146.3 
L 388.8 146.3 
L 388.8 143.28 
L 388.8 142.776667 
L 379.5 142.776667 
L 370.2 142.776667 
L 367.875 143.28 
L 360.9 145.545 
L 351.6 145.545 
L 342.3 146.803333 
L 333 145.545 
L 323.7 145.545 
L 316.725 143.28 
L 314.4 142.525 
L 305.1 142.776667 
L 295.8 142.525 
L 287.6625 137.24 
L 286.5 135.73 
L 283.0125 131.2 
L 283.0125 125.16 
L 283.0125 119.12 
L 283.0125 113.08 
L 277.78125 107.04 
L 277.2 106.6625 
L 267.9 106.536667 
L 258.6 106.536667 
L 256.275 107.04 
L 249.3 109.305 
L 243.4875 113.08 
L 240 115.345 
L 236.125 119.12 
L 234.1875 125.16 
L 234.1875 131.2 
L 230.7 135.73 
L 230.11875 137.24 
L 230.7 137.995 
L 238.8375 143.28 
L 240 143.6575 
L 249.3 145.1675 
L 258.6 147.055 
L 265.575 149.32 
L 267.9 150.83 
L 274.875 155.36 
L 274.29375 161.4 
L 276.61875 167.44 
L 277.2 168.95 
L 280.6875 173.48 
L 277.2 178.01 
L 267.9 179.1425 
L 266.7375 179.52 
L 258.6 183.043333 
L 249.3 183.043333 
L 240 184.805 
L 231.8625 179.52 
L 230.7 179.016667 
L 222.175 173.48 
L 221.4 172.976667 
L 212.875 167.44 
L 212.875 161.4 
L 212.875 155.36 
L 212.1 153.85 
L 205.125 149.32 
L 202.8 148.565 
L 200.475 149.32 
L 193.5 153.85 
L 184.2 153.85 
L 174.9 154.605 
L 173.7375 155.36 
L 173.7375 161.4 
L 172.575 167.44 
L 172.575 173.48 
L 174.31875 179.52 
L 174.9 179.8975 
L 184.2 181.4075 
L 193.5 181.03 
L 202.8 181.03 
L 212.1 181.03 
L 215.5875 185.56 
L 221.4 189.335 
L 228.375 191.6 
L 228.375 197.64 
L 221.4 202.17 
L 220.625 203.68 
L 221.4 205.19 
L 224.8875 209.72 
L 224.8875 215.76 
L 224.8875 221.8 
L 224.8875 227.84 
L 226.825 233.88 
L 226.825 239.92 
L 226.825 245.96 
L 226.825 252 
L 229.15 252 
z
M 219.075 185.56 
L 221.4 182.54 
L 226.05 185.56 
L 221.4 187.07 
z
M 179.55 179.52 
L 179.55 173.48 
L 179.55 167.44 
L 179.55 161.4 
L 184.2 158.38 
L 193.5 158.38 
L 198.15 155.36 
L 202.8 152.34 
L 207.45 155.36 
L 207.45 161.4 
L 207.45 167.44 
L 207.45 173.48 
L 202.8 176.5 
L 193.5 176.5 
L 188.85 179.52 
L 184.2 180.275 
z
M 244.65 143.28 
L 240 140.26 
L 235.35 137.24 
L 237.675 131.2 
L 237.675 125.16 
L 238.45 119.12 
L 240 117.61 
L 246.975 113.08 
L 249.3 111.57 
L 258.6 110.06 
L 267.9 110.06 
L 277.2 110.06 
L 279.525 113.08 
L 279.525 119.12 
L 279.525 125.16 
L 279.525 131.2 
L 281.85 137.24 
L 277.2 140.26 
L 267.9 140.26 
L 263.25 143.28 
L 258.6 144.79 
L 249.3 144.035 
z
" style="fill:#87bddc;fill-opacity:0.8;"/>
    <path clip-path="url(#pe7c5cc41ce)" d="M 128.4 143.783333 
L 137.7 143.783333 
L 140.025 143.28 
L 147 138.75 
L 149.325 137.24 
L 156.3 132.71 
L 158.625 131.2 
L 165.6 126.67 
L 166.7625 125.16 
L 165.6 123.65 
L 162.1125 119.12 
L 162.1125 113.08 
L 165.6 108.55 
L 167.925 107.04 
L 171.4125 101 
L 174.9 98.735 
L 181.875 101 
L 184.2 101.755 
L 186.525 101 
L 193.5 96.47 
L 194.6625 94.96 
L 199.3125 88.92 
L 202.8 84.39 
L 205.125 82.88 
L 208.6125 76.84 
L 212.1 74.575 
L 215.00625 70.8 
L 215.975 64.76 
L 214.425 58.72 
L 214.425 52.68 
L 221.4 48.15 
L 221.98125 46.64 
L 221.98125 40.6 
L 221.98125 34.56 
L 221.4 34.56 
L 212.1 34.56 
L 207.45 34.56 
L 207.45 40.6 
L 207.45 46.64 
L 207.45 52.68 
L 207.45 58.72 
L 212.1 61.74 
L 213.65 64.76 
L 213.2625 70.8 
L 212.1 72.31 
L 205.125 76.84 
L 202.8 79.86 
L 198.15 82.88 
L 195.825 88.92 
L 193.5 91.94 
L 188.85 94.96 
L 184.2 97.98 
L 174.9 96.47 
L 167.925 101 
L 165.6 104.02 
L 160.95 107.04 
L 158.625 113.08 
L 158.625 119.12 
L 156.3 122.14 
L 151.65 125.16 
L 147 128.18 
L 142.35 131.2 
L 137.7 134.22 
L 128.4 134.22 
L 123.75 137.24 
L 119.1 138.75 
L 109.8 138.246667 
L 100.5 138.246667 
L 91.2 138.246667 
L 81.9 138.246667 
L 72.6 138.246667 
L 63.3 138.246667 
L 54 138.246667 
L 54 139.756667 
L 63.3 139.756667 
L 72.6 139.756667 
L 81.9 139.756667 
L 91.2 139.756667 
L 100.5 139.756667 
L 109.8 139.756667 
L 119.1 141.015 
L 126.075 143.28 
z
" style="fill:#87bddc;fill-opacity:0.8;"/>
   </g>
   <g id="PathCollection_7">
    <path clip-path="url(#pe7c5cc41ce)" d="M 230.7 252 
L 240 252 
L 249.3 252 
L 258.6 252 
L 267.9 252 
L 277.2 252 
L 286.5 252 
L 295.8 252 
L 305.1 252 
L 314.4 252 
L 323.7 252 
L 333 252 
L 342.3 252 
L 351.6 252 
L 360.9 252 
L 370.2 252 
L 379.5 252 
L 388.8 252 
L 388.8 245.96 
L 388.8 239.92 
L 388.8 233.88 
L 388.8 227.84 
L 388.8 221.8 
L 388.8 215.76 
L 388.8 209.72 
L 388.8 203.68 
L 388.8 197.64 
L 388.8 191.6 
L 388.8 185.56 
L 388.8 179.52 
L 388.8 173.48 
L 388.8 167.44 
L 388.8 161.4 
L 388.8 155.36 
L 388.8 149.32 
L 388.8 146.3 
L 379.5 146.3 
L 370.2 146.3 
L 360.9 147.81 
L 351.6 147.81 
L 342.3 148.313333 
L 333 147.81 
L 323.7 147.81 
L 314.4 146.3 
L 305.1 146.3 
L 295.8 146.3 
L 291.15 149.32 
L 286.5 152.34 
L 281.85 155.36 
L 277.2 158.38 
L 276.0375 161.4 
L 277.2 164.42 
L 281.85 167.44 
L 284.175 173.48 
L 281.85 179.52 
L 277.2 182.54 
L 267.9 182.54 
L 258.6 184.553333 
L 249.3 184.553333 
L 244.65 185.56 
L 240 188.58 
L 235.35 191.6 
L 235.35 197.64 
L 235.35 203.68 
L 230.7 206.7 
L 228.375 209.72 
L 228.375 215.76 
L 228.375 221.8 
L 228.375 227.84 
L 229.15 233.88 
L 229.15 239.92 
L 229.15 245.96 
L 229.15 252 
z
" style="fill:#3d8dc4;fill-opacity:0.8;"/>
    <path clip-path="url(#pe7c5cc41ce)" d="M 221.4 187.07 
L 226.05 185.56 
L 221.4 182.54 
L 219.075 185.56 
z
" style="fill:#3d8dc4;fill-opacity:0.8;"/>
    <path clip-path="url(#pe7c5cc41ce)" d="M 184.2 180.275 
L 188.85 179.52 
L 193.5 176.5 
L 202.8 176.5 
L 207.45 173.48 
L 207.45 167.44 
L 207.45 161.4 
L 207.45 155.36 
L 202.8 152.34 
L 198.15 155.36 
L 193.5 158.38 
L 184.2 158.38 
L 179.55 161.4 
L 179.55 167.44 
L 179.55 173.48 
L 179.55 179.52 
z
" style="fill:#3d8dc4;fill-opacity:0.8;"/>
    <path clip-path="url(#pe7c5cc41ce)" d="M 249.3 144.035 
L 258.6 144.79 
L 263.25 143.28 
L 267.9 140.26 
L 277.2 140.26 
L 281.85 137.24 
L 279.525 131.2 
L 279.525 125.16 
L 279.525 119.12 
L 279.525 113.08 
L 277.2 110.06 
L 267.9 110.06 
L 258.6 110.06 
L 249.3 111.57 
L 246.975 113.08 
L 240 117.61 
L 238.45 119.12 
L 237.675 125.16 
L 237.675 131.2 
L 235.35 137.24 
L 240 140.26 
L 244.65 143.28 
z
" style="fill:#3d8dc4;fill-opacity:0.8;"/>
    <path clip-path="url(#pe7c5cc41ce)" d="M 63.3 138.246667 
L 72.6 138.246667 
L 81.9 138.246667 
L 91.2 138.246667 
L 100.5 138.246667 
L 109.8 138.246667 
L 119.1 138.75 
L 123.75 137.24 
L 128.4 134.22 
L 137.7 134.22 
L 142.35 131.2 
L 147 128.18 
L 151.65 125.16 
L 156.3 122.14 
L 158.625 119.12 
L 158.625 113.08 
L 160.95 107.04 
L 165.6 104.02 
L 167.925 101 
L 174.9 96.47 
L 184.2 97.98 
L 188.85 94.96 
L 193.5 91.94 
L 195.825 88.92 
L 198.15 82.88 
L 202.8 79.86 
L 205.125 76.84 
L 212.1 72.31 
L 213.2625 70.8 
L 213.65 64.76 
L 212.1 61.74 
L 207.45 58.72 
L 207.45 52.68 
L 207.45 46.64 
L 207.45 40.6 
L 207.45 34.56 
L 202.8 34.56 
L 193.5 34.56 
L 184.2 34.56 
L 174.9 34.56 
L 165.6 34.56 
L 156.3 34.56 
L 147 34.56 
L 137.7 34.56 
L 128.4 34.56 
L 119.1 34.56 
L 109.8 34.56 
L 100.5 34.56 
L 91.2 34.56 
L 81.9 34.56 
L 72.6 34.56 
L 63.3 34.56 
L 54 34.56 
L 54 40.6 
L 54 46.64 
L 54 52.68 
L 54 58.72 
L 54 64.76 
L 54 70.8 
L 54 76.84 
L 54 82.88 
L 54 88.92 
L 54 94.96 
L 54 101 
L 54 107.04 
L 54 113.08 
L 54 119.12 
L 54 125.16 
L 54 131.2 
L 54 137.24 
L 54 138.246667 
z
" style="fill:#3d8dc4;fill-opacity:0.8;"/>
   </g>
   <g id="PathCollection_8">
    <defs>
     <path d="M 0 3 
C 0.795609 3 1.55874 2.683901 2.12132 2.12132 
C 2.683901 1.55874 3 0.795609 3 -0 
C 3 -0.795609 2.683901 -1.55874 2.12132 -2.12132 
C 1.55874 -2.683901 0.795609 -3 0 -3 
C -0.795609 -3 -1.55874 -2.683901 -2.12132 -2.12132 
C -2.683901 -1.55874 -3 -0.795609 -3 0 
C -3 0.795609 -2.683901 1.55874 -2.12132 2.12132 
C -1.55874 2.683901 -0.795609 3 0 3 
z
" id="C0_0_429afc4f3f"/>
    </defs>
    <g clip-path="url(#pe7c5cc41ce)">
     <use style="fill:#ff8000;stroke:#000000;" x="325.067381" xlink:href="#C0_0_429afc4f3f" y="98.148432"/>
    </g>
    <g clip-path="url(#pe7c5cc41ce)">
     <use style="fill:#1e90ff;stroke:#000000;" x="126.71945" xlink:href="#C0_0_429afc4f3f" y="72.632775"/>
    </g>
    <g clip-path="url(#pe7c5cc41ce)">
     <use style="fill:#ff8000;stroke:#000000;" x="318.253958" xlink:href="#C0_0_429afc4f3f" y="66.269913"/>
    </g>
    <g clip-path="url(#pe7c5cc41ce)">
     <use style="fill:#ff8000;stroke:#000000;" x="130.415985" xlink:href="#C0_0_429afc4f3f" y="171.550146"/>
    </g>
    <g clip-path="url(#pe7c5cc41ce)">
     <use style="fill:#ff8000;stroke:#000000;" x="332.856354" xlink:href="#C0_0_429afc4f3f" y="83.245462"/>
    </g>
    <g clip-path="url(#pe7c5cc41ce)">
     <use style="fill:#ff8000;stroke:#000000;" x="127.809621" xlink:href="#C0_0_429afc4f3f" y="165.738323"/>
    </g>
    <g clip-path="url(#pe7c5cc41ce)">
     <use style="fill:#ff8000;stroke:#000000;" x="324.175298" xlink:href="#C0_0_429afc4f3f" y="76.626292"/>
    </g>
    <g clip-path="url(#pe7c5cc41ce)">
     <use style="fill:#1e90ff;stroke:#000000;" x="259.090692" xlink:href="#C0_0_429afc4f3f" y="201.673668"/>
    </g>
    <g clip-path="url(#pe7c5cc41ce)">
     <use style="fill:#ff8000;stroke:#000000;" x="316.73113" xlink:href="#C0_0_429afc4f3f" y="111.266209"/>
    </g>
    <g clip-path="url(#pe7c5cc41ce)">
     <use style="fill:#ff8000;stroke:#000000;" x="242.82174" xlink:href="#C0_0_429afc4f3f" y="168.39706"/>
    </g>
    <g clip-path="url(#pe7c5cc41ce)">
     <use style="fill:#ff8000;stroke:#000000;" x="321.246305" xlink:href="#C0_0_429afc4f3f" y="100.156585"/>
    </g>
    <g clip-path="url(#pe7c5cc41ce)">
     <use style="fill:#1e90ff;stroke:#000000;" x="134.960481" xlink:href="#C0_0_429afc4f3f" y="111.230963"/>
    </g>
    <g clip-path="url(#pe7c5cc41ce)">
     <use style="fill:#ff8000;stroke:#000000;" x="223.491651" xlink:href="#C0_0_429afc4f3f" y="100.524413"/>
    </g>
    <g clip-path="url(#pe7c5cc41ce)">
     <use style="fill:#1e90ff;stroke:#000000;" x="280.011946" xlink:href="#C0_0_429afc4f3f" y="203.837697"/>
    </g>
    <g clip-path="url(#pe7c5cc41ce)">
     <use style="fill:#1e90ff;stroke:#000000;" x="245.620829" xlink:href="#C0_0_429afc4f3f" y="195.572979"/>
    </g>
    <g clip-path="url(#pe7c5cc41ce)">
     <use style="fill:#1e90ff;stroke:#000000;" x="308.001505" xlink:href="#C0_0_429afc4f3f" y="219.759007"/>
    </g>
    <g clip-path="url(#pe7c5cc41ce)">
     <use style="fill:#1e90ff;stroke:#000000;" x="325.471416" xlink:href="#C0_0_429afc4f3f" y="185.363738"/>
    </g>
    <g clip-path="url(#pe7c5cc41ce)">
     <use style="fill:#1e90ff;stroke:#000000;" x="299.946791" xlink:href="#C0_0_429afc4f3f" y="155.685423"/>
    </g>
    <g clip-path="url(#pe7c5cc41ce)">
     <use style="fill:#1e90ff;stroke:#000000;" x="129.208294" xlink:href="#C0_0_429afc4f3f" y="110.169713"/>
    </g>
    <g clip-path="url(#pe7c5cc41ce)">
     <use style="fill:#1e90ff;stroke:#000000;" x="122.65247" xlink:href="#C0_0_429afc4f3f" y="81.545534"/>
    </g>
    <g clip-path="url(#pe7c5cc41ce)">
     <use style="fill:#1e90ff;stroke:#000000;" x="326.99951" xlink:href="#C0_0_429afc4f3f" y="190.484487"/>
    </g>
    <g clip-path="url(#pe7c5cc41ce)">
     <use style="fill:#1e90ff;stroke:#000000;" x="300.266953" xlink:href="#C0_0_429afc4f3f" y="218.687903"/>
    </g>
    <g clip-path="url(#pe7c5cc41ce)">
     <use style="fill:#ff8000;stroke:#000000;" x="177.983435" xlink:href="#C0_0_429afc4f3f" y="197.88147"/>
    </g>
    <g clip-path="url(#pe7c5cc41ce)">
     <use style="fill:#1e90ff;stroke:#000000;" x="211.589606" xlink:href="#C0_0_429afc4f3f" y="177.648641"/>
    </g>
    <g clip-path="url(#pe7c5cc41ce)">
     <use style="fill:#ff8000;stroke:#000000;" x="214.109264" xlink:href="#C0_0_429afc4f3f" y="113.03358"/>
    </g>
    <g clip-path="url(#pe7c5cc41ce)">
     <use style="fill:#1e90ff;stroke:#000000;" x="307.394916" xlink:href="#C0_0_429afc4f3f" y="203.405056"/>
    </g>
    <g clip-path="url(#pe7c5cc41ce)">
     <use style="fill:#ff8000;stroke:#000000;" x="122.32703" xlink:href="#C0_0_429afc4f3f" y="183.106842"/>
    </g>
    <g clip-path="url(#pe7c5cc41ce)">
     <use style="fill:#ff8000;stroke:#000000;" x="312.403889" xlink:href="#C0_0_429afc4f3f" y="111.120454"/>
    </g>
    <g clip-path="url(#pe7c5cc41ce)">
     <use style="fill:#ff8000;stroke:#000000;" x="240.288785" xlink:href="#C0_0_429afc4f3f" y="169.061714"/>
    </g>
    <g clip-path="url(#pe7c5cc41ce)">
     <use style="fill:#ff8000;stroke:#000000;" x="136.425864" xlink:href="#C0_0_429afc4f3f" y="205.11038"/>
    </g>
    <g clip-path="url(#pe7c5cc41ce)">
     <use style="fill:#1e90ff;stroke:#000000;" x="119.358469" xlink:href="#C0_0_429afc4f3f" y="62.579685"/>
    </g>
    <g clip-path="url(#pe7c5cc41ce)">
     <use style="fill:#1e90ff;stroke:#000000;" x="174.857064" xlink:href="#C0_0_429afc4f3f" y="79.471181"/>
    </g>
    <g clip-path="url(#pe7c5cc41ce)">
     <use style="fill:#ff8000;stroke:#000000;" x="139.962074" xlink:href="#C0_0_429afc4f3f" y="207.840861"/>
    </g>
    <g clip-path="url(#pe7c5cc41ce)">
     <use style="fill:#1e90ff;stroke:#000000;" x="209.092912" xlink:href="#C0_0_429afc4f3f" y="169.50911"/>
    </g>
    <g clip-path="url(#pe7c5cc41ce)">
     <use style="fill:#1e90ff;stroke:#000000;" x="129.655045" xlink:href="#C0_0_429afc4f3f" y="111.022372"/>
    </g>
    <g clip-path="url(#pe7c5cc41ce)">
     <use style="fill:#ff8000;stroke:#000000;" x="106.076711" xlink:href="#C0_0_429afc4f3f" y="185.525876"/>
    </g>
    <g clip-path="url(#pe7c5cc41ce)">
     <use style="fill:#1e90ff;stroke:#000000;" x="325.110673" xlink:href="#C0_0_429afc4f3f" y="196.198654"/>
    </g>
    <g clip-path="url(#pe7c5cc41ce)">
     <use style="fill:#ff8000;stroke:#000000;" x="162.226808" xlink:href="#C0_0_429afc4f3f" y="209.545418"/>
    </g>
    <g clip-path="url(#pe7c5cc41ce)">
     <use style="fill:#ff8000;stroke:#000000;" x="238.144134" xlink:href="#C0_0_429afc4f3f" y="170.738258"/>
    </g>
    <g clip-path="url(#pe7c5cc41ce)">
     <use style="fill:#1e90ff;stroke:#000000;" x="126.202415" xlink:href="#C0_0_429afc4f3f" y="85.106179"/>
    </g>
    <g clip-path="url(#pe7c5cc41ce)">
     <use style="fill:#1e90ff;stroke:#000000;" x="300.380626" xlink:href="#C0_0_429afc4f3f" y="164.139867"/>
    </g>
    <g clip-path="url(#pe7c5cc41ce)">
     <use style="fill:#1e90ff;stroke:#000000;" x="297.436354" xlink:href="#C0_0_429afc4f3f" y="148.706211"/>
    </g>
    <g clip-path="url(#pe7c5cc41ce)">
     <use style="fill:#1e90ff;stroke:#000000;" x="156.871113" xlink:href="#C0_0_429afc4f3f" y="136.339725"/>
    </g>
    <g clip-path="url(#pe7c5cc41ce)">
     <use style="fill:#1e90ff;stroke:#000000;" x="224.005754" xlink:href="#C0_0_429afc4f3f" y="101.956176"/>
    </g>
    <g clip-path="url(#pe7c5cc41ce)">
     <use style="fill:#1e90ff;stroke:#000000;" x="325.225435" xlink:href="#C0_0_429afc4f3f" y="190.815916"/>
    </g>
    <g clip-path="url(#pe7c5cc41ce)">
     <use style="fill:#ff8000;stroke:#000000;" x="127.000469" xlink:href="#C0_0_429afc4f3f" y="188.646392"/>
    </g>
    <g clip-path="url(#pe7c5cc41ce)">
     <use style="fill:#ff8000;stroke:#000000;" x="320.711092" xlink:href="#C0_0_429afc4f3f" y="85.601934"/>
    </g>
    <g clip-path="url(#pe7c5cc41ce)">
     <use style="fill:#ff8000;stroke:#000000;" x="145.393248" xlink:href="#C0_0_429afc4f3f" y="221.8"/>
    </g>
    <g clip-path="url(#pe7c5cc41ce)">
     <use style="fill:#ff8000;stroke:#000000;" x="318.766224" xlink:href="#C0_0_429afc4f3f" y="81.770042"/>
    </g>
    <g clip-path="url(#pe7c5cc41ce)">
     <use style="fill:#1e90ff;stroke:#000000;" x="124.412211" xlink:href="#C0_0_429afc4f3f" y="106.786838"/>
    </g>
    <g clip-path="url(#pe7c5cc41ce)">
     <use style="fill:#ff8000;stroke:#000000;" x="285.355381" xlink:href="#C0_0_429afc4f3f" y="86.496097"/>
    </g>
    <g clip-path="url(#pe7c5cc41ce)">
     <use style="fill:#1e90ff;stroke:#000000;" x="303.200336" xlink:href="#C0_0_429afc4f3f" y="217.16876"/>
    </g>
    <g clip-path="url(#pe7c5cc41ce)">
     <use style="fill:#1e90ff;stroke:#000000;" x="125.805417" xlink:href="#C0_0_429afc4f3f" y="110.319809"/>
    </g>
    <g clip-path="url(#pe7c5cc41ce)">
     <use style="fill:#1e90ff;stroke:#000000;" x="296.65829" xlink:href="#C0_0_429afc4f3f" y="151.401317"/>
    </g>
    <g clip-path="url(#pe7c5cc41ce)">
     <use style="fill:#ff8000;stroke:#000000;" x="146.052422" xlink:href="#C0_0_429afc4f3f" y="163.371333"/>
    </g>
    <g clip-path="url(#pe7c5cc41ce)">
     <use style="fill:#1e90ff;stroke:#000000;" x="272.465362" xlink:href="#C0_0_429afc4f3f" y="141.601822"/>
    </g>
    <g clip-path="url(#pe7c5cc41ce)">
     <use style="fill:#ff8000;stroke:#000000;" x="232.405138" xlink:href="#C0_0_429afc4f3f" y="99.83919"/>
    </g>
    <g clip-path="url(#pe7c5cc41ce)">
     <use style="fill:#ff8000;stroke:#000000;" x="151.196579" xlink:href="#C0_0_429afc4f3f" y="194.052311"/>
    </g>
    <g clip-path="url(#pe7c5cc41ce)">
     <use style="fill:#1e90ff;stroke:#000000;" x="283.663879" xlink:href="#C0_0_429afc4f3f" y="207.942195"/>
    </g>
    <g clip-path="url(#pe7c5cc41ce)">
     <use style="fill:#ff8000;stroke:#000000;" x="127.392192" xlink:href="#C0_0_429afc4f3f" y="178.956346"/>
    </g>
    <g clip-path="url(#pe7c5cc41ce)">
     <use style="fill:#1e90ff;stroke:#000000;" x="154.205077" xlink:href="#C0_0_429afc4f3f" y="80.694758"/>
    </g>
    <g clip-path="url(#pe7c5cc41ce)">
     <use style="fill:#ff8000;stroke:#000000;" x="158.325753" xlink:href="#C0_0_429afc4f3f" y="137.762417"/>
    </g>
    <g clip-path="url(#pe7c5cc41ce)">
     <use style="fill:#1e90ff;stroke:#000000;" x="131.095698" xlink:href="#C0_0_429afc4f3f" y="116.404768"/>
    </g>
    <g clip-path="url(#pe7c5cc41ce)">
     <use style="fill:#ff8000;stroke:#000000;" x="328.257286" xlink:href="#C0_0_429afc4f3f" y="91.644184"/>
    </g>
    <g clip-path="url(#pe7c5cc41ce)">
     <use style="fill:#1e90ff;stroke:#000000;" x="242.775808" xlink:href="#C0_0_429afc4f3f" y="203.227494"/>
    </g>
    <g clip-path="url(#pe7c5cc41ce)">
     <use style="fill:#ff8000;stroke:#000000;" x="213.781066" xlink:href="#C0_0_429afc4f3f" y="102.958878"/>
    </g>
    <g clip-path="url(#pe7c5cc41ce)">
     <use style="fill:#1e90ff;stroke:#000000;" x="266.263613" xlink:href="#C0_0_429afc4f3f" y="194.872511"/>
    </g>
    <g clip-path="url(#pe7c5cc41ce)">
     <use style="fill:#ff8000;stroke:#000000;" x="232.000747" xlink:href="#C0_0_429afc4f3f" y="167.060425"/>
    </g>
    <g clip-path="url(#pe7c5cc41ce)">
     <use style="fill:#1e90ff;stroke:#000000;" x="131.052865" xlink:href="#C0_0_429afc4f3f" y="100.892867"/>
    </g>
    <g clip-path="url(#pe7c5cc41ce)">
     <use style="fill:#ff8000;stroke:#000000;" x="329.147836" xlink:href="#C0_0_429afc4f3f" y="80.782267"/>
    </g>
    <g clip-path="url(#pe7c5cc41ce)">
     <use style="fill:#1e90ff;stroke:#000000;" x="184.449219" xlink:href="#C0_0_429afc4f3f" y="83.350238"/>
    </g>
    <g clip-path="url(#pe7c5cc41ce)">
     <use style="fill:#1e90ff;stroke:#000000;" x="275.238076" xlink:href="#C0_0_429afc4f3f" y="133.089361"/>
    </g>
    <g clip-path="url(#pe7c5cc41ce)">
     <use style="fill:#1e90ff;stroke:#000000;" x="234.02649" xlink:href="#C0_0_429afc4f3f" y="105.863631"/>
    </g>
    <g clip-path="url(#pe7c5cc41ce)">
     <use style="fill:#ff8000;stroke:#000000;" x="215.38445" xlink:href="#C0_0_429afc4f3f" y="192.478935"/>
    </g>
    <g clip-path="url(#pe7c5cc41ce)">
     <use style="fill:#1e90ff;stroke:#000000;" x="253.668697" xlink:href="#C0_0_429afc4f3f" y="190.771639"/>
    </g>
    <g clip-path="url(#pe7c5cc41ce)">
     <use style="fill:#ff8000;stroke:#000000;" x="281.921126" xlink:href="#C0_0_429afc4f3f" y="72.445939"/>
    </g>
    <g clip-path="url(#pe7c5cc41ce)">
     <use style="fill:#1e90ff;stroke:#000000;" x="146.245317" xlink:href="#C0_0_429afc4f3f" y="130.361759"/>
    </g>
    <g clip-path="url(#pe7c5cc41ce)">
     <use style="fill:#ff8000;stroke:#000000;" x="159.215449" xlink:href="#C0_0_429afc4f3f" y="214.23588"/>
    </g>
    <g clip-path="url(#pe7c5cc41ce)">
     <use style="fill:#1e90ff;stroke:#000000;" x="321.713547" xlink:href="#C0_0_429afc4f3f" y="171.467786"/>
    </g>
    <g clip-path="url(#pe7c5cc41ce)">
     <use style="fill:#ff8000;stroke:#000000;" x="244.30671" xlink:href="#C0_0_429afc4f3f" y="93.544166"/>
    </g>
    <g clip-path="url(#pe7c5cc41ce)">
     <use style="fill:#1e90ff;stroke:#000000;" x="297.208453" xlink:href="#C0_0_429afc4f3f" y="157.040552"/>
    </g>
    <g clip-path="url(#pe7c5cc41ce)">
     <use style="fill:#ff8000;stroke:#000000;" x="306.836734" xlink:href="#C0_0_429afc4f3f" y="70.204208"/>
    </g>
    <g clip-path="url(#pe7c5cc41ce)">
     <use style="fill:#ff8000;stroke:#000000;" x="322.780155" xlink:href="#C0_0_429afc4f3f" y="86.916145"/>
    </g>
    <g clip-path="url(#pe7c5cc41ce)">
     <use style="fill:#1e90ff;stroke:#000000;" x="327.558204" xlink:href="#C0_0_429afc4f3f" y="206.151088"/>
    </g>
    <g clip-path="url(#pe7c5cc41ce)">
     <use style="fill:#ff8000;stroke:#000000;" x="338.11715" xlink:href="#C0_0_429afc4f3f" y="95.756685"/>
    </g>
    <g clip-path="url(#pe7c5cc41ce)">
     <use style="fill:#1e90ff;stroke:#000000;" x="263.118831" xlink:href="#C0_0_429afc4f3f" y="123.280991"/>
    </g>
    <g clip-path="url(#pe7c5cc41ce)">
     <use style="fill:#1e90ff;stroke:#000000;" x="218.32719" xlink:href="#C0_0_429afc4f3f" y="179.756969"/>
    </g>
    <g clip-path="url(#pe7c5cc41ce)">
     <use style="fill:#ff8000;stroke:#000000;" x="324.588382" xlink:href="#C0_0_429afc4f3f" y="72.65937"/>
    </g>
    <g clip-path="url(#pe7c5cc41ce)">
     <use style="fill:#1e90ff;stroke:#000000;" x="131.71279" xlink:href="#C0_0_429afc4f3f" y="102.985764"/>
    </g>
    <g clip-path="url(#pe7c5cc41ce)">
     <use style="fill:#1e90ff;stroke:#000000;" x="140.554638" xlink:href="#C0_0_429afc4f3f" y="114.614611"/>
    </g>
    <g clip-path="url(#pe7c5cc41ce)">
     <use style="fill:#ff8000;stroke:#000000;" x="162.380927" xlink:href="#C0_0_429afc4f3f" y="140.166989"/>
    </g>
    <g clip-path="url(#pe7c5cc41ce)">
     <use style="fill:#ff8000;stroke:#000000;" x="207.395101" xlink:href="#C0_0_429afc4f3f" y="115.756511"/>
    </g>
    <g clip-path="url(#pe7c5cc41ce)">
     <use style="fill:#ff8000;stroke:#000000;" x="192.668903" xlink:href="#C0_0_429afc4f3f" y="117.75543"/>
    </g>
    <g clip-path="url(#pe7c5cc41ce)">
     <use style="fill:#1e90ff;stroke:#000000;" x="319.011011" xlink:href="#C0_0_429afc4f3f" y="182.853005"/>
    </g>
    <g clip-path="url(#pe7c5cc41ce)">
     <use style="fill:#ff8000;stroke:#000000;" x="321.848843" xlink:href="#C0_0_429afc4f3f" y="101.781235"/>
    </g>
    <g clip-path="url(#pe7c5cc41ce)">
     <use style="fill:#1e90ff;stroke:#000000;" x="308.538243" xlink:href="#C0_0_429afc4f3f" y="194.831551"/>
    </g>
    <g clip-path="url(#pe7c5cc41ce)">
     <use style="fill:#ff8000;stroke:#000000;" x="312.2525" xlink:href="#C0_0_429afc4f3f" y="95.234386"/>
    </g>
    <g clip-path="url(#pe7c5cc41ce)">
     <use style="fill:#ff8000;stroke:#000000;" x="323.886121" xlink:href="#C0_0_429afc4f3f" y="90.268108"/>
    </g>
    <g clip-path="url(#pe7c5cc41ce)">
     <use style="fill:#ff8000;stroke:#000000;" x="296.734695" xlink:href="#C0_0_429afc4f3f" y="134.463913"/>
    </g>
    <g clip-path="url(#pe7c5cc41ce)">
     <use style="fill:#1e90ff;stroke:#000000;" x="215.601486" xlink:href="#C0_0_429afc4f3f" y="179.218397"/>
    </g>
    <g clip-path="url(#pe7c5cc41ce)">
     <use style="fill:#ff8000;stroke:#000000;" x="254.332496" xlink:href="#C0_0_429afc4f3f" y="167.935357"/>
    </g>
    <g clip-path="url(#pe7c5cc41ce)">
     <use style="fill:#ff8000;stroke:#000000;" x="184.596025" xlink:href="#C0_0_429afc4f3f" y="119.170279"/>
    </g>
    <g clip-path="url(#pe7c5cc41ce)">
     <use style="fill:#ff8000;stroke:#000000;" x="308.535382" xlink:href="#C0_0_429afc4f3f" y="87.633557"/>
    </g>
    <g clip-path="url(#pe7c5cc41ce)">
     <use style="fill:#ff8000;stroke:#000000;" x="148.639787" xlink:href="#C0_0_429afc4f3f" y="205.928296"/>
    </g>
    <g clip-path="url(#pe7c5cc41ce)">
     <use style="fill:#1e90ff;stroke:#000000;" x="245.735783" xlink:href="#C0_0_429afc4f3f" y="196.044307"/>
    </g>
    <g clip-path="url(#pe7c5cc41ce)">
     <use style="fill:#1e90ff;stroke:#000000;" x="268.731904" xlink:href="#C0_0_429afc4f3f" y="131.662099"/>
    </g>
    <g clip-path="url(#pe7c5cc41ce)">
     <use style="fill:#1e90ff;stroke:#000000;" x="276.801162" xlink:href="#C0_0_429afc4f3f" y="137.797812"/>
    </g>
    <g clip-path="url(#pe7c5cc41ce)">
     <use style="fill:#ff8000;stroke:#000000;" x="128.735683" xlink:href="#C0_0_429afc4f3f" y="208.965963"/>
    </g>
    <g clip-path="url(#pe7c5cc41ce)">
     <use style="fill:#ff8000;stroke:#000000;" x="169.898929" xlink:href="#C0_0_429afc4f3f" y="211.5625"/>
    </g>
    <g clip-path="url(#pe7c5cc41ce)">
     <use style="fill:#ff8000;stroke:#000000;" x="326.976937" xlink:href="#C0_0_429afc4f3f" y="96.124057"/>
    </g>
    <g clip-path="url(#pe7c5cc41ce)">
     <use style="fill:#1e90ff;stroke:#000000;" x="248.13201" xlink:href="#C0_0_429afc4f3f" y="193.048322"/>
    </g>
    <g clip-path="url(#pe7c5cc41ce)">
     <use style="fill:#ff8000;stroke:#000000;" x="134.939145" xlink:href="#C0_0_429afc4f3f" y="173.588995"/>
    </g>
    <g clip-path="url(#pe7c5cc41ce)">
     <use style="fill:#ff8000;stroke:#000000;" x="336.99052" xlink:href="#C0_0_429afc4f3f" y="96.097463"/>
    </g>
    <g clip-path="url(#pe7c5cc41ce)">
     <use style="fill:#1e90ff;stroke:#000000;" x="196.579278" xlink:href="#C0_0_429afc4f3f" y="86.195251"/>
    </g>
    <g clip-path="url(#pe7c5cc41ce)">
     <use style="fill:#1e90ff;stroke:#000000;" x="170.82103" xlink:href="#C0_0_429afc4f3f" y="93.339488"/>
    </g>
    <g clip-path="url(#pe7c5cc41ce)">
     <use style="fill:#ff8000;stroke:#000000;" x="127.063571" xlink:href="#C0_0_429afc4f3f" y="186.628224"/>
    </g>
    <g clip-path="url(#pe7c5cc41ce)">
     <use style="fill:#ff8000;stroke:#000000;" x="125.859508" xlink:href="#C0_0_429afc4f3f" y="200.539892"/>
    </g>
    <g clip-path="url(#pe7c5cc41ce)">
     <use style="fill:#1e90ff;stroke:#000000;" x="321.183603" xlink:href="#C0_0_429afc4f3f" y="196.131912"/>
    </g>
    <g clip-path="url(#pe7c5cc41ce)">
     <use style="fill:#ff8000;stroke:#000000;" x="283.767757" xlink:href="#C0_0_429afc4f3f" y="70.668459"/>
    </g>
    <g clip-path="url(#pe7c5cc41ce)">
     <use style="fill:#1e90ff;stroke:#000000;" x="306.393214" xlink:href="#C0_0_429afc4f3f" y="151.643883"/>
    </g>
    <g clip-path="url(#pe7c5cc41ce)">
     <use style="fill:#1e90ff;stroke:#000000;" x="321.720764" xlink:href="#C0_0_429afc4f3f" y="203.747776"/>
    </g>
    <g clip-path="url(#pe7c5cc41ce)">
     <use style="fill:#ff8000;stroke:#000000;" x="137.522265" xlink:href="#C0_0_429afc4f3f" y="219.58873"/>
    </g>
    <g clip-path="url(#pe7c5cc41ce)">
     <use style="fill:#1e90ff;stroke:#000000;" x="115.518423" xlink:href="#C0_0_429afc4f3f" y="77.428929"/>
    </g>
    <g clip-path="url(#pe7c5cc41ce)">
     <use style="fill:#1e90ff;stroke:#000000;" x="299.503437" xlink:href="#C0_0_429afc4f3f" y="211.884001"/>
    </g>
    <g clip-path="url(#pe7c5cc41ce)">
     <use style="fill:#ff8000;stroke:#000000;" x="165.200132" xlink:href="#C0_0_429afc4f3f" y="202.277193"/>
    </g>
    <g clip-path="url(#pe7c5cc41ce)">
     <use style="fill:#ff8000;stroke:#000000;" x="127.063059" xlink:href="#C0_0_429afc4f3f" y="185.485431"/>
    </g>
    <g clip-path="url(#pe7c5cc41ce)">
     <use style="fill:#ff8000;stroke:#000000;" x="109.598952" xlink:href="#C0_0_429afc4f3f" y="207.75898"/>
    </g>
    <g clip-path="url(#pe7c5cc41ce)">
     <use style="fill:#ff8000;stroke:#000000;" x="121.422798" xlink:href="#C0_0_429afc4f3f" y="194.345177"/>
    </g>
    <g clip-path="url(#pe7c5cc41ce)">
     <use style="fill:#ff8000;stroke:#000000;" x="298.793484" xlink:href="#C0_0_429afc4f3f" y="73.601601"/>
    </g>
    <g clip-path="url(#pe7c5cc41ce)">
     <use style="fill:#1e90ff;stroke:#000000;" x="269.542363" xlink:href="#C0_0_429afc4f3f" y="130.569884"/>
    </g>
    <g clip-path="url(#pe7c5cc41ce)">
     <use style="fill:#ff8000;stroke:#000000;" x="184.834555" xlink:href="#C0_0_429afc4f3f" y="128.669151"/>
    </g>
    <g clip-path="url(#pe7c5cc41ce)">
     <use style="fill:#1e90ff;stroke:#000000;" x="144.505474" xlink:href="#C0_0_429afc4f3f" y="114.256697"/>
    </g>
    <g clip-path="url(#pe7c5cc41ce)">
     <use style="fill:#ff8000;stroke:#000000;" x="136.881357" xlink:href="#C0_0_429afc4f3f" y="181.035904"/>
    </g>
    <g clip-path="url(#pe7c5cc41ce)">
     <use style="fill:#ff8000;stroke:#000000;" x="176.178905" xlink:href="#C0_0_429afc4f3f" y="206.884898"/>
    </g>
    <g clip-path="url(#pe7c5cc41ce)">
     <use style="fill:#ff8000;stroke:#000000;" x="136.882164" xlink:href="#C0_0_429afc4f3f" y="166.514229"/>
    </g>
    <g clip-path="url(#pe7c5cc41ce)">
     <use style="fill:#ff8000;stroke:#000000;" x="131.341589" xlink:href="#C0_0_429afc4f3f" y="174.686466"/>
    </g>
    <g clip-path="url(#pe7c5cc41ce)">
     <use style="fill:#1e90ff;stroke:#000000;" x="287.638099" xlink:href="#C0_0_429afc4f3f" y="196.919318"/>
    </g>
    <g clip-path="url(#pe7c5cc41ce)">
     <use style="fill:#ff8000;stroke:#000000;" x="320.321581" xlink:href="#C0_0_429afc4f3f" y="118.590694"/>
    </g>
    <g clip-path="url(#pe7c5cc41ce)">
     <use style="fill:#1e90ff;stroke:#000000;" x="313.870697" xlink:href="#C0_0_429afc4f3f" y="173.936279"/>
    </g>
    <g clip-path="url(#pe7c5cc41ce)">
     <use style="fill:#1e90ff;stroke:#000000;" x="177.853397" xlink:href="#C0_0_429afc4f3f" y="151.220982"/>
    </g>
    <g clip-path="url(#pe7c5cc41ce)">
     <use style="fill:#ff8000;stroke:#000000;" x="115.522126" xlink:href="#C0_0_429afc4f3f" y="208.56299"/>
    </g>
    <g clip-path="url(#pe7c5cc41ce)">
     <use style="fill:#1e90ff;stroke:#000000;" x="312.810716" xlink:href="#C0_0_429afc4f3f" y="184.312368"/>
    </g>
    <g clip-path="url(#pe7c5cc41ce)">
     <use style="fill:#1e90ff;stroke:#000000;" x="309.261407" xlink:href="#C0_0_429afc4f3f" y="211.235538"/>
    </g>
    <g clip-path="url(#pe7c5cc41ce)">
     <use style="fill:#1e90ff;stroke:#000000;" x="204.649044" xlink:href="#C0_0_429afc4f3f" y="172.948407"/>
    </g>
    <g clip-path="url(#pe7c5cc41ce)">
     <use style="fill:#ff8000;stroke:#000000;" x="230.610871" xlink:href="#C0_0_429afc4f3f" y="182.301432"/>
    </g>
    <g clip-path="url(#pe7c5cc41ce)">
     <use style="fill:#1e90ff;stroke:#000000;" x="260.35095" xlink:href="#C0_0_429afc4f3f" y="118.818657"/>
    </g>
    <g clip-path="url(#pe7c5cc41ce)">
     <use style="fill:#1e90ff;stroke:#000000;" x="328.931084" xlink:href="#C0_0_429afc4f3f" y="219.671971"/>
    </g>
    <g clip-path="url(#pe7c5cc41ce)">
     <use style="fill:#1e90ff;stroke:#000000;" x="179.519233" xlink:href="#C0_0_429afc4f3f" y="159.225089"/>
    </g>
    <g clip-path="url(#pe7c5cc41ce)">
     <use style="fill:#1e90ff;stroke:#000000;" x="136.953122" xlink:href="#C0_0_429afc4f3f" y="117.744682"/>
    </g>
    <g clip-path="url(#pe7c5cc41ce)">
     <use style="fill:#1e90ff;stroke:#000000;" x="282.18417" xlink:href="#C0_0_429afc4f3f" y="137.170588"/>
    </g>
    <g clip-path="url(#pe7c5cc41ce)">
     <use style="fill:#ff8000;stroke:#000000;" x="305.796673" xlink:href="#C0_0_429afc4f3f" y="130.271161"/>
    </g>
    <g clip-path="url(#pe7c5cc41ce)">
     <use style="fill:#1e90ff;stroke:#000000;" x="313.34771" xlink:href="#C0_0_429afc4f3f" y="204.964375"/>
    </g>
    <g clip-path="url(#pe7c5cc41ce)">
     <use style="fill:#1e90ff;stroke:#000000;" x="286.605578" xlink:href="#C0_0_429afc4f3f" y="135.958189"/>
    </g>
    <g clip-path="url(#pe7c5cc41ce)">
     <use style="fill:#1e90ff;stroke:#000000;" x="262.400076" xlink:href="#C0_0_429afc4f3f" y="122.275759"/>
    </g>
    <g clip-path="url(#pe7c5cc41ce)">
     <use style="fill:#ff8000;stroke:#000000;" x="291.967018" xlink:href="#C0_0_429afc4f3f" y="81.025746"/>
    </g>
    <g clip-path="url(#pe7c5cc41ce)">
     <use style="fill:#ff8000;stroke:#000000;" x="184.001221" xlink:href="#C0_0_429afc4f3f" y="139.193397"/>
    </g>
    <g clip-path="url(#pe7c5cc41ce)">
     <use style="fill:#ff8000;stroke:#000000;" x="281.616808" xlink:href="#C0_0_429afc4f3f" y="84.259844"/>
    </g>
    <g clip-path="url(#pe7c5cc41ce)">
     <use style="fill:#ff8000;stroke:#000000;" x="278.66364" xlink:href="#C0_0_429afc4f3f" y="81.121924"/>
    </g>
    <g clip-path="url(#pe7c5cc41ce)">
     <use style="fill:#ff8000;stroke:#000000;" x="290.291203" xlink:href="#C0_0_429afc4f3f" y="132.690021"/>
    </g>
    <g clip-path="url(#pe7c5cc41ce)">
     <use style="fill:#1e90ff;stroke:#000000;" x="122.17491" xlink:href="#C0_0_429afc4f3f" y="76.736934"/>
    </g>
    <g clip-path="url(#pe7c5cc41ce)">
     <use style="fill:#1e90ff;stroke:#000000;" x="129.069573" xlink:href="#C0_0_429afc4f3f" y="89.959477"/>
    </g>
    <g clip-path="url(#pe7c5cc41ce)">
     <use style="fill:#1e90ff;stroke:#000000;" x="329.55346" xlink:href="#C0_0_429afc4f3f" y="172.877477"/>
    </g>
    <g clip-path="url(#pe7c5cc41ce)">
     <use style="fill:#1e90ff;stroke:#000000;" x="224.797684" xlink:href="#C0_0_429afc4f3f" y="185.851991"/>
    </g>
    <g clip-path="url(#pe7c5cc41ce)">
     <use style="fill:#ff8000;stroke:#000000;" x="118.481615" xlink:href="#C0_0_429afc4f3f" y="195.884563"/>
    </g>
    <g clip-path="url(#pe7c5cc41ce)">
     <use style="fill:#ff8000;stroke:#000000;" x="245.545956" xlink:href="#C0_0_429afc4f3f" y="92.394501"/>
    </g>
    <g clip-path="url(#pe7c5cc41ce)">
     <use style="fill:#1e90ff;stroke:#000000;" x="301.428715" xlink:href="#C0_0_429afc4f3f" y="210.616823"/>
    </g>
    <g clip-path="url(#pe7c5cc41ce)">
     <use style="fill:#1e90ff;stroke:#000000;" x="137.610577" xlink:href="#C0_0_429afc4f3f" y="69.334667"/>
    </g>
    <g clip-path="url(#pe7c5cc41ce)">
     <use style="fill:#ff8000;stroke:#000000;" x="141.698607" xlink:href="#C0_0_429afc4f3f" y="205.470357"/>
    </g>
    <g clip-path="url(#pe7c5cc41ce)">
     <use style="fill:#ff8000;stroke:#000000;" x="255.553705" xlink:href="#C0_0_429afc4f3f" y="85.447288"/>
    </g>
    <g clip-path="url(#pe7c5cc41ce)">
     <use style="fill:#ff8000;stroke:#000000;" x="318.820838" xlink:href="#C0_0_429afc4f3f" y="82.380896"/>
    </g>
    <g clip-path="url(#pe7c5cc41ce)">
     <use style="fill:#1e90ff;stroke:#000000;" x="168.896602" xlink:href="#C0_0_429afc4f3f" y="133.904535"/>
    </g>
    <g clip-path="url(#pe7c5cc41ce)">
     <use style="fill:#ff8000;stroke:#000000;" x="249.663594" xlink:href="#C0_0_429afc4f3f" y="86.674774"/>
    </g>
    <g clip-path="url(#pe7c5cc41ce)">
     <use style="fill:#1e90ff;stroke:#000000;" x="297.731816" xlink:href="#C0_0_429afc4f3f" y="154.731248"/>
    </g>
    <g clip-path="url(#pe7c5cc41ce)">
     <use style="fill:#1e90ff;stroke:#000000;" x="130.077145" xlink:href="#C0_0_429afc4f3f" y="83.855793"/>
    </g>
    <g clip-path="url(#pe7c5cc41ce)">
     <use style="fill:#1e90ff;stroke:#000000;" x="162.553054" xlink:href="#C0_0_429afc4f3f" y="132.199434"/>
    </g>
    <g clip-path="url(#pe7c5cc41ce)">
     <use style="fill:#1e90ff;stroke:#000000;" x="191.268539" xlink:href="#C0_0_429afc4f3f" y="166.327287"/>
    </g>
    <g clip-path="url(#pe7c5cc41ce)">
     <use style="fill:#1e90ff;stroke:#000000;" x="318.468242" xlink:href="#C0_0_429afc4f3f" y="171.183826"/>
    </g>
    <g clip-path="url(#pe7c5cc41ce)">
     <use style="fill:#1e90ff;stroke:#000000;" x="146.898732" xlink:href="#C0_0_429afc4f3f" y="136.048991"/>
    </g>
    <g clip-path="url(#pe7c5cc41ce)">
     <use style="fill:#ff8000;stroke:#000000;" x="217.904069" xlink:href="#C0_0_429afc4f3f" y="177.90857"/>
    </g>
    <g clip-path="url(#pe7c5cc41ce)">
     <use style="fill:#1e90ff;stroke:#000000;" x="127.547586" xlink:href="#C0_0_429afc4f3f" y="66.046147"/>
    </g>
    <g clip-path="url(#pe7c5cc41ce)">
     <use style="fill:#1e90ff;stroke:#000000;" x="221.948348" xlink:href="#C0_0_429afc4f3f" y="179.92633"/>
    </g>
    <g clip-path="url(#pe7c5cc41ce)">
     <use style="fill:#ff8000;stroke:#000000;" x="123.234599" xlink:href="#C0_0_429afc4f3f" y="171.58557"/>
    </g>
    <g clip-path="url(#pe7c5cc41ce)">
     <use style="fill:#ff8000;stroke:#000000;" x="297.967222" xlink:href="#C0_0_429afc4f3f" y="73.824606"/>
    </g>
    <g clip-path="url(#pe7c5cc41ce)">
     <use style="fill:#1e90ff;stroke:#000000;" x="234.994629" xlink:href="#C0_0_429afc4f3f" y="185.123038"/>
    </g>
    <g clip-path="url(#pe7c5cc41ce)">
     <use style="fill:#1e90ff;stroke:#000000;" x="313.62013" xlink:href="#C0_0_429afc4f3f" y="201.011618"/>
    </g>
    <g clip-path="url(#pe7c5cc41ce)">
     <use style="fill:#ff8000;stroke:#000000;" x="235.020858" xlink:href="#C0_0_429afc4f3f" y="93.47304"/>
    </g>
    <g clip-path="url(#pe7c5cc41ce)">
     <use style="fill:#1e90ff;stroke:#000000;" x="256.964152" xlink:href="#C0_0_429afc4f3f" y="202.000358"/>
    </g>
    <g clip-path="url(#pe7c5cc41ce)">
     <use style="fill:#1e90ff;stroke:#000000;" x="296.367039" xlink:href="#C0_0_429afc4f3f" y="138.862077"/>
    </g>
    <g clip-path="url(#pe7c5cc41ce)">
     <use style="fill:#ff8000;stroke:#000000;" x="192.996008" xlink:href="#C0_0_429afc4f3f" y="201.332367"/>
    </g>
    <g clip-path="url(#pe7c5cc41ce)">
     <use style="fill:#ff8000;stroke:#000000;" x="320.015092" xlink:href="#C0_0_429afc4f3f" y="72.456093"/>
    </g>
    <g clip-path="url(#pe7c5cc41ce)">
     <use style="fill:#ff8000;stroke:#000000;" x="146.243489" xlink:href="#C0_0_429afc4f3f" y="161.709992"/>
    </g>
    <g clip-path="url(#pe7c5cc41ce)">
     <use style="fill:#ff8000;stroke:#000000;" x="228.336315" xlink:href="#C0_0_429afc4f3f" y="102.951575"/>
    </g>
    <g clip-path="url(#pe7c5cc41ce)">
     <use style="fill:#1e90ff;stroke:#000000;" x="294.684679" xlink:href="#C0_0_429afc4f3f" y="209.967809"/>
    </g>
    <g clip-path="url(#pe7c5cc41ce)">
     <use style="fill:#1e90ff;stroke:#000000;" x="132.585583" xlink:href="#C0_0_429afc4f3f" y="84.113612"/>
    </g>
    <g clip-path="url(#pe7c5cc41ce)">
     <use style="fill:#1e90ff;stroke:#000000;" x="141.207559" xlink:href="#C0_0_429afc4f3f" y="69.304965"/>
    </g>
    <g clip-path="url(#pe7c5cc41ce)">
     <use style="fill:#ff8000;stroke:#000000;" x="238.248079" xlink:href="#C0_0_429afc4f3f" y="170.740197"/>
    </g>
    <g clip-path="url(#pe7c5cc41ce)">
     <use style="fill:#ff8000;stroke:#000000;" x="329.685763" xlink:href="#C0_0_429afc4f3f" y="84.330851"/>
    </g>
    <g clip-path="url(#pe7c5cc41ce)">
     <use style="fill:#1e90ff;stroke:#000000;" x="120.379774" xlink:href="#C0_0_429afc4f3f" y="76.168418"/>
    </g>
    <g clip-path="url(#pe7c5cc41ce)">
     <use style="fill:#1e90ff;stroke:#000000;" x="176.457072" xlink:href="#C0_0_429afc4f3f" y="78.634739"/>
    </g>
    <g clip-path="url(#pe7c5cc41ce)">
     <use style="fill:#ff8000;stroke:#000000;" x="168.048953" xlink:href="#C0_0_429afc4f3f" y="200.662261"/>
    </g>
    <g clip-path="url(#pe7c5cc41ce)">
     <use style="fill:#1e90ff;stroke:#000000;" x="288.631927" xlink:href="#C0_0_429afc4f3f" y="140.882771"/>
    </g>
    <g clip-path="url(#pe7c5cc41ce)">
     <use style="fill:#ff8000;stroke:#000000;" x="211.122995" xlink:href="#C0_0_429afc4f3f" y="186.36306"/>
    </g>
    <g clip-path="url(#pe7c5cc41ce)">
     <use style="fill:#1e90ff;stroke:#000000;" x="294.299662" xlink:href="#C0_0_429afc4f3f" y="216.928342"/>
    </g>
    <g clip-path="url(#pe7c5cc41ce)">
     <use style="fill:#ff8000;stroke:#000000;" x="127.782873" xlink:href="#C0_0_429afc4f3f" y="168.037103"/>
    </g>
    <g clip-path="url(#pe7c5cc41ce)">
     <use style="fill:#1e90ff;stroke:#000000;" x="129.917919" xlink:href="#C0_0_429afc4f3f" y="86.755423"/>
    </g>
    <g clip-path="url(#pe7c5cc41ce)">
     <use style="fill:#1e90ff;stroke:#000000;" x="208.480953" xlink:href="#C0_0_429afc4f3f" y="96.263709"/>
    </g>
    <g clip-path="url(#pe7c5cc41ce)">
     <use style="fill:#ff8000;stroke:#000000;" x="143.080066" xlink:href="#C0_0_429afc4f3f" y="159.203311"/>
    </g>
    <g clip-path="url(#pe7c5cc41ce)">
     <use style="fill:#1e90ff;stroke:#000000;" x="287.070093" xlink:href="#C0_0_429afc4f3f" y="208.980445"/>
    </g>
    <g clip-path="url(#pe7c5cc41ce)">
     <use style="fill:#1e90ff;stroke:#000000;" x="263.70192" xlink:href="#C0_0_429afc4f3f" y="196.613496"/>
    </g>
    <g clip-path="url(#pe7c5cc41ce)">
     <use style="fill:#ff8000;stroke:#000000;" x="124.066797" xlink:href="#C0_0_429afc4f3f" y="193.907411"/>
    </g>
    <g clip-path="url(#pe7c5cc41ce)">
     <use style="fill:#1e90ff;stroke:#000000;" x="188.830073" xlink:href="#C0_0_429afc4f3f" y="161.696262"/>
    </g>
    <g clip-path="url(#pe7c5cc41ce)">
     <use style="fill:#ff8000;stroke:#000000;" x="298.524069" xlink:href="#C0_0_429afc4f3f" y="137.08595"/>
    </g>
    <g clip-path="url(#pe7c5cc41ce)">
     <use style="fill:#ff8000;stroke:#000000;" x="339.843272" xlink:href="#C0_0_429afc4f3f" y="83.577597"/>
    </g>
    <g clip-path="url(#pe7c5cc41ce)">
     <use style="fill:#1e90ff;stroke:#000000;" x="124.597974" xlink:href="#C0_0_429afc4f3f" y="115.213439"/>
    </g>
    <g clip-path="url(#pe7c5cc41ce)">
     <use style="fill:#1e90ff;stroke:#000000;" x="157.15284" xlink:href="#C0_0_429afc4f3f" y="103.01023"/>
    </g>
    <g clip-path="url(#pe7c5cc41ce)">
     <use style="fill:#ff8000;stroke:#000000;" x="141.506149" xlink:href="#C0_0_429afc4f3f" y="216.925778"/>
    </g>
    <g clip-path="url(#pe7c5cc41ce)">
     <use style="fill:#1e90ff;stroke:#000000;" x="110.219079" xlink:href="#C0_0_429afc4f3f" y="86.465093"/>
    </g>
    <g clip-path="url(#pe7c5cc41ce)">
     <use style="fill:#ff8000;stroke:#000000;" x="337.550083" xlink:href="#C0_0_429afc4f3f" y="88.349367"/>
    </g>
    <g clip-path="url(#pe7c5cc41ce)">
     <use style="fill:#ff8000;stroke:#000000;" x="262.154249" xlink:href="#C0_0_429afc4f3f" y="85.267622"/>
    </g>
    <g clip-path="url(#pe7c5cc41ce)">
     <use style="fill:#1e90ff;stroke:#000000;" x="120.051184" xlink:href="#C0_0_429afc4f3f" y="68.384892"/>
    </g>
    <g clip-path="url(#pe7c5cc41ce)">
     <use style="fill:#ff8000;stroke:#000000;" x="100.5" xlink:href="#C0_0_429afc4f3f" y="204.916435"/>
    </g>
    <g clip-path="url(#pe7c5cc41ce)">
     <use style="fill:#1e90ff;stroke:#000000;" x="142.950904" xlink:href="#C0_0_429afc4f3f" y="76.761095"/>
    </g>
    <g clip-path="url(#pe7c5cc41ce)">
     <use style="fill:#ff8000;stroke:#000000;" x="132.154152" xlink:href="#C0_0_429afc4f3f" y="208.729062"/>
    </g>
    <g clip-path="url(#pe7c5cc41ce)">
     <use style="fill:#1e90ff;stroke:#000000;" x="345.674556" xlink:href="#C0_0_429afc4f3f" y="200.78213"/>
    </g>
    <g clip-path="url(#pe7c5cc41ce)">
     <use style="fill:#1e90ff;stroke:#000000;" x="222.806201" xlink:href="#C0_0_429afc4f3f" y="179.71691"/>
    </g>
    <g clip-path="url(#pe7c5cc41ce)">
     <use style="fill:#ff8000;stroke:#000000;" x="158.193069" xlink:href="#C0_0_429afc4f3f" y="208.77205"/>
    </g>
    <g clip-path="url(#pe7c5cc41ce)">
     <use style="fill:#1e90ff;stroke:#000000;" x="223.93837" xlink:href="#C0_0_429afc4f3f" y="181.54551"/>
    </g>
    <g clip-path="url(#pe7c5cc41ce)">
     <use style="fill:#1e90ff;stroke:#000000;" x="120.236686" xlink:href="#C0_0_429afc4f3f" y="116.038282"/>
    </g>
    <g clip-path="url(#pe7c5cc41ce)">
     <use style="fill:#1e90ff;stroke:#000000;" x="119.663776" xlink:href="#C0_0_429afc4f3f" y="78.693691"/>
    </g>
    <g clip-path="url(#pe7c5cc41ce)">
     <use style="fill:#ff8000;stroke:#000000;" x="217.72024" xlink:href="#C0_0_429afc4f3f" y="96.647604"/>
    </g>
    <g clip-path="url(#pe7c5cc41ce)">
     <use style="fill:#ff8000;stroke:#000000;" x="308.219538" xlink:href="#C0_0_429afc4f3f" y="120.257378"/>
    </g>
    <g clip-path="url(#pe7c5cc41ce)">
     <use style="fill:#1e90ff;stroke:#000000;" x="328.47977" xlink:href="#C0_0_429afc4f3f" y="203.253798"/>
    </g>
    <g clip-path="url(#pe7c5cc41ce)">
     <use style="fill:#ff8000;stroke:#000000;" x="317.708181" xlink:href="#C0_0_429afc4f3f" y="105.713429"/>
    </g>
    <g clip-path="url(#pe7c5cc41ce)">
     <use style="fill:#ff8000;stroke:#000000;" x="182.926938" xlink:href="#C0_0_429afc4f3f" y="135.676094"/>
    </g>
    <g clip-path="url(#pe7c5cc41ce)">
     <use style="fill:#1e90ff;stroke:#000000;" x="224.092669" xlink:href="#C0_0_429afc4f3f" y="101.523686"/>
    </g>
    <g clip-path="url(#pe7c5cc41ce)">
     <use style="fill:#1e90ff;stroke:#000000;" x="237.901757" xlink:href="#C0_0_429afc4f3f" y="192.934479"/>
    </g>
    <g clip-path="url(#pe7c5cc41ce)">
     <use style="fill:#1e90ff;stroke:#000000;" x="320.84245" xlink:href="#C0_0_429afc4f3f" y="190.448767"/>
    </g>
    <g clip-path="url(#pe7c5cc41ce)">
     <use style="fill:#1e90ff;stroke:#000000;" x="125.416338" xlink:href="#C0_0_429afc4f3f" y="108.087592"/>
    </g>
    <g clip-path="url(#pe7c5cc41ce)">
     <use style="fill:#1e90ff;stroke:#000000;" x="207.580914" xlink:href="#C0_0_429afc4f3f" y="175.608755"/>
    </g>
    <g clip-path="url(#pe7c5cc41ce)">
     <use style="fill:#1e90ff;stroke:#000000;" x="319.551306" xlink:href="#C0_0_429afc4f3f" y="198.230041"/>
    </g>
    <g clip-path="url(#pe7c5cc41ce)">
     <use style="fill:#ff8000;stroke:#000000;" x="282.721267" xlink:href="#C0_0_429afc4f3f" y="145.316157"/>
    </g>
    <g clip-path="url(#pe7c5cc41ce)">
     <use style="fill:#1e90ff;stroke:#000000;" x="229.900091" xlink:href="#C0_0_429afc4f3f" y="184.252411"/>
    </g>
    <g clip-path="url(#pe7c5cc41ce)">
     <use style="fill:#1e90ff;stroke:#000000;" x="116.619135" xlink:href="#C0_0_429afc4f3f" y="99.582905"/>
    </g>
    <g clip-path="url(#pe7c5cc41ce)">
     <use style="fill:#1e90ff;stroke:#000000;" x="246.619474" xlink:href="#C0_0_429afc4f3f" y="111.028282"/>
    </g>
    <g clip-path="url(#pe7c5cc41ce)">
     <use style="fill:#ff8000;stroke:#000000;" x="190.819309" xlink:href="#C0_0_429afc4f3f" y="198.592618"/>
    </g>
    <g clip-path="url(#pe7c5cc41ce)">
     <use style="fill:#1e90ff;stroke:#000000;" x="131.666491" xlink:href="#C0_0_429afc4f3f" y="86.260849"/>
    </g>
    <g clip-path="url(#pe7c5cc41ce)">
     <use style="fill:#ff8000;stroke:#000000;" x="262.698817" xlink:href="#C0_0_429afc4f3f" y="88.603393"/>
    </g>
    <g clip-path="url(#pe7c5cc41ce)">
     <use style="fill:#ff8000;stroke:#000000;" x="170.632455" xlink:href="#C0_0_429afc4f3f" y="131.84143"/>
    </g>
    <g clip-path="url(#pe7c5cc41ce)">
     <use style="fill:#1e90ff;stroke:#000000;" x="150.498716" xlink:href="#C0_0_429afc4f3f" y="132.991453"/>
    </g>
    <g clip-path="url(#pe7c5cc41ce)">
     <use style="fill:#1e90ff;stroke:#000000;" x="312.063654" xlink:href="#C0_0_429afc4f3f" y="166.910775"/>
    </g>
   </g>
   <g id="matplotlib.axis_1">
    <g id="xtick_1">
     <g id="line2d_1">
      <defs>
       <path d="M 0 0 
L 0 3.5 
" id="me9e78cc92d" style="stroke:#000000;stroke-width:0.8;"/>
      </defs>
      <g>
       <use style="stroke:#000000;stroke-width:0.8;" x="85.229261" xlink:href="#me9e78cc92d" y="252"/>
      </g>
     </g>
     <g id="text_1">
      <!-- 1.5 -->
      <g transform="translate(73.087854 266.598437)scale(0.1 -0.1)">
       <defs>
        <path d="M 10.59375 35.5 
L 73.1875 35.5 
L 73.1875 27.203125 
L 10.59375 27.203125 
z
" id="DejaVuSans-8722"/>
        <path d="M 12.40625 8.296875 
L 28.515625 8.296875 
L 28.515625 63.921875 
L 10.984375 60.40625 
L 10.984375 69.390625 
L 28.421875 72.90625 
L 38.28125 72.90625 
L 38.28125 8.296875 
L 54.390625 8.296875 
L 54.390625 0 
L 12.40625 0 
z
" id="DejaVuSans-49"/>
        <path d="M 10.6875 12.40625 
L 21 12.40625 
L 21 0 
L 10.6875 0 
z
" id="DejaVuSans-46"/>
        <path d="M 10.796875 72.90625 
L 49.515625 72.90625 
L 49.515625 64.59375 
L 19.828125 64.59375 
L 19.828125 46.734375 
Q 21.96875 47.46875 24.109375 47.828125 
Q 26.265625 48.1875 28.421875 48.1875 
Q 40.625 48.1875 47.75 41.5 
Q 54.890625 34.8125 54.890625 23.390625 
Q 54.890625 11.625 47.5625 5.09375 
Q 40.234375 -1.421875 26.90625 -1.421875 
Q 22.3125 -1.421875 17.546875 -0.640625 
Q 12.796875 0.140625 7.71875 1.703125 
L 7.71875 11.625 
Q 12.109375 9.234375 16.796875 8.0625 
Q 21.484375 6.890625 26.703125 6.890625 
Q 35.15625 6.890625 40.078125 11.328125 
Q 45.015625 15.765625 45.015625 23.390625 
Q 45.015625 31 40.078125 35.4375 
Q 35.15625 39.890625 26.703125 39.890625 
Q 22.75 39.890625 18.8125 39.015625 
Q 14.890625 38.140625 10.796875 36.28125 
z
" id="DejaVuSans-53"/>
       </defs>
       <use xlink:href="#DejaVuSans-8722"/>
       <use x="83.789062" xlink:href="#DejaVuSans-49"/>
       <use x="147.412109" xlink:href="#DejaVuSans-46"/>
       <use x="179.199219" xlink:href="#DejaVuSans-53"/>
      </g>
     </g>
    </g>
    <g id="xtick_2">
     <g id="line2d_2">
      <g>
       <use style="stroke:#000000;stroke-width:0.8;" x="131.729261" xlink:href="#me9e78cc92d" y="252"/>
      </g>
     </g>
     <g id="text_2">
      <!-- 1.0 -->
      <g transform="translate(119.587854 266.598437)scale(0.1 -0.1)">
       <defs>
        <path d="M 31.78125 66.40625 
Q 24.171875 66.40625 20.328125 58.90625 
Q 16.5 51.421875 16.5 36.375 
Q 16.5 21.390625 20.328125 13.890625 
Q 24.171875 6.390625 31.78125 6.390625 
Q 39.453125 6.390625 43.28125 13.890625 
Q 47.125 21.390625 47.125 36.375 
Q 47.125 51.421875 43.28125 58.90625 
Q 39.453125 66.40625 31.78125 66.40625 
z
M 31.78125 74.21875 
Q 44.046875 74.21875 50.515625 64.515625 
Q 56.984375 54.828125 56.984375 36.375 
Q 56.984375 17.96875 50.515625 8.265625 
Q 44.046875 -1.421875 31.78125 -1.421875 
Q 19.53125 -1.421875 13.0625 8.265625 
Q 6.59375 17.96875 6.59375 36.375 
Q 6.59375 54.828125 13.0625 64.515625 
Q 19.53125 74.21875 31.78125 74.21875 
z
" id="DejaVuSans-48"/>
       </defs>
       <use xlink:href="#DejaVuSans-8722"/>
       <use x="83.789062" xlink:href="#DejaVuSans-49"/>
       <use x="147.412109" xlink:href="#DejaVuSans-46"/>
       <use x="179.199219" xlink:href="#DejaVuSans-48"/>
      </g>
     </g>
    </g>
    <g id="xtick_3">
     <g id="line2d_3">
      <g>
       <use style="stroke:#000000;stroke-width:0.8;" x="178.229261" xlink:href="#me9e78cc92d" y="252"/>
      </g>
     </g>
     <g id="text_3">
      <!-- 0.5 -->
      <g transform="translate(166.087854 266.598437)scale(0.1 -0.1)">
       <use xlink:href="#DejaVuSans-8722"/>
       <use x="83.789062" xlink:href="#DejaVuSans-48"/>
       <use x="147.412109" xlink:href="#DejaVuSans-46"/>
       <use x="179.199219" xlink:href="#DejaVuSans-53"/>
      </g>
     </g>
    </g>
    <g id="xtick_4">
     <g id="line2d_4">
      <g>
       <use style="stroke:#000000;stroke-width:0.8;" x="224.729261" xlink:href="#me9e78cc92d" y="252"/>
      </g>
     </g>
     <g id="text_4">
      <!-- 0.0 -->
      <g transform="translate(216.777698 266.598437)scale(0.1 -0.1)">
       <use xlink:href="#DejaVuSans-48"/>
       <use x="63.623047" xlink:href="#DejaVuSans-46"/>
       <use x="95.410156" xlink:href="#DejaVuSans-48"/>
      </g>
     </g>
    </g>
    <g id="xtick_5">
     <g id="line2d_5">
      <g>
       <use style="stroke:#000000;stroke-width:0.8;" x="271.229261" xlink:href="#me9e78cc92d" y="252"/>
      </g>
     </g>
     <g id="text_5">
      <!-- 0.5 -->
      <g transform="translate(263.277698 266.598437)scale(0.1 -0.1)">
       <use xlink:href="#DejaVuSans-48"/>
       <use x="63.623047" xlink:href="#DejaVuSans-46"/>
       <use x="95.410156" xlink:href="#DejaVuSans-53"/>
      </g>
     </g>
    </g>
    <g id="xtick_6">
     <g id="line2d_6">
      <g>
       <use style="stroke:#000000;stroke-width:0.8;" x="317.729261" xlink:href="#me9e78cc92d" y="252"/>
      </g>
     </g>
     <g id="text_6">
      <!-- 1.0 -->
      <g transform="translate(309.777698 266.598437)scale(0.1 -0.1)">
       <use xlink:href="#DejaVuSans-49"/>
       <use x="63.623047" xlink:href="#DejaVuSans-46"/>
       <use x="95.410156" xlink:href="#DejaVuSans-48"/>
      </g>
     </g>
    </g>
    <g id="xtick_7">
     <g id="line2d_7">
      <g>
       <use style="stroke:#000000;stroke-width:0.8;" x="364.229261" xlink:href="#me9e78cc92d" y="252"/>
      </g>
     </g>
     <g id="text_7">
      <!-- 1.5 -->
      <g transform="translate(356.277698 266.598437)scale(0.1 -0.1)">
       <use xlink:href="#DejaVuSans-49"/>
       <use x="63.623047" xlink:href="#DejaVuSans-46"/>
       <use x="95.410156" xlink:href="#DejaVuSans-53"/>
      </g>
     </g>
    </g>
    <g id="text_8">
     <!-- X_0 -->
     <g transform="translate(212.29375 280.1)scale(0.1 -0.1)">
      <defs>
       <path d="M 6.296875 72.90625 
L 16.890625 72.90625 
L 35.015625 45.796875 
L 53.21875 72.90625 
L 63.8125 72.90625 
L 40.375 37.890625 
L 65.375 0 
L 54.78125 0 
L 34.28125 31 
L 13.625 0 
L 2.984375 0 
L 29 38.921875 
z
" id="DejaVuSans-88"/>
       <path d="M 50.984375 -16.609375 
L 50.984375 -23.578125 
L -0.984375 -23.578125 
L -0.984375 -16.609375 
z
" id="DejaVuSans-95"/>
      </defs>
      <use xlink:href="#DejaVuSans-88"/>
      <use x="68.505859" xlink:href="#DejaVuSans-95"/>
      <use x="118.505859" xlink:href="#DejaVuSans-48"/>
     </g>
    </g>
   </g>
   <g id="matplotlib.axis_2">
    <g id="ytick_1">
     <g id="line2d_8">
      <defs>
       <path d="M 0 0 
L -3.5 0 
" id="mf71abb2692" style="stroke:#000000;stroke-width:0.8;"/>
      </defs>
      <g>
       <use style="stroke:#000000;stroke-width:0.8;" x="54" xlink:href="#mf71abb2692" y="233.221666"/>
      </g>
     </g>
     <g id="text_9">
      <!-- 1.5 -->
      <g transform="translate(22.717187 237.020885)scale(0.1 -0.1)">
       <use xlink:href="#DejaVuSans-8722"/>
       <use x="83.789062" xlink:href="#DejaVuSans-49"/>
       <use x="147.412109" xlink:href="#DejaVuSans-46"/>
       <use x="179.199219" xlink:href="#DejaVuSans-53"/>
      </g>
     </g>
    </g>
    <g id="ytick_2">
     <g id="line2d_9">
      <g>
       <use style="stroke:#000000;stroke-width:0.8;" x="54" xlink:href="#mf71abb2692" y="203.021666"/>
      </g>
     </g>
     <g id="text_10">
      <!-- 1.0 -->
      <g transform="translate(22.717187 206.820885)scale(0.1 -0.1)">
       <use xlink:href="#DejaVuSans-8722"/>
       <use x="83.789062" xlink:href="#DejaVuSans-49"/>
       <use x="147.412109" xlink:href="#DejaVuSans-46"/>
       <use x="179.199219" xlink:href="#DejaVuSans-48"/>
      </g>
     </g>
    </g>
    <g id="ytick_3">
     <g id="line2d_10">
      <g>
       <use style="stroke:#000000;stroke-width:0.8;" x="54" xlink:href="#mf71abb2692" y="172.821666"/>
      </g>
     </g>
     <g id="text_11">
      <!-- 0.5 -->
      <g transform="translate(22.717187 176.620885)scale(0.1 -0.1)">
       <use xlink:href="#DejaVuSans-8722"/>
       <use x="83.789062" xlink:href="#DejaVuSans-48"/>
       <use x="147.412109" xlink:href="#DejaVuSans-46"/>
       <use x="179.199219" xlink:href="#DejaVuSans-53"/>
      </g>
     </g>
    </g>
    <g id="ytick_4">
     <g id="line2d_11">
      <g>
       <use style="stroke:#000000;stroke-width:0.8;" x="54" xlink:href="#mf71abb2692" y="142.621666"/>
      </g>
     </g>
     <g id="text_12">
      <!-- 0.0 -->
      <g transform="translate(31.096875 146.420885)scale(0.1 -0.1)">
       <use xlink:href="#DejaVuSans-48"/>
       <use x="63.623047" xlink:href="#DejaVuSans-46"/>
       <use x="95.410156" xlink:href="#DejaVuSans-48"/>
      </g>
     </g>
    </g>
    <g id="ytick_5">
     <g id="line2d_12">
      <g>
       <use style="stroke:#000000;stroke-width:0.8;" x="54" xlink:href="#mf71abb2692" y="112.421666"/>
      </g>
     </g>
     <g id="text_13">
      <!-- 0.5 -->
      <g transform="translate(31.096875 116.220885)scale(0.1 -0.1)">
       <use xlink:href="#DejaVuSans-48"/>
       <use x="63.623047" xlink:href="#DejaVuSans-46"/>
       <use x="95.410156" xlink:href="#DejaVuSans-53"/>
      </g>
     </g>
    </g>
    <g id="ytick_6">
     <g id="line2d_13">
      <g>
       <use style="stroke:#000000;stroke-width:0.8;" x="54" xlink:href="#mf71abb2692" y="82.221666"/>
      </g>
     </g>
     <g id="text_14">
      <!-- 1.0 -->
      <g transform="translate(31.096875 86.020885)scale(0.1 -0.1)">
       <use xlink:href="#DejaVuSans-49"/>
       <use x="63.623047" xlink:href="#DejaVuSans-46"/>
       <use x="95.410156" xlink:href="#DejaVuSans-48"/>
      </g>
     </g>
    </g>
    <g id="ytick_7">
     <g id="line2d_14">
      <g>
       <use style="stroke:#000000;stroke-width:0.8;" x="54" xlink:href="#mf71abb2692" y="52.021666"/>
      </g>
     </g>
     <g id="text_15">
      <!-- 1.5 -->
      <g transform="translate(31.096875 55.820885)scale(0.1 -0.1)">
       <use xlink:href="#DejaVuSans-49"/>
       <use x="63.623047" xlink:href="#DejaVuSans-46"/>
       <use x="95.410156" xlink:href="#DejaVuSans-53"/>
      </g>
     </g>
    </g>
    <g id="text_16">
     <!-- X_1 -->
     <g transform="translate(16.359375 152.38625)rotate(-90)scale(0.1 -0.1)">
      <use xlink:href="#DejaVuSans-88"/>
      <use x="68.505859" xlink:href="#DejaVuSans-95"/>
      <use x="118.505859" xlink:href="#DejaVuSans-49"/>
     </g>
    </g>
   </g>
   <g id="patch_3">
    <path d="M 54 252 
L 54 34.56 
" style="fill:none;stroke:#000000;stroke-linecap:square;stroke-linejoin:miter;stroke-width:0.8;"/>
   </g>
   <g id="patch_4">
    <path d="M 388.8 252 
L 388.8 34.56 
" style="fill:none;stroke:#000000;stroke-linecap:square;stroke-linejoin:miter;stroke-width:0.8;"/>
   </g>
   <g id="patch_5">
    <path d="M 54 252 
L 388.8 252 
" style="fill:none;stroke:#000000;stroke-linecap:square;stroke-linejoin:miter;stroke-width:0.8;"/>
   </g>
   <g id="patch_6">
    <path d="M 54 34.56 
L 388.8 34.56 
" style="fill:none;stroke:#000000;stroke-linecap:square;stroke-linejoin:miter;stroke-width:0.8;"/>
   </g>
   <g id="text_17">
    <!-- Problem 2, #neighbors 5 -->
    <g transform="translate(146.736562 28.56)scale(0.12 -0.12)">
     <defs>
      <path d="M 19.671875 64.796875 
L 19.671875 37.40625 
L 32.078125 37.40625 
Q 38.96875 37.40625 42.71875 40.96875 
Q 46.484375 44.53125 46.484375 51.125 
Q 46.484375 57.671875 42.71875 61.234375 
Q 38.96875 64.796875 32.078125 64.796875 
z
M 9.8125 72.90625 
L 32.078125 72.90625 
Q 44.34375 72.90625 50.609375 67.359375 
Q 56.890625 61.8125 56.890625 51.125 
Q 56.890625 40.328125 50.609375 34.8125 
Q 44.34375 29.296875 32.078125 29.296875 
L 19.671875 29.296875 
L 19.671875 0 
L 9.8125 0 
z
" id="DejaVuSans-80"/>
      <path d="M 41.109375 46.296875 
Q 39.59375 47.171875 37.8125 47.578125 
Q 36.03125 48 33.890625 48 
Q 26.265625 48 22.1875 43.046875 
Q 18.109375 38.09375 18.109375 28.8125 
L 18.109375 0 
L 9.078125 0 
L 9.078125 54.6875 
L 18.109375 54.6875 
L 18.109375 46.1875 
Q 20.953125 51.171875 25.484375 53.578125 
Q 30.03125 56 36.53125 56 
Q 37.453125 56 38.578125 55.875 
Q 39.703125 55.765625 41.0625 55.515625 
z
" id="DejaVuSans-114"/>
      <path d="M 30.609375 48.390625 
Q 23.390625 48.390625 19.1875 42.75 
Q 14.984375 37.109375 14.984375 27.296875 
Q 14.984375 17.484375 19.15625 11.84375 
Q 23.34375 6.203125 30.609375 6.203125 
Q 37.796875 6.203125 41.984375 11.859375 
Q 46.1875 17.53125 46.1875 27.296875 
Q 46.1875 37.015625 41.984375 42.703125 
Q 37.796875 48.390625 30.609375 48.390625 
z
M 30.609375 56 
Q 42.328125 56 49.015625 48.375 
Q 55.71875 40.765625 55.71875 27.296875 
Q 55.71875 13.875 49.015625 6.21875 
Q 42.328125 -1.421875 30.609375 -1.421875 
Q 18.84375 -1.421875 12.171875 6.21875 
Q 5.515625 13.875 5.515625 27.296875 
Q 5.515625 40.765625 12.171875 48.375 
Q 18.84375 56 30.609375 56 
z
" id="DejaVuSans-111"/>
      <path d="M 48.6875 27.296875 
Q 48.6875 37.203125 44.609375 42.84375 
Q 40.53125 48.484375 33.40625 48.484375 
Q 26.265625 48.484375 22.1875 42.84375 
Q 18.109375 37.203125 18.109375 27.296875 
Q 18.109375 17.390625 22.1875 11.75 
Q 26.265625 6.109375 33.40625 6.109375 
Q 40.53125 6.109375 44.609375 11.75 
Q 48.6875 17.390625 48.6875 27.296875 
z
M 18.109375 46.390625 
Q 20.953125 51.265625 25.265625 53.625 
Q 29.59375 56 35.59375 56 
Q 45.5625 56 51.78125 48.09375 
Q 58.015625 40.1875 58.015625 27.296875 
Q 58.015625 14.40625 51.78125 6.484375 
Q 45.5625 -1.421875 35.59375 -1.421875 
Q 29.59375 -1.421875 25.265625 0.953125 
Q 20.953125 3.328125 18.109375 8.203125 
L 18.109375 0 
L 9.078125 0 
L 9.078125 75.984375 
L 18.109375 75.984375 
z
" id="DejaVuSans-98"/>
      <path d="M 9.421875 75.984375 
L 18.40625 75.984375 
L 18.40625 0 
L 9.421875 0 
z
" id="DejaVuSans-108"/>
      <path d="M 56.203125 29.59375 
L 56.203125 25.203125 
L 14.890625 25.203125 
Q 15.484375 15.921875 20.484375 11.0625 
Q 25.484375 6.203125 34.421875 6.203125 
Q 39.59375 6.203125 44.453125 7.46875 
Q 49.3125 8.734375 54.109375 11.28125 
L 54.109375 2.78125 
Q 49.265625 0.734375 44.1875 -0.34375 
Q 39.109375 -1.421875 33.890625 -1.421875 
Q 20.796875 -1.421875 13.15625 6.1875 
Q 5.515625 13.8125 5.515625 26.8125 
Q 5.515625 40.234375 12.765625 48.109375 
Q 20.015625 56 32.328125 56 
Q 43.359375 56 49.78125 48.890625 
Q 56.203125 41.796875 56.203125 29.59375 
z
M 47.21875 32.234375 
Q 47.125 39.59375 43.09375 43.984375 
Q 39.0625 48.390625 32.421875 48.390625 
Q 24.90625 48.390625 20.390625 44.140625 
Q 15.875 39.890625 15.1875 32.171875 
z
" id="DejaVuSans-101"/>
      <path d="M 52 44.1875 
Q 55.375 50.25 60.0625 53.125 
Q 64.75 56 71.09375 56 
Q 79.640625 56 84.28125 50.015625 
Q 88.921875 44.046875 88.921875 33.015625 
L 88.921875 0 
L 79.890625 0 
L 79.890625 32.71875 
Q 79.890625 40.578125 77.09375 44.375 
Q 74.3125 48.1875 68.609375 48.1875 
Q 61.625 48.1875 57.5625 43.546875 
Q 53.515625 38.921875 53.515625 30.90625 
L 53.515625 0 
L 44.484375 0 
L 44.484375 32.71875 
Q 44.484375 40.625 41.703125 44.40625 
Q 38.921875 48.1875 33.109375 48.1875 
Q 26.21875 48.1875 22.15625 43.53125 
Q 18.109375 38.875 18.109375 30.90625 
L 18.109375 0 
L 9.078125 0 
L 9.078125 54.6875 
L 18.109375 54.6875 
L 18.109375 46.1875 
Q 21.1875 51.21875 25.484375 53.609375 
Q 29.78125 56 35.6875 56 
Q 41.65625 56 45.828125 52.96875 
Q 50 49.953125 52 44.1875 
z
" id="DejaVuSans-109"/>
      <path id="DejaVuSans-32"/>
      <path d="M 19.1875 8.296875 
L 53.609375 8.296875 
L 53.609375 0 
L 7.328125 0 
L 7.328125 8.296875 
Q 12.9375 14.109375 22.625 23.890625 
Q 32.328125 33.6875 34.8125 36.53125 
Q 39.546875 41.84375 41.421875 45.53125 
Q 43.3125 49.21875 43.3125 52.78125 
Q 43.3125 58.59375 39.234375 62.25 
Q 35.15625 65.921875 28.609375 65.921875 
Q 23.96875 65.921875 18.8125 64.3125 
Q 13.671875 62.703125 7.8125 59.421875 
L 7.8125 69.390625 
Q 13.765625 71.78125 18.9375 73 
Q 24.125 74.21875 28.421875 74.21875 
Q 39.75 74.21875 46.484375 68.546875 
Q 53.21875 62.890625 53.21875 53.421875 
Q 53.21875 48.921875 51.53125 44.890625 
Q 49.859375 40.875 45.40625 35.40625 
Q 44.1875 33.984375 37.640625 27.21875 
Q 31.109375 20.453125 19.1875 8.296875 
z
" id="DejaVuSans-50"/>
      <path d="M 11.71875 12.40625 
L 22.015625 12.40625 
L 22.015625 4 
L 14.015625 -11.625 
L 7.71875 -11.625 
L 11.71875 4 
z
" id="DejaVuSans-44"/>
      <path d="M 51.125 44 
L 36.921875 44 
L 32.8125 27.6875 
L 47.125 27.6875 
z
M 43.796875 71.78125 
L 38.71875 51.515625 
L 52.984375 51.515625 
L 58.109375 71.78125 
L 65.921875 71.78125 
L 60.890625 51.515625 
L 76.125 51.515625 
L 76.125 44 
L 58.984375 44 
L 54.984375 27.6875 
L 70.515625 27.6875 
L 70.515625 20.21875 
L 53.078125 20.21875 
L 48 0 
L 40.1875 0 
L 45.21875 20.21875 
L 30.90625 20.21875 
L 25.875 0 
L 18.015625 0 
L 23.09375 20.21875 
L 7.71875 20.21875 
L 7.71875 27.6875 
L 24.90625 27.6875 
L 29 44 
L 13.28125 44 
L 13.28125 51.515625 
L 30.90625 51.515625 
L 35.890625 71.78125 
z
" id="DejaVuSans-35"/>
      <path d="M 54.890625 33.015625 
L 54.890625 0 
L 45.90625 0 
L 45.90625 32.71875 
Q 45.90625 40.484375 42.875 44.328125 
Q 39.84375 48.1875 33.796875 48.1875 
Q 26.515625 48.1875 22.3125 43.546875 
Q 18.109375 38.921875 18.109375 30.90625 
L 18.109375 0 
L 9.078125 0 
L 9.078125 54.6875 
L 18.109375 54.6875 
L 18.109375 46.1875 
Q 21.34375 51.125 25.703125 53.5625 
Q 30.078125 56 35.796875 56 
Q 45.21875 56 50.046875 50.171875 
Q 54.890625 44.34375 54.890625 33.015625 
z
" id="DejaVuSans-110"/>
      <path d="M 9.421875 54.6875 
L 18.40625 54.6875 
L 18.40625 0 
L 9.421875 0 
z
M 9.421875 75.984375 
L 18.40625 75.984375 
L 18.40625 64.59375 
L 9.421875 64.59375 
z
" id="DejaVuSans-105"/>
      <path d="M 45.40625 27.984375 
Q 45.40625 37.75 41.375 43.109375 
Q 37.359375 48.484375 30.078125 48.484375 
Q 22.859375 48.484375 18.828125 43.109375 
Q 14.796875 37.75 14.796875 27.984375 
Q 14.796875 18.265625 18.828125 12.890625 
Q 22.859375 7.515625 30.078125 7.515625 
Q 37.359375 7.515625 41.375 12.890625 
Q 45.40625 18.265625 45.40625 27.984375 
z
M 54.390625 6.78125 
Q 54.390625 -7.171875 48.1875 -13.984375 
Q 42 -20.796875 29.203125 -20.796875 
Q 24.46875 -20.796875 20.265625 -20.09375 
Q 16.0625 -19.390625 12.109375 -17.921875 
L 12.109375 -9.1875 
Q 16.0625 -11.328125 19.921875 -12.34375 
Q 23.78125 -13.375 27.78125 -13.375 
Q 36.625 -13.375 41.015625 -8.765625 
Q 45.40625 -4.15625 45.40625 5.171875 
L 45.40625 9.625 
Q 42.625 4.78125 38.28125 2.390625 
Q 33.9375 0 27.875 0 
Q 17.828125 0 11.671875 7.65625 
Q 5.515625 15.328125 5.515625 27.984375 
Q 5.515625 40.671875 11.671875 48.328125 
Q 17.828125 56 27.875 56 
Q 33.9375 56 38.28125 53.609375 
Q 42.625 51.21875 45.40625 46.390625 
L 45.40625 54.6875 
L 54.390625 54.6875 
z
" id="DejaVuSans-103"/>
      <path d="M 54.890625 33.015625 
L 54.890625 0 
L 45.90625 0 
L 45.90625 32.71875 
Q 45.90625 40.484375 42.875 44.328125 
Q 39.84375 48.1875 33.796875 48.1875 
Q 26.515625 48.1875 22.3125 43.546875 
Q 18.109375 38.921875 18.109375 30.90625 
L 18.109375 0 
L 9.078125 0 
L 9.078125 75.984375 
L 18.109375 75.984375 
L 18.109375 46.1875 
Q 21.34375 51.125 25.703125 53.5625 
Q 30.078125 56 35.796875 56 
Q 45.21875 56 50.046875 50.171875 
Q 54.890625 44.34375 54.890625 33.015625 
z
" id="DejaVuSans-104"/>
      <path d="M 44.28125 53.078125 
L 44.28125 44.578125 
Q 40.484375 46.53125 36.375 47.5 
Q 32.28125 48.484375 27.875 48.484375 
Q 21.1875 48.484375 17.84375 46.4375 
Q 14.5 44.390625 14.5 40.28125 
Q 14.5 37.15625 16.890625 35.375 
Q 19.28125 33.59375 26.515625 31.984375 
L 29.59375 31.296875 
Q 39.15625 29.25 43.1875 25.515625 
Q 47.21875 21.78125 47.21875 15.09375 
Q 47.21875 7.46875 41.1875 3.015625 
Q 35.15625 -1.421875 24.609375 -1.421875 
Q 20.21875 -1.421875 15.453125 -0.5625 
Q 10.6875 0.296875 5.421875 2 
L 5.421875 11.28125 
Q 10.40625 8.6875 15.234375 7.390625 
Q 20.0625 6.109375 24.8125 6.109375 
Q 31.15625 6.109375 34.5625 8.28125 
Q 37.984375 10.453125 37.984375 14.40625 
Q 37.984375 18.0625 35.515625 20.015625 
Q 33.0625 21.96875 24.703125 23.78125 
L 21.578125 24.515625 
Q 13.234375 26.265625 9.515625 29.90625 
Q 5.8125 33.546875 5.8125 39.890625 
Q 5.8125 47.609375 11.28125 51.796875 
Q 16.75 56 26.8125 56 
Q 31.78125 56 36.171875 55.265625 
Q 40.578125 54.546875 44.28125 53.078125 
z
" id="DejaVuSans-115"/>
     </defs>
     <use xlink:href="#DejaVuSans-80"/>
     <use x="58.552734" xlink:href="#DejaVuSans-114"/>
     <use x="97.416016" xlink:href="#DejaVuSans-111"/>
     <use x="158.597656" xlink:href="#DejaVuSans-98"/>
     <use x="222.074219" xlink:href="#DejaVuSans-108"/>
     <use x="249.857422" xlink:href="#DejaVuSans-101"/>
     <use x="311.380859" xlink:href="#DejaVuSans-109"/>
     <use x="408.792969" xlink:href="#DejaVuSans-32"/>
     <use x="440.580078" xlink:href="#DejaVuSans-50"/>
     <use x="504.203125" xlink:href="#DejaVuSans-44"/>
     <use x="535.990234" xlink:href="#DejaVuSans-32"/>
     <use x="567.777344" xlink:href="#DejaVuSans-35"/>
     <use x="651.566406" xlink:href="#DejaVuSans-110"/>
     <use x="714.945312" xlink:href="#DejaVuSans-101"/>
     <use x="776.46875" xlink:href="#DejaVuSans-105"/>
     <use x="804.251953" xlink:href="#DejaVuSans-103"/>
     <use x="867.728516" xlink:href="#DejaVuSans-104"/>
     <use x="931.107422" xlink:href="#DejaVuSans-98"/>
     <use x="994.583984" xlink:href="#DejaVuSans-111"/>
     <use x="1055.765625" xlink:href="#DejaVuSans-114"/>
     <use x="1096.878906" xlink:href="#DejaVuSans-115"/>
     <use x="1148.978516" xlink:href="#DejaVuSans-32"/>
     <use x="1180.765625" xlink:href="#DejaVuSans-53"/>
    </g>
   </g>
  </g>
 </g>
 <defs>
  <clipPath id="pe7c5cc41ce">
   <rect height="217.44" width="334.8" x="54" y="34.56"/>
  </clipPath>
 </defs>
</svg>
