<?xml version="1.0" encoding="utf-8" standalone="no"?>
<!DOCTYPE svg PUBLIC "-//W3C//DTD SVG 1.1//EN"
  "http://www.w3.org/Graphics/SVG/1.1/DTD/svg11.dtd">
<!-- Created with matplotlib (https://matplotlib.org/) -->
<svg height="288pt" version="1.1" viewBox="0 0 432 288" width="432pt" xmlns="http://www.w3.org/2000/svg" xmlns:xlink="http://www.w3.org/1999/xlink">
 <metadata>
  <rdf:RDF xmlns:cc="http://creativecommons.org/ns#" xmlns:dc="http://purl.org/dc/elements/1.1/" xmlns:rdf="http://www.w3.org/1999/02/22-rdf-syntax-ns#">
   <cc:Work>
    <dc:type rdf:resource="http://purl.org/dc/dcmitype/StillImage"/>
    <dc:date>2020-10-01T14:52:30.050147</dc:date>
    <dc:format>image/svg+xml</dc:format>
    <dc:creator>
     <cc:Agent>
      <dc:title>Matplotlib v3.3.1, https://matplotlib.org/</dc:title>
     </cc:Agent>
    </dc:creator>
   </cc:Work>
  </rdf:RDF>
 </metadata>
 <defs>
  <style type="text/css">*{stroke-linecap:butt;stroke-linejoin:round;}</style>
 </defs>
 <g id="figure_1">
  <g id="patch_1">
   <path d="M 0 288 
L 432 288 
L 432 0 
L 0 0 
z
" style="fill:#ffffff;"/>
  </g>
  <g id="axes_1">
   <g id="patch_2">
    <path d="M 54 252 
L 388.8 252 
L 388.8 34.56 
L 54 34.56 
z
" style="fill:#ffffff;"/>
   </g>
   <g id="PathCollection_1">
    <path clip-path="url(#p3e88f5917a)" d="M 63.3 88.92 
L 72.6 88.92 
L 72.6 88.92 
L 72.6 88.92 
L 63.3 82.88 
L 63.3 82.88 
L 54 76.84 
L 54 70.8 
L 54 70.8 
L 54 70.8 
L 54 76.84 
L 54 82.88 
L 54 88.92 
L 54 88.92 
z
" style="fill:#eb610f;fill-opacity:0.8;"/>
    <path clip-path="url(#p3e88f5917a)" d="M 184.2 76.84 
L 184.2 76.84 
L 184.2 70.8 
L 184.2 70.8 
L 179.55 64.76 
L 179.55 58.72 
L 174.9 52.68 
L 174.9 46.64 
L 174.9 40.6 
L 174.9 34.56 
L 174.9 34.56 
L 165.6 34.56 
L 156.3 34.56 
L 147 34.56 
L 137.7 34.56 
L 128.4 34.56 
L 119.1 34.56 
L 109.8 34.56 
L 100.5 34.56 
L 91.2 34.56 
L 81.9 34.56 
L 81.9 34.56 
L 81.9 34.56 
L 91.2 40.6 
L 91.2 40.6 
L 100.5 46.64 
L 100.5 46.64 
L 109.8 49.66 
L 119.1 52.68 
L 119.1 52.68 
L 128.4 58.72 
L 128.4 58.72 
L 137.7 61.74 
L 147 64.76 
L 147 64.76 
L 156.3 64.76 
L 165.6 70.8 
L 165.6 70.8 
L 174.9 73.82 
L 184.2 76.84 
z
" style="fill:#eb610f;fill-opacity:0.8;"/>
   </g>
   <g id="PathCollection_2">
    <path clip-path="url(#p3e88f5917a)" d="M 202.8 161.4 
z
" style="fill:#fd9547;fill-opacity:0.8;"/>
    <path clip-path="url(#p3e88f5917a)" d="M 184.2 155.36 
z
" style="fill:#fd9547;fill-opacity:0.8;"/>
    <path clip-path="url(#p3e88f5917a)" d="M 63.3 128.18 
L 72.6 128.18 
L 81.9 128.18 
L 91.2 128.18 
L 100.5 128.18 
L 109.8 128.18 
L 119.1 128.18 
L 128.4 125.16 
L 119.1 119.12 
L 109.8 113.08 
L 109.8 107.04 
L 109.8 101 
L 109.8 94.96 
L 100.5 88.92 
L 100.5 82.88 
L 100.5 76.84 
L 100.5 70.8 
L 100.5 64.76 
L 91.2 58.72 
L 100.5 52.68 
L 109.8 58.72 
L 119.1 62.746667 
L 128.4 64.76 
L 137.7 70.8 
L 147 73.82 
L 156.3 76.84 
L 165.6 80.866667 
L 170.25 82.88 
L 174.9 84.893333 
L 184.2 86.906667 
L 193.5 85.9 
L 202.8 88.92 
L 202.8 82.88 
L 198.15 76.84 
L 198.15 70.8 
L 198.15 64.76 
L 198.15 58.72 
L 198.15 52.68 
L 198.15 46.64 
L 193.5 40.6 
L 193.5 34.56 
L 184.2 34.56 
L 174.9 34.56 
L 174.9 40.6 
L 174.9 46.64 
L 174.9 52.68 
L 179.55 58.72 
L 179.55 64.76 
L 184.2 70.8 
L 184.2 70.8 
L 184.2 76.84 
L 184.2 76.84 
L 184.2 76.84 
L 174.9 73.82 
L 165.6 70.8 
L 165.6 70.8 
L 156.3 64.76 
L 147 64.76 
L 147 64.76 
L 137.7 61.74 
L 128.4 58.72 
L 128.4 58.72 
L 119.1 52.68 
L 119.1 52.68 
L 109.8 49.66 
L 100.5 46.64 
L 100.5 46.64 
L 91.2 40.6 
L 91.2 40.6 
L 81.9 34.56 
L 81.9 34.56 
L 72.6 34.56 
L 63.3 34.56 
L 54 34.56 
L 54 40.6 
L 54 46.64 
L 54 52.68 
L 54 58.72 
L 54 64.76 
L 54 70.8 
L 54 70.8 
L 54 76.84 
L 63.3 82.88 
L 63.3 82.88 
L 72.6 88.92 
L 72.6 88.92 
L 72.6 88.92 
L 63.3 88.92 
L 54 88.92 
L 54 94.96 
L 54 101 
L 54 107.04 
L 54 113.08 
L 54 119.12 
L 54 125.16 
L 54 128.18 
z
" style="fill:#fd9547;fill-opacity:0.8;"/>
    <path clip-path="url(#p3e88f5917a)" d="M 249.3 128.18 
L 253.95 125.16 
L 249.3 122.14 
L 246.2 119.12 
L 240 116.1 
L 235.35 119.12 
L 240 123.146667 
L 244.65 125.16 
z
" style="fill:#fd9547;fill-opacity:0.8;"/>
    <path clip-path="url(#p3e88f5917a)" d="M 230.7 113.08 
z
" style="fill:#fd9547;fill-opacity:0.8;"/>
   </g>
   <g id="PathCollection_3">
    <path clip-path="url(#p3e88f5917a)" d="M 174.9 173.48 
L 184.2 174.99 
L 193.5 175.493333 
L 202.8 173.48 
L 207.45 167.44 
L 212.1 161.4 
L 202.8 155.36 
L 202.8 149.32 
L 193.5 151.333333 
L 184.2 151.736 
L 178 149.32 
L 174.9 146.3 
L 165.6 146.3 
L 160.95 149.32 
L 165.6 155.36 
L 165.6 161.4 
L 174.9 167.44 
L 174.9 173.48 
z
M 202.8 161.4 
z
M 184.2 155.36 
z
" style="fill:#fdc895;fill-opacity:0.8;"/>
    <path clip-path="url(#p3e88f5917a)" d="M 63.3 155.36 
L 72.6 155.36 
L 81.9 155.36 
L 91.2 149.32 
L 100.5 149.32 
L 109.8 149.32 
L 119.1 143.28 
L 128.4 143.28 
L 137.7 143.28 
L 147 143.28 
L 156.3 143.28 
L 151.65 137.24 
L 156.3 131.2 
L 151.65 125.16 
L 147 119.12 
L 142.35 113.08 
L 137.7 107.04 
L 133.05 101 
L 133.05 94.96 
L 128.4 88.92 
L 128.4 82.88 
L 137.7 79.86 
L 142.35 82.88 
L 147 85.9 
L 156.3 85.9 
L 160.95 88.92 
L 165.6 91.94 
L 174.9 91.94 
L 184.2 94.96 
L 193.5 94.96 
L 202.8 93.45 
L 207.45 94.96 
L 212.1 96.47 
L 221.4 101 
L 221.4 94.96 
L 221.4 88.92 
L 230.7 82.88 
L 230.7 76.84 
L 230.7 70.8 
L 230.7 64.76 
L 230.7 58.72 
L 235.35 52.68 
L 240 46.64 
L 240 40.6 
L 240 34.56 
L 230.7 34.56 
L 221.4 34.56 
L 212.1 34.56 
L 202.8 34.56 
L 193.5 34.56 
L 193.5 40.6 
L 198.15 46.64 
L 198.15 52.68 
L 198.15 58.72 
L 198.15 64.76 
L 198.15 70.8 
L 198.15 76.84 
L 202.8 82.88 
L 202.8 88.92 
L 193.5 85.9 
L 184.2 86.906667 
L 174.9 84.893333 
L 170.25 82.88 
L 165.6 80.866667 
L 156.3 76.84 
L 147 73.82 
L 137.7 70.8 
L 128.4 64.76 
L 119.1 62.746667 
L 109.8 58.72 
L 100.5 52.68 
L 91.2 58.72 
L 100.5 64.76 
L 100.5 70.8 
L 100.5 76.84 
L 100.5 82.88 
L 100.5 88.92 
L 109.8 94.96 
L 109.8 101 
L 109.8 107.04 
L 109.8 113.08 
L 119.1 119.12 
L 128.4 125.16 
L 119.1 128.18 
L 109.8 128.18 
L 100.5 128.18 
L 91.2 128.18 
L 81.9 128.18 
L 72.6 128.18 
L 63.3 128.18 
L 54 128.18 
L 54 131.2 
L 54 137.24 
L 54 143.28 
L 54 149.32 
L 54 155.36 
z
" style="fill:#fdc895;fill-opacity:0.8;"/>
    <path clip-path="url(#p3e88f5917a)" d="M 267.9 138.246667 
L 277.2 137.24 
L 286.5 131.2 
L 291.15 125.16 
L 291.15 119.12 
L 295.8 113.08 
L 300.45 107.04 
L 305.1 101 
L 314.4 94.96 
L 323.7 88.92 
L 323.7 82.88 
L 333 76.84 
L 333 70.8 
L 342.3 64.76 
L 351.6 58.72 
L 342.3 58.72 
L 333 58.72 
L 323.7 64.76 
L 314.4 64.76 
L 314.4 70.8 
L 305.1 76.84 
L 295.8 76.84 
L 286.5 82.88 
L 277.2 88.92 
L 267.9 88.92 
L 258.6 94.96 
L 249.3 101 
L 240 107.04 
L 230.7 104.02 
L 228.375 107.04 
L 226.714286 113.08 
L 228.84 119.12 
L 230.7 120.63 
L 236.28 125.16 
L 240 129.186667 
L 243.1 131.2 
L 249.3 134.22 
L 258.6 134.22 
L 264.8 137.24 
z
M 244.65 125.16 
L 240 123.146667 
L 235.35 119.12 
L 240 116.1 
L 246.2 119.12 
L 249.3 122.14 
L 253.95 125.16 
L 249.3 128.18 
z
M 230.7 113.08 
z
" style="fill:#fdc895;fill-opacity:0.8;"/>
    <path clip-path="url(#p3e88f5917a)" d="M 360.9 52.68 
z
" style="fill:#fdc895;fill-opacity:0.8;"/>
   </g>
   <g id="PathCollection_4">
    <path clip-path="url(#p3e88f5917a)" d="M 286.5 252 
L 286.5 245.96 
L 286.5 252 
z
" style="fill:#feebd7;fill-opacity:0.8;"/>
    <path clip-path="url(#p3e88f5917a)" d="M 314.4 252 
L 323.7 252 
L 333 252 
L 342.3 252 
L 351.6 252 
L 342.3 245.96 
L 333 239.92 
L 323.7 233.88 
L 323.7 239.92 
L 314.4 245.96 
L 314.4 252 
z
" style="fill:#feebd7;fill-opacity:0.8;"/>
    <path clip-path="url(#p3e88f5917a)" d="M 314.4 227.84 
z
" style="fill:#feebd7;fill-opacity:0.8;"/>
    <path clip-path="url(#p3e88f5917a)" d="M 91.2 209.72 
z
" style="fill:#feebd7;fill-opacity:0.8;"/>
    <path clip-path="url(#p3e88f5917a)" d="M 100.5 203.68 
L 109.8 203.68 
L 119.1 197.64 
L 128.4 197.64 
L 137.7 191.6 
L 147 188.58 
L 156.3 188.58 
L 160.95 185.56 
L 165.6 182.54 
L 174.9 183.546667 
L 184.2 179.52 
L 193.5 182.54 
L 202.8 182.54 
L 205.9 179.52 
L 212.1 173.48 
L 216.75 167.44 
L 219.075 161.4 
L 221.4 155.36 
L 212.1 149.32 
L 202.8 144.79 
L 193.5 143.28 
L 184.2 140.26 
L 174.9 137.24 
L 168.7 131.2 
L 170.25 125.16 
L 165.6 119.12 
L 165.6 113.08 
L 170.25 107.04 
L 170.25 101 
L 174.9 98.986667 
L 184.2 101 
L 193.5 102.51 
L 202.8 101 
L 212.1 101 
L 221.4 107.04 
L 222.728571 113.08 
L 223.26 119.12 
L 230.7 125.16 
L 230.7 131.2 
L 236.28 137.24 
L 240 138.965714 
L 249.3 138.448 
L 258.6 139.253333 
L 267.9 141.266667 
L 277.2 141.77 
L 286.5 143.28 
L 295.8 143.28 
L 305.1 139.253333 
L 314.4 137.24 
L 323.7 137.24 
L 333 131.2 
L 342.3 131.2 
L 351.6 131.2 
L 360.9 131.2 
L 370.2 131.2 
L 360.9 131.2 
L 351.6 131.2 
L 342.3 131.2 
L 333 131.2 
L 323.7 125.16 
L 333 119.12 
L 342.3 119.12 
L 351.6 113.08 
L 360.9 113.08 
L 370.2 107.04 
L 379.5 107.04 
L 388.8 101 
L 388.8 94.96 
L 388.8 88.92 
L 388.8 82.88 
L 388.8 76.84 
L 388.8 70.8 
L 388.8 64.76 
L 388.8 58.72 
L 388.8 52.68 
L 388.8 46.64 
L 388.8 40.6 
L 388.8 34.56 
L 379.5 34.56 
L 370.2 34.56 
L 360.9 34.56 
L 351.6 34.56 
L 342.3 34.56 
L 333 34.56 
L 323.7 34.56 
L 314.4 34.56 
L 305.1 34.56 
L 295.8 34.56 
L 286.5 34.56 
L 277.2 34.56 
L 267.9 34.56 
L 258.6 34.56 
L 249.3 34.56 
L 240 34.56 
L 240 40.6 
L 240 46.64 
L 235.35 52.68 
L 230.7 58.72 
L 230.7 64.76 
L 230.7 70.8 
L 230.7 76.84 
L 230.7 82.88 
L 221.4 88.92 
L 221.4 94.96 
L 221.4 101 
L 212.1 96.47 
L 207.45 94.96 
L 202.8 93.45 
L 193.5 94.96 
L 184.2 94.96 
L 174.9 91.94 
L 165.6 91.94 
L 160.95 88.92 
L 156.3 85.9 
L 147 85.9 
L 142.35 82.88 
L 137.7 79.86 
L 128.4 82.88 
L 128.4 88.92 
L 133.05 94.96 
L 133.05 101 
L 137.7 107.04 
L 142.35 113.08 
L 147 119.12 
L 151.65 125.16 
L 156.3 131.2 
L 151.65 137.24 
L 156.3 143.28 
L 147 143.28 
L 137.7 143.28 
L 128.4 143.28 
L 119.1 143.28 
L 109.8 149.32 
L 100.5 149.32 
L 91.2 149.32 
L 81.9 155.36 
L 72.6 155.36 
L 63.3 155.36 
L 54 155.36 
L 54 161.4 
L 54 167.44 
L 54 173.48 
L 54 179.52 
L 54 185.56 
L 54 191.6 
L 54 197.64 
L 63.3 191.6 
L 72.6 191.6 
L 81.9 185.56 
L 91.2 185.56 
L 100.5 185.56 
L 109.8 185.56 
L 119.1 191.6 
L 109.8 197.64 
L 100.5 203.68 
z
M 174.9 173.48 
L 174.9 167.44 
L 165.6 161.4 
L 165.6 155.36 
L 160.95 149.32 
L 165.6 146.3 
L 174.9 146.3 
L 178 149.32 
L 184.2 151.736 
L 193.5 151.333333 
L 202.8 149.32 
L 202.8 155.36 
L 212.1 161.4 
L 207.45 167.44 
L 202.8 173.48 
L 193.5 175.493333 
L 184.2 174.99 
L 174.9 173.48 
z
M 264.8 137.24 
L 258.6 134.22 
L 249.3 134.22 
L 243.1 131.2 
L 240 129.186667 
L 236.28 125.16 
L 230.7 120.63 
L 228.84 119.12 
L 226.714286 113.08 
L 228.375 107.04 
L 230.7 104.02 
L 240 107.04 
L 249.3 101 
L 258.6 94.96 
L 267.9 88.92 
L 277.2 88.92 
L 286.5 82.88 
L 295.8 76.84 
L 305.1 76.84 
L 314.4 70.8 
L 314.4 64.76 
L 323.7 64.76 
L 333 58.72 
L 342.3 58.72 
L 351.6 58.72 
L 342.3 64.76 
L 333 70.8 
L 333 76.84 
L 323.7 82.88 
L 323.7 88.92 
L 314.4 94.96 
L 305.1 101 
L 300.45 107.04 
L 295.8 113.08 
L 291.15 119.12 
L 291.15 125.16 
L 286.5 131.2 
L 277.2 137.24 
L 267.9 138.246667 
z
M 360.9 52.68 
z
" style="fill:#feebd7;fill-opacity:0.8;"/>
   </g>
   <g id="PathCollection_5">
    <path clip-path="url(#p3e88f5917a)" d="M 63.3 252 
L 72.6 245.96 
L 81.9 239.92 
L 91.2 233.88 
L 100.5 233.88 
L 109.8 227.84 
L 119.1 221.8 
L 128.4 215.76 
L 137.7 215.76 
L 137.7 209.72 
L 147 203.68 
L 156.3 203.68 
L 165.6 197.64 
L 174.9 191.6 
L 184.2 188.58 
L 193.5 191.6 
L 202.8 197.64 
L 202.8 203.68 
L 212.1 197.64 
L 221.4 203.68 
L 221.4 197.64 
L 221.4 191.6 
L 221.4 185.56 
L 216.75 179.52 
L 221.4 176.5 
L 223.26 173.48 
L 223.26 167.44 
L 226.05 161.4 
L 226.98 155.36 
L 230.7 149.32 
L 233.8 143.28 
L 240 141.554286 
L 249.3 142.072 
L 253.95 143.28 
L 258.6 144.488 
L 267.9 144.79 
L 277.2 147.306667 
L 286.5 147.81 
L 295.8 147.81 
L 298.9 149.32 
L 295.8 155.36 
L 305.1 161.4 
L 295.8 167.44 
L 305.1 173.48 
L 305.1 179.52 
L 314.4 185.56 
L 323.7 191.6 
L 323.7 197.64 
L 323.7 203.68 
L 314.4 209.72 
L 305.1 206.7 
L 300.45 203.68 
L 295.8 200.66 
L 286.5 200.66 
L 281.85 203.68 
L 277.2 205.693333 
L 272.55 203.68 
L 267.9 200.66 
L 258.6 197.64 
L 249.3 191.6 
L 240 197.64 
L 240 203.68 
L 244.65 209.72 
L 244.65 215.76 
L 249.3 221.8 
L 249.3 227.84 
L 258.6 233.88 
L 258.6 239.92 
L 258.6 245.96 
L 258.6 252 
L 267.9 252 
L 277.2 252 
L 286.5 252 
L 286.5 245.96 
L 286.5 252 
L 295.8 252 
L 305.1 252 
L 314.4 252 
L 314.4 245.96 
L 323.7 239.92 
L 323.7 233.88 
L 333 239.92 
L 342.3 245.96 
L 351.6 252 
L 360.9 252 
L 370.2 252 
L 379.5 252 
L 388.8 252 
L 388.8 245.96 
L 388.8 239.92 
L 388.8 233.88 
L 388.8 227.84 
L 388.8 221.8 
L 388.8 215.76 
L 388.8 209.72 
L 388.8 203.68 
L 388.8 197.64 
L 388.8 191.6 
L 388.8 185.56 
L 388.8 179.52 
L 388.8 173.48 
L 388.8 167.44 
L 388.8 161.4 
L 388.8 155.36 
L 388.8 149.32 
L 388.8 143.28 
L 388.8 137.24 
L 388.8 131.2 
L 388.8 125.16 
L 388.8 119.12 
L 388.8 113.08 
L 388.8 107.04 
L 388.8 101 
L 379.5 107.04 
L 370.2 107.04 
L 360.9 113.08 
L 351.6 113.08 
L 342.3 119.12 
L 333 119.12 
L 323.7 125.16 
L 333 131.2 
L 342.3 131.2 
L 351.6 131.2 
L 360.9 131.2 
L 370.2 131.2 
L 360.9 131.2 
L 351.6 131.2 
L 342.3 131.2 
L 333 131.2 
L 323.7 137.24 
L 314.4 137.24 
L 305.1 139.253333 
L 295.8 143.28 
L 286.5 143.28 
L 277.2 141.77 
L 267.9 141.266667 
L 258.6 139.253333 
L 249.3 138.448 
L 240 138.965714 
L 236.28 137.24 
L 230.7 131.2 
L 230.7 125.16 
L 223.26 119.12 
L 222.728571 113.08 
L 221.4 107.04 
L 212.1 101 
L 202.8 101 
L 193.5 102.51 
L 184.2 101 
L 174.9 98.986667 
L 170.25 101 
L 170.25 107.04 
L 165.6 113.08 
L 165.6 119.12 
L 170.25 125.16 
L 168.7 131.2 
L 174.9 137.24 
L 184.2 140.26 
L 193.5 143.28 
L 202.8 144.79 
L 212.1 149.32 
L 221.4 155.36 
L 219.075 161.4 
L 216.75 167.44 
L 212.1 173.48 
L 205.9 179.52 
L 202.8 182.54 
L 193.5 182.54 
L 184.2 179.52 
L 174.9 183.546667 
L 165.6 182.54 
L 160.95 185.56 
L 156.3 188.58 
L 147 188.58 
L 137.7 191.6 
L 128.4 197.64 
L 119.1 197.64 
L 109.8 203.68 
L 100.5 203.68 
L 109.8 197.64 
L 119.1 191.6 
L 109.8 185.56 
L 100.5 185.56 
L 91.2 185.56 
L 81.9 185.56 
L 72.6 191.6 
L 63.3 191.6 
L 54 197.64 
L 54 203.68 
L 54 209.72 
L 54 215.76 
L 54 218.78 
L 63.3 221.8 
L 63.3 227.84 
L 63.3 233.88 
L 54 239.92 
L 54 245.96 
L 54 252 
z
M 314.4 227.84 
z
M 91.2 209.72 
z
M 190.4 137.24 
L 184.2 134.824 
L 177.225 131.2 
L 179.55 125.16 
L 179.55 119.12 
L 184.2 116.1 
L 187.3 113.08 
L 193.5 107.04 
L 202.8 107.04 
L 212.1 107.04 
L 215.2 113.08 
L 216.75 119.12 
L 215.2 125.16 
L 212.1 131.2 
L 212.1 137.24 
L 202.8 139.253333 
L 193.5 138.75 
z
M 212.1 131.2 
L 221.4 129.186667 
L 223.725 131.2 
L 221.4 133.213333 
z
" style="fill:#e4eff9;fill-opacity:0.8;"/>
    <path clip-path="url(#p3e88f5917a)" d="M 184.2 252 
L 193.5 252 
L 202.8 252 
L 202.8 245.96 
L 202.8 239.92 
L 202.8 233.88 
L 202.8 227.84 
L 202.8 221.8 
L 212.1 215.76 
L 212.1 209.72 
L 202.8 215.76 
L 193.5 221.8 
L 193.5 227.84 
L 193.5 233.88 
L 188.85 239.92 
L 184.2 245.96 
L 184.2 252 
z
" style="fill:#e4eff9;fill-opacity:0.8;"/>
   </g>
   <g id="PathCollection_6">
    <path clip-path="url(#p3e88f5917a)" d="M 72.6 252 
L 81.9 252 
L 91.2 252 
L 100.5 252 
L 109.8 252 
L 119.1 252 
L 128.4 252 
L 137.7 252 
L 147 252 
L 156.3 252 
L 165.6 252 
L 174.9 252 
L 184.2 252 
L 184.2 245.96 
L 188.85 239.92 
L 193.5 233.88 
L 193.5 227.84 
L 193.5 221.8 
L 202.8 215.76 
L 212.1 209.72 
L 212.1 215.76 
L 202.8 221.8 
L 202.8 227.84 
L 202.8 233.88 
L 202.8 239.92 
L 202.8 245.96 
L 202.8 252 
L 212.1 252 
L 221.4 252 
L 230.7 252 
L 240 252 
L 249.3 252 
L 258.6 252 
L 258.6 245.96 
L 258.6 239.92 
L 258.6 233.88 
L 249.3 227.84 
L 249.3 221.8 
L 244.65 215.76 
L 244.65 209.72 
L 240 203.68 
L 240 197.64 
L 249.3 191.6 
L 258.6 197.64 
L 267.9 200.66 
L 272.55 203.68 
L 277.2 205.693333 
L 281.85 203.68 
L 286.5 200.66 
L 295.8 200.66 
L 300.45 203.68 
L 305.1 206.7 
L 314.4 209.72 
L 323.7 203.68 
L 323.7 197.64 
L 323.7 191.6 
L 314.4 185.56 
L 305.1 179.52 
L 305.1 173.48 
L 295.8 167.44 
L 305.1 161.4 
L 295.8 155.36 
L 298.9 149.32 
L 295.8 147.81 
L 286.5 147.81 
L 277.2 147.306667 
L 267.9 144.79 
L 258.6 144.488 
L 253.95 143.28 
L 249.3 142.072 
L 240 141.554286 
L 233.8 143.28 
L 230.7 149.32 
L 226.98 155.36 
L 226.05 161.4 
L 223.26 167.44 
L 223.26 173.48 
L 221.4 176.5 
L 216.75 179.52 
L 221.4 185.56 
L 221.4 191.6 
L 221.4 197.64 
L 221.4 203.68 
L 212.1 197.64 
L 202.8 203.68 
L 202.8 197.64 
L 193.5 191.6 
L 184.2 188.58 
L 174.9 191.6 
L 165.6 197.64 
L 156.3 203.68 
L 147 203.68 
L 137.7 209.72 
L 137.7 215.76 
L 128.4 215.76 
L 119.1 221.8 
L 109.8 227.84 
L 100.5 233.88 
L 91.2 233.88 
L 81.9 239.92 
L 72.6 245.96 
L 63.3 252 
z
M 240 179.52 
L 240 179.52 
L 230.7 176.5 
L 228.84 173.48 
L 228.84 167.44 
L 230.7 164.42 
L 233.8 161.4 
L 233.8 155.36 
L 240 149.32 
L 240 149.32 
L 249.3 147.306667 
L 258.6 148.112 
L 267.9 149.32 
L 267.9 149.32 
L 277.2 155.36 
L 277.2 161.4 
L 277.2 161.4 
L 281.85 167.44 
L 277.2 173.48 
L 277.2 173.48 
L 267.9 179.52 
L 267.9 179.52 
L 258.6 185.56 
L 249.3 183.546667 
z
" style="fill:#bcd7eb;fill-opacity:0.8;"/>
    <path clip-path="url(#p3e88f5917a)" d="M 63.3 233.88 
L 63.3 227.84 
L 63.3 221.8 
L 54 218.78 
L 54 221.8 
L 54 227.84 
L 54 233.88 
L 54 239.92 
z
" style="fill:#bcd7eb;fill-opacity:0.8;"/>
    <path clip-path="url(#p3e88f5917a)" d="M 193.5 138.75 
L 202.8 139.253333 
L 212.1 137.24 
L 212.1 131.2 
L 215.2 125.16 
L 216.75 119.12 
L 215.2 113.08 
L 212.1 107.04 
L 202.8 107.04 
L 193.5 107.04 
L 187.3 113.08 
L 184.2 116.1 
L 179.55 119.12 
L 179.55 125.16 
L 177.225 131.2 
L 184.2 134.824 
L 190.4 137.24 
z
M 193.5 125.16 
L 202.8 121.133333 
L 207.45 125.16 
L 202.8 129.186667 
z
" style="fill:#bcd7eb;fill-opacity:0.8;"/>
    <path clip-path="url(#p3e88f5917a)" d="M 221.4 133.213333 
L 223.725 131.2 
L 221.4 129.186667 
L 212.1 131.2 
z
" style="fill:#bcd7eb;fill-opacity:0.8;"/>
   </g>
   <g id="PathCollection_7">
    <path clip-path="url(#p3e88f5917a)" d="M 249.3 183.546667 
L 258.6 185.56 
L 267.9 179.52 
L 267.9 179.52 
L 277.2 173.48 
L 277.2 173.48 
L 281.85 167.44 
L 277.2 161.4 
L 277.2 161.4 
L 277.2 155.36 
L 267.9 149.32 
L 267.9 149.32 
L 258.6 148.112 
L 249.3 147.306667 
L 240 149.32 
L 240 149.32 
L 233.8 155.36 
L 233.8 161.4 
L 230.7 164.42 
L 228.84 167.44 
L 228.84 173.48 
L 230.7 176.5 
L 240 179.52 
L 240 179.52 
z
M 244.65 167.44 
L 249.3 161.4 
L 258.6 167.44 
L 249.3 173.48 
z
" style="fill:#77b5d9;fill-opacity:0.8;"/>
    <path clip-path="url(#p3e88f5917a)" d="M 202.8 129.186667 
L 207.45 125.16 
L 202.8 121.133333 
L 193.5 125.16 
z
" style="fill:#77b5d9;fill-opacity:0.8;"/>
   </g>
   <g id="PathCollection_8">
    <path clip-path="url(#p3e88f5917a)" d="M 249.3 173.48 
L 258.6 167.44 
L 249.3 161.4 
L 244.65 167.44 
z
" style="fill:#3888c1;fill-opacity:0.8;"/>
   </g>
   <g id="PathCollection_9">
    <defs>
     <path d="M 0 3 
C 0.795609 3 1.55874 2.683901 2.12132 2.12132 
C 2.683901 1.55874 3 0.795609 3 -0 
C 3 -0.795609 2.683901 -1.55874 2.12132 -2.12132 
C 1.55874 -2.683901 0.795609 -3 0 -3 
C -0.795609 -3 -1.55874 -2.683901 -2.12132 -2.12132 
C -2.683901 -1.55874 -3 -0.795609 -3 0 
C -3 0.795609 -2.683901 1.55874 -2.12132 2.12132 
C -1.55874 2.683901 -0.795609 3 0 3 
z
" id="C0_0_3c6dfe2c81"/>
    </defs>
    <g clip-path="url(#p3e88f5917a)">
     <use style="fill:#ff8000;stroke:#000000;" x="325.067381" xlink:href="#C0_0_3c6dfe2c81" y="98.148432"/>
    </g>
    <g clip-path="url(#p3e88f5917a)">
     <use style="fill:#1e90ff;stroke:#000000;" x="126.71945" xlink:href="#C0_0_3c6dfe2c81" y="72.632775"/>
    </g>
    <g clip-path="url(#p3e88f5917a)">
     <use style="fill:#ff8000;stroke:#000000;" x="318.253958" xlink:href="#C0_0_3c6dfe2c81" y="66.269913"/>
    </g>
    <g clip-path="url(#p3e88f5917a)">
     <use style="fill:#ff8000;stroke:#000000;" x="130.415985" xlink:href="#C0_0_3c6dfe2c81" y="171.550146"/>
    </g>
    <g clip-path="url(#p3e88f5917a)">
     <use style="fill:#ff8000;stroke:#000000;" x="332.856354" xlink:href="#C0_0_3c6dfe2c81" y="83.245462"/>
    </g>
    <g clip-path="url(#p3e88f5917a)">
     <use style="fill:#ff8000;stroke:#000000;" x="127.809621" xlink:href="#C0_0_3c6dfe2c81" y="165.738323"/>
    </g>
    <g clip-path="url(#p3e88f5917a)">
     <use style="fill:#ff8000;stroke:#000000;" x="324.175298" xlink:href="#C0_0_3c6dfe2c81" y="76.626292"/>
    </g>
    <g clip-path="url(#p3e88f5917a)">
     <use style="fill:#1e90ff;stroke:#000000;" x="259.090692" xlink:href="#C0_0_3c6dfe2c81" y="201.673668"/>
    </g>
    <g clip-path="url(#p3e88f5917a)">
     <use style="fill:#ff8000;stroke:#000000;" x="316.73113" xlink:href="#C0_0_3c6dfe2c81" y="111.266209"/>
    </g>
    <g clip-path="url(#p3e88f5917a)">
     <use style="fill:#ff8000;stroke:#000000;" x="242.82174" xlink:href="#C0_0_3c6dfe2c81" y="168.39706"/>
    </g>
    <g clip-path="url(#p3e88f5917a)">
     <use style="fill:#ff8000;stroke:#000000;" x="321.246305" xlink:href="#C0_0_3c6dfe2c81" y="100.156585"/>
    </g>
    <g clip-path="url(#p3e88f5917a)">
     <use style="fill:#1e90ff;stroke:#000000;" x="134.960481" xlink:href="#C0_0_3c6dfe2c81" y="111.230963"/>
    </g>
    <g clip-path="url(#p3e88f5917a)">
     <use style="fill:#ff8000;stroke:#000000;" x="223.491651" xlink:href="#C0_0_3c6dfe2c81" y="100.524413"/>
    </g>
    <g clip-path="url(#p3e88f5917a)">
     <use style="fill:#1e90ff;stroke:#000000;" x="280.011946" xlink:href="#C0_0_3c6dfe2c81" y="203.837697"/>
    </g>
    <g clip-path="url(#p3e88f5917a)">
     <use style="fill:#1e90ff;stroke:#000000;" x="245.620829" xlink:href="#C0_0_3c6dfe2c81" y="195.572979"/>
    </g>
    <g clip-path="url(#p3e88f5917a)">
     <use style="fill:#1e90ff;stroke:#000000;" x="308.001505" xlink:href="#C0_0_3c6dfe2c81" y="219.759007"/>
    </g>
    <g clip-path="url(#p3e88f5917a)">
     <use style="fill:#1e90ff;stroke:#000000;" x="325.471416" xlink:href="#C0_0_3c6dfe2c81" y="185.363738"/>
    </g>
    <g clip-path="url(#p3e88f5917a)">
     <use style="fill:#1e90ff;stroke:#000000;" x="299.946791" xlink:href="#C0_0_3c6dfe2c81" y="155.685423"/>
    </g>
    <g clip-path="url(#p3e88f5917a)">
     <use style="fill:#1e90ff;stroke:#000000;" x="129.208294" xlink:href="#C0_0_3c6dfe2c81" y="110.169713"/>
    </g>
    <g clip-path="url(#p3e88f5917a)">
     <use style="fill:#1e90ff;stroke:#000000;" x="122.65247" xlink:href="#C0_0_3c6dfe2c81" y="81.545534"/>
    </g>
    <g clip-path="url(#p3e88f5917a)">
     <use style="fill:#1e90ff;stroke:#000000;" x="326.99951" xlink:href="#C0_0_3c6dfe2c81" y="190.484487"/>
    </g>
    <g clip-path="url(#p3e88f5917a)">
     <use style="fill:#1e90ff;stroke:#000000;" x="300.266953" xlink:href="#C0_0_3c6dfe2c81" y="218.687903"/>
    </g>
    <g clip-path="url(#p3e88f5917a)">
     <use style="fill:#ff8000;stroke:#000000;" x="177.983435" xlink:href="#C0_0_3c6dfe2c81" y="197.88147"/>
    </g>
    <g clip-path="url(#p3e88f5917a)">
     <use style="fill:#1e90ff;stroke:#000000;" x="211.589606" xlink:href="#C0_0_3c6dfe2c81" y="177.648641"/>
    </g>
    <g clip-path="url(#p3e88f5917a)">
     <use style="fill:#ff8000;stroke:#000000;" x="214.109264" xlink:href="#C0_0_3c6dfe2c81" y="113.03358"/>
    </g>
    <g clip-path="url(#p3e88f5917a)">
     <use style="fill:#1e90ff;stroke:#000000;" x="307.394916" xlink:href="#C0_0_3c6dfe2c81" y="203.405056"/>
    </g>
    <g clip-path="url(#p3e88f5917a)">
     <use style="fill:#ff8000;stroke:#000000;" x="122.32703" xlink:href="#C0_0_3c6dfe2c81" y="183.106842"/>
    </g>
    <g clip-path="url(#p3e88f5917a)">
     <use style="fill:#ff8000;stroke:#000000;" x="312.403889" xlink:href="#C0_0_3c6dfe2c81" y="111.120454"/>
    </g>
    <g clip-path="url(#p3e88f5917a)">
     <use style="fill:#ff8000;stroke:#000000;" x="240.288785" xlink:href="#C0_0_3c6dfe2c81" y="169.061714"/>
    </g>
    <g clip-path="url(#p3e88f5917a)">
     <use style="fill:#ff8000;stroke:#000000;" x="136.425864" xlink:href="#C0_0_3c6dfe2c81" y="205.11038"/>
    </g>
    <g clip-path="url(#p3e88f5917a)">
     <use style="fill:#1e90ff;stroke:#000000;" x="119.358469" xlink:href="#C0_0_3c6dfe2c81" y="62.579685"/>
    </g>
    <g clip-path="url(#p3e88f5917a)">
     <use style="fill:#1e90ff;stroke:#000000;" x="174.857064" xlink:href="#C0_0_3c6dfe2c81" y="79.471181"/>
    </g>
    <g clip-path="url(#p3e88f5917a)">
     <use style="fill:#ff8000;stroke:#000000;" x="139.962074" xlink:href="#C0_0_3c6dfe2c81" y="207.840861"/>
    </g>
    <g clip-path="url(#p3e88f5917a)">
     <use style="fill:#1e90ff;stroke:#000000;" x="209.092912" xlink:href="#C0_0_3c6dfe2c81" y="169.50911"/>
    </g>
    <g clip-path="url(#p3e88f5917a)">
     <use style="fill:#1e90ff;stroke:#000000;" x="129.655045" xlink:href="#C0_0_3c6dfe2c81" y="111.022372"/>
    </g>
    <g clip-path="url(#p3e88f5917a)">
     <use style="fill:#ff8000;stroke:#000000;" x="106.076711" xlink:href="#C0_0_3c6dfe2c81" y="185.525876"/>
    </g>
    <g clip-path="url(#p3e88f5917a)">
     <use style="fill:#1e90ff;stroke:#000000;" x="325.110673" xlink:href="#C0_0_3c6dfe2c81" y="196.198654"/>
    </g>
    <g clip-path="url(#p3e88f5917a)">
     <use style="fill:#ff8000;stroke:#000000;" x="162.226808" xlink:href="#C0_0_3c6dfe2c81" y="209.545418"/>
    </g>
    <g clip-path="url(#p3e88f5917a)">
     <use style="fill:#ff8000;stroke:#000000;" x="238.144134" xlink:href="#C0_0_3c6dfe2c81" y="170.738258"/>
    </g>
    <g clip-path="url(#p3e88f5917a)">
     <use style="fill:#1e90ff;stroke:#000000;" x="126.202415" xlink:href="#C0_0_3c6dfe2c81" y="85.106179"/>
    </g>
    <g clip-path="url(#p3e88f5917a)">
     <use style="fill:#1e90ff;stroke:#000000;" x="300.380626" xlink:href="#C0_0_3c6dfe2c81" y="164.139867"/>
    </g>
    <g clip-path="url(#p3e88f5917a)">
     <use style="fill:#1e90ff;stroke:#000000;" x="297.436354" xlink:href="#C0_0_3c6dfe2c81" y="148.706211"/>
    </g>
    <g clip-path="url(#p3e88f5917a)">
     <use style="fill:#1e90ff;stroke:#000000;" x="156.871113" xlink:href="#C0_0_3c6dfe2c81" y="136.339725"/>
    </g>
    <g clip-path="url(#p3e88f5917a)">
     <use style="fill:#1e90ff;stroke:#000000;" x="224.005754" xlink:href="#C0_0_3c6dfe2c81" y="101.956176"/>
    </g>
    <g clip-path="url(#p3e88f5917a)">
     <use style="fill:#1e90ff;stroke:#000000;" x="325.225435" xlink:href="#C0_0_3c6dfe2c81" y="190.815916"/>
    </g>
    <g clip-path="url(#p3e88f5917a)">
     <use style="fill:#ff8000;stroke:#000000;" x="127.000469" xlink:href="#C0_0_3c6dfe2c81" y="188.646392"/>
    </g>
    <g clip-path="url(#p3e88f5917a)">
     <use style="fill:#ff8000;stroke:#000000;" x="320.711092" xlink:href="#C0_0_3c6dfe2c81" y="85.601934"/>
    </g>
    <g clip-path="url(#p3e88f5917a)">
     <use style="fill:#ff8000;stroke:#000000;" x="145.393248" xlink:href="#C0_0_3c6dfe2c81" y="221.8"/>
    </g>
    <g clip-path="url(#p3e88f5917a)">
     <use style="fill:#ff8000;stroke:#000000;" x="318.766224" xlink:href="#C0_0_3c6dfe2c81" y="81.770042"/>
    </g>
    <g clip-path="url(#p3e88f5917a)">
     <use style="fill:#1e90ff;stroke:#000000;" x="124.412211" xlink:href="#C0_0_3c6dfe2c81" y="106.786838"/>
    </g>
    <g clip-path="url(#p3e88f5917a)">
     <use style="fill:#ff8000;stroke:#000000;" x="285.355381" xlink:href="#C0_0_3c6dfe2c81" y="86.496097"/>
    </g>
    <g clip-path="url(#p3e88f5917a)">
     <use style="fill:#1e90ff;stroke:#000000;" x="303.200336" xlink:href="#C0_0_3c6dfe2c81" y="217.16876"/>
    </g>
    <g clip-path="url(#p3e88f5917a)">
     <use style="fill:#1e90ff;stroke:#000000;" x="125.805417" xlink:href="#C0_0_3c6dfe2c81" y="110.319809"/>
    </g>
    <g clip-path="url(#p3e88f5917a)">
     <use style="fill:#1e90ff;stroke:#000000;" x="296.65829" xlink:href="#C0_0_3c6dfe2c81" y="151.401317"/>
    </g>
    <g clip-path="url(#p3e88f5917a)">
     <use style="fill:#ff8000;stroke:#000000;" x="146.052422" xlink:href="#C0_0_3c6dfe2c81" y="163.371333"/>
    </g>
    <g clip-path="url(#p3e88f5917a)">
     <use style="fill:#1e90ff;stroke:#000000;" x="272.465362" xlink:href="#C0_0_3c6dfe2c81" y="141.601822"/>
    </g>
    <g clip-path="url(#p3e88f5917a)">
     <use style="fill:#ff8000;stroke:#000000;" x="232.405138" xlink:href="#C0_0_3c6dfe2c81" y="99.83919"/>
    </g>
    <g clip-path="url(#p3e88f5917a)">
     <use style="fill:#ff8000;stroke:#000000;" x="151.196579" xlink:href="#C0_0_3c6dfe2c81" y="194.052311"/>
    </g>
    <g clip-path="url(#p3e88f5917a)">
     <use style="fill:#1e90ff;stroke:#000000;" x="283.663879" xlink:href="#C0_0_3c6dfe2c81" y="207.942195"/>
    </g>
    <g clip-path="url(#p3e88f5917a)">
     <use style="fill:#ff8000;stroke:#000000;" x="127.392192" xlink:href="#C0_0_3c6dfe2c81" y="178.956346"/>
    </g>
    <g clip-path="url(#p3e88f5917a)">
     <use style="fill:#1e90ff;stroke:#000000;" x="154.205077" xlink:href="#C0_0_3c6dfe2c81" y="80.694758"/>
    </g>
    <g clip-path="url(#p3e88f5917a)">
     <use style="fill:#ff8000;stroke:#000000;" x="158.325753" xlink:href="#C0_0_3c6dfe2c81" y="137.762417"/>
    </g>
    <g clip-path="url(#p3e88f5917a)">
     <use style="fill:#1e90ff;stroke:#000000;" x="131.095698" xlink:href="#C0_0_3c6dfe2c81" y="116.404768"/>
    </g>
    <g clip-path="url(#p3e88f5917a)">
     <use style="fill:#ff8000;stroke:#000000;" x="328.257286" xlink:href="#C0_0_3c6dfe2c81" y="91.644184"/>
    </g>
    <g clip-path="url(#p3e88f5917a)">
     <use style="fill:#1e90ff;stroke:#000000;" x="242.775808" xlink:href="#C0_0_3c6dfe2c81" y="203.227494"/>
    </g>
    <g clip-path="url(#p3e88f5917a)">
     <use style="fill:#ff8000;stroke:#000000;" x="213.781066" xlink:href="#C0_0_3c6dfe2c81" y="102.958878"/>
    </g>
    <g clip-path="url(#p3e88f5917a)">
     <use style="fill:#1e90ff;stroke:#000000;" x="266.263613" xlink:href="#C0_0_3c6dfe2c81" y="194.872511"/>
    </g>
    <g clip-path="url(#p3e88f5917a)">
     <use style="fill:#ff8000;stroke:#000000;" x="232.000747" xlink:href="#C0_0_3c6dfe2c81" y="167.060425"/>
    </g>
    <g clip-path="url(#p3e88f5917a)">
     <use style="fill:#1e90ff;stroke:#000000;" x="131.052865" xlink:href="#C0_0_3c6dfe2c81" y="100.892867"/>
    </g>
    <g clip-path="url(#p3e88f5917a)">
     <use style="fill:#ff8000;stroke:#000000;" x="329.147836" xlink:href="#C0_0_3c6dfe2c81" y="80.782267"/>
    </g>
    <g clip-path="url(#p3e88f5917a)">
     <use style="fill:#1e90ff;stroke:#000000;" x="184.449219" xlink:href="#C0_0_3c6dfe2c81" y="83.350238"/>
    </g>
    <g clip-path="url(#p3e88f5917a)">
     <use style="fill:#1e90ff;stroke:#000000;" x="275.238076" xlink:href="#C0_0_3c6dfe2c81" y="133.089361"/>
    </g>
    <g clip-path="url(#p3e88f5917a)">
     <use style="fill:#1e90ff;stroke:#000000;" x="234.02649" xlink:href="#C0_0_3c6dfe2c81" y="105.863631"/>
    </g>
    <g clip-path="url(#p3e88f5917a)">
     <use style="fill:#ff8000;stroke:#000000;" x="215.38445" xlink:href="#C0_0_3c6dfe2c81" y="192.478935"/>
    </g>
    <g clip-path="url(#p3e88f5917a)">
     <use style="fill:#1e90ff;stroke:#000000;" x="253.668697" xlink:href="#C0_0_3c6dfe2c81" y="190.771639"/>
    </g>
    <g clip-path="url(#p3e88f5917a)">
     <use style="fill:#ff8000;stroke:#000000;" x="281.921126" xlink:href="#C0_0_3c6dfe2c81" y="72.445939"/>
    </g>
    <g clip-path="url(#p3e88f5917a)">
     <use style="fill:#1e90ff;stroke:#000000;" x="146.245317" xlink:href="#C0_0_3c6dfe2c81" y="130.361759"/>
    </g>
    <g clip-path="url(#p3e88f5917a)">
     <use style="fill:#ff8000;stroke:#000000;" x="159.215449" xlink:href="#C0_0_3c6dfe2c81" y="214.23588"/>
    </g>
    <g clip-path="url(#p3e88f5917a)">
     <use style="fill:#1e90ff;stroke:#000000;" x="321.713547" xlink:href="#C0_0_3c6dfe2c81" y="171.467786"/>
    </g>
    <g clip-path="url(#p3e88f5917a)">
     <use style="fill:#ff8000;stroke:#000000;" x="244.30671" xlink:href="#C0_0_3c6dfe2c81" y="93.544166"/>
    </g>
    <g clip-path="url(#p3e88f5917a)">
     <use style="fill:#1e90ff;stroke:#000000;" x="297.208453" xlink:href="#C0_0_3c6dfe2c81" y="157.040552"/>
    </g>
    <g clip-path="url(#p3e88f5917a)">
     <use style="fill:#ff8000;stroke:#000000;" x="306.836734" xlink:href="#C0_0_3c6dfe2c81" y="70.204208"/>
    </g>
    <g clip-path="url(#p3e88f5917a)">
     <use style="fill:#ff8000;stroke:#000000;" x="322.780155" xlink:href="#C0_0_3c6dfe2c81" y="86.916145"/>
    </g>
    <g clip-path="url(#p3e88f5917a)">
     <use style="fill:#1e90ff;stroke:#000000;" x="327.558204" xlink:href="#C0_0_3c6dfe2c81" y="206.151088"/>
    </g>
    <g clip-path="url(#p3e88f5917a)">
     <use style="fill:#ff8000;stroke:#000000;" x="338.11715" xlink:href="#C0_0_3c6dfe2c81" y="95.756685"/>
    </g>
    <g clip-path="url(#p3e88f5917a)">
     <use style="fill:#1e90ff;stroke:#000000;" x="263.118831" xlink:href="#C0_0_3c6dfe2c81" y="123.280991"/>
    </g>
    <g clip-path="url(#p3e88f5917a)">
     <use style="fill:#1e90ff;stroke:#000000;" x="218.32719" xlink:href="#C0_0_3c6dfe2c81" y="179.756969"/>
    </g>
    <g clip-path="url(#p3e88f5917a)">
     <use style="fill:#ff8000;stroke:#000000;" x="324.588382" xlink:href="#C0_0_3c6dfe2c81" y="72.65937"/>
    </g>
    <g clip-path="url(#p3e88f5917a)">
     <use style="fill:#1e90ff;stroke:#000000;" x="131.71279" xlink:href="#C0_0_3c6dfe2c81" y="102.985764"/>
    </g>
    <g clip-path="url(#p3e88f5917a)">
     <use style="fill:#1e90ff;stroke:#000000;" x="140.554638" xlink:href="#C0_0_3c6dfe2c81" y="114.614611"/>
    </g>
    <g clip-path="url(#p3e88f5917a)">
     <use style="fill:#ff8000;stroke:#000000;" x="162.380927" xlink:href="#C0_0_3c6dfe2c81" y="140.166989"/>
    </g>
    <g clip-path="url(#p3e88f5917a)">
     <use style="fill:#ff8000;stroke:#000000;" x="207.395101" xlink:href="#C0_0_3c6dfe2c81" y="115.756511"/>
    </g>
    <g clip-path="url(#p3e88f5917a)">
     <use style="fill:#ff8000;stroke:#000000;" x="192.668903" xlink:href="#C0_0_3c6dfe2c81" y="117.75543"/>
    </g>
    <g clip-path="url(#p3e88f5917a)">
     <use style="fill:#1e90ff;stroke:#000000;" x="319.011011" xlink:href="#C0_0_3c6dfe2c81" y="182.853005"/>
    </g>
    <g clip-path="url(#p3e88f5917a)">
     <use style="fill:#ff8000;stroke:#000000;" x="321.848843" xlink:href="#C0_0_3c6dfe2c81" y="101.781235"/>
    </g>
    <g clip-path="url(#p3e88f5917a)">
     <use style="fill:#1e90ff;stroke:#000000;" x="308.538243" xlink:href="#C0_0_3c6dfe2c81" y="194.831551"/>
    </g>
    <g clip-path="url(#p3e88f5917a)">
     <use style="fill:#ff8000;stroke:#000000;" x="312.2525" xlink:href="#C0_0_3c6dfe2c81" y="95.234386"/>
    </g>
    <g clip-path="url(#p3e88f5917a)">
     <use style="fill:#ff8000;stroke:#000000;" x="323.886121" xlink:href="#C0_0_3c6dfe2c81" y="90.268108"/>
    </g>
    <g clip-path="url(#p3e88f5917a)">
     <use style="fill:#ff8000;stroke:#000000;" x="296.734695" xlink:href="#C0_0_3c6dfe2c81" y="134.463913"/>
    </g>
    <g clip-path="url(#p3e88f5917a)">
     <use style="fill:#1e90ff;stroke:#000000;" x="215.601486" xlink:href="#C0_0_3c6dfe2c81" y="179.218397"/>
    </g>
    <g clip-path="url(#p3e88f5917a)">
     <use style="fill:#ff8000;stroke:#000000;" x="254.332496" xlink:href="#C0_0_3c6dfe2c81" y="167.935357"/>
    </g>
    <g clip-path="url(#p3e88f5917a)">
     <use style="fill:#ff8000;stroke:#000000;" x="184.596025" xlink:href="#C0_0_3c6dfe2c81" y="119.170279"/>
    </g>
    <g clip-path="url(#p3e88f5917a)">
     <use style="fill:#ff8000;stroke:#000000;" x="308.535382" xlink:href="#C0_0_3c6dfe2c81" y="87.633557"/>
    </g>
    <g clip-path="url(#p3e88f5917a)">
     <use style="fill:#ff8000;stroke:#000000;" x="148.639787" xlink:href="#C0_0_3c6dfe2c81" y="205.928296"/>
    </g>
    <g clip-path="url(#p3e88f5917a)">
     <use style="fill:#1e90ff;stroke:#000000;" x="245.735783" xlink:href="#C0_0_3c6dfe2c81" y="196.044307"/>
    </g>
    <g clip-path="url(#p3e88f5917a)">
     <use style="fill:#1e90ff;stroke:#000000;" x="268.731904" xlink:href="#C0_0_3c6dfe2c81" y="131.662099"/>
    </g>
    <g clip-path="url(#p3e88f5917a)">
     <use style="fill:#1e90ff;stroke:#000000;" x="276.801162" xlink:href="#C0_0_3c6dfe2c81" y="137.797812"/>
    </g>
    <g clip-path="url(#p3e88f5917a)">
     <use style="fill:#ff8000;stroke:#000000;" x="128.735683" xlink:href="#C0_0_3c6dfe2c81" y="208.965963"/>
    </g>
    <g clip-path="url(#p3e88f5917a)">
     <use style="fill:#ff8000;stroke:#000000;" x="169.898929" xlink:href="#C0_0_3c6dfe2c81" y="211.5625"/>
    </g>
    <g clip-path="url(#p3e88f5917a)">
     <use style="fill:#ff8000;stroke:#000000;" x="326.976937" xlink:href="#C0_0_3c6dfe2c81" y="96.124057"/>
    </g>
    <g clip-path="url(#p3e88f5917a)">
     <use style="fill:#1e90ff;stroke:#000000;" x="248.13201" xlink:href="#C0_0_3c6dfe2c81" y="193.048322"/>
    </g>
    <g clip-path="url(#p3e88f5917a)">
     <use style="fill:#ff8000;stroke:#000000;" x="134.939145" xlink:href="#C0_0_3c6dfe2c81" y="173.588995"/>
    </g>
    <g clip-path="url(#p3e88f5917a)">
     <use style="fill:#ff8000;stroke:#000000;" x="336.99052" xlink:href="#C0_0_3c6dfe2c81" y="96.097463"/>
    </g>
    <g clip-path="url(#p3e88f5917a)">
     <use style="fill:#1e90ff;stroke:#000000;" x="196.579278" xlink:href="#C0_0_3c6dfe2c81" y="86.195251"/>
    </g>
    <g clip-path="url(#p3e88f5917a)">
     <use style="fill:#1e90ff;stroke:#000000;" x="170.82103" xlink:href="#C0_0_3c6dfe2c81" y="93.339488"/>
    </g>
    <g clip-path="url(#p3e88f5917a)">
     <use style="fill:#ff8000;stroke:#000000;" x="127.063571" xlink:href="#C0_0_3c6dfe2c81" y="186.628224"/>
    </g>
    <g clip-path="url(#p3e88f5917a)">
     <use style="fill:#ff8000;stroke:#000000;" x="125.859508" xlink:href="#C0_0_3c6dfe2c81" y="200.539892"/>
    </g>
    <g clip-path="url(#p3e88f5917a)">
     <use style="fill:#1e90ff;stroke:#000000;" x="321.183603" xlink:href="#C0_0_3c6dfe2c81" y="196.131912"/>
    </g>
    <g clip-path="url(#p3e88f5917a)">
     <use style="fill:#ff8000;stroke:#000000;" x="283.767757" xlink:href="#C0_0_3c6dfe2c81" y="70.668459"/>
    </g>
    <g clip-path="url(#p3e88f5917a)">
     <use style="fill:#1e90ff;stroke:#000000;" x="306.393214" xlink:href="#C0_0_3c6dfe2c81" y="151.643883"/>
    </g>
    <g clip-path="url(#p3e88f5917a)">
     <use style="fill:#1e90ff;stroke:#000000;" x="321.720764" xlink:href="#C0_0_3c6dfe2c81" y="203.747776"/>
    </g>
    <g clip-path="url(#p3e88f5917a)">
     <use style="fill:#ff8000;stroke:#000000;" x="137.522265" xlink:href="#C0_0_3c6dfe2c81" y="219.58873"/>
    </g>
    <g clip-path="url(#p3e88f5917a)">
     <use style="fill:#1e90ff;stroke:#000000;" x="115.518423" xlink:href="#C0_0_3c6dfe2c81" y="77.428929"/>
    </g>
    <g clip-path="url(#p3e88f5917a)">
     <use style="fill:#1e90ff;stroke:#000000;" x="299.503437" xlink:href="#C0_0_3c6dfe2c81" y="211.884001"/>
    </g>
    <g clip-path="url(#p3e88f5917a)">
     <use style="fill:#ff8000;stroke:#000000;" x="165.200132" xlink:href="#C0_0_3c6dfe2c81" y="202.277193"/>
    </g>
    <g clip-path="url(#p3e88f5917a)">
     <use style="fill:#ff8000;stroke:#000000;" x="127.063059" xlink:href="#C0_0_3c6dfe2c81" y="185.485431"/>
    </g>
    <g clip-path="url(#p3e88f5917a)">
     <use style="fill:#ff8000;stroke:#000000;" x="109.598952" xlink:href="#C0_0_3c6dfe2c81" y="207.75898"/>
    </g>
    <g clip-path="url(#p3e88f5917a)">
     <use style="fill:#ff8000;stroke:#000000;" x="121.422798" xlink:href="#C0_0_3c6dfe2c81" y="194.345177"/>
    </g>
    <g clip-path="url(#p3e88f5917a)">
     <use style="fill:#ff8000;stroke:#000000;" x="298.793484" xlink:href="#C0_0_3c6dfe2c81" y="73.601601"/>
    </g>
    <g clip-path="url(#p3e88f5917a)">
     <use style="fill:#1e90ff;stroke:#000000;" x="269.542363" xlink:href="#C0_0_3c6dfe2c81" y="130.569884"/>
    </g>
    <g clip-path="url(#p3e88f5917a)">
     <use style="fill:#ff8000;stroke:#000000;" x="184.834555" xlink:href="#C0_0_3c6dfe2c81" y="128.669151"/>
    </g>
    <g clip-path="url(#p3e88f5917a)">
     <use style="fill:#1e90ff;stroke:#000000;" x="144.505474" xlink:href="#C0_0_3c6dfe2c81" y="114.256697"/>
    </g>
    <g clip-path="url(#p3e88f5917a)">
     <use style="fill:#ff8000;stroke:#000000;" x="136.881357" xlink:href="#C0_0_3c6dfe2c81" y="181.035904"/>
    </g>
    <g clip-path="url(#p3e88f5917a)">
     <use style="fill:#ff8000;stroke:#000000;" x="176.178905" xlink:href="#C0_0_3c6dfe2c81" y="206.884898"/>
    </g>
    <g clip-path="url(#p3e88f5917a)">
     <use style="fill:#ff8000;stroke:#000000;" x="136.882164" xlink:href="#C0_0_3c6dfe2c81" y="166.514229"/>
    </g>
    <g clip-path="url(#p3e88f5917a)">
     <use style="fill:#ff8000;stroke:#000000;" x="131.341589" xlink:href="#C0_0_3c6dfe2c81" y="174.686466"/>
    </g>
    <g clip-path="url(#p3e88f5917a)">
     <use style="fill:#1e90ff;stroke:#000000;" x="287.638099" xlink:href="#C0_0_3c6dfe2c81" y="196.919318"/>
    </g>
    <g clip-path="url(#p3e88f5917a)">
     <use style="fill:#ff8000;stroke:#000000;" x="320.321581" xlink:href="#C0_0_3c6dfe2c81" y="118.590694"/>
    </g>
    <g clip-path="url(#p3e88f5917a)">
     <use style="fill:#1e90ff;stroke:#000000;" x="313.870697" xlink:href="#C0_0_3c6dfe2c81" y="173.936279"/>
    </g>
    <g clip-path="url(#p3e88f5917a)">
     <use style="fill:#1e90ff;stroke:#000000;" x="177.853397" xlink:href="#C0_0_3c6dfe2c81" y="151.220982"/>
    </g>
    <g clip-path="url(#p3e88f5917a)">
     <use style="fill:#ff8000;stroke:#000000;" x="115.522126" xlink:href="#C0_0_3c6dfe2c81" y="208.56299"/>
    </g>
    <g clip-path="url(#p3e88f5917a)">
     <use style="fill:#1e90ff;stroke:#000000;" x="312.810716" xlink:href="#C0_0_3c6dfe2c81" y="184.312368"/>
    </g>
    <g clip-path="url(#p3e88f5917a)">
     <use style="fill:#1e90ff;stroke:#000000;" x="309.261407" xlink:href="#C0_0_3c6dfe2c81" y="211.235538"/>
    </g>
    <g clip-path="url(#p3e88f5917a)">
     <use style="fill:#1e90ff;stroke:#000000;" x="204.649044" xlink:href="#C0_0_3c6dfe2c81" y="172.948407"/>
    </g>
    <g clip-path="url(#p3e88f5917a)">
     <use style="fill:#ff8000;stroke:#000000;" x="230.610871" xlink:href="#C0_0_3c6dfe2c81" y="182.301432"/>
    </g>
    <g clip-path="url(#p3e88f5917a)">
     <use style="fill:#1e90ff;stroke:#000000;" x="260.35095" xlink:href="#C0_0_3c6dfe2c81" y="118.818657"/>
    </g>
    <g clip-path="url(#p3e88f5917a)">
     <use style="fill:#1e90ff;stroke:#000000;" x="328.931084" xlink:href="#C0_0_3c6dfe2c81" y="219.671971"/>
    </g>
    <g clip-path="url(#p3e88f5917a)">
     <use style="fill:#1e90ff;stroke:#000000;" x="179.519233" xlink:href="#C0_0_3c6dfe2c81" y="159.225089"/>
    </g>
    <g clip-path="url(#p3e88f5917a)">
     <use style="fill:#1e90ff;stroke:#000000;" x="136.953122" xlink:href="#C0_0_3c6dfe2c81" y="117.744682"/>
    </g>
    <g clip-path="url(#p3e88f5917a)">
     <use style="fill:#1e90ff;stroke:#000000;" x="282.18417" xlink:href="#C0_0_3c6dfe2c81" y="137.170588"/>
    </g>
    <g clip-path="url(#p3e88f5917a)">
     <use style="fill:#ff8000;stroke:#000000;" x="305.796673" xlink:href="#C0_0_3c6dfe2c81" y="130.271161"/>
    </g>
    <g clip-path="url(#p3e88f5917a)">
     <use style="fill:#1e90ff;stroke:#000000;" x="313.34771" xlink:href="#C0_0_3c6dfe2c81" y="204.964375"/>
    </g>
    <g clip-path="url(#p3e88f5917a)">
     <use style="fill:#1e90ff;stroke:#000000;" x="286.605578" xlink:href="#C0_0_3c6dfe2c81" y="135.958189"/>
    </g>
    <g clip-path="url(#p3e88f5917a)">
     <use style="fill:#1e90ff;stroke:#000000;" x="262.400076" xlink:href="#C0_0_3c6dfe2c81" y="122.275759"/>
    </g>
    <g clip-path="url(#p3e88f5917a)">
     <use style="fill:#ff8000;stroke:#000000;" x="291.967018" xlink:href="#C0_0_3c6dfe2c81" y="81.025746"/>
    </g>
    <g clip-path="url(#p3e88f5917a)">
     <use style="fill:#ff8000;stroke:#000000;" x="184.001221" xlink:href="#C0_0_3c6dfe2c81" y="139.193397"/>
    </g>
    <g clip-path="url(#p3e88f5917a)">
     <use style="fill:#ff8000;stroke:#000000;" x="281.616808" xlink:href="#C0_0_3c6dfe2c81" y="84.259844"/>
    </g>
    <g clip-path="url(#p3e88f5917a)">
     <use style="fill:#ff8000;stroke:#000000;" x="278.66364" xlink:href="#C0_0_3c6dfe2c81" y="81.121924"/>
    </g>
    <g clip-path="url(#p3e88f5917a)">
     <use style="fill:#ff8000;stroke:#000000;" x="290.291203" xlink:href="#C0_0_3c6dfe2c81" y="132.690021"/>
    </g>
    <g clip-path="url(#p3e88f5917a)">
     <use style="fill:#1e90ff;stroke:#000000;" x="122.17491" xlink:href="#C0_0_3c6dfe2c81" y="76.736934"/>
    </g>
    <g clip-path="url(#p3e88f5917a)">
     <use style="fill:#1e90ff;stroke:#000000;" x="129.069573" xlink:href="#C0_0_3c6dfe2c81" y="89.959477"/>
    </g>
    <g clip-path="url(#p3e88f5917a)">
     <use style="fill:#1e90ff;stroke:#000000;" x="329.55346" xlink:href="#C0_0_3c6dfe2c81" y="172.877477"/>
    </g>
    <g clip-path="url(#p3e88f5917a)">
     <use style="fill:#1e90ff;stroke:#000000;" x="224.797684" xlink:href="#C0_0_3c6dfe2c81" y="185.851991"/>
    </g>
    <g clip-path="url(#p3e88f5917a)">
     <use style="fill:#ff8000;stroke:#000000;" x="118.481615" xlink:href="#C0_0_3c6dfe2c81" y="195.884563"/>
    </g>
    <g clip-path="url(#p3e88f5917a)">
     <use style="fill:#ff8000;stroke:#000000;" x="245.545956" xlink:href="#C0_0_3c6dfe2c81" y="92.394501"/>
    </g>
    <g clip-path="url(#p3e88f5917a)">
     <use style="fill:#1e90ff;stroke:#000000;" x="301.428715" xlink:href="#C0_0_3c6dfe2c81" y="210.616823"/>
    </g>
    <g clip-path="url(#p3e88f5917a)">
     <use style="fill:#1e90ff;stroke:#000000;" x="137.610577" xlink:href="#C0_0_3c6dfe2c81" y="69.334667"/>
    </g>
    <g clip-path="url(#p3e88f5917a)">
     <use style="fill:#ff8000;stroke:#000000;" x="141.698607" xlink:href="#C0_0_3c6dfe2c81" y="205.470357"/>
    </g>
    <g clip-path="url(#p3e88f5917a)">
     <use style="fill:#ff8000;stroke:#000000;" x="255.553705" xlink:href="#C0_0_3c6dfe2c81" y="85.447288"/>
    </g>
    <g clip-path="url(#p3e88f5917a)">
     <use style="fill:#ff8000;stroke:#000000;" x="318.820838" xlink:href="#C0_0_3c6dfe2c81" y="82.380896"/>
    </g>
    <g clip-path="url(#p3e88f5917a)">
     <use style="fill:#1e90ff;stroke:#000000;" x="168.896602" xlink:href="#C0_0_3c6dfe2c81" y="133.904535"/>
    </g>
    <g clip-path="url(#p3e88f5917a)">
     <use style="fill:#ff8000;stroke:#000000;" x="249.663594" xlink:href="#C0_0_3c6dfe2c81" y="86.674774"/>
    </g>
    <g clip-path="url(#p3e88f5917a)">
     <use style="fill:#1e90ff;stroke:#000000;" x="297.731816" xlink:href="#C0_0_3c6dfe2c81" y="154.731248"/>
    </g>
    <g clip-path="url(#p3e88f5917a)">
     <use style="fill:#1e90ff;stroke:#000000;" x="130.077145" xlink:href="#C0_0_3c6dfe2c81" y="83.855793"/>
    </g>
    <g clip-path="url(#p3e88f5917a)">
     <use style="fill:#1e90ff;stroke:#000000;" x="162.553054" xlink:href="#C0_0_3c6dfe2c81" y="132.199434"/>
    </g>
    <g clip-path="url(#p3e88f5917a)">
     <use style="fill:#1e90ff;stroke:#000000;" x="191.268539" xlink:href="#C0_0_3c6dfe2c81" y="166.327287"/>
    </g>
    <g clip-path="url(#p3e88f5917a)">
     <use style="fill:#1e90ff;stroke:#000000;" x="318.468242" xlink:href="#C0_0_3c6dfe2c81" y="171.183826"/>
    </g>
    <g clip-path="url(#p3e88f5917a)">
     <use style="fill:#1e90ff;stroke:#000000;" x="146.898732" xlink:href="#C0_0_3c6dfe2c81" y="136.048991"/>
    </g>
    <g clip-path="url(#p3e88f5917a)">
     <use style="fill:#ff8000;stroke:#000000;" x="217.904069" xlink:href="#C0_0_3c6dfe2c81" y="177.90857"/>
    </g>
    <g clip-path="url(#p3e88f5917a)">
     <use style="fill:#1e90ff;stroke:#000000;" x="127.547586" xlink:href="#C0_0_3c6dfe2c81" y="66.046147"/>
    </g>
    <g clip-path="url(#p3e88f5917a)">
     <use style="fill:#1e90ff;stroke:#000000;" x="221.948348" xlink:href="#C0_0_3c6dfe2c81" y="179.92633"/>
    </g>
    <g clip-path="url(#p3e88f5917a)">
     <use style="fill:#ff8000;stroke:#000000;" x="123.234599" xlink:href="#C0_0_3c6dfe2c81" y="171.58557"/>
    </g>
    <g clip-path="url(#p3e88f5917a)">
     <use style="fill:#ff8000;stroke:#000000;" x="297.967222" xlink:href="#C0_0_3c6dfe2c81" y="73.824606"/>
    </g>
    <g clip-path="url(#p3e88f5917a)">
     <use style="fill:#1e90ff;stroke:#000000;" x="234.994629" xlink:href="#C0_0_3c6dfe2c81" y="185.123038"/>
    </g>
    <g clip-path="url(#p3e88f5917a)">
     <use style="fill:#1e90ff;stroke:#000000;" x="313.62013" xlink:href="#C0_0_3c6dfe2c81" y="201.011618"/>
    </g>
    <g clip-path="url(#p3e88f5917a)">
     <use style="fill:#ff8000;stroke:#000000;" x="235.020858" xlink:href="#C0_0_3c6dfe2c81" y="93.47304"/>
    </g>
    <g clip-path="url(#p3e88f5917a)">
     <use style="fill:#1e90ff;stroke:#000000;" x="256.964152" xlink:href="#C0_0_3c6dfe2c81" y="202.000358"/>
    </g>
    <g clip-path="url(#p3e88f5917a)">
     <use style="fill:#1e90ff;stroke:#000000;" x="296.367039" xlink:href="#C0_0_3c6dfe2c81" y="138.862077"/>
    </g>
    <g clip-path="url(#p3e88f5917a)">
     <use style="fill:#ff8000;stroke:#000000;" x="192.996008" xlink:href="#C0_0_3c6dfe2c81" y="201.332367"/>
    </g>
    <g clip-path="url(#p3e88f5917a)">
     <use style="fill:#ff8000;stroke:#000000;" x="320.015092" xlink:href="#C0_0_3c6dfe2c81" y="72.456093"/>
    </g>
    <g clip-path="url(#p3e88f5917a)">
     <use style="fill:#ff8000;stroke:#000000;" x="146.243489" xlink:href="#C0_0_3c6dfe2c81" y="161.709992"/>
    </g>
    <g clip-path="url(#p3e88f5917a)">
     <use style="fill:#ff8000;stroke:#000000;" x="228.336315" xlink:href="#C0_0_3c6dfe2c81" y="102.951575"/>
    </g>
    <g clip-path="url(#p3e88f5917a)">
     <use style="fill:#1e90ff;stroke:#000000;" x="294.684679" xlink:href="#C0_0_3c6dfe2c81" y="209.967809"/>
    </g>
    <g clip-path="url(#p3e88f5917a)">
     <use style="fill:#1e90ff;stroke:#000000;" x="132.585583" xlink:href="#C0_0_3c6dfe2c81" y="84.113612"/>
    </g>
    <g clip-path="url(#p3e88f5917a)">
     <use style="fill:#1e90ff;stroke:#000000;" x="141.207559" xlink:href="#C0_0_3c6dfe2c81" y="69.304965"/>
    </g>
    <g clip-path="url(#p3e88f5917a)">
     <use style="fill:#ff8000;stroke:#000000;" x="238.248079" xlink:href="#C0_0_3c6dfe2c81" y="170.740197"/>
    </g>
    <g clip-path="url(#p3e88f5917a)">
     <use style="fill:#ff8000;stroke:#000000;" x="329.685763" xlink:href="#C0_0_3c6dfe2c81" y="84.330851"/>
    </g>
    <g clip-path="url(#p3e88f5917a)">
     <use style="fill:#1e90ff;stroke:#000000;" x="120.379774" xlink:href="#C0_0_3c6dfe2c81" y="76.168418"/>
    </g>
    <g clip-path="url(#p3e88f5917a)">
     <use style="fill:#1e90ff;stroke:#000000;" x="176.457072" xlink:href="#C0_0_3c6dfe2c81" y="78.634739"/>
    </g>
    <g clip-path="url(#p3e88f5917a)">
     <use style="fill:#ff8000;stroke:#000000;" x="168.048953" xlink:href="#C0_0_3c6dfe2c81" y="200.662261"/>
    </g>
    <g clip-path="url(#p3e88f5917a)">
     <use style="fill:#1e90ff;stroke:#000000;" x="288.631927" xlink:href="#C0_0_3c6dfe2c81" y="140.882771"/>
    </g>
    <g clip-path="url(#p3e88f5917a)">
     <use style="fill:#ff8000;stroke:#000000;" x="211.122995" xlink:href="#C0_0_3c6dfe2c81" y="186.36306"/>
    </g>
    <g clip-path="url(#p3e88f5917a)">
     <use style="fill:#1e90ff;stroke:#000000;" x="294.299662" xlink:href="#C0_0_3c6dfe2c81" y="216.928342"/>
    </g>
    <g clip-path="url(#p3e88f5917a)">
     <use style="fill:#ff8000;stroke:#000000;" x="127.782873" xlink:href="#C0_0_3c6dfe2c81" y="168.037103"/>
    </g>
    <g clip-path="url(#p3e88f5917a)">
     <use style="fill:#1e90ff;stroke:#000000;" x="129.917919" xlink:href="#C0_0_3c6dfe2c81" y="86.755423"/>
    </g>
    <g clip-path="url(#p3e88f5917a)">
     <use style="fill:#1e90ff;stroke:#000000;" x="208.480953" xlink:href="#C0_0_3c6dfe2c81" y="96.263709"/>
    </g>
    <g clip-path="url(#p3e88f5917a)">
     <use style="fill:#ff8000;stroke:#000000;" x="143.080066" xlink:href="#C0_0_3c6dfe2c81" y="159.203311"/>
    </g>
    <g clip-path="url(#p3e88f5917a)">
     <use style="fill:#1e90ff;stroke:#000000;" x="287.070093" xlink:href="#C0_0_3c6dfe2c81" y="208.980445"/>
    </g>
    <g clip-path="url(#p3e88f5917a)">
     <use style="fill:#1e90ff;stroke:#000000;" x="263.70192" xlink:href="#C0_0_3c6dfe2c81" y="196.613496"/>
    </g>
    <g clip-path="url(#p3e88f5917a)">
     <use style="fill:#ff8000;stroke:#000000;" x="124.066797" xlink:href="#C0_0_3c6dfe2c81" y="193.907411"/>
    </g>
    <g clip-path="url(#p3e88f5917a)">
     <use style="fill:#1e90ff;stroke:#000000;" x="188.830073" xlink:href="#C0_0_3c6dfe2c81" y="161.696262"/>
    </g>
    <g clip-path="url(#p3e88f5917a)">
     <use style="fill:#ff8000;stroke:#000000;" x="298.524069" xlink:href="#C0_0_3c6dfe2c81" y="137.08595"/>
    </g>
    <g clip-path="url(#p3e88f5917a)">
     <use style="fill:#ff8000;stroke:#000000;" x="339.843272" xlink:href="#C0_0_3c6dfe2c81" y="83.577597"/>
    </g>
    <g clip-path="url(#p3e88f5917a)">
     <use style="fill:#1e90ff;stroke:#000000;" x="124.597974" xlink:href="#C0_0_3c6dfe2c81" y="115.213439"/>
    </g>
    <g clip-path="url(#p3e88f5917a)">
     <use style="fill:#1e90ff;stroke:#000000;" x="157.15284" xlink:href="#C0_0_3c6dfe2c81" y="103.01023"/>
    </g>
    <g clip-path="url(#p3e88f5917a)">
     <use style="fill:#ff8000;stroke:#000000;" x="141.506149" xlink:href="#C0_0_3c6dfe2c81" y="216.925778"/>
    </g>
    <g clip-path="url(#p3e88f5917a)">
     <use style="fill:#1e90ff;stroke:#000000;" x="110.219079" xlink:href="#C0_0_3c6dfe2c81" y="86.465093"/>
    </g>
    <g clip-path="url(#p3e88f5917a)">
     <use style="fill:#ff8000;stroke:#000000;" x="337.550083" xlink:href="#C0_0_3c6dfe2c81" y="88.349367"/>
    </g>
    <g clip-path="url(#p3e88f5917a)">
     <use style="fill:#ff8000;stroke:#000000;" x="262.154249" xlink:href="#C0_0_3c6dfe2c81" y="85.267622"/>
    </g>
    <g clip-path="url(#p3e88f5917a)">
     <use style="fill:#1e90ff;stroke:#000000;" x="120.051184" xlink:href="#C0_0_3c6dfe2c81" y="68.384892"/>
    </g>
    <g clip-path="url(#p3e88f5917a)">
     <use style="fill:#ff8000;stroke:#000000;" x="100.5" xlink:href="#C0_0_3c6dfe2c81" y="204.916435"/>
    </g>
    <g clip-path="url(#p3e88f5917a)">
     <use style="fill:#1e90ff;stroke:#000000;" x="142.950904" xlink:href="#C0_0_3c6dfe2c81" y="76.761095"/>
    </g>
    <g clip-path="url(#p3e88f5917a)">
     <use style="fill:#ff8000;stroke:#000000;" x="132.154152" xlink:href="#C0_0_3c6dfe2c81" y="208.729062"/>
    </g>
    <g clip-path="url(#p3e88f5917a)">
     <use style="fill:#1e90ff;stroke:#000000;" x="345.674556" xlink:href="#C0_0_3c6dfe2c81" y="200.78213"/>
    </g>
    <g clip-path="url(#p3e88f5917a)">
     <use style="fill:#1e90ff;stroke:#000000;" x="222.806201" xlink:href="#C0_0_3c6dfe2c81" y="179.71691"/>
    </g>
    <g clip-path="url(#p3e88f5917a)">
     <use style="fill:#ff8000;stroke:#000000;" x="158.193069" xlink:href="#C0_0_3c6dfe2c81" y="208.77205"/>
    </g>
    <g clip-path="url(#p3e88f5917a)">
     <use style="fill:#1e90ff;stroke:#000000;" x="223.93837" xlink:href="#C0_0_3c6dfe2c81" y="181.54551"/>
    </g>
    <g clip-path="url(#p3e88f5917a)">
     <use style="fill:#1e90ff;stroke:#000000;" x="120.236686" xlink:href="#C0_0_3c6dfe2c81" y="116.038282"/>
    </g>
    <g clip-path="url(#p3e88f5917a)">
     <use style="fill:#1e90ff;stroke:#000000;" x="119.663776" xlink:href="#C0_0_3c6dfe2c81" y="78.693691"/>
    </g>
    <g clip-path="url(#p3e88f5917a)">
     <use style="fill:#ff8000;stroke:#000000;" x="217.72024" xlink:href="#C0_0_3c6dfe2c81" y="96.647604"/>
    </g>
    <g clip-path="url(#p3e88f5917a)">
     <use style="fill:#ff8000;stroke:#000000;" x="308.219538" xlink:href="#C0_0_3c6dfe2c81" y="120.257378"/>
    </g>
    <g clip-path="url(#p3e88f5917a)">
     <use style="fill:#1e90ff;stroke:#000000;" x="328.47977" xlink:href="#C0_0_3c6dfe2c81" y="203.253798"/>
    </g>
    <g clip-path="url(#p3e88f5917a)">
     <use style="fill:#ff8000;stroke:#000000;" x="317.708181" xlink:href="#C0_0_3c6dfe2c81" y="105.713429"/>
    </g>
    <g clip-path="url(#p3e88f5917a)">
     <use style="fill:#ff8000;stroke:#000000;" x="182.926938" xlink:href="#C0_0_3c6dfe2c81" y="135.676094"/>
    </g>
    <g clip-path="url(#p3e88f5917a)">
     <use style="fill:#1e90ff;stroke:#000000;" x="224.092669" xlink:href="#C0_0_3c6dfe2c81" y="101.523686"/>
    </g>
    <g clip-path="url(#p3e88f5917a)">
     <use style="fill:#1e90ff;stroke:#000000;" x="237.901757" xlink:href="#C0_0_3c6dfe2c81" y="192.934479"/>
    </g>
    <g clip-path="url(#p3e88f5917a)">
     <use style="fill:#1e90ff;stroke:#000000;" x="320.84245" xlink:href="#C0_0_3c6dfe2c81" y="190.448767"/>
    </g>
    <g clip-path="url(#p3e88f5917a)">
     <use style="fill:#1e90ff;stroke:#000000;" x="125.416338" xlink:href="#C0_0_3c6dfe2c81" y="108.087592"/>
    </g>
    <g clip-path="url(#p3e88f5917a)">
     <use style="fill:#1e90ff;stroke:#000000;" x="207.580914" xlink:href="#C0_0_3c6dfe2c81" y="175.608755"/>
    </g>
    <g clip-path="url(#p3e88f5917a)">
     <use style="fill:#1e90ff;stroke:#000000;" x="319.551306" xlink:href="#C0_0_3c6dfe2c81" y="198.230041"/>
    </g>
    <g clip-path="url(#p3e88f5917a)">
     <use style="fill:#ff8000;stroke:#000000;" x="282.721267" xlink:href="#C0_0_3c6dfe2c81" y="145.316157"/>
    </g>
    <g clip-path="url(#p3e88f5917a)">
     <use style="fill:#1e90ff;stroke:#000000;" x="229.900091" xlink:href="#C0_0_3c6dfe2c81" y="184.252411"/>
    </g>
    <g clip-path="url(#p3e88f5917a)">
     <use style="fill:#1e90ff;stroke:#000000;" x="116.619135" xlink:href="#C0_0_3c6dfe2c81" y="99.582905"/>
    </g>
    <g clip-path="url(#p3e88f5917a)">
     <use style="fill:#1e90ff;stroke:#000000;" x="246.619474" xlink:href="#C0_0_3c6dfe2c81" y="111.028282"/>
    </g>
    <g clip-path="url(#p3e88f5917a)">
     <use style="fill:#ff8000;stroke:#000000;" x="190.819309" xlink:href="#C0_0_3c6dfe2c81" y="198.592618"/>
    </g>
    <g clip-path="url(#p3e88f5917a)">
     <use style="fill:#1e90ff;stroke:#000000;" x="131.666491" xlink:href="#C0_0_3c6dfe2c81" y="86.260849"/>
    </g>
    <g clip-path="url(#p3e88f5917a)">
     <use style="fill:#ff8000;stroke:#000000;" x="262.698817" xlink:href="#C0_0_3c6dfe2c81" y="88.603393"/>
    </g>
    <g clip-path="url(#p3e88f5917a)">
     <use style="fill:#ff8000;stroke:#000000;" x="170.632455" xlink:href="#C0_0_3c6dfe2c81" y="131.84143"/>
    </g>
    <g clip-path="url(#p3e88f5917a)">
     <use style="fill:#1e90ff;stroke:#000000;" x="150.498716" xlink:href="#C0_0_3c6dfe2c81" y="132.991453"/>
    </g>
    <g clip-path="url(#p3e88f5917a)">
     <use style="fill:#1e90ff;stroke:#000000;" x="312.063654" xlink:href="#C0_0_3c6dfe2c81" y="166.910775"/>
    </g>
   </g>
   <g id="matplotlib.axis_1">
    <g id="xtick_1">
     <g id="line2d_1">
      <defs>
       <path d="M 0 0 
L 0 3.5 
" id="mda1d7398d5" style="stroke:#000000;stroke-width:0.8;"/>
      </defs>
      <g>
       <use style="stroke:#000000;stroke-width:0.8;" x="85.229261" xlink:href="#mda1d7398d5" y="252"/>
      </g>
     </g>
     <g id="text_1">
      <!-- 1.5 -->
      <g transform="translate(73.087854 266.598437)scale(0.1 -0.1)">
       <defs>
        <path d="M 10.59375 35.5 
L 73.1875 35.5 
L 73.1875 27.203125 
L 10.59375 27.203125 
z
" id="DejaVuSans-8722"/>
        <path d="M 12.40625 8.296875 
L 28.515625 8.296875 
L 28.515625 63.921875 
L 10.984375 60.40625 
L 10.984375 69.390625 
L 28.421875 72.90625 
L 38.28125 72.90625 
L 38.28125 8.296875 
L 54.390625 8.296875 
L 54.390625 0 
L 12.40625 0 
z
" id="DejaVuSans-49"/>
        <path d="M 10.6875 12.40625 
L 21 12.40625 
L 21 0 
L 10.6875 0 
z
" id="DejaVuSans-46"/>
        <path d="M 10.796875 72.90625 
L 49.515625 72.90625 
L 49.515625 64.59375 
L 19.828125 64.59375 
L 19.828125 46.734375 
Q 21.96875 47.46875 24.109375 47.828125 
Q 26.265625 48.1875 28.421875 48.1875 
Q 40.625 48.1875 47.75 41.5 
Q 54.890625 34.8125 54.890625 23.390625 
Q 54.890625 11.625 47.5625 5.09375 
Q 40.234375 -1.421875 26.90625 -1.421875 
Q 22.3125 -1.421875 17.546875 -0.640625 
Q 12.796875 0.140625 7.71875 1.703125 
L 7.71875 11.625 
Q 12.109375 9.234375 16.796875 8.0625 
Q 21.484375 6.890625 26.703125 6.890625 
Q 35.15625 6.890625 40.078125 11.328125 
Q 45.015625 15.765625 45.015625 23.390625 
Q 45.015625 31 40.078125 35.4375 
Q 35.15625 39.890625 26.703125 39.890625 
Q 22.75 39.890625 18.8125 39.015625 
Q 14.890625 38.140625 10.796875 36.28125 
z
" id="DejaVuSans-53"/>
       </defs>
       <use xlink:href="#DejaVuSans-8722"/>
       <use x="83.789062" xlink:href="#DejaVuSans-49"/>
       <use x="147.412109" xlink:href="#DejaVuSans-46"/>
       <use x="179.199219" xlink:href="#DejaVuSans-53"/>
      </g>
     </g>
    </g>
    <g id="xtick_2">
     <g id="line2d_2">
      <g>
       <use style="stroke:#000000;stroke-width:0.8;" x="131.729261" xlink:href="#mda1d7398d5" y="252"/>
      </g>
     </g>
     <g id="text_2">
      <!-- 1.0 -->
      <g transform="translate(119.587854 266.598437)scale(0.1 -0.1)">
       <defs>
        <path d="M 31.78125 66.40625 
Q 24.171875 66.40625 20.328125 58.90625 
Q 16.5 51.421875 16.5 36.375 
Q 16.5 21.390625 20.328125 13.890625 
Q 24.171875 6.390625 31.78125 6.390625 
Q 39.453125 6.390625 43.28125 13.890625 
Q 47.125 21.390625 47.125 36.375 
Q 47.125 51.421875 43.28125 58.90625 
Q 39.453125 66.40625 31.78125 66.40625 
z
M 31.78125 74.21875 
Q 44.046875 74.21875 50.515625 64.515625 
Q 56.984375 54.828125 56.984375 36.375 
Q 56.984375 17.96875 50.515625 8.265625 
Q 44.046875 -1.421875 31.78125 -1.421875 
Q 19.53125 -1.421875 13.0625 8.265625 
Q 6.59375 17.96875 6.59375 36.375 
Q 6.59375 54.828125 13.0625 64.515625 
Q 19.53125 74.21875 31.78125 74.21875 
z
" id="DejaVuSans-48"/>
       </defs>
       <use xlink:href="#DejaVuSans-8722"/>
       <use x="83.789062" xlink:href="#DejaVuSans-49"/>
       <use x="147.412109" xlink:href="#DejaVuSans-46"/>
       <use x="179.199219" xlink:href="#DejaVuSans-48"/>
      </g>
     </g>
    </g>
    <g id="xtick_3">
     <g id="line2d_3">
      <g>
       <use style="stroke:#000000;stroke-width:0.8;" x="178.229261" xlink:href="#mda1d7398d5" y="252"/>
      </g>
     </g>
     <g id="text_3">
      <!-- 0.5 -->
      <g transform="translate(166.087854 266.598437)scale(0.1 -0.1)">
       <use xlink:href="#DejaVuSans-8722"/>
       <use x="83.789062" xlink:href="#DejaVuSans-48"/>
       <use x="147.412109" xlink:href="#DejaVuSans-46"/>
       <use x="179.199219" xlink:href="#DejaVuSans-53"/>
      </g>
     </g>
    </g>
    <g id="xtick_4">
     <g id="line2d_4">
      <g>
       <use style="stroke:#000000;stroke-width:0.8;" x="224.729261" xlink:href="#mda1d7398d5" y="252"/>
      </g>
     </g>
     <g id="text_4">
      <!-- 0.0 -->
      <g transform="translate(216.777698 266.598437)scale(0.1 -0.1)">
       <use xlink:href="#DejaVuSans-48"/>
       <use x="63.623047" xlink:href="#DejaVuSans-46"/>
       <use x="95.410156" xlink:href="#DejaVuSans-48"/>
      </g>
     </g>
    </g>
    <g id="xtick_5">
     <g id="line2d_5">
      <g>
       <use style="stroke:#000000;stroke-width:0.8;" x="271.229261" xlink:href="#mda1d7398d5" y="252"/>
      </g>
     </g>
     <g id="text_5">
      <!-- 0.5 -->
      <g transform="translate(263.277698 266.598437)scale(0.1 -0.1)">
       <use xlink:href="#DejaVuSans-48"/>
       <use x="63.623047" xlink:href="#DejaVuSans-46"/>
       <use x="95.410156" xlink:href="#DejaVuSans-53"/>
      </g>
     </g>
    </g>
    <g id="xtick_6">
     <g id="line2d_6">
      <g>
       <use style="stroke:#000000;stroke-width:0.8;" x="317.729261" xlink:href="#mda1d7398d5" y="252"/>
      </g>
     </g>
     <g id="text_6">
      <!-- 1.0 -->
      <g transform="translate(309.777698 266.598437)scale(0.1 -0.1)">
       <use xlink:href="#DejaVuSans-49"/>
       <use x="63.623047" xlink:href="#DejaVuSans-46"/>
       <use x="95.410156" xlink:href="#DejaVuSans-48"/>
      </g>
     </g>
    </g>
    <g id="xtick_7">
     <g id="line2d_7">
      <g>
       <use style="stroke:#000000;stroke-width:0.8;" x="364.229261" xlink:href="#mda1d7398d5" y="252"/>
      </g>
     </g>
     <g id="text_7">
      <!-- 1.5 -->
      <g transform="translate(356.277698 266.598437)scale(0.1 -0.1)">
       <use xlink:href="#DejaVuSans-49"/>
       <use x="63.623047" xlink:href="#DejaVuSans-46"/>
       <use x="95.410156" xlink:href="#DejaVuSans-53"/>
      </g>
     </g>
    </g>
    <g id="text_8">
     <!-- X_0 -->
     <g transform="translate(212.29375 280.1)scale(0.1 -0.1)">
      <defs>
       <path d="M 6.296875 72.90625 
L 16.890625 72.90625 
L 35.015625 45.796875 
L 53.21875 72.90625 
L 63.8125 72.90625 
L 40.375 37.890625 
L 65.375 0 
L 54.78125 0 
L 34.28125 31 
L 13.625 0 
L 2.984375 0 
L 29 38.921875 
z
" id="DejaVuSans-88"/>
       <path d="M 50.984375 -16.609375 
L 50.984375 -23.578125 
L -0.984375 -23.578125 
L -0.984375 -16.609375 
z
" id="DejaVuSans-95"/>
      </defs>
      <use xlink:href="#DejaVuSans-88"/>
      <use x="68.505859" xlink:href="#DejaVuSans-95"/>
      <use x="118.505859" xlink:href="#DejaVuSans-48"/>
     </g>
    </g>
   </g>
   <g id="matplotlib.axis_2">
    <g id="ytick_1">
     <g id="line2d_8">
      <defs>
       <path d="M 0 0 
L -3.5 0 
" id="mef5aa60b59" style="stroke:#000000;stroke-width:0.8;"/>
      </defs>
      <g>
       <use style="stroke:#000000;stroke-width:0.8;" x="54" xlink:href="#mef5aa60b59" y="233.221666"/>
      </g>
     </g>
     <g id="text_9">
      <!-- 1.5 -->
      <g transform="translate(22.717187 237.020885)scale(0.1 -0.1)">
       <use xlink:href="#DejaVuSans-8722"/>
       <use x="83.789062" xlink:href="#DejaVuSans-49"/>
       <use x="147.412109" xlink:href="#DejaVuSans-46"/>
       <use x="179.199219" xlink:href="#DejaVuSans-53"/>
      </g>
     </g>
    </g>
    <g id="ytick_2">
     <g id="line2d_9">
      <g>
       <use style="stroke:#000000;stroke-width:0.8;" x="54" xlink:href="#mef5aa60b59" y="203.021666"/>
      </g>
     </g>
     <g id="text_10">
      <!-- 1.0 -->
      <g transform="translate(22.717187 206.820885)scale(0.1 -0.1)">
       <use xlink:href="#DejaVuSans-8722"/>
       <use x="83.789062" xlink:href="#DejaVuSans-49"/>
       <use x="147.412109" xlink:href="#DejaVuSans-46"/>
       <use x="179.199219" xlink:href="#DejaVuSans-48"/>
      </g>
     </g>
    </g>
    <g id="ytick_3">
     <g id="line2d_10">
      <g>
       <use style="stroke:#000000;stroke-width:0.8;" x="54" xlink:href="#mef5aa60b59" y="172.821666"/>
      </g>
     </g>
     <g id="text_11">
      <!-- 0.5 -->
      <g transform="translate(22.717187 176.620885)scale(0.1 -0.1)">
       <use xlink:href="#DejaVuSans-8722"/>
       <use x="83.789062" xlink:href="#DejaVuSans-48"/>
       <use x="147.412109" xlink:href="#DejaVuSans-46"/>
       <use x="179.199219" xlink:href="#DejaVuSans-53"/>
      </g>
     </g>
    </g>
    <g id="ytick_4">
     <g id="line2d_11">
      <g>
       <use style="stroke:#000000;stroke-width:0.8;" x="54" xlink:href="#mef5aa60b59" y="142.621666"/>
      </g>
     </g>
     <g id="text_12">
      <!-- 0.0 -->
      <g transform="translate(31.096875 146.420885)scale(0.1 -0.1)">
       <use xlink:href="#DejaVuSans-48"/>
       <use x="63.623047" xlink:href="#DejaVuSans-46"/>
       <use x="95.410156" xlink:href="#DejaVuSans-48"/>
      </g>
     </g>
    </g>
    <g id="ytick_5">
     <g id="line2d_12">
      <g>
       <use style="stroke:#000000;stroke-width:0.8;" x="54" xlink:href="#mef5aa60b59" y="112.421666"/>
      </g>
     </g>
     <g id="text_13">
      <!-- 0.5 -->
      <g transform="translate(31.096875 116.220885)scale(0.1 -0.1)">
       <use xlink:href="#DejaVuSans-48"/>
       <use x="63.623047" xlink:href="#DejaVuSans-46"/>
       <use x="95.410156" xlink:href="#DejaVuSans-53"/>
      </g>
     </g>
    </g>
    <g id="ytick_6">
     <g id="line2d_13">
      <g>
       <use style="stroke:#000000;stroke-width:0.8;" x="54" xlink:href="#mef5aa60b59" y="82.221666"/>
      </g>
     </g>
     <g id="text_14">
      <!-- 1.0 -->
      <g transform="translate(31.096875 86.020885)scale(0.1 -0.1)">
       <use xlink:href="#DejaVuSans-49"/>
       <use x="63.623047" xlink:href="#DejaVuSans-46"/>
       <use x="95.410156" xlink:href="#DejaVuSans-48"/>
      </g>
     </g>
    </g>
    <g id="ytick_7">
     <g id="line2d_14">
      <g>
       <use style="stroke:#000000;stroke-width:0.8;" x="54" xlink:href="#mef5aa60b59" y="52.021666"/>
      </g>
     </g>
     <g id="text_15">
      <!-- 1.5 -->
      <g transform="translate(31.096875 55.820885)scale(0.1 -0.1)">
       <use xlink:href="#DejaVuSans-49"/>
       <use x="63.623047" xlink:href="#DejaVuSans-46"/>
       <use x="95.410156" xlink:href="#DejaVuSans-53"/>
      </g>
     </g>
    </g>
    <g id="text_16">
     <!-- X_1 -->
     <g transform="translate(16.359375 152.38625)rotate(-90)scale(0.1 -0.1)">
      <use xlink:href="#DejaVuSans-88"/>
      <use x="68.505859" xlink:href="#DejaVuSans-95"/>
      <use x="118.505859" xlink:href="#DejaVuSans-49"/>
     </g>
    </g>
   </g>
   <g id="patch_3">
    <path d="M 54 252 
L 54 34.56 
" style="fill:none;stroke:#000000;stroke-linecap:square;stroke-linejoin:miter;stroke-width:0.8;"/>
   </g>
   <g id="patch_4">
    <path d="M 388.8 252 
L 388.8 34.56 
" style="fill:none;stroke:#000000;stroke-linecap:square;stroke-linejoin:miter;stroke-width:0.8;"/>
   </g>
   <g id="patch_5">
    <path d="M 54 252 
L 388.8 252 
" style="fill:none;stroke:#000000;stroke-linecap:square;stroke-linejoin:miter;stroke-width:0.8;"/>
   </g>
   <g id="patch_6">
    <path d="M 54 34.56 
L 388.8 34.56 
" style="fill:none;stroke:#000000;stroke-linecap:square;stroke-linejoin:miter;stroke-width:0.8;"/>
   </g>
   <g id="text_17">
    <!-- Problem 2, #neighbors 150 -->
    <g transform="translate(139.101562 28.56)scale(0.12 -0.12)">
     <defs>
      <path d="M 19.671875 64.796875 
L 19.671875 37.40625 
L 32.078125 37.40625 
Q 38.96875 37.40625 42.71875 40.96875 
Q 46.484375 44.53125 46.484375 51.125 
Q 46.484375 57.671875 42.71875 61.234375 
Q 38.96875 64.796875 32.078125 64.796875 
z
M 9.8125 72.90625 
L 32.078125 72.90625 
Q 44.34375 72.90625 50.609375 67.359375 
Q 56.890625 61.8125 56.890625 51.125 
Q 56.890625 40.328125 50.609375 34.8125 
Q 44.34375 29.296875 32.078125 29.296875 
L 19.671875 29.296875 
L 19.671875 0 
L 9.8125 0 
z
" id="DejaVuSans-80"/>
      <path d="M 41.109375 46.296875 
Q 39.59375 47.171875 37.8125 47.578125 
Q 36.03125 48 33.890625 48 
Q 26.265625 48 22.1875 43.046875 
Q 18.109375 38.09375 18.109375 28.8125 
L 18.109375 0 
L 9.078125 0 
L 9.078125 54.6875 
L 18.109375 54.6875 
L 18.109375 46.1875 
Q 20.953125 51.171875 25.484375 53.578125 
Q 30.03125 56 36.53125 56 
Q 37.453125 56 38.578125 55.875 
Q 39.703125 55.765625 41.0625 55.515625 
z
" id="DejaVuSans-114"/>
      <path d="M 30.609375 48.390625 
Q 23.390625 48.390625 19.1875 42.75 
Q 14.984375 37.109375 14.984375 27.296875 
Q 14.984375 17.484375 19.15625 11.84375 
Q 23.34375 6.203125 30.609375 6.203125 
Q 37.796875 6.203125 41.984375 11.859375 
Q 46.1875 17.53125 46.1875 27.296875 
Q 46.1875 37.015625 41.984375 42.703125 
Q 37.796875 48.390625 30.609375 48.390625 
z
M 30.609375 56 
Q 42.328125 56 49.015625 48.375 
Q 55.71875 40.765625 55.71875 27.296875 
Q 55.71875 13.875 49.015625 6.21875 
Q 42.328125 -1.421875 30.609375 -1.421875 
Q 18.84375 -1.421875 12.171875 6.21875 
Q 5.515625 13.875 5.515625 27.296875 
Q 5.515625 40.765625 12.171875 48.375 
Q 18.84375 56 30.609375 56 
z
" id="DejaVuSans-111"/>
      <path d="M 48.6875 27.296875 
Q 48.6875 37.203125 44.609375 42.84375 
Q 40.53125 48.484375 33.40625 48.484375 
Q 26.265625 48.484375 22.1875 42.84375 
Q 18.109375 37.203125 18.109375 27.296875 
Q 18.109375 17.390625 22.1875 11.75 
Q 26.265625 6.109375 33.40625 6.109375 
Q 40.53125 6.109375 44.609375 11.75 
Q 48.6875 17.390625 48.6875 27.296875 
z
M 18.109375 46.390625 
Q 20.953125 51.265625 25.265625 53.625 
Q 29.59375 56 35.59375 56 
Q 45.5625 56 51.78125 48.09375 
Q 58.015625 40.1875 58.015625 27.296875 
Q 58.015625 14.40625 51.78125 6.484375 
Q 45.5625 -1.421875 35.59375 -1.421875 
Q 29.59375 -1.421875 25.265625 0.953125 
Q 20.953125 3.328125 18.109375 8.203125 
L 18.109375 0 
L 9.078125 0 
L 9.078125 75.984375 
L 18.109375 75.984375 
z
" id="DejaVuSans-98"/>
      <path d="M 9.421875 75.984375 
L 18.40625 75.984375 
L 18.40625 0 
L 9.421875 0 
z
" id="DejaVuSans-108"/>
      <path d="M 56.203125 29.59375 
L 56.203125 25.203125 
L 14.890625 25.203125 
Q 15.484375 15.921875 20.484375 11.0625 
Q 25.484375 6.203125 34.421875 6.203125 
Q 39.59375 6.203125 44.453125 7.46875 
Q 49.3125 8.734375 54.109375 11.28125 
L 54.109375 2.78125 
Q 49.265625 0.734375 44.1875 -0.34375 
Q 39.109375 -1.421875 33.890625 -1.421875 
Q 20.796875 -1.421875 13.15625 6.1875 
Q 5.515625 13.8125 5.515625 26.8125 
Q 5.515625 40.234375 12.765625 48.109375 
Q 20.015625 56 32.328125 56 
Q 43.359375 56 49.78125 48.890625 
Q 56.203125 41.796875 56.203125 29.59375 
z
M 47.21875 32.234375 
Q 47.125 39.59375 43.09375 43.984375 
Q 39.0625 48.390625 32.421875 48.390625 
Q 24.90625 48.390625 20.390625 44.140625 
Q 15.875 39.890625 15.1875 32.171875 
z
" id="DejaVuSans-101"/>
      <path d="M 52 44.1875 
Q 55.375 50.25 60.0625 53.125 
Q 64.75 56 71.09375 56 
Q 79.640625 56 84.28125 50.015625 
Q 88.921875 44.046875 88.921875 33.015625 
L 88.921875 0 
L 79.890625 0 
L 79.890625 32.71875 
Q 79.890625 40.578125 77.09375 44.375 
Q 74.3125 48.1875 68.609375 48.1875 
Q 61.625 48.1875 57.5625 43.546875 
Q 53.515625 38.921875 53.515625 30.90625 
L 53.515625 0 
L 44.484375 0 
L 44.484375 32.71875 
Q 44.484375 40.625 41.703125 44.40625 
Q 38.921875 48.1875 33.109375 48.1875 
Q 26.21875 48.1875 22.15625 43.53125 
Q 18.109375 38.875 18.109375 30.90625 
L 18.109375 0 
L 9.078125 0 
L 9.078125 54.6875 
L 18.109375 54.6875 
L 18.109375 46.1875 
Q 21.1875 51.21875 25.484375 53.609375 
Q 29.78125 56 35.6875 56 
Q 41.65625 56 45.828125 52.96875 
Q 50 49.953125 52 44.1875 
z
" id="DejaVuSans-109"/>
      <path id="DejaVuSans-32"/>
      <path d="M 19.1875 8.296875 
L 53.609375 8.296875 
L 53.609375 0 
L 7.328125 0 
L 7.328125 8.296875 
Q 12.9375 14.109375 22.625 23.890625 
Q 32.328125 33.6875 34.8125 36.53125 
Q 39.546875 41.84375 41.421875 45.53125 
Q 43.3125 49.21875 43.3125 52.78125 
Q 43.3125 58.59375 39.234375 62.25 
Q 35.15625 65.921875 28.609375 65.921875 
Q 23.96875 65.921875 18.8125 64.3125 
Q 13.671875 62.703125 7.8125 59.421875 
L 7.8125 69.390625 
Q 13.765625 71.78125 18.9375 73 
Q 24.125 74.21875 28.421875 74.21875 
Q 39.75 74.21875 46.484375 68.546875 
Q 53.21875 62.890625 53.21875 53.421875 
Q 53.21875 48.921875 51.53125 44.890625 
Q 49.859375 40.875 45.40625 35.40625 
Q 44.1875 33.984375 37.640625 27.21875 
Q 31.109375 20.453125 19.1875 8.296875 
z
" id="DejaVuSans-50"/>
      <path d="M 11.71875 12.40625 
L 22.015625 12.40625 
L 22.015625 4 
L 14.015625 -11.625 
L 7.71875 -11.625 
L 11.71875 4 
z
" id="DejaVuSans-44"/>
      <path d="M 51.125 44 
L 36.921875 44 
L 32.8125 27.6875 
L 47.125 27.6875 
z
M 43.796875 71.78125 
L 38.71875 51.515625 
L 52.984375 51.515625 
L 58.109375 71.78125 
L 65.921875 71.78125 
L 60.890625 51.515625 
L 76.125 51.515625 
L 76.125 44 
L 58.984375 44 
L 54.984375 27.6875 
L 70.515625 27.6875 
L 70.515625 20.21875 
L 53.078125 20.21875 
L 48 0 
L 40.1875 0 
L 45.21875 20.21875 
L 30.90625 20.21875 
L 25.875 0 
L 18.015625 0 
L 23.09375 20.21875 
L 7.71875 20.21875 
L 7.71875 27.6875 
L 24.90625 27.6875 
L 29 44 
L 13.28125 44 
L 13.28125 51.515625 
L 30.90625 51.515625 
L 35.890625 71.78125 
z
" id="DejaVuSans-35"/>
      <path d="M 54.890625 33.015625 
L 54.890625 0 
L 45.90625 0 
L 45.90625 32.71875 
Q 45.90625 40.484375 42.875 44.328125 
Q 39.84375 48.1875 33.796875 48.1875 
Q 26.515625 48.1875 22.3125 43.546875 
Q 18.109375 38.921875 18.109375 30.90625 
L 18.109375 0 
L 9.078125 0 
L 9.078125 54.6875 
L 18.109375 54.6875 
L 18.109375 46.1875 
Q 21.34375 51.125 25.703125 53.5625 
Q 30.078125 56 35.796875 56 
Q 45.21875 56 50.046875 50.171875 
Q 54.890625 44.34375 54.890625 33.015625 
z
" id="DejaVuSans-110"/>
      <path d="M 9.421875 54.6875 
L 18.40625 54.6875 
L 18.40625 0 
L 9.421875 0 
z
M 9.421875 75.984375 
L 18.40625 75.984375 
L 18.40625 64.59375 
L 9.421875 64.59375 
z
" id="DejaVuSans-105"/>
      <path d="M 45.40625 27.984375 
Q 45.40625 37.75 41.375 43.109375 
Q 37.359375 48.484375 30.078125 48.484375 
Q 22.859375 48.484375 18.828125 43.109375 
Q 14.796875 37.75 14.796875 27.984375 
Q 14.796875 18.265625 18.828125 12.890625 
Q 22.859375 7.515625 30.078125 7.515625 
Q 37.359375 7.515625 41.375 12.890625 
Q 45.40625 18.265625 45.40625 27.984375 
z
M 54.390625 6.78125 
Q 54.390625 -7.171875 48.1875 -13.984375 
Q 42 -20.796875 29.203125 -20.796875 
Q 24.46875 -20.796875 20.265625 -20.09375 
Q 16.0625 -19.390625 12.109375 -17.921875 
L 12.109375 -9.1875 
Q 16.0625 -11.328125 19.921875 -12.34375 
Q 23.78125 -13.375 27.78125 -13.375 
Q 36.625 -13.375 41.015625 -8.765625 
Q 45.40625 -4.15625 45.40625 5.171875 
L 45.40625 9.625 
Q 42.625 4.78125 38.28125 2.390625 
Q 33.9375 0 27.875 0 
Q 17.828125 0 11.671875 7.65625 
Q 5.515625 15.328125 5.515625 27.984375 
Q 5.515625 40.671875 11.671875 48.328125 
Q 17.828125 56 27.875 56 
Q 33.9375 56 38.28125 53.609375 
Q 42.625 51.21875 45.40625 46.390625 
L 45.40625 54.6875 
L 54.390625 54.6875 
z
" id="DejaVuSans-103"/>
      <path d="M 54.890625 33.015625 
L 54.890625 0 
L 45.90625 0 
L 45.90625 32.71875 
Q 45.90625 40.484375 42.875 44.328125 
Q 39.84375 48.1875 33.796875 48.1875 
Q 26.515625 48.1875 22.3125 43.546875 
Q 18.109375 38.921875 18.109375 30.90625 
L 18.109375 0 
L 9.078125 0 
L 9.078125 75.984375 
L 18.109375 75.984375 
L 18.109375 46.1875 
Q 21.34375 51.125 25.703125 53.5625 
Q 30.078125 56 35.796875 56 
Q 45.21875 56 50.046875 50.171875 
Q 54.890625 44.34375 54.890625 33.015625 
z
" id="DejaVuSans-104"/>
      <path d="M 44.28125 53.078125 
L 44.28125 44.578125 
Q 40.484375 46.53125 36.375 47.5 
Q 32.28125 48.484375 27.875 48.484375 
Q 21.1875 48.484375 17.84375 46.4375 
Q 14.5 44.390625 14.5 40.28125 
Q 14.5 37.15625 16.890625 35.375 
Q 19.28125 33.59375 26.515625 31.984375 
L 29.59375 31.296875 
Q 39.15625 29.25 43.1875 25.515625 
Q 47.21875 21.78125 47.21875 15.09375 
Q 47.21875 7.46875 41.1875 3.015625 
Q 35.15625 -1.421875 24.609375 -1.421875 
Q 20.21875 -1.421875 15.453125 -0.5625 
Q 10.6875 0.296875 5.421875 2 
L 5.421875 11.28125 
Q 10.40625 8.6875 15.234375 7.390625 
Q 20.0625 6.109375 24.8125 6.109375 
Q 31.15625 6.109375 34.5625 8.28125 
Q 37.984375 10.453125 37.984375 14.40625 
Q 37.984375 18.0625 35.515625 20.015625 
Q 33.0625 21.96875 24.703125 23.78125 
L 21.578125 24.515625 
Q 13.234375 26.265625 9.515625 29.90625 
Q 5.8125 33.546875 5.8125 39.890625 
Q 5.8125 47.609375 11.28125 51.796875 
Q 16.75 56 26.8125 56 
Q 31.78125 56 36.171875 55.265625 
Q 40.578125 54.546875 44.28125 53.078125 
z
" id="DejaVuSans-115"/>
     </defs>
     <use xlink:href="#DejaVuSans-80"/>
     <use x="58.552734" xlink:href="#DejaVuSans-114"/>
     <use x="97.416016" xlink:href="#DejaVuSans-111"/>
     <use x="158.597656" xlink:href="#DejaVuSans-98"/>
     <use x="222.074219" xlink:href="#DejaVuSans-108"/>
     <use x="249.857422" xlink:href="#DejaVuSans-101"/>
     <use x="311.380859" xlink:href="#DejaVuSans-109"/>
     <use x="408.792969" xlink:href="#DejaVuSans-32"/>
     <use x="440.580078" xlink:href="#DejaVuSans-50"/>
     <use x="504.203125" xlink:href="#DejaVuSans-44"/>
     <use x="535.990234" xlink:href="#DejaVuSans-32"/>
     <use x="567.777344" xlink:href="#DejaVuSans-35"/>
     <use x="651.566406" xlink:href="#DejaVuSans-110"/>
     <use x="714.945312" xlink:href="#DejaVuSans-101"/>
     <use x="776.46875" xlink:href="#DejaVuSans-105"/>
     <use x="804.251953" xlink:href="#DejaVuSans-103"/>
     <use x="867.728516" xlink:href="#DejaVuSans-104"/>
     <use x="931.107422" xlink:href="#DejaVuSans-98"/>
     <use x="994.583984" xlink:href="#DejaVuSans-111"/>
     <use x="1055.765625" xlink:href="#DejaVuSans-114"/>
     <use x="1096.878906" xlink:href="#DejaVuSans-115"/>
     <use x="1148.978516" xlink:href="#DejaVuSans-32"/>
     <use x="1180.765625" xlink:href="#DejaVuSans-49"/>
     <use x="1244.388672" xlink:href="#DejaVuSans-53"/>
     <use x="1308.011719" xlink:href="#DejaVuSans-48"/>
    </g>
   </g>
  </g>
 </g>
 <defs>
  <clipPath id="p3e88f5917a">
   <rect height="217.44" width="334.8" x="54" y="34.56"/>
  </clipPath>
 </defs>
</svg>
