<?xml version="1.0" encoding="utf-8" standalone="no"?>
<!DOCTYPE svg PUBLIC "-//W3C//DTD SVG 1.1//EN"
  "http://www.w3.org/Graphics/SVG/1.1/DTD/svg11.dtd">
<!-- Created with matplotlib (https://matplotlib.org/) -->
<svg height="288pt" version="1.1" viewBox="0 0 432 288" width="432pt" xmlns="http://www.w3.org/2000/svg" xmlns:xlink="http://www.w3.org/1999/xlink">
 <metadata>
  <rdf:RDF xmlns:cc="http://creativecommons.org/ns#" xmlns:dc="http://purl.org/dc/elements/1.1/" xmlns:rdf="http://www.w3.org/1999/02/22-rdf-syntax-ns#">
   <cc:Work>
    <dc:type rdf:resource="http://purl.org/dc/dcmitype/StillImage"/>
    <dc:date>2020-10-08T10:54:12.232901</dc:date>
    <dc:format>image/svg+xml</dc:format>
    <dc:creator>
     <cc:Agent>
      <dc:title>Matplotlib v3.3.1, https://matplotlib.org/</dc:title>
     </cc:Agent>
    </dc:creator>
   </cc:Work>
  </rdf:RDF>
 </metadata>
 <defs>
  <style type="text/css">*{stroke-linecap:butt;stroke-linejoin:round;}</style>
 </defs>
 <g id="figure_1">
  <g id="patch_1">
   <path d="M 0 288 
L 432 288 
L 432 0 
L 0 0 
z
" style="fill:#ffffff;"/>
  </g>
  <g id="axes_1">
   <g id="patch_2">
    <path d="M 54 252 
L 388.8 252 
L 388.8 34.56 
L 54 34.56 
z
" style="fill:#ffffff;"/>
   </g>
   <g id="PathCollection_1">
    <path clip-path="url(#pcea233c040)" d="M 64.4625 153.51966 
L 74.925 153.51966 
L 85.3875 153.51966 
L 95.85 153.51966 
L 106.3125 153.51966 
L 116.775 153.51966 
L 127.2375 153.51966 
L 137.7 153.51966 
L 148.1625 153.51966 
L 158.625 153.51966 
L 169.0875 153.51966 
L 179.55 153.51966 
L 190.0125 153.51966 
L 200.475 153.51966 
L 210.9375 153.51966 
L 221.4 153.51966 
L 231.8625 153.51966 
L 242.325 153.51966 
L 252.7875 153.51966 
L 263.25 153.51966 
L 273.7125 153.51966 
L 284.175 153.51966 
L 294.6375 153.51966 
L 305.1 153.51966 
L 315.5625 153.51966 
L 326.025 153.51966 
L 336.4875 153.51966 
L 346.95 153.51966 
L 357.4125 153.51966 
L 367.875 153.51966 
L 378.3375 153.51966 
L 388.8 153.51966 
L 388.8 153.163636 
L 388.8 146.574545 
L 388.8 139.985455 
L 388.8 133.396364 
L 388.8 133.04034 
L 378.3375 133.04034 
L 367.875 133.04034 
L 357.4125 133.04034 
L 346.95 133.04034 
L 336.4875 133.04034 
L 326.025 133.04034 
L 315.5625 133.04034 
L 305.1 133.04034 
L 294.6375 133.04034 
L 284.175 133.04034 
L 273.7125 133.04034 
L 263.25 133.04034 
L 252.7875 133.04034 
L 242.325 133.04034 
L 231.8625 133.04034 
L 221.4 133.04034 
L 210.9375 133.04034 
L 200.475 133.04034 
L 190.0125 133.04034 
L 179.55 133.04034 
L 169.0875 133.04034 
L 158.625 133.04034 
L 148.1625 133.04034 
L 137.7 133.04034 
L 127.2375 133.04034 
L 116.775 133.04034 
L 106.3125 133.04034 
L 95.85 133.04034 
L 85.3875 133.04034 
L 74.925 133.04034 
L 64.4625 133.04034 
L 54 133.04034 
L 54 133.396364 
L 54 139.985455 
L 54 146.574545 
L 54 153.163636 
L 54 153.51966 
z
" style="fill:#ee6410;fill-opacity:0.8;"/>
   </g>
   <g id="PathCollection_2">
    <path clip-path="url(#pcea233c040)" d="M 64.4625 154.619613 
L 74.925 154.619613 
L 85.3875 154.619613 
L 95.85 154.619613 
L 106.3125 154.619613 
L 116.775 154.619613 
L 127.2375 154.619613 
L 137.7 154.619613 
L 148.1625 154.619613 
L 158.625 154.619613 
L 169.0875 154.619613 
L 179.55 154.619613 
L 190.0125 154.619613 
L 200.475 154.619613 
L 210.9375 154.619613 
L 221.4 154.619613 
L 231.8625 154.619613 
L 242.325 154.619613 
L 252.7875 154.619613 
L 263.25 154.619613 
L 273.7125 154.619613 
L 284.175 154.619613 
L 294.6375 154.619613 
L 305.1 154.619613 
L 315.5625 154.619613 
L 326.025 154.619613 
L 336.4875 154.619613 
L 346.95 154.619613 
L 357.4125 154.619613 
L 367.875 154.619613 
L 378.3375 154.619613 
L 388.8 154.619613 
L 388.8 153.51966 
L 378.3375 153.51966 
L 367.875 153.51966 
L 357.4125 153.51966 
L 346.95 153.51966 
L 336.4875 153.51966 
L 326.025 153.51966 
L 315.5625 153.51966 
L 305.1 153.51966 
L 294.6375 153.51966 
L 284.175 153.51966 
L 273.7125 153.51966 
L 263.25 153.51966 
L 252.7875 153.51966 
L 242.325 153.51966 
L 231.8625 153.51966 
L 221.4 153.51966 
L 210.9375 153.51966 
L 200.475 153.51966 
L 190.0125 153.51966 
L 179.55 153.51966 
L 169.0875 153.51966 
L 158.625 153.51966 
L 148.1625 153.51966 
L 137.7 153.51966 
L 127.2375 153.51966 
L 116.775 153.51966 
L 106.3125 153.51966 
L 95.85 153.51966 
L 85.3875 153.51966 
L 74.925 153.51966 
L 64.4625 153.51966 
L 54 153.51966 
L 54 154.619613 
z
" style="fill:#fd9f56;fill-opacity:0.8;"/>
    <path clip-path="url(#pcea233c040)" d="M 64.4625 133.04034 
L 74.925 133.04034 
L 85.3875 133.04034 
L 95.85 133.04034 
L 106.3125 133.04034 
L 116.775 133.04034 
L 127.2375 133.04034 
L 137.7 133.04034 
L 148.1625 133.04034 
L 158.625 133.04034 
L 169.0875 133.04034 
L 179.55 133.04034 
L 190.0125 133.04034 
L 200.475 133.04034 
L 210.9375 133.04034 
L 221.4 133.04034 
L 231.8625 133.04034 
L 242.325 133.04034 
L 252.7875 133.04034 
L 263.25 133.04034 
L 273.7125 133.04034 
L 284.175 133.04034 
L 294.6375 133.04034 
L 305.1 133.04034 
L 315.5625 133.04034 
L 326.025 133.04034 
L 336.4875 133.04034 
L 346.95 133.04034 
L 357.4125 133.04034 
L 367.875 133.04034 
L 378.3375 133.04034 
L 388.8 133.04034 
L 388.8 131.940387 
L 378.3375 131.940387 
L 367.875 131.940387 
L 357.4125 131.940387 
L 346.95 131.940387 
L 336.4875 131.940387 
L 326.025 131.940387 
L 315.5625 131.940387 
L 305.1 131.940387 
L 294.6375 131.940387 
L 284.175 131.940387 
L 273.7125 131.940387 
L 263.25 131.940387 
L 252.7875 131.940387 
L 242.325 131.940387 
L 231.8625 131.940387 
L 221.4 131.940387 
L 210.9375 131.940387 
L 200.475 131.940387 
L 190.0125 131.940387 
L 179.55 131.940387 
L 169.0875 131.940387 
L 158.625 131.940387 
L 148.1625 131.940387 
L 137.7 131.940387 
L 127.2375 131.940387 
L 116.775 131.940387 
L 106.3125 131.940387 
L 95.85 131.940387 
L 85.3875 131.940387 
L 74.925 131.940387 
L 64.4625 131.940387 
L 54 131.940387 
L 54 133.04034 
z
" style="fill:#fd9f56;fill-opacity:0.8;"/>
   </g>
   <g id="PathCollection_3">
    <path clip-path="url(#pcea233c040)" d="M 64.4625 155.719566 
L 74.925 155.719566 
L 85.3875 155.719566 
L 95.85 155.719566 
L 106.3125 155.719566 
L 116.775 155.719566 
L 127.2375 155.719566 
L 137.7 155.719566 
L 148.1625 155.719566 
L 158.625 155.719566 
L 169.0875 155.719566 
L 179.55 155.719566 
L 190.0125 155.719566 
L 200.475 155.719566 
L 210.9375 155.719566 
L 221.4 155.719566 
L 231.8625 155.719566 
L 242.325 155.719566 
L 252.7875 155.719566 
L 263.25 155.719566 
L 273.7125 155.719566 
L 284.175 155.719566 
L 294.6375 155.719566 
L 305.1 155.719566 
L 315.5625 155.719566 
L 326.025 155.719566 
L 336.4875 155.719566 
L 346.95 155.719566 
L 357.4125 155.719566 
L 367.875 155.719566 
L 378.3375 155.719566 
L 388.8 155.719566 
L 388.8 154.619613 
L 378.3375 154.619613 
L 367.875 154.619613 
L 357.4125 154.619613 
L 346.95 154.619613 
L 336.4875 154.619613 
L 326.025 154.619613 
L 315.5625 154.619613 
L 305.1 154.619613 
L 294.6375 154.619613 
L 284.175 154.619613 
L 273.7125 154.619613 
L 263.25 154.619613 
L 252.7875 154.619613 
L 242.325 154.619613 
L 231.8625 154.619613 
L 221.4 154.619613 
L 210.9375 154.619613 
L 200.475 154.619613 
L 190.0125 154.619613 
L 179.55 154.619613 
L 169.0875 154.619613 
L 158.625 154.619613 
L 148.1625 154.619613 
L 137.7 154.619613 
L 127.2375 154.619613 
L 116.775 154.619613 
L 106.3125 154.619613 
L 95.85 154.619613 
L 85.3875 154.619613 
L 74.925 154.619613 
L 64.4625 154.619613 
L 54 154.619613 
L 54 155.719566 
z
" style="fill:#fdd7af;fill-opacity:0.8;"/>
    <path clip-path="url(#pcea233c040)" d="M 64.4625 131.940387 
L 74.925 131.940387 
L 85.3875 131.940387 
L 95.85 131.940387 
L 106.3125 131.940387 
L 116.775 131.940387 
L 127.2375 131.940387 
L 137.7 131.940387 
L 148.1625 131.940387 
L 158.625 131.940387 
L 169.0875 131.940387 
L 179.55 131.940387 
L 190.0125 131.940387 
L 200.475 131.940387 
L 210.9375 131.940387 
L 221.4 131.940387 
L 231.8625 131.940387 
L 242.325 131.940387 
L 252.7875 131.940387 
L 263.25 131.940387 
L 273.7125 131.940387 
L 284.175 131.940387 
L 294.6375 131.940387 
L 305.1 131.940387 
L 315.5625 131.940387 
L 326.025 131.940387 
L 336.4875 131.940387 
L 346.95 131.940387 
L 357.4125 131.940387 
L 367.875 131.940387 
L 378.3375 131.940387 
L 388.8 131.940387 
L 388.8 130.840434 
L 378.3375 130.840434 
L 367.875 130.840434 
L 357.4125 130.840434 
L 346.95 130.840434 
L 336.4875 130.840434 
L 326.025 130.840434 
L 315.5625 130.840434 
L 305.1 130.840434 
L 294.6375 130.840434 
L 284.175 130.840434 
L 273.7125 130.840434 
L 263.25 130.840434 
L 252.7875 130.840434 
L 242.325 130.840434 
L 231.8625 130.840434 
L 221.4 130.840434 
L 210.9375 130.840434 
L 200.475 130.840434 
L 190.0125 130.840434 
L 179.55 130.840434 
L 169.0875 130.840434 
L 158.625 130.840434 
L 148.1625 130.840434 
L 137.7 130.840434 
L 127.2375 130.840434 
L 116.775 130.840434 
L 106.3125 130.840434 
L 95.85 130.840434 
L 85.3875 130.840434 
L 74.925 130.840434 
L 64.4625 130.840434 
L 54 130.840434 
L 54 131.940387 
z
" style="fill:#fdd7af;fill-opacity:0.8;"/>
   </g>
   <g id="PathCollection_4">
    <path clip-path="url(#pcea233c040)" d="M 64.4625 156.819519 
L 74.925 156.819519 
L 85.3875 156.819519 
L 95.85 156.819519 
L 106.3125 156.819519 
L 116.775 156.819519 
L 127.2375 156.819519 
L 137.7 156.819519 
L 148.1625 156.819519 
L 158.625 156.819519 
L 169.0875 156.819519 
L 179.55 156.819519 
L 190.0125 156.819519 
L 200.475 156.819519 
L 210.9375 156.819519 
L 221.4 156.819519 
L 231.8625 156.819519 
L 242.325 156.819519 
L 252.7875 156.819519 
L 263.25 156.819519 
L 273.7125 156.819519 
L 284.175 156.819519 
L 294.6375 156.819519 
L 305.1 156.819519 
L 315.5625 156.819519 
L 326.025 156.819519 
L 336.4875 156.819519 
L 346.95 156.819519 
L 357.4125 156.819519 
L 367.875 156.819519 
L 378.3375 156.819519 
L 388.8 156.819519 
L 388.8 155.719566 
L 378.3375 155.719566 
L 367.875 155.719566 
L 357.4125 155.719566 
L 346.95 155.719566 
L 336.4875 155.719566 
L 326.025 155.719566 
L 315.5625 155.719566 
L 305.1 155.719566 
L 294.6375 155.719566 
L 284.175 155.719566 
L 273.7125 155.719566 
L 263.25 155.719566 
L 252.7875 155.719566 
L 242.325 155.719566 
L 231.8625 155.719566 
L 221.4 155.719566 
L 210.9375 155.719566 
L 200.475 155.719566 
L 190.0125 155.719566 
L 179.55 155.719566 
L 169.0875 155.719566 
L 158.625 155.719566 
L 148.1625 155.719566 
L 137.7 155.719566 
L 127.2375 155.719566 
L 116.775 155.719566 
L 106.3125 155.719566 
L 95.85 155.719566 
L 85.3875 155.719566 
L 74.925 155.719566 
L 64.4625 155.719566 
L 54 155.719566 
L 54 156.819519 
z
" style="fill:#f7fbff;fill-opacity:0.8;"/>
    <path clip-path="url(#pcea233c040)" d="M 64.4625 130.840434 
L 74.925 130.840434 
L 85.3875 130.840434 
L 95.85 130.840434 
L 106.3125 130.840434 
L 116.775 130.840434 
L 127.2375 130.840434 
L 137.7 130.840434 
L 148.1625 130.840434 
L 158.625 130.840434 
L 169.0875 130.840434 
L 179.55 130.840434 
L 190.0125 130.840434 
L 200.475 130.840434 
L 210.9375 130.840434 
L 221.4 130.840434 
L 231.8625 130.840434 
L 242.325 130.840434 
L 252.7875 130.840434 
L 263.25 130.840434 
L 273.7125 130.840434 
L 284.175 130.840434 
L 294.6375 130.840434 
L 305.1 130.840434 
L 315.5625 130.840434 
L 326.025 130.840434 
L 336.4875 130.840434 
L 346.95 130.840434 
L 357.4125 130.840434 
L 367.875 130.840434 
L 378.3375 130.840434 
L 388.8 130.840434 
L 388.8 129.740481 
L 378.3375 129.740481 
L 367.875 129.740481 
L 357.4125 129.740481 
L 346.95 129.740481 
L 336.4875 129.740481 
L 326.025 129.740481 
L 315.5625 129.740481 
L 305.1 129.740481 
L 294.6375 129.740481 
L 284.175 129.740481 
L 273.7125 129.740481 
L 263.25 129.740481 
L 252.7875 129.740481 
L 242.325 129.740481 
L 231.8625 129.740481 
L 221.4 129.740481 
L 210.9375 129.740481 
L 200.475 129.740481 
L 190.0125 129.740481 
L 179.55 129.740481 
L 169.0875 129.740481 
L 158.625 129.740481 
L 148.1625 129.740481 
L 137.7 129.740481 
L 127.2375 129.740481 
L 116.775 129.740481 
L 106.3125 129.740481 
L 95.85 129.740481 
L 85.3875 129.740481 
L 74.925 129.740481 
L 64.4625 129.740481 
L 54 129.740481 
L 54 130.840434 
z
" style="fill:#f7fbff;fill-opacity:0.8;"/>
   </g>
   <g id="PathCollection_5">
    <path clip-path="url(#pcea233c040)" d="M 64.4625 157.919472 
L 74.925 157.919472 
L 85.3875 157.919472 
L 95.85 157.919472 
L 106.3125 157.919472 
L 116.775 157.919472 
L 127.2375 157.919472 
L 137.7 157.919472 
L 148.1625 157.919472 
L 158.625 157.919472 
L 169.0875 157.919472 
L 179.55 157.919472 
L 190.0125 157.919472 
L 200.475 157.919472 
L 210.9375 157.919472 
L 221.4 157.919472 
L 231.8625 157.919472 
L 242.325 157.919472 
L 252.7875 157.919472 
L 263.25 157.919472 
L 273.7125 157.919472 
L 284.175 157.919472 
L 294.6375 157.919472 
L 305.1 157.919472 
L 315.5625 157.919472 
L 326.025 157.919472 
L 336.4875 157.919472 
L 346.95 157.919472 
L 357.4125 157.919472 
L 367.875 157.919472 
L 378.3375 157.919472 
L 388.8 157.919472 
L 388.8 156.819519 
L 378.3375 156.819519 
L 367.875 156.819519 
L 357.4125 156.819519 
L 346.95 156.819519 
L 336.4875 156.819519 
L 326.025 156.819519 
L 315.5625 156.819519 
L 305.1 156.819519 
L 294.6375 156.819519 
L 284.175 156.819519 
L 273.7125 156.819519 
L 263.25 156.819519 
L 252.7875 156.819519 
L 242.325 156.819519 
L 231.8625 156.819519 
L 221.4 156.819519 
L 210.9375 156.819519 
L 200.475 156.819519 
L 190.0125 156.819519 
L 179.55 156.819519 
L 169.0875 156.819519 
L 158.625 156.819519 
L 148.1625 156.819519 
L 137.7 156.819519 
L 127.2375 156.819519 
L 116.775 156.819519 
L 106.3125 156.819519 
L 95.85 156.819519 
L 85.3875 156.819519 
L 74.925 156.819519 
L 64.4625 156.819519 
L 54 156.819519 
L 54 157.919472 
z
" style="fill:#cde0f1;fill-opacity:0.8;"/>
    <path clip-path="url(#pcea233c040)" d="M 64.4625 129.740481 
L 74.925 129.740481 
L 85.3875 129.740481 
L 95.85 129.740481 
L 106.3125 129.740481 
L 116.775 129.740481 
L 127.2375 129.740481 
L 137.7 129.740481 
L 148.1625 129.740481 
L 158.625 129.740481 
L 169.0875 129.740481 
L 179.55 129.740481 
L 190.0125 129.740481 
L 200.475 129.740481 
L 210.9375 129.740481 
L 221.4 129.740481 
L 231.8625 129.740481 
L 242.325 129.740481 
L 252.7875 129.740481 
L 263.25 129.740481 
L 273.7125 129.740481 
L 284.175 129.740481 
L 294.6375 129.740481 
L 305.1 129.740481 
L 315.5625 129.740481 
L 326.025 129.740481 
L 336.4875 129.740481 
L 346.95 129.740481 
L 357.4125 129.740481 
L 367.875 129.740481 
L 378.3375 129.740481 
L 388.8 129.740481 
L 388.8 128.640528 
L 378.3375 128.640528 
L 367.875 128.640528 
L 357.4125 128.640528 
L 346.95 128.640528 
L 336.4875 128.640528 
L 326.025 128.640528 
L 315.5625 128.640528 
L 305.1 128.640528 
L 294.6375 128.640528 
L 284.175 128.640528 
L 273.7125 128.640528 
L 263.25 128.640528 
L 252.7875 128.640528 
L 242.325 128.640528 
L 231.8625 128.640528 
L 221.4 128.640528 
L 210.9375 128.640528 
L 200.475 128.640528 
L 190.0125 128.640528 
L 179.55 128.640528 
L 169.0875 128.640528 
L 158.625 128.640528 
L 148.1625 128.640528 
L 137.7 128.640528 
L 127.2375 128.640528 
L 116.775 128.640528 
L 106.3125 128.640528 
L 95.85 128.640528 
L 85.3875 128.640528 
L 74.925 128.640528 
L 64.4625 128.640528 
L 54 128.640528 
L 54 129.740481 
z
" style="fill:#cde0f1;fill-opacity:0.8;"/>
   </g>
   <g id="PathCollection_6">
    <path clip-path="url(#pcea233c040)" d="M 64.4625 159.019425 
L 74.925 159.019425 
L 85.3875 159.019425 
L 95.85 159.019425 
L 106.3125 159.019425 
L 116.775 159.019425 
L 127.2375 159.019425 
L 137.7 159.019425 
L 148.1625 159.019425 
L 158.625 159.019425 
L 169.0875 159.019425 
L 179.55 159.019425 
L 190.0125 159.019425 
L 200.475 159.019425 
L 210.9375 159.019425 
L 221.4 159.019425 
L 231.8625 159.019425 
L 242.325 159.019425 
L 252.7875 159.019425 
L 263.25 159.019425 
L 273.7125 159.019425 
L 284.175 159.019425 
L 294.6375 159.019425 
L 305.1 159.019425 
L 315.5625 159.019425 
L 326.025 159.019425 
L 336.4875 159.019425 
L 346.95 159.019425 
L 357.4125 159.019425 
L 367.875 159.019425 
L 378.3375 159.019425 
L 388.8 159.019425 
L 388.8 157.919472 
L 378.3375 157.919472 
L 367.875 157.919472 
L 357.4125 157.919472 
L 346.95 157.919472 
L 336.4875 157.919472 
L 326.025 157.919472 
L 315.5625 157.919472 
L 305.1 157.919472 
L 294.6375 157.919472 
L 284.175 157.919472 
L 273.7125 157.919472 
L 263.25 157.919472 
L 252.7875 157.919472 
L 242.325 157.919472 
L 231.8625 157.919472 
L 221.4 157.919472 
L 210.9375 157.919472 
L 200.475 157.919472 
L 190.0125 157.919472 
L 179.55 157.919472 
L 169.0875 157.919472 
L 158.625 157.919472 
L 148.1625 157.919472 
L 137.7 157.919472 
L 127.2375 157.919472 
L 116.775 157.919472 
L 106.3125 157.919472 
L 95.85 157.919472 
L 85.3875 157.919472 
L 74.925 157.919472 
L 64.4625 157.919472 
L 54 157.919472 
L 54 159.019425 
z
" style="fill:#87bddc;fill-opacity:0.8;"/>
    <path clip-path="url(#pcea233c040)" d="M 64.4625 128.640528 
L 74.925 128.640528 
L 85.3875 128.640528 
L 95.85 128.640528 
L 106.3125 128.640528 
L 116.775 128.640528 
L 127.2375 128.640528 
L 137.7 128.640528 
L 148.1625 128.640528 
L 158.625 128.640528 
L 169.0875 128.640528 
L 179.55 128.640528 
L 190.0125 128.640528 
L 200.475 128.640528 
L 210.9375 128.640528 
L 221.4 128.640528 
L 231.8625 128.640528 
L 242.325 128.640528 
L 252.7875 128.640528 
L 263.25 128.640528 
L 273.7125 128.640528 
L 284.175 128.640528 
L 294.6375 128.640528 
L 305.1 128.640528 
L 315.5625 128.640528 
L 326.025 128.640528 
L 336.4875 128.640528 
L 346.95 128.640528 
L 357.4125 128.640528 
L 367.875 128.640528 
L 378.3375 128.640528 
L 388.8 128.640528 
L 388.8 127.540575 
L 378.3375 127.540575 
L 367.875 127.540575 
L 357.4125 127.540575 
L 346.95 127.540575 
L 336.4875 127.540575 
L 326.025 127.540575 
L 315.5625 127.540575 
L 305.1 127.540575 
L 294.6375 127.540575 
L 284.175 127.540575 
L 273.7125 127.540575 
L 263.25 127.540575 
L 252.7875 127.540575 
L 242.325 127.540575 
L 231.8625 127.540575 
L 221.4 127.540575 
L 210.9375 127.540575 
L 200.475 127.540575 
L 190.0125 127.540575 
L 179.55 127.540575 
L 169.0875 127.540575 
L 158.625 127.540575 
L 148.1625 127.540575 
L 137.7 127.540575 
L 127.2375 127.540575 
L 116.775 127.540575 
L 106.3125 127.540575 
L 95.85 127.540575 
L 85.3875 127.540575 
L 74.925 127.540575 
L 64.4625 127.540575 
L 54 127.540575 
L 54 128.640528 
z
" style="fill:#87bddc;fill-opacity:0.8;"/>
   </g>
   <g id="PathCollection_7">
    <path clip-path="url(#pcea233c040)" d="M 64.4625 252 
L 74.925 252 
L 85.3875 252 
L 95.85 252 
L 106.3125 252 
L 116.775 252 
L 127.2375 252 
L 137.7 252 
L 148.1625 252 
L 158.625 252 
L 169.0875 252 
L 179.55 252 
L 190.0125 252 
L 200.475 252 
L 210.9375 252 
L 221.4 252 
L 231.8625 252 
L 242.325 252 
L 252.7875 252 
L 263.25 252 
L 273.7125 252 
L 284.175 252 
L 294.6375 252 
L 305.1 252 
L 315.5625 252 
L 326.025 252 
L 336.4875 252 
L 346.95 252 
L 357.4125 252 
L 367.875 252 
L 378.3375 252 
L 388.8 252 
L 388.8 245.410909 
L 388.8 238.821818 
L 388.8 232.232727 
L 388.8 225.643636 
L 388.8 219.054545 
L 388.8 212.465455 
L 388.8 205.876364 
L 388.8 199.287273 
L 388.8 192.698182 
L 388.8 186.109091 
L 388.8 179.52 
L 388.8 172.930909 
L 388.8 166.341818 
L 388.8 159.752727 
L 388.8 159.019425 
L 378.3375 159.019425 
L 367.875 159.019425 
L 357.4125 159.019425 
L 346.95 159.019425 
L 336.4875 159.019425 
L 326.025 159.019425 
L 315.5625 159.019425 
L 305.1 159.019425 
L 294.6375 159.019425 
L 284.175 159.019425 
L 273.7125 159.019425 
L 263.25 159.019425 
L 252.7875 159.019425 
L 242.325 159.019425 
L 231.8625 159.019425 
L 221.4 159.019425 
L 210.9375 159.019425 
L 200.475 159.019425 
L 190.0125 159.019425 
L 179.55 159.019425 
L 169.0875 159.019425 
L 158.625 159.019425 
L 148.1625 159.019425 
L 137.7 159.019425 
L 127.2375 159.019425 
L 116.775 159.019425 
L 106.3125 159.019425 
L 95.85 159.019425 
L 85.3875 159.019425 
L 74.925 159.019425 
L 64.4625 159.019425 
L 54 159.019425 
L 54 159.752727 
L 54 166.341818 
L 54 172.930909 
L 54 179.52 
L 54 186.109091 
L 54 192.698182 
L 54 199.287273 
L 54 205.876364 
L 54 212.465455 
L 54 219.054545 
L 54 225.643636 
L 54 232.232727 
L 54 238.821818 
L 54 245.410909 
L 54 252 
z
" style="fill:#3d8dc4;fill-opacity:0.8;"/>
    <path clip-path="url(#pcea233c040)" d="M 64.4625 127.540575 
L 74.925 127.540575 
L 85.3875 127.540575 
L 95.85 127.540575 
L 106.3125 127.540575 
L 116.775 127.540575 
L 127.2375 127.540575 
L 137.7 127.540575 
L 148.1625 127.540575 
L 158.625 127.540575 
L 169.0875 127.540575 
L 179.55 127.540575 
L 190.0125 127.540575 
L 200.475 127.540575 
L 210.9375 127.540575 
L 221.4 127.540575 
L 231.8625 127.540575 
L 242.325 127.540575 
L 252.7875 127.540575 
L 263.25 127.540575 
L 273.7125 127.540575 
L 284.175 127.540575 
L 294.6375 127.540575 
L 305.1 127.540575 
L 315.5625 127.540575 
L 326.025 127.540575 
L 336.4875 127.540575 
L 346.95 127.540575 
L 357.4125 127.540575 
L 367.875 127.540575 
L 378.3375 127.540575 
L 388.8 127.540575 
L 388.8 126.807273 
L 388.8 120.218182 
L 388.8 113.629091 
L 388.8 107.04 
L 388.8 100.450909 
L 388.8 93.861818 
L 388.8 87.272727 
L 388.8 80.683636 
L 388.8 74.094545 
L 388.8 67.505455 
L 388.8 60.916364 
L 388.8 54.327273 
L 388.8 47.738182 
L 388.8 41.149091 
L 388.8 34.56 
L 378.3375 34.56 
L 367.875 34.56 
L 357.4125 34.56 
L 346.95 34.56 
L 336.4875 34.56 
L 326.025 34.56 
L 315.5625 34.56 
L 305.1 34.56 
L 294.6375 34.56 
L 284.175 34.56 
L 273.7125 34.56 
L 263.25 34.56 
L 252.7875 34.56 
L 242.325 34.56 
L 231.8625 34.56 
L 221.4 34.56 
L 210.9375 34.56 
L 200.475 34.56 
L 190.0125 34.56 
L 179.55 34.56 
L 169.0875 34.56 
L 158.625 34.56 
L 148.1625 34.56 
L 137.7 34.56 
L 127.2375 34.56 
L 116.775 34.56 
L 106.3125 34.56 
L 95.85 34.56 
L 85.3875 34.56 
L 74.925 34.56 
L 64.4625 34.56 
L 54 34.56 
L 54 41.149091 
L 54 47.738182 
L 54 54.327273 
L 54 60.916364 
L 54 67.505455 
L 54 74.094545 
L 54 80.683636 
L 54 87.272727 
L 54 93.861818 
L 54 100.450909 
L 54 107.04 
L 54 113.629091 
L 54 120.218182 
L 54 126.807273 
L 54 127.540575 
z
" style="fill:#3d8dc4;fill-opacity:0.8;"/>
   </g>
   <g id="PathCollection_8">
    <defs>
     <path d="M 0 3 
C 0.795609 3 1.55874 2.683901 2.12132 2.12132 
C 2.683901 1.55874 3 0.795609 3 -0 
C 3 -0.795609 2.683901 -1.55874 2.12132 -2.12132 
C 1.55874 -2.683901 0.795609 -3 0 -3 
C -0.795609 -3 -1.55874 -2.683901 -2.12132 -2.12132 
C -2.683901 -1.55874 -3 -0.795609 -3 0 
C -3 0.795609 -2.683901 1.55874 -2.12132 2.12132 
C -1.55874 2.683901 -0.795609 3 0 3 
z
" id="C0_0_adc2096298"/>
    </defs>
    <g clip-path="url(#pcea233c040)">
     <use style="fill:#1e90ff;stroke:#000000;" x="115.050708" xlink:href="#C0_0_adc2096298" y="122.412393"/>
    </g>
    <g clip-path="url(#pcea233c040)">
     <use style="fill:#ff8000;stroke:#000000;" x="223.751771" xlink:href="#C0_0_adc2096298" y="143.205072"/>
    </g>
    <g clip-path="url(#pcea233c040)">
     <use style="fill:#1e90ff;stroke:#000000;" x="295.998117" xlink:href="#C0_0_adc2096298" y="176.953224"/>
    </g>
    <g clip-path="url(#pcea233c040)">
     <use style="fill:#1e90ff;stroke:#000000;" x="200.321355" xlink:href="#C0_0_adc2096298" y="202.02004"/>
    </g>
    <g clip-path="url(#pcea233c040)">
     <use style="fill:#1e90ff;stroke:#000000;" x="274.782346" xlink:href="#C0_0_adc2096298" y="186.83539"/>
    </g>
    <g clip-path="url(#pcea233c040)">
     <use style="fill:#1e90ff;stroke:#000000;" x="310.834333" xlink:href="#C0_0_adc2096298" y="176.495459"/>
    </g>
    <g clip-path="url(#pcea233c040)">
     <use style="fill:#1e90ff;stroke:#000000;" x="292.970991" xlink:href="#C0_0_adc2096298" y="108.090522"/>
    </g>
    <g clip-path="url(#pcea233c040)">
     <use style="fill:#ff8000;stroke:#000000;" x="224.705305" xlink:href="#C0_0_adc2096298" y="146.675882"/>
    </g>
    <g clip-path="url(#pcea233c040)">
     <use style="fill:#1e90ff;stroke:#000000;" x="162.191196" xlink:href="#C0_0_adc2096298" y="184.893583"/>
    </g>
    <g clip-path="url(#pcea233c040)">
     <use style="fill:#ff8000;stroke:#000000;" x="212.987888" xlink:href="#C0_0_adc2096298" y="142.025471"/>
    </g>
    <g clip-path="url(#pcea233c040)">
     <use style="fill:#ff8000;stroke:#000000;" x="226.024791" xlink:href="#C0_0_adc2096298" y="139.112046"/>
    </g>
    <g clip-path="url(#pcea233c040)">
     <use style="fill:#1e90ff;stroke:#000000;" x="199.781578" xlink:href="#C0_0_adc2096298" y="209.484885"/>
    </g>
    <g clip-path="url(#pcea233c040)">
     <use style="fill:#1e90ff;stroke:#000000;" x="208.402977" xlink:href="#C0_0_adc2096298" y="219.054545"/>
    </g>
    <g clip-path="url(#pcea233c040)">
     <use style="fill:#1e90ff;stroke:#000000;" x="145.310172" xlink:href="#C0_0_adc2096298" y="107.368698"/>
    </g>
    <g clip-path="url(#pcea233c040)">
     <use style="fill:#1e90ff;stroke:#000000;" x="206.630365" xlink:href="#C0_0_adc2096298" y="213.637954"/>
    </g>
    <g clip-path="url(#pcea233c040)">
     <use style="fill:#ff8000;stroke:#000000;" x="215.306102" xlink:href="#C0_0_adc2096298" y="148.229252"/>
    </g>
    <g clip-path="url(#pcea233c040)">
     <use style="fill:#1e90ff;stroke:#000000;" x="321.918532" xlink:href="#C0_0_adc2096298" y="159.691291"/>
    </g>
    <g clip-path="url(#pcea233c040)">
     <use style="fill:#1e90ff;stroke:#000000;" x="164.057948" xlink:href="#C0_0_adc2096298" y="198.210433"/>
    </g>
    <g clip-path="url(#pcea233c040)">
     <use style="fill:#ff8000;stroke:#000000;" x="230.180041" xlink:href="#C0_0_adc2096298" y="142.396644"/>
    </g>
    <g clip-path="url(#pcea233c040)">
     <use style="fill:#ff8000;stroke:#000000;" x="223.47515" xlink:href="#C0_0_adc2096298" y="135.906545"/>
    </g>
    <g clip-path="url(#pcea233c040)">
     <use style="fill:#ff8000;stroke:#000000;" x="221.476004" xlink:href="#C0_0_adc2096298" y="146.721651"/>
    </g>
    <g clip-path="url(#pcea233c040)">
     <use style="fill:#ff8000;stroke:#000000;" x="232.914055" xlink:href="#C0_0_adc2096298" y="141.771897"/>
    </g>
    <g clip-path="url(#pcea233c040)">
     <use style="fill:#1e90ff;stroke:#000000;" x="337.156124" xlink:href="#C0_0_adc2096298" y="167.360181"/>
    </g>
    <g clip-path="url(#pcea233c040)">
     <use style="fill:#ff8000;stroke:#000000;" x="222.993267" xlink:href="#C0_0_adc2096298" y="155.344131"/>
    </g>
    <g clip-path="url(#pcea233c040)">
     <use style="fill:#1e90ff;stroke:#000000;" x="237.63569" xlink:href="#C0_0_adc2096298" y="76.171637"/>
    </g>
    <g clip-path="url(#pcea233c040)">
     <use style="fill:#ff8000;stroke:#000000;" x="217.085298" xlink:href="#C0_0_adc2096298" y="147.078521"/>
    </g>
    <g clip-path="url(#pcea233c040)">
     <use style="fill:#ff8000;stroke:#000000;" x="214.606763" xlink:href="#C0_0_adc2096298" y="137.272495"/>
    </g>
    <g clip-path="url(#pcea233c040)">
     <use style="fill:#ff8000;stroke:#000000;" x="238.532041" xlink:href="#C0_0_adc2096298" y="138.623112"/>
    </g>
    <g clip-path="url(#pcea233c040)">
     <use style="fill:#1e90ff;stroke:#000000;" x="268.200177" xlink:href="#C0_0_adc2096298" y="193.196458"/>
    </g>
    <g clip-path="url(#pcea233c040)">
     <use style="fill:#1e90ff;stroke:#000000;" x="137.410465" xlink:href="#C0_0_adc2096298" y="188.739174"/>
    </g>
    <g clip-path="url(#pcea233c040)">
     <use style="fill:#ff8000;stroke:#000000;" x="239.687277" xlink:href="#C0_0_adc2096298" y="143.16163"/>
    </g>
    <g clip-path="url(#pcea233c040)">
     <use style="fill:#1e90ff;stroke:#000000;" x="113.962558" xlink:href="#C0_0_adc2096298" y="140.857253"/>
    </g>
    <g clip-path="url(#pcea233c040)">
     <use style="fill:#1e90ff;stroke:#000000;" x="320.558086" xlink:href="#C0_0_adc2096298" y="167.84944"/>
    </g>
    <g clip-path="url(#pcea233c040)">
     <use style="fill:#ff8000;stroke:#000000;" x="225.142416" xlink:href="#C0_0_adc2096298" y="141.660679"/>
    </g>
    <g clip-path="url(#pcea233c040)">
     <use style="fill:#1e90ff;stroke:#000000;" x="298.122753" xlink:href="#C0_0_adc2096298" y="191.450961"/>
    </g>
    <g clip-path="url(#pcea233c040)">
     <use style="fill:#1e90ff;stroke:#000000;" x="149.981506" xlink:href="#C0_0_adc2096298" y="88.834903"/>
    </g>
    <g clip-path="url(#pcea233c040)">
     <use style="fill:#ff8000;stroke:#000000;" x="224.048211" xlink:href="#C0_0_adc2096298" y="142.645987"/>
    </g>
    <g clip-path="url(#pcea233c040)">
     <use style="fill:#ff8000;stroke:#000000;" x="223.812175" xlink:href="#C0_0_adc2096298" y="142.732764"/>
    </g>
    <g clip-path="url(#pcea233c040)">
     <use style="fill:#1e90ff;stroke:#000000;" x="189.691034" xlink:href="#C0_0_adc2096298" y="92.649153"/>
    </g>
    <g clip-path="url(#pcea233c040)">
     <use style="fill:#ff8000;stroke:#000000;" x="238.740555" xlink:href="#C0_0_adc2096298" y="141.256094"/>
    </g>
    <g clip-path="url(#pcea233c040)">
     <use style="fill:#ff8000;stroke:#000000;" x="223.181419" xlink:href="#C0_0_adc2096298" y="141.122638"/>
    </g>
    <g clip-path="url(#pcea233c040)">
     <use style="fill:#1e90ff;stroke:#000000;" x="336.35101" xlink:href="#C0_0_adc2096298" y="132.101112"/>
    </g>
    <g clip-path="url(#pcea233c040)">
     <use style="fill:#1e90ff;stroke:#000000;" x="269.207843" xlink:href="#C0_0_adc2096298" y="87.019806"/>
    </g>
    <g clip-path="url(#pcea233c040)">
     <use style="fill:#ff8000;stroke:#000000;" x="224.979075" xlink:href="#C0_0_adc2096298" y="144.955226"/>
    </g>
    <g clip-path="url(#pcea233c040)">
     <use style="fill:#ff8000;stroke:#000000;" x="239.433108" xlink:href="#C0_0_adc2096298" y="143.330492"/>
    </g>
    <g clip-path="url(#pcea233c040)">
     <use style="fill:#ff8000;stroke:#000000;" x="218.401033" xlink:href="#C0_0_adc2096298" y="141.299845"/>
    </g>
    <g clip-path="url(#pcea233c040)">
     <use style="fill:#ff8000;stroke:#000000;" x="252.731499" xlink:href="#C0_0_adc2096298" y="138.998287"/>
    </g>
    <g clip-path="url(#pcea233c040)">
     <use style="fill:#ff8000;stroke:#000000;" x="223.175269" xlink:href="#C0_0_adc2096298" y="140.46884"/>
    </g>
    <g clip-path="url(#pcea233c040)">
     <use style="fill:#1e90ff;stroke:#000000;" x="233.410988" xlink:href="#C0_0_adc2096298" y="216.340725"/>
    </g>
    <g clip-path="url(#pcea233c040)">
     <use style="fill:#1e90ff;stroke:#000000;" x="243.964334" xlink:href="#C0_0_adc2096298" y="208.099877"/>
    </g>
    <g clip-path="url(#pcea233c040)">
     <use style="fill:#ff8000;stroke:#000000;" x="228.378352" xlink:href="#C0_0_adc2096298" y="140.693947"/>
    </g>
    <g clip-path="url(#pcea233c040)">
     <use style="fill:#1e90ff;stroke:#000000;" x="295.24261" xlink:href="#C0_0_adc2096298" y="196.761829"/>
    </g>
    <g clip-path="url(#pcea233c040)">
     <use style="fill:#ff8000;stroke:#000000;" x="229.499034" xlink:href="#C0_0_adc2096298" y="129.766602"/>
    </g>
    <g clip-path="url(#pcea233c040)">
     <use style="fill:#ff8000;stroke:#000000;" x="220.017761" xlink:href="#C0_0_adc2096298" y="140.752724"/>
    </g>
    <g clip-path="url(#pcea233c040)">
     <use style="fill:#ff8000;stroke:#000000;" x="212.171459" xlink:href="#C0_0_adc2096298" y="140.624449"/>
    </g>
    <g clip-path="url(#pcea233c040)">
     <use style="fill:#ff8000;stroke:#000000;" x="225.050956" xlink:href="#C0_0_adc2096298" y="143.176064"/>
    </g>
    <g clip-path="url(#pcea233c040)">
     <use style="fill:#ff8000;stroke:#000000;" x="242.072269" xlink:href="#C0_0_adc2096298" y="143.219098"/>
    </g>
    <g clip-path="url(#pcea233c040)">
     <use style="fill:#1e90ff;stroke:#000000;" x="243.21513" xlink:href="#C0_0_adc2096298" y="84.722223"/>
    </g>
    <g clip-path="url(#pcea233c040)">
     <use style="fill:#ff8000;stroke:#000000;" x="229.221059" xlink:href="#C0_0_adc2096298" y="145.472672"/>
    </g>
    <g clip-path="url(#pcea233c040)">
     <use style="fill:#1e90ff;stroke:#000000;" x="141.486697" xlink:href="#C0_0_adc2096298" y="94.302852"/>
    </g>
    <g clip-path="url(#pcea233c040)">
     <use style="fill:#ff8000;stroke:#000000;" x="224.308597" xlink:href="#C0_0_adc2096298" y="143.108536"/>
    </g>
    <g clip-path="url(#pcea233c040)">
     <use style="fill:#1e90ff;stroke:#000000;" x="155.494148" xlink:href="#C0_0_adc2096298" y="189.210703"/>
    </g>
    <g clip-path="url(#pcea233c040)">
     <use style="fill:#1e90ff;stroke:#000000;" x="321.067433" xlink:href="#C0_0_adc2096298" y="105.324003"/>
    </g>
    <g clip-path="url(#pcea233c040)">
     <use style="fill:#1e90ff;stroke:#000000;" x="146.08864" xlink:href="#C0_0_adc2096298" y="198.378613"/>
    </g>
    <g clip-path="url(#pcea233c040)">
     <use style="fill:#ff8000;stroke:#000000;" x="228.573673" xlink:href="#C0_0_adc2096298" y="139.741984"/>
    </g>
    <g clip-path="url(#pcea233c040)">
     <use style="fill:#1e90ff;stroke:#000000;" x="143.792905" xlink:href="#C0_0_adc2096298" y="185.60221"/>
    </g>
    <g clip-path="url(#pcea233c040)">
     <use style="fill:#ff8000;stroke:#000000;" x="215.752966" xlink:href="#C0_0_adc2096298" y="142.249242"/>
    </g>
    <g clip-path="url(#pcea233c040)">
     <use style="fill:#1e90ff;stroke:#000000;" x="109.340758" xlink:href="#C0_0_adc2096298" y="156.224204"/>
    </g>
    <g clip-path="url(#pcea233c040)">
     <use style="fill:#ff8000;stroke:#000000;" x="220.670893" xlink:href="#C0_0_adc2096298" y="143.6111"/>
    </g>
    <g clip-path="url(#pcea233c040)">
     <use style="fill:#1e90ff;stroke:#000000;" x="133.049885" xlink:href="#C0_0_adc2096298" y="167.164148"/>
    </g>
    <g clip-path="url(#pcea233c040)">
     <use style="fill:#ff8000;stroke:#000000;" x="216.854058" xlink:href="#C0_0_adc2096298" y="139.261028"/>
    </g>
    <g clip-path="url(#pcea233c040)">
     <use style="fill:#ff8000;stroke:#000000;" x="223.823629" xlink:href="#C0_0_adc2096298" y="142.440822"/>
    </g>
    <g clip-path="url(#pcea233c040)">
     <use style="fill:#1e90ff;stroke:#000000;" x="126.17027" xlink:href="#C0_0_adc2096298" y="176.046257"/>
    </g>
    <g clip-path="url(#pcea233c040)">
     <use style="fill:#1e90ff;stroke:#000000;" x="312.64653" xlink:href="#C0_0_adc2096298" y="184.977062"/>
    </g>
    <g clip-path="url(#pcea233c040)">
     <use style="fill:#ff8000;stroke:#000000;" x="234.712751" xlink:href="#C0_0_adc2096298" y="140.188777"/>
    </g>
    <g clip-path="url(#pcea233c040)">
     <use style="fill:#1e90ff;stroke:#000000;" x="263.425125" xlink:href="#C0_0_adc2096298" y="208.347538"/>
    </g>
    <g clip-path="url(#pcea233c040)">
     <use style="fill:#ff8000;stroke:#000000;" x="224.698866" xlink:href="#C0_0_adc2096298" y="143.277667"/>
    </g>
    <g clip-path="url(#pcea233c040)">
     <use style="fill:#ff8000;stroke:#000000;" x="230.43077" xlink:href="#C0_0_adc2096298" y="145.465124"/>
    </g>
    <g clip-path="url(#pcea233c040)">
     <use style="fill:#ff8000;stroke:#000000;" x="220.698565" xlink:href="#C0_0_adc2096298" y="145.234503"/>
    </g>
    <g clip-path="url(#pcea233c040)">
     <use style="fill:#1e90ff;stroke:#000000;" x="317.710035" xlink:href="#C0_0_adc2096298" y="127.573744"/>
    </g>
    <g clip-path="url(#pcea233c040)">
     <use style="fill:#1e90ff;stroke:#000000;" x="135.309053" xlink:href="#C0_0_adc2096298" y="103.248398"/>
    </g>
    <g clip-path="url(#pcea233c040)">
     <use style="fill:#ff8000;stroke:#000000;" x="213.329953" xlink:href="#C0_0_adc2096298" y="146.314038"/>
    </g>
    <g clip-path="url(#pcea233c040)">
     <use style="fill:#1e90ff;stroke:#000000;" x="283.093201" xlink:href="#C0_0_adc2096298" y="197.565308"/>
    </g>
    <g clip-path="url(#pcea233c040)">
     <use style="fill:#ff8000;stroke:#000000;" x="223.429088" xlink:href="#C0_0_adc2096298" y="142.969531"/>
    </g>
    <g clip-path="url(#pcea233c040)">
     <use style="fill:#ff8000;stroke:#000000;" x="221.631663" xlink:href="#C0_0_adc2096298" y="145.943939"/>
    </g>
    <g clip-path="url(#pcea233c040)">
     <use style="fill:#ff8000;stroke:#000000;" x="235.650327" xlink:href="#C0_0_adc2096298" y="147.428989"/>
    </g>
    <g clip-path="url(#pcea233c040)">
     <use style="fill:#ff8000;stroke:#000000;" x="218.080135" xlink:href="#C0_0_adc2096298" y="151.791033"/>
    </g>
    <g clip-path="url(#pcea233c040)">
     <use style="fill:#1e90ff;stroke:#000000;" x="215.214356" xlink:href="#C0_0_adc2096298" y="88.903907"/>
    </g>
    <g clip-path="url(#pcea233c040)">
     <use style="fill:#ff8000;stroke:#000000;" x="223.825259" xlink:href="#C0_0_adc2096298" y="143.325077"/>
    </g>
    <g clip-path="url(#pcea233c040)">
     <use style="fill:#1e90ff;stroke:#000000;" x="137.673646" xlink:href="#C0_0_adc2096298" y="134.522161"/>
    </g>
    <g clip-path="url(#pcea233c040)">
     <use style="fill:#1e90ff;stroke:#000000;" x="294.635005" xlink:href="#C0_0_adc2096298" y="94.205051"/>
    </g>
    <g clip-path="url(#pcea233c040)">
     <use style="fill:#1e90ff;stroke:#000000;" x="110.400166" xlink:href="#C0_0_adc2096298" y="139.737883"/>
    </g>
    <g clip-path="url(#pcea233c040)">
     <use style="fill:#1e90ff;stroke:#000000;" x="317.167729" xlink:href="#C0_0_adc2096298" y="137.417151"/>
    </g>
    <g clip-path="url(#pcea233c040)">
     <use style="fill:#1e90ff;stroke:#000000;" x="317.765476" xlink:href="#C0_0_adc2096298" y="107.229388"/>
    </g>
    <g clip-path="url(#pcea233c040)">
     <use style="fill:#ff8000;stroke:#000000;" x="217.304698" xlink:href="#C0_0_adc2096298" y="142.123099"/>
    </g>
    <g clip-path="url(#pcea233c040)">
     <use style="fill:#ff8000;stroke:#000000;" x="212.760232" xlink:href="#C0_0_adc2096298" y="136.373874"/>
    </g>
    <g clip-path="url(#pcea233c040)">
     <use style="fill:#1e90ff;stroke:#000000;" x="120.720293" xlink:href="#C0_0_adc2096298" y="105.772771"/>
    </g>
    <g clip-path="url(#pcea233c040)">
     <use style="fill:#ff8000;stroke:#000000;" x="224.270289" xlink:href="#C0_0_adc2096298" y="141.407002"/>
    </g>
    <g clip-path="url(#pcea233c040)">
     <use style="fill:#1e90ff;stroke:#000000;" x="164.560938" xlink:href="#C0_0_adc2096298" y="90.85434"/>
    </g>
    <g clip-path="url(#pcea233c040)">
     <use style="fill:#1e90ff;stroke:#000000;" x="108.760691" xlink:href="#C0_0_adc2096298" y="146.979399"/>
    </g>
    <g clip-path="url(#pcea233c040)">
     <use style="fill:#ff8000;stroke:#000000;" x="223.707751" xlink:href="#C0_0_adc2096298" y="143.038366"/>
    </g>
    <g clip-path="url(#pcea233c040)">
     <use style="fill:#ff8000;stroke:#000000;" x="212.455438" xlink:href="#C0_0_adc2096298" y="137.420749"/>
    </g>
    <g clip-path="url(#pcea233c040)">
     <use style="fill:#1e90ff;stroke:#000000;" x="217.801089" xlink:href="#C0_0_adc2096298" y="71.399933"/>
    </g>
    <g clip-path="url(#pcea233c040)">
     <use style="fill:#ff8000;stroke:#000000;" x="238.7823" xlink:href="#C0_0_adc2096298" y="142.920149"/>
    </g>
    <g clip-path="url(#pcea233c040)">
     <use style="fill:#1e90ff;stroke:#000000;" x="166.344368" xlink:href="#C0_0_adc2096298" y="192.934761"/>
    </g>
    <g clip-path="url(#pcea233c040)">
     <use style="fill:#ff8000;stroke:#000000;" x="214.931732" xlink:href="#C0_0_adc2096298" y="146.895916"/>
    </g>
    <g clip-path="url(#pcea233c040)">
     <use style="fill:#ff8000;stroke:#000000;" x="220.263928" xlink:href="#C0_0_adc2096298" y="143.288265"/>
    </g>
    <g clip-path="url(#pcea233c040)">
     <use style="fill:#1e90ff;stroke:#000000;" x="165.404356" xlink:href="#C0_0_adc2096298" y="188.085724"/>
    </g>
    <g clip-path="url(#pcea233c040)">
     <use style="fill:#ff8000;stroke:#000000;" x="217.991004" xlink:href="#C0_0_adc2096298" y="144.53199"/>
    </g>
    <g clip-path="url(#pcea233c040)">
     <use style="fill:#ff8000;stroke:#000000;" x="222.769487" xlink:href="#C0_0_adc2096298" y="142.913914"/>
    </g>
    <g clip-path="url(#pcea233c040)">
     <use style="fill:#ff8000;stroke:#000000;" x="219.311891" xlink:href="#C0_0_adc2096298" y="142.286646"/>
    </g>
    <g clip-path="url(#pcea233c040)">
     <use style="fill:#ff8000;stroke:#000000;" x="235.326461" xlink:href="#C0_0_adc2096298" y="139.796636"/>
    </g>
    <g clip-path="url(#pcea233c040)">
     <use style="fill:#1e90ff;stroke:#000000;" x="342.918755" xlink:href="#C0_0_adc2096298" y="124.005703"/>
    </g>
    <g clip-path="url(#pcea233c040)">
     <use style="fill:#1e90ff;stroke:#000000;" x="161.950803" xlink:href="#C0_0_adc2096298" y="110.195775"/>
    </g>
    <g clip-path="url(#pcea233c040)">
     <use style="fill:#1e90ff;stroke:#000000;" x="314.129865" xlink:href="#C0_0_adc2096298" y="131.749524"/>
    </g>
    <g clip-path="url(#pcea233c040)">
     <use style="fill:#ff8000;stroke:#000000;" x="208.788315" xlink:href="#C0_0_adc2096298" y="140.423806"/>
    </g>
    <g clip-path="url(#pcea233c040)">
     <use style="fill:#ff8000;stroke:#000000;" x="217.812615" xlink:href="#C0_0_adc2096298" y="144.50733"/>
    </g>
    <g clip-path="url(#pcea233c040)">
     <use style="fill:#1e90ff;stroke:#000000;" x="185.250165" xlink:href="#C0_0_adc2096298" y="78.212237"/>
    </g>
    <g clip-path="url(#pcea233c040)">
     <use style="fill:#ff8000;stroke:#000000;" x="228.195967" xlink:href="#C0_0_adc2096298" y="144.989407"/>
    </g>
    <g clip-path="url(#pcea233c040)">
     <use style="fill:#ff8000;stroke:#000000;" x="224.96283" xlink:href="#C0_0_adc2096298" y="143.406597"/>
    </g>
    <g clip-path="url(#pcea233c040)">
     <use style="fill:#ff8000;stroke:#000000;" x="224.50192" xlink:href="#C0_0_adc2096298" y="142.954261"/>
    </g>
    <g clip-path="url(#pcea233c040)">
     <use style="fill:#ff8000;stroke:#000000;" x="225.535598" xlink:href="#C0_0_adc2096298" y="144.462506"/>
    </g>
    <g clip-path="url(#pcea233c040)">
     <use style="fill:#1e90ff;stroke:#000000;" x="161.185808" xlink:href="#C0_0_adc2096298" y="199.340316"/>
    </g>
    <g clip-path="url(#pcea233c040)">
     <use style="fill:#1e90ff;stroke:#000000;" x="255.898887" xlink:href="#C0_0_adc2096298" y="81.24735"/>
    </g>
    <g clip-path="url(#pcea233c040)">
     <use style="fill:#1e90ff;stroke:#000000;" x="314.976408" xlink:href="#C0_0_adc2096298" y="162.77518"/>
    </g>
    <g clip-path="url(#pcea233c040)">
     <use style="fill:#ff8000;stroke:#000000;" x="230.442049" xlink:href="#C0_0_adc2096298" y="144.477701"/>
    </g>
    <g clip-path="url(#pcea233c040)">
     <use style="fill:#1e90ff;stroke:#000000;" x="344.482922" xlink:href="#C0_0_adc2096298" y="171.650224"/>
    </g>
    <g clip-path="url(#pcea233c040)">
     <use style="fill:#ff8000;stroke:#000000;" x="224.375375" xlink:href="#C0_0_adc2096298" y="145.285818"/>
    </g>
    <g clip-path="url(#pcea233c040)">
     <use style="fill:#1e90ff;stroke:#000000;" x="116.993753" xlink:href="#C0_0_adc2096298" y="117.292624"/>
    </g>
    <g clip-path="url(#pcea233c040)">
     <use style="fill:#1e90ff;stroke:#000000;" x="290.707804" xlink:href="#C0_0_adc2096298" y="193.592174"/>
    </g>
    <g clip-path="url(#pcea233c040)">
     <use style="fill:#1e90ff;stroke:#000000;" x="316.669996" xlink:href="#C0_0_adc2096298" y="97.789167"/>
    </g>
    <g clip-path="url(#pcea233c040)">
     <use style="fill:#ff8000;stroke:#000000;" x="233.380621" xlink:href="#C0_0_adc2096298" y="132.480812"/>
    </g>
    <g clip-path="url(#pcea233c040)">
     <use style="fill:#ff8000;stroke:#000000;" x="223.937735" xlink:href="#C0_0_adc2096298" y="142.636168"/>
    </g>
    <g clip-path="url(#pcea233c040)">
     <use style="fill:#ff8000;stroke:#000000;" x="225.858512" xlink:href="#C0_0_adc2096298" y="141.496503"/>
    </g>
    <g clip-path="url(#pcea233c040)">
     <use style="fill:#ff8000;stroke:#000000;" x="205.675642" xlink:href="#C0_0_adc2096298" y="141.832691"/>
    </g>
    <g clip-path="url(#pcea233c040)">
     <use style="fill:#ff8000;stroke:#000000;" x="223.380542" xlink:href="#C0_0_adc2096298" y="146.008391"/>
    </g>
    <g clip-path="url(#pcea233c040)">
     <use style="fill:#1e90ff;stroke:#000000;" x="325.524866" xlink:href="#C0_0_adc2096298" y="137.524856"/>
    </g>
    <g clip-path="url(#pcea233c040)">
     <use style="fill:#1e90ff;stroke:#000000;" x="228.603977" xlink:href="#C0_0_adc2096298" y="77.562415"/>
    </g>
    <g clip-path="url(#pcea233c040)">
     <use style="fill:#1e90ff;stroke:#000000;" x="331.857173" xlink:href="#C0_0_adc2096298" y="138.429251"/>
    </g>
    <g clip-path="url(#pcea233c040)">
     <use style="fill:#1e90ff;stroke:#000000;" x="170.213015" xlink:href="#C0_0_adc2096298" y="185.038211"/>
    </g>
    <g clip-path="url(#pcea233c040)">
     <use style="fill:#ff8000;stroke:#000000;" x="216.119653" xlink:href="#C0_0_adc2096298" y="147.260953"/>
    </g>
    <g clip-path="url(#pcea233c040)">
     <use style="fill:#ff8000;stroke:#000000;" x="233.596643" xlink:href="#C0_0_adc2096298" y="150.29017"/>
    </g>
    <g clip-path="url(#pcea233c040)">
     <use style="fill:#1e90ff;stroke:#000000;" x="141.405993" xlink:href="#C0_0_adc2096298" y="173.540246"/>
    </g>
    <g clip-path="url(#pcea233c040)">
     <use style="fill:#1e90ff;stroke:#000000;" x="141.224682" xlink:href="#C0_0_adc2096298" y="110.107547"/>
    </g>
    <g clip-path="url(#pcea233c040)">
     <use style="fill:#1e90ff;stroke:#000000;" x="309.45705" xlink:href="#C0_0_adc2096298" y="190.160453"/>
    </g>
    <g clip-path="url(#pcea233c040)">
     <use style="fill:#1e90ff;stroke:#000000;" x="163.959387" xlink:href="#C0_0_adc2096298" y="209.15977"/>
    </g>
    <g clip-path="url(#pcea233c040)">
     <use style="fill:#ff8000;stroke:#000000;" x="219.743087" xlink:href="#C0_0_adc2096298" y="140.342785"/>
    </g>
    <g clip-path="url(#pcea233c040)">
     <use style="fill:#1e90ff;stroke:#000000;" x="340.268018" xlink:href="#C0_0_adc2096298" y="119.936869"/>
    </g>
    <g clip-path="url(#pcea233c040)">
     <use style="fill:#1e90ff;stroke:#000000;" x="168.183641" xlink:href="#C0_0_adc2096298" y="206.133396"/>
    </g>
    <g clip-path="url(#pcea233c040)">
     <use style="fill:#1e90ff;stroke:#000000;" x="295.714261" xlink:href="#C0_0_adc2096298" y="131.8281"/>
    </g>
    <g clip-path="url(#pcea233c040)">
     <use style="fill:#ff8000;stroke:#000000;" x="220.721904" xlink:href="#C0_0_adc2096298" y="142.602215"/>
    </g>
    <g clip-path="url(#pcea233c040)">
     <use style="fill:#ff8000;stroke:#000000;" x="210.860757" xlink:href="#C0_0_adc2096298" y="141.120179"/>
    </g>
    <g clip-path="url(#pcea233c040)">
     <use style="fill:#ff8000;stroke:#000000;" x="228.061653" xlink:href="#C0_0_adc2096298" y="141.152046"/>
    </g>
    <g clip-path="url(#pcea233c040)">
     <use style="fill:#1e90ff;stroke:#000000;" x="310.767946" xlink:href="#C0_0_adc2096298" y="96.408299"/>
    </g>
    <g clip-path="url(#pcea233c040)">
     <use style="fill:#ff8000;stroke:#000000;" x="221.106981" xlink:href="#C0_0_adc2096298" y="148.131133"/>
    </g>
    <g clip-path="url(#pcea233c040)">
     <use style="fill:#1e90ff;stroke:#000000;" x="247.190901" xlink:href="#C0_0_adc2096298" y="77.316669"/>
    </g>
    <g clip-path="url(#pcea233c040)">
     <use style="fill:#ff8000;stroke:#000000;" x="219.268009" xlink:href="#C0_0_adc2096298" y="131.325061"/>
    </g>
    <g clip-path="url(#pcea233c040)">
     <use style="fill:#1e90ff;stroke:#000000;" x="202.46919" xlink:href="#C0_0_adc2096298" y="197.047483"/>
    </g>
    <g clip-path="url(#pcea233c040)">
     <use style="fill:#1e90ff;stroke:#000000;" x="114.11003" xlink:href="#C0_0_adc2096298" y="93.87402"/>
    </g>
    <g clip-path="url(#pcea233c040)">
     <use style="fill:#1e90ff;stroke:#000000;" x="292.506556" xlink:href="#C0_0_adc2096298" y="186.106375"/>
    </g>
    <g clip-path="url(#pcea233c040)">
     <use style="fill:#1e90ff;stroke:#000000;" x="244.673856" xlink:href="#C0_0_adc2096298" y="198.880934"/>
    </g>
    <g clip-path="url(#pcea233c040)">
     <use style="fill:#ff8000;stroke:#000000;" x="225.066624" xlink:href="#C0_0_adc2096298" y="146.015159"/>
    </g>
    <g clip-path="url(#pcea233c040)">
     <use style="fill:#1e90ff;stroke:#000000;" x="173.565918" xlink:href="#C0_0_adc2096298" y="91.015369"/>
    </g>
    <g clip-path="url(#pcea233c040)">
     <use style="fill:#1e90ff;stroke:#000000;" x="323.884508" xlink:href="#C0_0_adc2096298" y="124.560026"/>
    </g>
    <g clip-path="url(#pcea233c040)">
     <use style="fill:#ff8000;stroke:#000000;" x="240.1131" xlink:href="#C0_0_adc2096298" y="137.63439"/>
    </g>
    <g clip-path="url(#pcea233c040)">
     <use style="fill:#ff8000;stroke:#000000;" x="228.942417" xlink:href="#C0_0_adc2096298" y="149.640079"/>
    </g>
    <g clip-path="url(#pcea233c040)">
     <use style="fill:#ff8000;stroke:#000000;" x="227.757617" xlink:href="#C0_0_adc2096298" y="144.958772"/>
    </g>
    <g clip-path="url(#pcea233c040)">
     <use style="fill:#1e90ff;stroke:#000000;" x="339.065059" xlink:href="#C0_0_adc2096298" y="150.509194"/>
    </g>
    <g clip-path="url(#pcea233c040)">
     <use style="fill:#ff8000;stroke:#000000;" x="215.605251" xlink:href="#C0_0_adc2096298" y="135.80737"/>
    </g>
    <g clip-path="url(#pcea233c040)">
     <use style="fill:#ff8000;stroke:#000000;" x="224.525537" xlink:href="#C0_0_adc2096298" y="144.878802"/>
    </g>
    <g clip-path="url(#pcea233c040)">
     <use style="fill:#1e90ff;stroke:#000000;" x="177.130094" xlink:href="#C0_0_adc2096298" y="96.003058"/>
    </g>
    <g clip-path="url(#pcea233c040)">
     <use style="fill:#ff8000;stroke:#000000;" x="213.396067" xlink:href="#C0_0_adc2096298" y="152.735893"/>
    </g>
    <g clip-path="url(#pcea233c040)">
     <use style="fill:#1e90ff;stroke:#000000;" x="315.945347" xlink:href="#C0_0_adc2096298" y="130.520055"/>
    </g>
    <g clip-path="url(#pcea233c040)">
     <use style="fill:#ff8000;stroke:#000000;" x="230.156842" xlink:href="#C0_0_adc2096298" y="141.44048"/>
    </g>
    <g clip-path="url(#pcea233c040)">
     <use style="fill:#1e90ff;stroke:#000000;" x="311.494317" xlink:href="#C0_0_adc2096298" y="98.664352"/>
    </g>
    <g clip-path="url(#pcea233c040)">
     <use style="fill:#1e90ff;stroke:#000000;" x="262.546749" xlink:href="#C0_0_adc2096298" y="81.724019"/>
    </g>
    <g clip-path="url(#pcea233c040)">
     <use style="fill:#ff8000;stroke:#000000;" x="227.484277" xlink:href="#C0_0_adc2096298" y="146.51875"/>
    </g>
    <g clip-path="url(#pcea233c040)">
     <use style="fill:#ff8000;stroke:#000000;" x="225.115985" xlink:href="#C0_0_adc2096298" y="144.187535"/>
    </g>
    <g clip-path="url(#pcea233c040)">
     <use style="fill:#ff8000;stroke:#000000;" x="226.430282" xlink:href="#C0_0_adc2096298" y="136.820087"/>
    </g>
    <g clip-path="url(#pcea233c040)">
     <use style="fill:#1e90ff;stroke:#000000;" x="140.999556" xlink:href="#C0_0_adc2096298" y="118.120964"/>
    </g>
    <g clip-path="url(#pcea233c040)">
     <use style="fill:#ff8000;stroke:#000000;" x="231.626598" xlink:href="#C0_0_adc2096298" y="146.010192"/>
    </g>
    <g clip-path="url(#pcea233c040)">
     <use style="fill:#ff8000;stroke:#000000;" x="219.241746" xlink:href="#C0_0_adc2096298" y="143.282153"/>
    </g>
    <g clip-path="url(#pcea233c040)">
     <use style="fill:#ff8000;stroke:#000000;" x="222.918394" xlink:href="#C0_0_adc2096298" y="145.217364"/>
    </g>
    <g clip-path="url(#pcea233c040)">
     <use style="fill:#ff8000;stroke:#000000;" x="214.118266" xlink:href="#C0_0_adc2096298" y="150.356228"/>
    </g>
    <g clip-path="url(#pcea233c040)">
     <use style="fill:#ff8000;stroke:#000000;" x="223.280451" xlink:href="#C0_0_adc2096298" y="148.035485"/>
    </g>
    <g clip-path="url(#pcea233c040)">
     <use style="fill:#1e90ff;stroke:#000000;" x="335.125853" xlink:href="#C0_0_adc2096298" y="156.716956"/>
    </g>
    <g clip-path="url(#pcea233c040)">
     <use style="fill:#ff8000;stroke:#000000;" x="228.646891" xlink:href="#C0_0_adc2096298" y="150.955"/>
    </g>
    <g clip-path="url(#pcea233c040)">
     <use style="fill:#1e90ff;stroke:#000000;" x="312.403533" xlink:href="#C0_0_adc2096298" y="187.007665"/>
    </g>
    <g clip-path="url(#pcea233c040)">
     <use style="fill:#ff8000;stroke:#000000;" x="217.62271" xlink:href="#C0_0_adc2096298" y="143.808447"/>
    </g>
    <g clip-path="url(#pcea233c040)">
     <use style="fill:#1e90ff;stroke:#000000;" x="204.700477" xlink:href="#C0_0_adc2096298" y="73.926328"/>
    </g>
    <g clip-path="url(#pcea233c040)">
     <use style="fill:#1e90ff;stroke:#000000;" x="261.522902" xlink:href="#C0_0_adc2096298" y="198.126095"/>
    </g>
    <g clip-path="url(#pcea233c040)">
     <use style="fill:#1e90ff;stroke:#000000;" x="211.118004" xlink:href="#C0_0_adc2096298" y="195.148405"/>
    </g>
    <g clip-path="url(#pcea233c040)">
     <use style="fill:#ff8000;stroke:#000000;" x="213.859896" xlink:href="#C0_0_adc2096298" y="149.030411"/>
    </g>
    <g clip-path="url(#pcea233c040)">
     <use style="fill:#1e90ff;stroke:#000000;" x="272.368292" xlink:href="#C0_0_adc2096298" y="88.91561"/>
    </g>
    <g clip-path="url(#pcea233c040)">
     <use style="fill:#1e90ff;stroke:#000000;" x="106.3125" xlink:href="#C0_0_adc2096298" y="124.080376"/>
    </g>
    <g clip-path="url(#pcea233c040)">
     <use style="fill:#1e90ff;stroke:#000000;" x="128.18831" xlink:href="#C0_0_adc2096298" y="111.547837"/>
    </g>
    <g clip-path="url(#pcea233c040)">
     <use style="fill:#1e90ff;stroke:#000000;" x="181.439283" xlink:href="#C0_0_adc2096298" y="98.603944"/>
    </g>
    <g clip-path="url(#pcea233c040)">
     <use style="fill:#1e90ff;stroke:#000000;" x="234.201784" xlink:href="#C0_0_adc2096298" y="200.398497"/>
    </g>
    <g clip-path="url(#pcea233c040)">
     <use style="fill:#1e90ff;stroke:#000000;" x="208.769963" xlink:href="#C0_0_adc2096298" y="198.051218"/>
    </g>
    <g clip-path="url(#pcea233c040)">
     <use style="fill:#ff8000;stroke:#000000;" x="229.317933" xlink:href="#C0_0_adc2096298" y="142.63801"/>
    </g>
    <g clip-path="url(#pcea233c040)">
     <use style="fill:#1e90ff;stroke:#000000;" x="142.359641" xlink:href="#C0_0_adc2096298" y="87.912713"/>
    </g>
    <g clip-path="url(#pcea233c040)">
     <use style="fill:#ff8000;stroke:#000000;" x="229.457981" xlink:href="#C0_0_adc2096298" y="138.190849"/>
    </g>
    <g clip-path="url(#pcea233c040)">
     <use style="fill:#ff8000;stroke:#000000;" x="229.314831" xlink:href="#C0_0_adc2096298" y="145.597757"/>
    </g>
    <g clip-path="url(#pcea233c040)">
     <use style="fill:#ff8000;stroke:#000000;" x="224.433816" xlink:href="#C0_0_adc2096298" y="143.065475"/>
    </g>
    <g clip-path="url(#pcea233c040)">
     <use style="fill:#ff8000;stroke:#000000;" x="215.260475" xlink:href="#C0_0_adc2096298" y="145.28386"/>
    </g>
    <g clip-path="url(#pcea233c040)">
     <use style="fill:#1e90ff;stroke:#000000;" x="226.960201" xlink:href="#C0_0_adc2096298" y="80.145577"/>
    </g>
    <g clip-path="url(#pcea233c040)">
     <use style="fill:#ff8000;stroke:#000000;" x="218.883465" xlink:href="#C0_0_adc2096298" y="131.006548"/>
    </g>
    <g clip-path="url(#pcea233c040)">
     <use style="fill:#ff8000;stroke:#000000;" x="227.766911" xlink:href="#C0_0_adc2096298" y="143.523223"/>
    </g>
    <g clip-path="url(#pcea233c040)">
     <use style="fill:#1e90ff;stroke:#000000;" x="145.354505" xlink:href="#C0_0_adc2096298" y="149.369808"/>
    </g>
    <g clip-path="url(#pcea233c040)">
     <use style="fill:#1e90ff;stroke:#000000;" x="129.614274" xlink:href="#C0_0_adc2096298" y="107.013311"/>
    </g>
    <g clip-path="url(#pcea233c040)">
     <use style="fill:#1e90ff;stroke:#000000;" x="151.088593" xlink:href="#C0_0_adc2096298" y="100.259899"/>
    </g>
    <g clip-path="url(#pcea233c040)">
     <use style="fill:#1e90ff;stroke:#000000;" x="280.855128" xlink:href="#C0_0_adc2096298" y="96.240792"/>
    </g>
    <g clip-path="url(#pcea233c040)">
     <use style="fill:#1e90ff;stroke:#000000;" x="230.642378" xlink:href="#C0_0_adc2096298" y="214.974689"/>
    </g>
    <g clip-path="url(#pcea233c040)">
     <use style="fill:#1e90ff;stroke:#000000;" x="114.905772" xlink:href="#C0_0_adc2096298" y="108.441794"/>
    </g>
    <g clip-path="url(#pcea233c040)">
     <use style="fill:#ff8000;stroke:#000000;" x="229.871326" xlink:href="#C0_0_adc2096298" y="146.862291"/>
    </g>
    <g clip-path="url(#pcea233c040)">
     <use style="fill:#1e90ff;stroke:#000000;" x="274.322554" xlink:href="#C0_0_adc2096298" y="82.89243"/>
    </g>
    <g clip-path="url(#pcea233c040)">
     <use style="fill:#1e90ff;stroke:#000000;" x="160.056041" xlink:href="#C0_0_adc2096298" y="96.676858"/>
    </g>
    <g clip-path="url(#pcea233c040)">
     <use style="fill:#1e90ff;stroke:#000000;" x="132.702046" xlink:href="#C0_0_adc2096298" y="182.115572"/>
    </g>
    <g clip-path="url(#pcea233c040)">
     <use style="fill:#1e90ff;stroke:#000000;" x="316.123379" xlink:href="#C0_0_adc2096298" y="111.51937"/>
    </g>
    <g clip-path="url(#pcea233c040)">
     <use style="fill:#ff8000;stroke:#000000;" x="229.740197" xlink:href="#C0_0_adc2096298" y="132.949665"/>
    </g>
    <g clip-path="url(#pcea233c040)">
     <use style="fill:#1e90ff;stroke:#000000;" x="129.891832" xlink:href="#C0_0_adc2096298" y="102.38103"/>
    </g>
    <g clip-path="url(#pcea233c040)">
     <use style="fill:#1e90ff;stroke:#000000;" x="200.731342" xlink:href="#C0_0_adc2096298" y="63.470312"/>
    </g>
    <g clip-path="url(#pcea233c040)">
     <use style="fill:#ff8000;stroke:#000000;" x="222.583353" xlink:href="#C0_0_adc2096298" y="137.220082"/>
    </g>
    <g clip-path="url(#pcea233c040)">
     <use style="fill:#1e90ff;stroke:#000000;" x="308.66456" xlink:href="#C0_0_adc2096298" y="195.861718"/>
    </g>
    <g clip-path="url(#pcea233c040)">
     <use style="fill:#1e90ff;stroke:#000000;" x="262.468073" xlink:href="#C0_0_adc2096298" y="77.562187"/>
    </g>
    <g clip-path="url(#pcea233c040)">
     <use style="fill:#ff8000;stroke:#000000;" x="223.850355" xlink:href="#C0_0_adc2096298" y="147.487694"/>
    </g>
    <g clip-path="url(#pcea233c040)">
     <use style="fill:#ff8000;stroke:#000000;" x="226.601557" xlink:href="#C0_0_adc2096298" y="140.27315"/>
    </g>
    <g clip-path="url(#pcea233c040)">
     <use style="fill:#1e90ff;stroke:#000000;" x="202.74471" xlink:href="#C0_0_adc2096298" y="69.682425"/>
    </g>
    <g clip-path="url(#pcea233c040)">
     <use style="fill:#ff8000;stroke:#000000;" x="218.470291" xlink:href="#C0_0_adc2096298" y="151.176062"/>
    </g>
    <g clip-path="url(#pcea233c040)">
     <use style="fill:#ff8000;stroke:#000000;" x="230.539667" xlink:href="#C0_0_adc2096298" y="143.79348"/>
    </g>
    <g clip-path="url(#pcea233c040)">
     <use style="fill:#1e90ff;stroke:#000000;" x="311.907172" xlink:href="#C0_0_adc2096298" y="114.530538"/>
    </g>
    <g clip-path="url(#pcea233c040)">
     <use style="fill:#1e90ff;stroke:#000000;" x="169.052918" xlink:href="#C0_0_adc2096298" y="210.86663"/>
    </g>
    <g clip-path="url(#pcea233c040)">
     <use style="fill:#ff8000;stroke:#000000;" x="215.247042" xlink:href="#C0_0_adc2096298" y="148.40827"/>
    </g>
    <g clip-path="url(#pcea233c040)">
     <use style="fill:#ff8000;stroke:#000000;" x="218.946848" xlink:href="#C0_0_adc2096298" y="144.035349"/>
    </g>
    <g clip-path="url(#pcea233c040)">
     <use style="fill:#1e90ff;stroke:#000000;" x="330.186095" xlink:href="#C0_0_adc2096298" y="151.676137"/>
    </g>
    <g clip-path="url(#pcea233c040)">
     <use style="fill:#ff8000;stroke:#000000;" x="222.232331" xlink:href="#C0_0_adc2096298" y="143.883558"/>
    </g>
    <g clip-path="url(#pcea233c040)">
     <use style="fill:#ff8000;stroke:#000000;" x="223.860639" xlink:href="#C0_0_adc2096298" y="143.713902"/>
    </g>
    <g clip-path="url(#pcea233c040)">
     <use style="fill:#ff8000;stroke:#000000;" x="222.62254" xlink:href="#C0_0_adc2096298" y="150.250911"/>
    </g>
    <g clip-path="url(#pcea233c040)">
     <use style="fill:#1e90ff;stroke:#000000;" x="150.732225" xlink:href="#C0_0_adc2096298" y="168.183936"/>
    </g>
    <g clip-path="url(#pcea233c040)">
     <use style="fill:#ff8000;stroke:#000000;" x="218.064213" xlink:href="#C0_0_adc2096298" y="147.405334"/>
    </g>
    <g clip-path="url(#pcea233c040)">
     <use style="fill:#1e90ff;stroke:#000000;" x="216.494357" xlink:href="#C0_0_adc2096298" y="217.491205"/>
    </g>
    <g clip-path="url(#pcea233c040)">
     <use style="fill:#1e90ff;stroke:#000000;" x="243.987134" xlink:href="#C0_0_adc2096298" y="87.080032"/>
    </g>
    <g clip-path="url(#pcea233c040)">
     <use style="fill:#ff8000;stroke:#000000;" x="213.818008" xlink:href="#C0_0_adc2096298" y="143.256976"/>
    </g>
    <g clip-path="url(#pcea233c040)">
     <use style="fill:#ff8000;stroke:#000000;" x="224.170185" xlink:href="#C0_0_adc2096298" y="138.465511"/>
    </g>
    <g clip-path="url(#pcea233c040)">
     <use style="fill:#1e90ff;stroke:#000000;" x="196.705936" xlink:href="#C0_0_adc2096298" y="89.640266"/>
    </g>
    <g clip-path="url(#pcea233c040)">
     <use style="fill:#1e90ff;stroke:#000000;" x="256.870638" xlink:href="#C0_0_adc2096298" y="76.002419"/>
    </g>
    <g clip-path="url(#pcea233c040)">
     <use style="fill:#ff8000;stroke:#000000;" x="219.792647" xlink:href="#C0_0_adc2096298" y="151.931647"/>
    </g>
    <g clip-path="url(#pcea233c040)">
     <use style="fill:#1e90ff;stroke:#000000;" x="219.789192" xlink:href="#C0_0_adc2096298" y="87.117867"/>
    </g>
    <g clip-path="url(#pcea233c040)">
     <use style="fill:#ff8000;stroke:#000000;" x="234.354789" xlink:href="#C0_0_adc2096298" y="145.945981"/>
    </g>
    <g clip-path="url(#pcea233c040)">
     <use style="fill:#ff8000;stroke:#000000;" x="224.947583" xlink:href="#C0_0_adc2096298" y="142.707491"/>
    </g>
   </g>
   <g id="matplotlib.axis_1">
    <g id="xtick_1">
     <g id="line2d_1">
      <defs>
       <path d="M 0 0 
L 0 3.5 
" id="m5f24f69106" style="stroke:#000000;stroke-width:0.8;"/>
      </defs>
      <g>
       <use style="stroke:#000000;stroke-width:0.8;" x="66.831387" xlink:href="#m5f24f69106" y="252"/>
      </g>
     </g>
     <g id="text_1">
      <!-- 1.5 -->
      <g transform="translate(54.68998 266.598437)scale(0.1 -0.1)">
       <defs>
        <path d="M 10.59375 35.5 
L 73.1875 35.5 
L 73.1875 27.203125 
L 10.59375 27.203125 
z
" id="DejaVuSans-8722"/>
        <path d="M 12.40625 8.296875 
L 28.515625 8.296875 
L 28.515625 63.921875 
L 10.984375 60.40625 
L 10.984375 69.390625 
L 28.421875 72.90625 
L 38.28125 72.90625 
L 38.28125 8.296875 
L 54.390625 8.296875 
L 54.390625 0 
L 12.40625 0 
z
" id="DejaVuSans-49"/>
        <path d="M 10.6875 12.40625 
L 21 12.40625 
L 21 0 
L 10.6875 0 
z
" id="DejaVuSans-46"/>
        <path d="M 10.796875 72.90625 
L 49.515625 72.90625 
L 49.515625 64.59375 
L 19.828125 64.59375 
L 19.828125 46.734375 
Q 21.96875 47.46875 24.109375 47.828125 
Q 26.265625 48.1875 28.421875 48.1875 
Q 40.625 48.1875 47.75 41.5 
Q 54.890625 34.8125 54.890625 23.390625 
Q 54.890625 11.625 47.5625 5.09375 
Q 40.234375 -1.421875 26.90625 -1.421875 
Q 22.3125 -1.421875 17.546875 -0.640625 
Q 12.796875 0.140625 7.71875 1.703125 
L 7.71875 11.625 
Q 12.109375 9.234375 16.796875 8.0625 
Q 21.484375 6.890625 26.703125 6.890625 
Q 35.15625 6.890625 40.078125 11.328125 
Q 45.015625 15.765625 45.015625 23.390625 
Q 45.015625 31 40.078125 35.4375 
Q 35.15625 39.890625 26.703125 39.890625 
Q 22.75 39.890625 18.8125 39.015625 
Q 14.890625 38.140625 10.796875 36.28125 
z
" id="DejaVuSans-53"/>
       </defs>
       <use xlink:href="#DejaVuSans-8722"/>
       <use x="83.789062" xlink:href="#DejaVuSans-49"/>
       <use x="147.412109" xlink:href="#DejaVuSans-46"/>
       <use x="179.199219" xlink:href="#DejaVuSans-53"/>
      </g>
     </g>
    </g>
    <g id="xtick_2">
     <g id="line2d_2">
      <g>
       <use style="stroke:#000000;stroke-width:0.8;" x="119.143887" xlink:href="#m5f24f69106" y="252"/>
      </g>
     </g>
     <g id="text_2">
      <!-- 1.0 -->
      <g transform="translate(107.00248 266.598437)scale(0.1 -0.1)">
       <defs>
        <path d="M 31.78125 66.40625 
Q 24.171875 66.40625 20.328125 58.90625 
Q 16.5 51.421875 16.5 36.375 
Q 16.5 21.390625 20.328125 13.890625 
Q 24.171875 6.390625 31.78125 6.390625 
Q 39.453125 6.390625 43.28125 13.890625 
Q 47.125 21.390625 47.125 36.375 
Q 47.125 51.421875 43.28125 58.90625 
Q 39.453125 66.40625 31.78125 66.40625 
z
M 31.78125 74.21875 
Q 44.046875 74.21875 50.515625 64.515625 
Q 56.984375 54.828125 56.984375 36.375 
Q 56.984375 17.96875 50.515625 8.265625 
Q 44.046875 -1.421875 31.78125 -1.421875 
Q 19.53125 -1.421875 13.0625 8.265625 
Q 6.59375 17.96875 6.59375 36.375 
Q 6.59375 54.828125 13.0625 64.515625 
Q 19.53125 74.21875 31.78125 74.21875 
z
" id="DejaVuSans-48"/>
       </defs>
       <use xlink:href="#DejaVuSans-8722"/>
       <use x="83.789062" xlink:href="#DejaVuSans-49"/>
       <use x="147.412109" xlink:href="#DejaVuSans-46"/>
       <use x="179.199219" xlink:href="#DejaVuSans-48"/>
      </g>
     </g>
    </g>
    <g id="xtick_3">
     <g id="line2d_3">
      <g>
       <use style="stroke:#000000;stroke-width:0.8;" x="171.456387" xlink:href="#m5f24f69106" y="252"/>
      </g>
     </g>
     <g id="text_3">
      <!-- 0.5 -->
      <g transform="translate(159.31498 266.598437)scale(0.1 -0.1)">
       <use xlink:href="#DejaVuSans-8722"/>
       <use x="83.789062" xlink:href="#DejaVuSans-48"/>
       <use x="147.412109" xlink:href="#DejaVuSans-46"/>
       <use x="179.199219" xlink:href="#DejaVuSans-53"/>
      </g>
     </g>
    </g>
    <g id="xtick_4">
     <g id="line2d_4">
      <g>
       <use style="stroke:#000000;stroke-width:0.8;" x="223.768887" xlink:href="#m5f24f69106" y="252"/>
      </g>
     </g>
     <g id="text_4">
      <!-- 0.0 -->
      <g transform="translate(215.817324 266.598437)scale(0.1 -0.1)">
       <use xlink:href="#DejaVuSans-48"/>
       <use x="63.623047" xlink:href="#DejaVuSans-46"/>
       <use x="95.410156" xlink:href="#DejaVuSans-48"/>
      </g>
     </g>
    </g>
    <g id="xtick_5">
     <g id="line2d_5">
      <g>
       <use style="stroke:#000000;stroke-width:0.8;" x="276.081387" xlink:href="#m5f24f69106" y="252"/>
      </g>
     </g>
     <g id="text_5">
      <!-- 0.5 -->
      <g transform="translate(268.129824 266.598437)scale(0.1 -0.1)">
       <use xlink:href="#DejaVuSans-48"/>
       <use x="63.623047" xlink:href="#DejaVuSans-46"/>
       <use x="95.410156" xlink:href="#DejaVuSans-53"/>
      </g>
     </g>
    </g>
    <g id="xtick_6">
     <g id="line2d_6">
      <g>
       <use style="stroke:#000000;stroke-width:0.8;" x="328.393887" xlink:href="#m5f24f69106" y="252"/>
      </g>
     </g>
     <g id="text_6">
      <!-- 1.0 -->
      <g transform="translate(320.442324 266.598437)scale(0.1 -0.1)">
       <use xlink:href="#DejaVuSans-49"/>
       <use x="63.623047" xlink:href="#DejaVuSans-46"/>
       <use x="95.410156" xlink:href="#DejaVuSans-48"/>
      </g>
     </g>
    </g>
    <g id="xtick_7">
     <g id="line2d_7">
      <g>
       <use style="stroke:#000000;stroke-width:0.8;" x="380.706387" xlink:href="#m5f24f69106" y="252"/>
      </g>
     </g>
     <g id="text_7">
      <!-- 1.5 -->
      <g transform="translate(372.754824 266.598437)scale(0.1 -0.1)">
       <use xlink:href="#DejaVuSans-49"/>
       <use x="63.623047" xlink:href="#DejaVuSans-46"/>
       <use x="95.410156" xlink:href="#DejaVuSans-53"/>
      </g>
     </g>
    </g>
    <g id="text_8">
     <!-- X_0 -->
     <g transform="translate(212.29375 280.1)scale(0.1 -0.1)">
      <defs>
       <path d="M 6.296875 72.90625 
L 16.890625 72.90625 
L 35.015625 45.796875 
L 53.21875 72.90625 
L 63.8125 72.90625 
L 40.375 37.890625 
L 65.375 0 
L 54.78125 0 
L 34.28125 31 
L 13.625 0 
L 2.984375 0 
L 29 38.921875 
z
" id="DejaVuSans-88"/>
       <path d="M 50.984375 -16.609375 
L 50.984375 -23.578125 
L -0.984375 -23.578125 
L -0.984375 -16.609375 
z
" id="DejaVuSans-95"/>
      </defs>
      <use xlink:href="#DejaVuSans-88"/>
      <use x="68.505859" xlink:href="#DejaVuSans-95"/>
      <use x="118.505859" xlink:href="#DejaVuSans-48"/>
     </g>
    </g>
   </g>
   <g id="matplotlib.axis_2">
    <g id="ytick_1">
     <g id="line2d_8">
      <defs>
       <path d="M 0 0 
L -3.5 0 
" id="mdc9b8b7fa2" style="stroke:#000000;stroke-width:0.8;"/>
      </defs>
      <g>
       <use style="stroke:#000000;stroke-width:0.8;" x="54" xlink:href="#mdc9b8b7fa2" y="241.758232"/>
      </g>
     </g>
     <g id="text_9">
      <!-- 1.5 -->
      <g transform="translate(22.717187 245.55745)scale(0.1 -0.1)">
       <use xlink:href="#DejaVuSans-8722"/>
       <use x="83.789062" xlink:href="#DejaVuSans-49"/>
       <use x="147.412109" xlink:href="#DejaVuSans-46"/>
       <use x="179.199219" xlink:href="#DejaVuSans-53"/>
      </g>
     </g>
    </g>
    <g id="ytick_2">
     <g id="line2d_9">
      <g>
       <use style="stroke:#000000;stroke-width:0.8;" x="54" xlink:href="#mdc9b8b7fa2" y="208.812777"/>
      </g>
     </g>
     <g id="text_10">
      <!-- 1.0 -->
      <g transform="translate(22.717187 212.611996)scale(0.1 -0.1)">
       <use xlink:href="#DejaVuSans-8722"/>
       <use x="83.789062" xlink:href="#DejaVuSans-49"/>
       <use x="147.412109" xlink:href="#DejaVuSans-46"/>
       <use x="179.199219" xlink:href="#DejaVuSans-48"/>
      </g>
     </g>
    </g>
    <g id="ytick_3">
     <g id="line2d_10">
      <g>
       <use style="stroke:#000000;stroke-width:0.8;" x="54" xlink:href="#mdc9b8b7fa2" y="175.867323"/>
      </g>
     </g>
     <g id="text_11">
      <!-- 0.5 -->
      <g transform="translate(22.717187 179.666541)scale(0.1 -0.1)">
       <use xlink:href="#DejaVuSans-8722"/>
       <use x="83.789062" xlink:href="#DejaVuSans-48"/>
       <use x="147.412109" xlink:href="#DejaVuSans-46"/>
       <use x="179.199219" xlink:href="#DejaVuSans-53"/>
      </g>
     </g>
    </g>
    <g id="ytick_4">
     <g id="line2d_11">
      <g>
       <use style="stroke:#000000;stroke-width:0.8;" x="54" xlink:href="#mdc9b8b7fa2" y="142.921868"/>
      </g>
     </g>
     <g id="text_12">
      <!-- 0.0 -->
      <g transform="translate(31.096875 146.721087)scale(0.1 -0.1)">
       <use xlink:href="#DejaVuSans-48"/>
       <use x="63.623047" xlink:href="#DejaVuSans-46"/>
       <use x="95.410156" xlink:href="#DejaVuSans-48"/>
      </g>
     </g>
    </g>
    <g id="ytick_5">
     <g id="line2d_12">
      <g>
       <use style="stroke:#000000;stroke-width:0.8;" x="54" xlink:href="#mdc9b8b7fa2" y="109.976414"/>
      </g>
     </g>
     <g id="text_13">
      <!-- 0.5 -->
      <g transform="translate(31.096875 113.775632)scale(0.1 -0.1)">
       <use xlink:href="#DejaVuSans-48"/>
       <use x="63.623047" xlink:href="#DejaVuSans-46"/>
       <use x="95.410156" xlink:href="#DejaVuSans-53"/>
      </g>
     </g>
    </g>
    <g id="ytick_6">
     <g id="line2d_13">
      <g>
       <use style="stroke:#000000;stroke-width:0.8;" x="54" xlink:href="#mdc9b8b7fa2" y="77.030959"/>
      </g>
     </g>
     <g id="text_14">
      <!-- 1.0 -->
      <g transform="translate(31.096875 80.830178)scale(0.1 -0.1)">
       <use xlink:href="#DejaVuSans-49"/>
       <use x="63.623047" xlink:href="#DejaVuSans-46"/>
       <use x="95.410156" xlink:href="#DejaVuSans-48"/>
      </g>
     </g>
    </g>
    <g id="ytick_7">
     <g id="line2d_14">
      <g>
       <use style="stroke:#000000;stroke-width:0.8;" x="54" xlink:href="#mdc9b8b7fa2" y="44.085504"/>
      </g>
     </g>
     <g id="text_15">
      <!-- 1.5 -->
      <g transform="translate(31.096875 47.884723)scale(0.1 -0.1)">
       <use xlink:href="#DejaVuSans-49"/>
       <use x="63.623047" xlink:href="#DejaVuSans-46"/>
       <use x="95.410156" xlink:href="#DejaVuSans-53"/>
      </g>
     </g>
    </g>
    <g id="text_16">
     <!-- X_1 -->
     <g transform="translate(16.359375 152.38625)rotate(-90)scale(0.1 -0.1)">
      <use xlink:href="#DejaVuSans-88"/>
      <use x="68.505859" xlink:href="#DejaVuSans-95"/>
      <use x="118.505859" xlink:href="#DejaVuSans-49"/>
     </g>
    </g>
   </g>
   <g id="patch_3">
    <path d="M 54 252 
L 54 34.56 
" style="fill:none;stroke:#000000;stroke-linecap:square;stroke-linejoin:miter;stroke-width:0.8;"/>
   </g>
   <g id="patch_4">
    <path d="M 388.8 252 
L 388.8 34.56 
" style="fill:none;stroke:#000000;stroke-linecap:square;stroke-linejoin:miter;stroke-width:0.8;"/>
   </g>
   <g id="patch_5">
    <path d="M 54 252 
L 388.8 252 
" style="fill:none;stroke:#000000;stroke-linecap:square;stroke-linejoin:miter;stroke-width:0.8;"/>
   </g>
   <g id="patch_6">
    <path d="M 54 34.56 
L 388.8 34.56 
" style="fill:none;stroke:#000000;stroke-linecap:square;stroke-linejoin:miter;stroke-width:0.8;"/>
   </g>
   <g id="text_17">
    <!-- Problem 1, depth 2 -->
    <g transform="translate(164.145 28.56)scale(0.12 -0.12)">
     <defs>
      <path d="M 19.671875 64.796875 
L 19.671875 37.40625 
L 32.078125 37.40625 
Q 38.96875 37.40625 42.71875 40.96875 
Q 46.484375 44.53125 46.484375 51.125 
Q 46.484375 57.671875 42.71875 61.234375 
Q 38.96875 64.796875 32.078125 64.796875 
z
M 9.8125 72.90625 
L 32.078125 72.90625 
Q 44.34375 72.90625 50.609375 67.359375 
Q 56.890625 61.8125 56.890625 51.125 
Q 56.890625 40.328125 50.609375 34.8125 
Q 44.34375 29.296875 32.078125 29.296875 
L 19.671875 29.296875 
L 19.671875 0 
L 9.8125 0 
z
" id="DejaVuSans-80"/>
      <path d="M 41.109375 46.296875 
Q 39.59375 47.171875 37.8125 47.578125 
Q 36.03125 48 33.890625 48 
Q 26.265625 48 22.1875 43.046875 
Q 18.109375 38.09375 18.109375 28.8125 
L 18.109375 0 
L 9.078125 0 
L 9.078125 54.6875 
L 18.109375 54.6875 
L 18.109375 46.1875 
Q 20.953125 51.171875 25.484375 53.578125 
Q 30.03125 56 36.53125 56 
Q 37.453125 56 38.578125 55.875 
Q 39.703125 55.765625 41.0625 55.515625 
z
" id="DejaVuSans-114"/>
      <path d="M 30.609375 48.390625 
Q 23.390625 48.390625 19.1875 42.75 
Q 14.984375 37.109375 14.984375 27.296875 
Q 14.984375 17.484375 19.15625 11.84375 
Q 23.34375 6.203125 30.609375 6.203125 
Q 37.796875 6.203125 41.984375 11.859375 
Q 46.1875 17.53125 46.1875 27.296875 
Q 46.1875 37.015625 41.984375 42.703125 
Q 37.796875 48.390625 30.609375 48.390625 
z
M 30.609375 56 
Q 42.328125 56 49.015625 48.375 
Q 55.71875 40.765625 55.71875 27.296875 
Q 55.71875 13.875 49.015625 6.21875 
Q 42.328125 -1.421875 30.609375 -1.421875 
Q 18.84375 -1.421875 12.171875 6.21875 
Q 5.515625 13.875 5.515625 27.296875 
Q 5.515625 40.765625 12.171875 48.375 
Q 18.84375 56 30.609375 56 
z
" id="DejaVuSans-111"/>
      <path d="M 48.6875 27.296875 
Q 48.6875 37.203125 44.609375 42.84375 
Q 40.53125 48.484375 33.40625 48.484375 
Q 26.265625 48.484375 22.1875 42.84375 
Q 18.109375 37.203125 18.109375 27.296875 
Q 18.109375 17.390625 22.1875 11.75 
Q 26.265625 6.109375 33.40625 6.109375 
Q 40.53125 6.109375 44.609375 11.75 
Q 48.6875 17.390625 48.6875 27.296875 
z
M 18.109375 46.390625 
Q 20.953125 51.265625 25.265625 53.625 
Q 29.59375 56 35.59375 56 
Q 45.5625 56 51.78125 48.09375 
Q 58.015625 40.1875 58.015625 27.296875 
Q 58.015625 14.40625 51.78125 6.484375 
Q 45.5625 -1.421875 35.59375 -1.421875 
Q 29.59375 -1.421875 25.265625 0.953125 
Q 20.953125 3.328125 18.109375 8.203125 
L 18.109375 0 
L 9.078125 0 
L 9.078125 75.984375 
L 18.109375 75.984375 
z
" id="DejaVuSans-98"/>
      <path d="M 9.421875 75.984375 
L 18.40625 75.984375 
L 18.40625 0 
L 9.421875 0 
z
" id="DejaVuSans-108"/>
      <path d="M 56.203125 29.59375 
L 56.203125 25.203125 
L 14.890625 25.203125 
Q 15.484375 15.921875 20.484375 11.0625 
Q 25.484375 6.203125 34.421875 6.203125 
Q 39.59375 6.203125 44.453125 7.46875 
Q 49.3125 8.734375 54.109375 11.28125 
L 54.109375 2.78125 
Q 49.265625 0.734375 44.1875 -0.34375 
Q 39.109375 -1.421875 33.890625 -1.421875 
Q 20.796875 -1.421875 13.15625 6.1875 
Q 5.515625 13.8125 5.515625 26.8125 
Q 5.515625 40.234375 12.765625 48.109375 
Q 20.015625 56 32.328125 56 
Q 43.359375 56 49.78125 48.890625 
Q 56.203125 41.796875 56.203125 29.59375 
z
M 47.21875 32.234375 
Q 47.125 39.59375 43.09375 43.984375 
Q 39.0625 48.390625 32.421875 48.390625 
Q 24.90625 48.390625 20.390625 44.140625 
Q 15.875 39.890625 15.1875 32.171875 
z
" id="DejaVuSans-101"/>
      <path d="M 52 44.1875 
Q 55.375 50.25 60.0625 53.125 
Q 64.75 56 71.09375 56 
Q 79.640625 56 84.28125 50.015625 
Q 88.921875 44.046875 88.921875 33.015625 
L 88.921875 0 
L 79.890625 0 
L 79.890625 32.71875 
Q 79.890625 40.578125 77.09375 44.375 
Q 74.3125 48.1875 68.609375 48.1875 
Q 61.625 48.1875 57.5625 43.546875 
Q 53.515625 38.921875 53.515625 30.90625 
L 53.515625 0 
L 44.484375 0 
L 44.484375 32.71875 
Q 44.484375 40.625 41.703125 44.40625 
Q 38.921875 48.1875 33.109375 48.1875 
Q 26.21875 48.1875 22.15625 43.53125 
Q 18.109375 38.875 18.109375 30.90625 
L 18.109375 0 
L 9.078125 0 
L 9.078125 54.6875 
L 18.109375 54.6875 
L 18.109375 46.1875 
Q 21.1875 51.21875 25.484375 53.609375 
Q 29.78125 56 35.6875 56 
Q 41.65625 56 45.828125 52.96875 
Q 50 49.953125 52 44.1875 
z
" id="DejaVuSans-109"/>
      <path id="DejaVuSans-32"/>
      <path d="M 11.71875 12.40625 
L 22.015625 12.40625 
L 22.015625 4 
L 14.015625 -11.625 
L 7.71875 -11.625 
L 11.71875 4 
z
" id="DejaVuSans-44"/>
      <path d="M 45.40625 46.390625 
L 45.40625 75.984375 
L 54.390625 75.984375 
L 54.390625 0 
L 45.40625 0 
L 45.40625 8.203125 
Q 42.578125 3.328125 38.25 0.953125 
Q 33.9375 -1.421875 27.875 -1.421875 
Q 17.96875 -1.421875 11.734375 6.484375 
Q 5.515625 14.40625 5.515625 27.296875 
Q 5.515625 40.1875 11.734375 48.09375 
Q 17.96875 56 27.875 56 
Q 33.9375 56 38.25 53.625 
Q 42.578125 51.265625 45.40625 46.390625 
z
M 14.796875 27.296875 
Q 14.796875 17.390625 18.875 11.75 
Q 22.953125 6.109375 30.078125 6.109375 
Q 37.203125 6.109375 41.296875 11.75 
Q 45.40625 17.390625 45.40625 27.296875 
Q 45.40625 37.203125 41.296875 42.84375 
Q 37.203125 48.484375 30.078125 48.484375 
Q 22.953125 48.484375 18.875 42.84375 
Q 14.796875 37.203125 14.796875 27.296875 
z
" id="DejaVuSans-100"/>
      <path d="M 18.109375 8.203125 
L 18.109375 -20.796875 
L 9.078125 -20.796875 
L 9.078125 54.6875 
L 18.109375 54.6875 
L 18.109375 46.390625 
Q 20.953125 51.265625 25.265625 53.625 
Q 29.59375 56 35.59375 56 
Q 45.5625 56 51.78125 48.09375 
Q 58.015625 40.1875 58.015625 27.296875 
Q 58.015625 14.40625 51.78125 6.484375 
Q 45.5625 -1.421875 35.59375 -1.421875 
Q 29.59375 -1.421875 25.265625 0.953125 
Q 20.953125 3.328125 18.109375 8.203125 
z
M 48.6875 27.296875 
Q 48.6875 37.203125 44.609375 42.84375 
Q 40.53125 48.484375 33.40625 48.484375 
Q 26.265625 48.484375 22.1875 42.84375 
Q 18.109375 37.203125 18.109375 27.296875 
Q 18.109375 17.390625 22.1875 11.75 
Q 26.265625 6.109375 33.40625 6.109375 
Q 40.53125 6.109375 44.609375 11.75 
Q 48.6875 17.390625 48.6875 27.296875 
z
" id="DejaVuSans-112"/>
      <path d="M 18.3125 70.21875 
L 18.3125 54.6875 
L 36.8125 54.6875 
L 36.8125 47.703125 
L 18.3125 47.703125 
L 18.3125 18.015625 
Q 18.3125 11.328125 20.140625 9.421875 
Q 21.96875 7.515625 27.59375 7.515625 
L 36.8125 7.515625 
L 36.8125 0 
L 27.59375 0 
Q 17.1875 0 13.234375 3.875 
Q 9.28125 7.765625 9.28125 18.015625 
L 9.28125 47.703125 
L 2.6875 47.703125 
L 2.6875 54.6875 
L 9.28125 54.6875 
L 9.28125 70.21875 
z
" id="DejaVuSans-116"/>
      <path d="M 54.890625 33.015625 
L 54.890625 0 
L 45.90625 0 
L 45.90625 32.71875 
Q 45.90625 40.484375 42.875 44.328125 
Q 39.84375 48.1875 33.796875 48.1875 
Q 26.515625 48.1875 22.3125 43.546875 
Q 18.109375 38.921875 18.109375 30.90625 
L 18.109375 0 
L 9.078125 0 
L 9.078125 75.984375 
L 18.109375 75.984375 
L 18.109375 46.1875 
Q 21.34375 51.125 25.703125 53.5625 
Q 30.078125 56 35.796875 56 
Q 45.21875 56 50.046875 50.171875 
Q 54.890625 44.34375 54.890625 33.015625 
z
" id="DejaVuSans-104"/>
      <path d="M 19.1875 8.296875 
L 53.609375 8.296875 
L 53.609375 0 
L 7.328125 0 
L 7.328125 8.296875 
Q 12.9375 14.109375 22.625 23.890625 
Q 32.328125 33.6875 34.8125 36.53125 
Q 39.546875 41.84375 41.421875 45.53125 
Q 43.3125 49.21875 43.3125 52.78125 
Q 43.3125 58.59375 39.234375 62.25 
Q 35.15625 65.921875 28.609375 65.921875 
Q 23.96875 65.921875 18.8125 64.3125 
Q 13.671875 62.703125 7.8125 59.421875 
L 7.8125 69.390625 
Q 13.765625 71.78125 18.9375 73 
Q 24.125 74.21875 28.421875 74.21875 
Q 39.75 74.21875 46.484375 68.546875 
Q 53.21875 62.890625 53.21875 53.421875 
Q 53.21875 48.921875 51.53125 44.890625 
Q 49.859375 40.875 45.40625 35.40625 
Q 44.1875 33.984375 37.640625 27.21875 
Q 31.109375 20.453125 19.1875 8.296875 
z
" id="DejaVuSans-50"/>
     </defs>
     <use xlink:href="#DejaVuSans-80"/>
     <use x="58.552734" xlink:href="#DejaVuSans-114"/>
     <use x="97.416016" xlink:href="#DejaVuSans-111"/>
     <use x="158.597656" xlink:href="#DejaVuSans-98"/>
     <use x="222.074219" xlink:href="#DejaVuSans-108"/>
     <use x="249.857422" xlink:href="#DejaVuSans-101"/>
     <use x="311.380859" xlink:href="#DejaVuSans-109"/>
     <use x="408.792969" xlink:href="#DejaVuSans-32"/>
     <use x="440.580078" xlink:href="#DejaVuSans-49"/>
     <use x="504.203125" xlink:href="#DejaVuSans-44"/>
     <use x="535.990234" xlink:href="#DejaVuSans-32"/>
     <use x="567.777344" xlink:href="#DejaVuSans-100"/>
     <use x="631.253906" xlink:href="#DejaVuSans-101"/>
     <use x="692.777344" xlink:href="#DejaVuSans-112"/>
     <use x="756.253906" xlink:href="#DejaVuSans-116"/>
     <use x="795.462891" xlink:href="#DejaVuSans-104"/>
     <use x="858.841797" xlink:href="#DejaVuSans-32"/>
     <use x="890.628906" xlink:href="#DejaVuSans-50"/>
    </g>
   </g>
  </g>
 </g>
 <defs>
  <clipPath id="pcea233c040">
   <rect height="217.44" width="334.8" x="54" y="34.56"/>
  </clipPath>
 </defs>
</svg>
